<svg width="1920" height="683" fill="none" xmlns="http://www.w3.org/2000/svg"><g opacity=".1"><path d="M354.009 414.957a4.756 4.756 0 014.75-4.761 4.756 4.756 0 014.751 4.761 4.756 4.756 0 01-4.751 4.761c-2.594 0-4.75-2.132-4.75-4.761z" fill="url(#paint0_linear_4_315)"/><path d="M359.575 307.041h-1.574v105.141h1.574V307.041z" fill="url(#paint1_linear_4_315)"/><path d="M138.502 285.487a4.757 4.757 0 014.751-4.76 4.757 4.757 0 014.751 4.76 4.757 4.757 0 01-4.751 4.761 4.757 4.757 0 01-4.751-4.761z" fill="url(#paint2_linear_4_315)"/><path d="M144.04 177.572h-1.574v105.17h1.574v-105.17z" fill="url(#paint3_linear_4_315)"/><path d="M197.552 173.6a4.757 4.757 0 014.751-4.761 4.757 4.757 0 014.751 4.761 4.757 4.757 0 01-4.751 4.76 4.757 4.757 0 01-4.751-4.76z" fill="url(#paint4_linear_4_315)"/><path d="M203.119 65.684h-1.574v105.141h1.574V65.685z" fill="url(#paint5_linear_4_315)"/><path d="M245.002 197.753a4.757 4.757 0 014.751-4.761 4.757 4.757 0 014.751 4.761 4.757 4.757 0 01-4.751 4.761c-2.594.029-4.751-2.103-4.751-4.761z" fill="url(#paint6_linear_4_315)"/><path d="M250.569 89.867h-1.574v105.17h1.574V89.867z" fill="url(#paint7_linear_4_315)"/><path d="M322.414 469.251a4.757 4.757 0 014.751-4.761 4.757 4.757 0 014.751 4.761 4.757 4.757 0 01-4.751 4.76 4.757 4.757 0 01-4.751-4.76z" fill="url(#paint8_linear_4_315)"/><path d="M327.981 361.335h-1.574v105.141h1.574V361.335z" fill="url(#paint9_linear_4_315)"/><path d="M395.95 163.027a4.757 4.757 0 014.751-4.76 4.757 4.757 0 014.751 4.76 4.757 4.757 0 01-4.751 4.761 4.757 4.757 0 01-4.751-4.761z" fill="url(#paint10_linear_4_315)"/><path d="M401.488 55.14h-1.574v105.142h1.574V55.141z" fill="url(#paint11_linear_4_315)"/><path d="M264.822 158.354a4.756 4.756 0 014.751-4.76 4.756 4.756 0 014.75 4.76 4.756 4.756 0 01-4.75 4.761 4.756 4.756 0 01-4.751-4.761z" fill="url(#paint12_linear_4_315)"/><path d="M270.389 103.038h-1.574v52.571h1.574v-52.571z" fill="url(#paint13_linear_4_315)"/><path d="M444.012 422.667a4.757 4.757 0 014.751-4.76 4.757 4.757 0 014.751 4.76 4.757 4.757 0 01-4.751 4.761c-2.594 0-4.751-2.132-4.751-4.761z" fill="url(#paint14_linear_4_315)"/><path d="M449.579 367.322h-1.574v52.571h1.574v-52.571z" fill="url(#paint15_linear_4_315)"/><path d="M105.888 55.316a4.757 4.757 0 014.751-4.76 4.757 4.757 0 014.751 4.76 4.757 4.757 0 01-4.751 4.76c-2.594 0-4.751-2.132-4.751-4.76z" fill="url(#paint16_linear_4_315)"/><path d="M111.455 0h-1.574v52.57h1.574V0z" fill="url(#paint17_linear_4_315)"/><path d="M170.679 144.102a4.757 4.757 0 014.751-4.761 4.757 4.757 0 014.751 4.761 4.757 4.757 0 01-4.751 4.76 4.757 4.757 0 01-4.751-4.76z" fill="url(#paint18_linear_4_315)"/><path d="M176.246 88.757h-1.574v52.57h1.574v-52.57z" fill="url(#paint19_linear_4_315)"/><path d="M324.28 71.262a4.756 4.756 0 014.75-4.76 4.757 4.757 0 014.751 4.76 4.757 4.757 0 01-4.751 4.76c-2.594.03-4.75-2.131-4.75-4.76z" fill="url(#paint20_linear_4_315)"/><path d="M329.847 15.947h-1.574v52.57h1.574v-52.57z" fill="url(#paint21_linear_4_315)"/><path d="M258.176 455.991a4.757 4.757 0 014.751-4.76 4.757 4.757 0 014.751 4.76 4.757 4.757 0 01-4.751 4.761 4.757 4.757 0 01-4.751-4.761z" fill="url(#paint22_linear_4_315)"/><path d="M263.714 348.076h-1.574v105.17h1.574v-105.17z" fill="url(#paint23_linear_4_315)"/><path d="M97.086 265.686a4.757 4.757 0 014.751-4.761 4.756 4.756 0 014.75 4.761 4.756 4.756 0 01-4.75 4.76 4.757 4.757 0 01-4.751-4.76z" fill="url(#paint24_linear_4_315)"/><path d="M102.653 157.799h-1.574v105.142h1.574V157.799z" fill="url(#paint25_linear_4_315)"/><path d="M394.901 400.179a4.756 4.756 0 014.75-4.761 4.756 4.756 0 014.751 4.761 4.756 4.756 0 01-4.751 4.76c-2.623.03-4.75-2.102-4.75-4.76z" fill="url(#paint26_linear_4_315)"/><path d="M400.438 292.292h-1.573v105.171h1.573V292.292z" fill="url(#paint27_linear_4_315)"/><path d="M0 228.448a4.756 4.756 0 014.75-4.76 4.756 4.756 0 014.752 4.76 4.757 4.757 0 01-4.751 4.761A4.757 4.757 0 010 228.448z" fill="url(#paint28_linear_4_315)"/><path d="M5.538 120.533H3.964v105.17h1.574v-105.17z" fill="url(#paint29_linear_4_315)"/><path d="M165.929 665.105a4.756 4.756 0 014.751-4.76 4.756 4.756 0 014.75 4.76 4.756 4.756 0 01-4.75 4.761c-2.624.029-4.751-2.132-4.751-4.761z" fill="url(#paint30_linear_4_315)"/><path d="M171.466 299.535h-1.573V662.36h1.573V299.535z" fill="url(#paint31_linear_4_315)"/><path d="M58.234 645.829a4.756 4.756 0 014.75-4.76 4.756 4.756 0 014.752 4.76 4.757 4.757 0 01-4.751 4.761c-2.623.029-4.75-2.103-4.75-4.761z" fill="url(#paint32_linear_4_315)"/><path d="M63.8 86.186h-1.573v556.927h1.574V86.186z" fill="url(#paint33_linear_4_315)"/><path d="M367.387 457.364a4.756 4.756 0 014.751-4.76 4.756 4.756 0 014.75 4.76 4.756 4.756 0 01-4.75 4.761 4.756 4.756 0 01-4.751-4.761z" fill="url(#paint34_linear_4_315)"/><path d="M372.925 91.794h-1.574V454.62h1.574V91.794z" fill="url(#paint35_linear_4_315)"/><path d="M239.406 563.703a4.757 4.757 0 014.751-4.761 4.757 4.757 0 014.751 4.761 4.757 4.757 0 01-4.751 4.76c-2.623.029-4.751-2.132-4.751-4.76z" fill="url(#paint36_linear_4_315)"/><path d="M244.973 198.162h-1.574v362.824h1.574V198.162z" fill="url(#paint37_linear_4_315)"/><path d="M45.701 534.468a4.757 4.757 0 014.751-4.761 4.757 4.757 0 014.75 4.761 4.756 4.756 0 01-4.75 4.76 4.756 4.756 0 01-4.75-4.76z" fill="url(#paint38_linear_4_315)"/><path d="M51.239 168.898h-1.574v362.824h1.574V168.898z" fill="url(#paint39_linear_4_315)"/><path d="M339.99 282.275a4.756 4.756 0 014.75-4.761 4.757 4.757 0 014.751 4.761 4.757 4.757 0 01-4.751 4.76c-2.623.03-4.75-2.102-4.75-4.76z" fill="url(#paint40_linear_4_315)"/><path d="M345.556 78.797h-1.574V279.53h1.574V78.798z" fill="url(#paint41_linear_4_315)"/><path d="M128.563 389.168a4.757 4.757 0 014.751-4.76 4.757 4.757 0 014.751 4.76 4.757 4.757 0 01-4.751 4.761 4.757 4.757 0 01-4.751-4.761z" fill="url(#paint42_linear_4_315)"/><path d="M134.13 185.691h-1.574v200.732h1.574V185.691z" fill="url(#paint43_linear_4_315)"/><path d="M1688.53 465.279c0-2.628 2.13-4.76 4.75-4.76 2.63 0 4.75 2.132 4.75 4.76a4.752 4.752 0 01-4.75 4.761c-2.62.029-4.75-2.132-4.75-4.761z" fill="url(#paint44_linear_4_315)"/><path d="M1694.07 389.227h-1.57v73.336h1.57v-73.336z" fill="url(#paint45_linear_4_315)"/><path d="M1565.97 358.794c0-2.628 2.13-4.76 4.75-4.76 2.63 0 4.75 2.132 4.75 4.76a4.752 4.752 0 01-4.75 4.761 4.758 4.758 0 01-4.75-4.761z" fill="url(#paint46_linear_4_315)"/><path d="M1571.51 166.24h-1.57v189.809h1.57V166.24z" fill="url(#paint47_linear_4_315)"/><path d="M1909.55 387.796c0-2.628 2.13-4.76 4.75-4.76s4.75 2.132 4.75 4.76a4.758 4.758 0 01-4.75 4.761 4.758 4.758 0 01-4.75-4.761z" fill="url(#paint48_linear_4_315)"/><path d="M1915.09 195.242h-1.58v189.809h1.58V195.242z" fill="url(#paint49_linear_4_315)"/><path d="M1511.79 194.687a4.758 4.758 0 014.75-4.761c2.62 0 4.75 2.132 4.75 4.761 0 2.628-2.13 4.76-4.75 4.76-2.59.03-4.75-2.102-4.75-4.76z" fill="url(#paint50_linear_4_315)"/><path d="M1517.36 86.8h-1.58v105.171h1.58V86.801z" fill="url(#paint51_linear_4_315)"/><path d="M1658.89 277.573a4.759 4.759 0 014.75-4.761c2.63 0 4.75 2.133 4.75 4.761a4.752 4.752 0 01-4.75 4.761c-2.62.029-4.75-2.132-4.75-4.761z" fill="url(#paint52_linear_4_315)"/><path d="M1664.43 169.687h-1.58v105.17h1.58v-105.17z" fill="url(#paint53_linear_4_315)"/><path d="M1850.91 242.029c0-2.628 2.12-4.76 4.75-4.76 2.62 0 4.75 2.132 4.75 4.76a4.758 4.758 0 01-4.75 4.761c-2.63.029-4.75-2.103-4.75-4.761z" fill="url(#paint54_linear_4_315)"/><path d="M1856.47 134.143h-1.57v105.141h1.57V134.143z" fill="url(#paint55_linear_4_315)"/><path d="M1809.29 285.868a4.752 4.752 0 014.75-4.761c2.62 0 4.75 2.132 4.75 4.761 0 2.628-2.13 4.76-4.75 4.76a4.751 4.751 0 01-4.75-4.76z" fill="url(#paint56_linear_4_315)"/><path d="M1814.85 177.981h-1.57v105.17h1.57v-105.17z" fill="url(#paint57_linear_4_315)"/><path d="M1644.93 365.483a4.758 4.758 0 014.75-4.761c2.62 0 4.75 2.132 4.75 4.761 0 2.628-2.13 4.76-4.75 4.76-2.62.029-4.75-2.132-4.75-4.76z" fill="url(#paint58_linear_4_315)"/><path d="M1650.5 165.51h-1.58v197.227h1.58V165.51z" fill="url(#paint59_linear_4_315)"/><path d="M1672.59 329.326a4.758 4.758 0 014.75-4.761c2.62 0 4.75 2.132 4.75 4.761 0 2.628-2.13 4.76-4.75 4.76a4.758 4.758 0 01-4.75-4.76z" fill="url(#paint60_linear_4_315)"/><path d="M1678.16 169.132h-1.58v157.449h1.58V169.132z" fill="url(#paint61_linear_4_315)"/><path d="M1604.8 538.469a4.752 4.752 0 014.75-4.761c2.62 0 4.75 2.133 4.75 4.761a4.758 4.758 0 01-4.75 4.761c-2.6 0-4.75-2.132-4.75-4.761z" fill="url(#paint62_linear_4_315)"/><path d="M1610.36 172.899h-1.57v362.825h1.57V172.899z" fill="url(#paint63_linear_4_315)"/><path d="M1743.39 380.933a4.752 4.752 0 014.75-4.761c2.62 0 4.75 2.132 4.75 4.761 0 2.628-2.13 4.76-4.75 4.76a4.751 4.751 0 01-4.75-4.76z" fill="url(#paint64_linear_4_315)"/><path d="M1748.95 15.363h-1.57v362.824h1.57V15.363z" fill="url(#paint65_linear_4_315)"/><path d="M1815.52 401.231a4.758 4.758 0 014.75-4.761c2.63 0 4.75 2.132 4.75 4.761 0 2.628-2.12 4.76-4.75 4.76a4.758 4.758 0 01-4.75-4.76z" fill="url(#paint66_linear_4_315)"/><path d="M1821.06 35.66h-1.57v362.825h1.57V35.661z" fill="url(#paint67_linear_4_315)"/><path d="M1524.41 618.347a4.758 4.758 0 014.75-4.761c2.63 0 4.75 2.132 4.75 4.761a4.752 4.752 0 01-4.75 4.761c-2.59 0-4.75-2.132-4.75-4.761z" fill="url(#paint68_linear_4_315)"/><path d="M1529.98 252.777h-1.58v362.825h1.58V252.777z" fill="url(#paint69_linear_4_315)"/><path d="M1905.82 319.892h-1.58v362.825h1.58V319.892z" fill="url(#paint70_linear_4_315)"/><path d="M1828.46 474.625c0-2.628 2.13-4.76 4.75-4.76 2.63 0 4.75 2.132 4.75 4.76a4.752 4.752 0 01-4.75 4.761 4.758 4.758 0 01-4.75-4.761z" fill="url(#paint71_linear_4_315)"/><path d="M1834.03 109.055h-1.57V471.88h1.57V109.055z" fill="url(#paint72_linear_4_315)"/><path d="M1462.24 521.384a4.758 4.758 0 014.75-4.761c2.63 0 4.75 2.132 4.75 4.761 0 2.628-2.12 4.76-4.75 4.76-2.62.029-4.75-2.103-4.75-4.76z" fill="url(#paint73_linear_4_315)"/><path d="M1467.78 317.906h-1.57v200.732h1.57V317.906z" fill="url(#paint74_linear_4_315)"/><path d="M1544.14 302.632a4.758 4.758 0 014.75-4.761c2.63 0 4.75 2.132 4.75 4.761 0 2.628-2.12 4.76-4.75 4.76-2.62.03-4.75-2.102-4.75-4.76z" fill="url(#paint75_linear_4_315)"/><path d="M1549.71 154.529h-1.57v145.387h1.57V154.529z" fill="url(#paint76_linear_4_315)"/><path d="M1803.16 559.205a4.76 4.76 0 014.76-4.76c2.62 0 4.75 2.132 4.75 4.76a4.758 4.758 0 01-4.75 4.761 4.76 4.76 0 01-4.76-4.761z" fill="url(#paint77_linear_4_315)"/><path d="M1808.73 355.699h-1.57v200.732h1.57V355.699z" fill="url(#paint78_linear_4_315)"/></g><defs><linearGradient id="paint0_linear_4_315" x1="358.78" y1="388.153" x2="358.78" y2="305.407" gradientUnits="userSpaceOnUse"><stop stop-color="#A4FFFF"/><stop offset="1" stop-color="#A4FFFF" stop-opacity="0"/></linearGradient><linearGradient id="paint1_linear_4_315" x1="358.783" y1="388.152" x2="358.783" y2="305.408" gradientUnits="userSpaceOnUse"><stop stop-color="#A4FFFF"/><stop offset="1" stop-color="#A4FFFF" stop-opacity="0"/></linearGradient><linearGradient id="paint2_linear_4_315" x1="143.253" y1="258.681" x2="143.253" y2="175.91" gradientUnits="userSpaceOnUse"><stop stop-color="#A4FFFF"/><stop offset="1" stop-color="#A4FFFF" stop-opacity="0"/></linearGradient><linearGradient id="paint3_linear_4_315" x1="143.253" y1="258.69" x2="143.253" y2="175.943" gradientUnits="userSpaceOnUse"><stop stop-color="#A4FFFF"/><stop offset="1" stop-color="#A4FFFF" stop-opacity="0"/></linearGradient><linearGradient id="paint4_linear_4_315" x1="202.322" y1="146.804" x2="202.322" y2="64.058" gradientUnits="userSpaceOnUse"><stop stop-color="#A4FFFF"/><stop offset="1" stop-color="#A4FFFF" stop-opacity="0"/></linearGradient><linearGradient id="paint5_linear_4_315" x1="202.322" y1="146.803" x2="202.322" y2="64.059" gradientUnits="userSpaceOnUse"><stop stop-color="#A4FFFF"/><stop offset="1" stop-color="#A4FFFF" stop-opacity="0"/></linearGradient><linearGradient id="paint6_linear_4_315" x1="249.775" y1="170.97" x2="249.775" y2="88.222" gradientUnits="userSpaceOnUse"><stop stop-color="#A4FFFF"/><stop offset="1" stop-color="#A4FFFF" stop-opacity="0"/></linearGradient><linearGradient id="paint7_linear_4_315" x1="249.776" y1="170.971" x2="249.776" y2="88.225" gradientUnits="userSpaceOnUse"><stop stop-color="#A4FFFF"/><stop offset="1" stop-color="#A4FFFF" stop-opacity="0"/></linearGradient><linearGradient id="paint8_linear_4_315" x1="327.182" y1="442.458" x2="327.182" y2="359.735" gradientUnits="userSpaceOnUse"><stop stop-color="#A4FFFF"/><stop offset="1" stop-color="#A4FFFF" stop-opacity="0"/></linearGradient><linearGradient id="paint9_linear_4_315" x1="327.183" y1="442.451" x2="327.183" y2="359.707" gradientUnits="userSpaceOnUse"><stop stop-color="#A4FFFF"/><stop offset="1" stop-color="#A4FFFF" stop-opacity="0"/></linearGradient><linearGradient id="paint10_linear_4_315" x1="400.702" y1="136.234" x2="400.702" y2="53.489" gradientUnits="userSpaceOnUse"><stop stop-color="#A4FFFF"/><stop offset="1" stop-color="#A4FFFF" stop-opacity="0"/></linearGradient><linearGradient id="paint11_linear_4_315" x1="400.701" y1="136.233" x2="400.701" y2="53.489" gradientUnits="userSpaceOnUse"><stop stop-color="#A4FFFF"/><stop offset="1" stop-color="#A4FFFF" stop-opacity="0"/></linearGradient><linearGradient id="paint12_linear_4_315" x1="269.586" y1="131.566" x2="269.586" y2="48.82" gradientUnits="userSpaceOnUse"><stop stop-color="#A4FFFF"/><stop offset="1" stop-color="#A4FFFF" stop-opacity="0"/></linearGradient><linearGradient id="paint13_linear_4_315" x1="269.587" y1="143.591" x2="269.587" y2="102.219" gradientUnits="userSpaceOnUse"><stop stop-color="#A4FFFF"/><stop offset="1" stop-color="#A4FFFF" stop-opacity="0"/></linearGradient><linearGradient id="paint14_linear_4_315" x1="448.785" y1="395.863" x2="448.785" y2="313.117" gradientUnits="userSpaceOnUse"><stop stop-color="#A4FFFF"/><stop offset="1" stop-color="#A4FFFF" stop-opacity="0"/></linearGradient><linearGradient id="paint15_linear_4_315" x1="448.785" y1="407.888" x2="448.785" y2="366.516" gradientUnits="userSpaceOnUse"><stop stop-color="#A4FFFF"/><stop offset="1" stop-color="#A4FFFF" stop-opacity="0"/></linearGradient><linearGradient id="paint16_linear_4_315" x1="110.663" y1="28.526" x2="110.663" y2="-54.219" gradientUnits="userSpaceOnUse"><stop stop-color="#A4FFFF"/><stop offset="1" stop-color="#A4FFFF" stop-opacity="0"/></linearGradient><linearGradient id="paint17_linear_4_315" x1="110.661" y1="40.552" x2="110.661" y2="-.821" gradientUnits="userSpaceOnUse"><stop stop-color="#A4FFFF"/><stop offset="1" stop-color="#A4FFFF" stop-opacity="0"/></linearGradient><linearGradient id="paint18_linear_4_315" x1="175.45" y1="117.289" x2="175.45" y2="34.519" gradientUnits="userSpaceOnUse"><stop stop-color="#A4FFFF"/><stop offset="1" stop-color="#A4FFFF" stop-opacity="0"/></linearGradient><linearGradient id="paint19_linear_4_315" x1="175.45" y1="129.325" x2="175.45" y2="87.952" gradientUnits="userSpaceOnUse"><stop stop-color="#A4FFFF"/><stop offset="1" stop-color="#A4FFFF" stop-opacity="0"/></linearGradient><linearGradient id="paint20_linear_4_315" x1="329.053" y1="44.475" x2="329.053" y2="-38.27" gradientUnits="userSpaceOnUse"><stop stop-color="#A4FFFF"/><stop offset="1" stop-color="#A4FFFF" stop-opacity="0"/></linearGradient><linearGradient id="paint21_linear_4_315" x1="329.056" y1="56.5" x2="329.056" y2="15.131" gradientUnits="userSpaceOnUse"><stop stop-color="#A4FFFF"/><stop offset="1" stop-color="#A4FFFF" stop-opacity="0"/></linearGradient><linearGradient id="paint22_linear_4_315" x1="262.94" y1="429.196" x2="262.94" y2="346.45" gradientUnits="userSpaceOnUse"><stop stop-color="#A4FFFF"/><stop offset="1" stop-color="#A4FFFF" stop-opacity="0"/></linearGradient><linearGradient id="paint23_linear_4_315" x1="262.938" y1="429.196" x2="262.938" y2="346.451" gradientUnits="userSpaceOnUse"><stop stop-color="#A4FFFF"/><stop offset="1" stop-color="#A4FFFF" stop-opacity="0"/></linearGradient><linearGradient id="paint24_linear_4_315" x1="101.852" y1="238.891" x2="101.852" y2="156.145" gradientUnits="userSpaceOnUse"><stop stop-color="#A4FFFF"/><stop offset="1" stop-color="#A4FFFF" stop-opacity="0"/></linearGradient><linearGradient id="paint25_linear_4_315" x1="101.85" y1="238.892" x2="101.85" y2="156.149" gradientUnits="userSpaceOnUse"><stop stop-color="#A4FFFF"/><stop offset="1" stop-color="#A4FFFF" stop-opacity="0"/></linearGradient><linearGradient id="paint26_linear_4_315" x1="399.659" y1="373.39" x2="399.659" y2="290.619" gradientUnits="userSpaceOnUse"><stop stop-color="#A4FFFF"/><stop offset="1" stop-color="#A4FFFF" stop-opacity="0"/></linearGradient><linearGradient id="paint27_linear_4_315" x1="399.66" y1="373.397" x2="399.66" y2="290.653" gradientUnits="userSpaceOnUse"><stop stop-color="#A4FFFF"/><stop offset="1" stop-color="#A4FFFF" stop-opacity="0"/></linearGradient><linearGradient id="paint28_linear_4_315" x1="4.76" y1="201.642" x2="4.76" y2="118.897" gradientUnits="userSpaceOnUse"><stop stop-color="#A4FFFF"/><stop offset="1" stop-color="#A4FFFF" stop-opacity="0"/></linearGradient><linearGradient id="paint29_linear_4_315" x1="4.762" y1="201.643" x2="4.762" y2="118.897" gradientUnits="userSpaceOnUse"><stop stop-color="#A4FFFF"/><stop offset="1" stop-color="#A4FFFF" stop-opacity="0"/></linearGradient><linearGradient id="paint30_linear_4_315" x1="170.689" y1="618.443" x2="170.689" y2="471.081" gradientUnits="userSpaceOnUse"><stop stop-color="#A4FFFF"/><stop offset="1" stop-color="#A4FFFF" stop-opacity="0"/></linearGradient><linearGradient id="paint31_linear_4_315" x1="170.691" y1="581.57" x2="170.691" y2="310.491" gradientUnits="userSpaceOnUse"><stop stop-color="#A4FFFF"/><stop offset="1" stop-color="#A4FFFF" stop-opacity="0"/></linearGradient><linearGradient id="paint32_linear_4_315" x1="63.002" y1="599.175" x2="63.002" y2="451.812" gradientUnits="userSpaceOnUse"><stop stop-color="#A4FFFF"/><stop offset="1" stop-color="#A4FFFF" stop-opacity="0"/></linearGradient><linearGradient id="paint33_linear_4_315" x1="63.003" y1="519.077" x2="63.003" y2="102.982" gradientUnits="userSpaceOnUse"><stop stop-color="#A4FFFF"/><stop offset="1" stop-color="#A4FFFF" stop-opacity="0"/></linearGradient><linearGradient id="paint34_linear_4_315" x1="372.135" y1="410.697" x2="372.135" y2="263.335" gradientUnits="userSpaceOnUse"><stop stop-color="#A4FFFF"/><stop offset="1" stop-color="#A4FFFF" stop-opacity="0"/></linearGradient><linearGradient id="paint35_linear_4_315" x1="372.137" y1="373.823" x2="372.137" y2="102.745" gradientUnits="userSpaceOnUse"><stop stop-color="#A4FFFF"/><stop offset="1" stop-color="#A4FFFF" stop-opacity="0"/></linearGradient><linearGradient id="paint36_linear_4_315" x1="244.174" y1="517.042" x2="244.174" y2="369.679" gradientUnits="userSpaceOnUse"><stop stop-color="#A4FFFF"/><stop offset="1" stop-color="#A4FFFF" stop-opacity="0"/></linearGradient><linearGradient id="paint37_linear_4_315" x1="244.175" y1="480.166" x2="244.175" y2="209.089" gradientUnits="userSpaceOnUse"><stop stop-color="#A4FFFF"/><stop offset="1" stop-color="#A4FFFF" stop-opacity="0"/></linearGradient><linearGradient id="paint38_linear_4_315" x1="50.46" y1="487.801" x2="50.46" y2="340.438" gradientUnits="userSpaceOnUse"><stop stop-color="#A4FFFF"/><stop offset="1" stop-color="#A4FFFF" stop-opacity="0"/></linearGradient><linearGradient id="paint39_linear_4_315" x1="50.46" y1="450.928" x2="50.46" y2="179.849" gradientUnits="userSpaceOnUse"><stop stop-color="#A4FFFF"/><stop offset="1" stop-color="#A4FFFF" stop-opacity="0"/></linearGradient><linearGradient id="paint40_linear_4_315" x1="344.754" y1="235.604" x2="344.754" y2="88.196" gradientUnits="userSpaceOnUse"><stop stop-color="#A4FFFF"/><stop offset="1" stop-color="#A4FFFF" stop-opacity="0"/></linearGradient><linearGradient id="paint41_linear_4_315" x1="344.754" y1="234.841" x2="344.754" y2="84.859" gradientUnits="userSpaceOnUse"><stop stop-color="#A4FFFF"/><stop offset="1" stop-color="#A4FFFF" stop-opacity="0"/></linearGradient><linearGradient id="paint42_linear_4_315" x1="133.329" y1="342.504" x2="133.329" y2="195.186" gradientUnits="userSpaceOnUse"><stop stop-color="#A4FFFF"/><stop offset="1" stop-color="#A4FFFF" stop-opacity="0"/></linearGradient><linearGradient id="paint43_linear_4_315" x1="133.329" y1="341.712" x2="133.329" y2="191.732" gradientUnits="userSpaceOnUse"><stop stop-color="#A4FFFF"/><stop offset="1" stop-color="#A4FFFF" stop-opacity="0"/></linearGradient><linearGradient id="paint44_linear_4_315" x1="1693.28" y1="438.506" x2="1693.28" y2="355.786" gradientUnits="userSpaceOnUse"><stop stop-color="#A4FFFF"/><stop offset="1" stop-color="#A4FFFF" stop-opacity="0"/></linearGradient><linearGradient id="paint45_linear_4_315" x1="1693.28" y1="445.775" x2="1693.28" y2="388.071" gradientUnits="userSpaceOnUse"><stop stop-color="#A4FFFF"/><stop offset="1" stop-color="#A4FFFF" stop-opacity="0"/></linearGradient><linearGradient id="paint46_linear_4_315" x1="1570.72" y1="332.003" x2="1570.72" y2="249.257" gradientUnits="userSpaceOnUse"><stop stop-color="#A4FFFF"/><stop offset="1" stop-color="#A4FFFF" stop-opacity="0"/></linearGradient><linearGradient id="paint47_linear_4_315" x1="1570.72" y1="312.644" x2="1570.72" y2="163.293" gradientUnits="userSpaceOnUse"><stop stop-color="#A4FFFF"/><stop offset="1" stop-color="#A4FFFF" stop-opacity="0"/></linearGradient><linearGradient id="paint48_linear_4_315" x1="1914.3" y1="360.983" x2="1914.3" y2="278.212" gradientUnits="userSpaceOnUse"><stop stop-color="#A4FFFF"/><stop offset="1" stop-color="#A4FFFF" stop-opacity="0"/></linearGradient><linearGradient id="paint49_linear_4_315" x1="1914.3" y1="341.632" x2="1914.3" y2="192.276" gradientUnits="userSpaceOnUse"><stop stop-color="#A4FFFF"/><stop offset="1" stop-color="#A4FFFF" stop-opacity="0"/></linearGradient><linearGradient id="paint50_linear_4_315" x1="1516.57" y1="167.906" x2="1516.57" y2="85.16" gradientUnits="userSpaceOnUse"><stop stop-color="#A4FFFF"/><stop offset="1" stop-color="#A4FFFF" stop-opacity="0"/></linearGradient><linearGradient id="paint51_linear_4_315" x1="1516.56" y1="167.906" x2="1516.56" y2="85.161" gradientUnits="userSpaceOnUse"><stop stop-color="#A4FFFF"/><stop offset="1" stop-color="#A4FFFF" stop-opacity="0"/></linearGradient><linearGradient id="paint52_linear_4_315" x1="1663.64" y1="250.775" x2="1663.64" y2="168.004" gradientUnits="userSpaceOnUse"><stop stop-color="#A4FFFF"/><stop offset="1" stop-color="#A4FFFF" stop-opacity="0"/></linearGradient><linearGradient id="paint53_linear_4_315" x1="1663.64" y1="250.782" x2="1663.64" y2="168.037" gradientUnits="userSpaceOnUse"><stop stop-color="#A4FFFF"/><stop offset="1" stop-color="#A4FFFF" stop-opacity="0"/></linearGradient><linearGradient id="paint54_linear_4_315" x1="1855.68" y1="215.25" x2="1855.68" y2="132.504" gradientUnits="userSpaceOnUse"><stop stop-color="#A4FFFF"/><stop offset="1" stop-color="#A4FFFF" stop-opacity="0"/></linearGradient><linearGradient id="paint55_linear_4_315" x1="1855.68" y1="215.248" x2="1855.68" y2="132.505" gradientUnits="userSpaceOnUse"><stop stop-color="#A4FFFF"/><stop offset="1" stop-color="#A4FFFF" stop-opacity="0"/></linearGradient><linearGradient id="paint56_linear_4_315" x1="1814.05" y1="259.079" x2="1814.05" y2="176.333" gradientUnits="userSpaceOnUse"><stop stop-color="#A4FFFF"/><stop offset="1" stop-color="#A4FFFF" stop-opacity="0"/></linearGradient><linearGradient id="paint57_linear_4_315" x1="1814.05" y1="259.079" x2="1814.05" y2="176.334" gradientUnits="userSpaceOnUse"><stop stop-color="#A4FFFF"/><stop offset="1" stop-color="#A4FFFF" stop-opacity="0"/></linearGradient><linearGradient id="paint58_linear_4_315" x1="1649.7" y1="318.821" x2="1649.7" y2="171.458" gradientUnits="userSpaceOnUse"><stop stop-color="#A4FFFF"/><stop offset="1" stop-color="#A4FFFF" stop-opacity="0"/></linearGradient><linearGradient id="paint59_linear_4_315" x1="1649.7" y1="318.823" x2="1649.7" y2="171.462" gradientUnits="userSpaceOnUse"><stop stop-color="#A4FFFF"/><stop offset="1" stop-color="#A4FFFF" stop-opacity="0"/></linearGradient><linearGradient id="paint60_linear_4_315" x1="1677.36" y1="282.65" x2="1677.36" y2="135.288" gradientUnits="userSpaceOnUse"><stop stop-color="#A4FFFF"/><stop offset="1" stop-color="#A4FFFF" stop-opacity="0"/></linearGradient><linearGradient id="paint61_linear_4_315" x1="1677.36" y1="291.508" x2="1677.36" y2="173.867" gradientUnits="userSpaceOnUse"><stop stop-color="#A4FFFF"/><stop offset="1" stop-color="#A4FFFF" stop-opacity="0"/></linearGradient><linearGradient id="paint62_linear_4_315" x1="1609.57" y1="491.803" x2="1609.57" y2="344.44" gradientUnits="userSpaceOnUse"><stop stop-color="#A4FFFF"/><stop offset="1" stop-color="#A4FFFF" stop-opacity="0"/></linearGradient><linearGradient id="paint63_linear_4_315" x1="1609.57" y1="454.927" x2="1609.57" y2="183.848" gradientUnits="userSpaceOnUse"><stop stop-color="#A4FFFF"/><stop offset="1" stop-color="#A4FFFF" stop-opacity="0"/></linearGradient><linearGradient id="paint64_linear_4_315" x1="1748.15" y1="334.247" x2="1748.15" y2="186.839" gradientUnits="userSpaceOnUse"><stop stop-color="#A4FFFF"/><stop offset="1" stop-color="#A4FFFF" stop-opacity="0"/></linearGradient><linearGradient id="paint65_linear_4_315" x1="1748.15" y1="297.383" x2="1748.15" y2="26.305" gradientUnits="userSpaceOnUse"><stop stop-color="#A4FFFF"/><stop offset="1" stop-color="#A4FFFF" stop-opacity="0"/></linearGradient><linearGradient id="paint66_linear_4_315" x1="1820.28" y1="354.55" x2="1820.28" y2="207.147" gradientUnits="userSpaceOnUse"><stop stop-color="#A4FFFF"/><stop offset="1" stop-color="#A4FFFF" stop-opacity="0"/></linearGradient><linearGradient id="paint67_linear_4_315" x1="1820.28" y1="317.69" x2="1820.28" y2="46.609" gradientUnits="userSpaceOnUse"><stop stop-color="#A4FFFF"/><stop offset="1" stop-color="#A4FFFF" stop-opacity="0"/></linearGradient><linearGradient id="paint68_linear_4_315" x1="1529.18" y1="571.68" x2="1529.18" y2="424.318" gradientUnits="userSpaceOnUse"><stop stop-color="#A4FFFF"/><stop offset="1" stop-color="#A4FFFF" stop-opacity="0"/></linearGradient><linearGradient id="paint69_linear_4_315" x1="1529.18" y1="534.804" x2="1529.18" y2="263.728" gradientUnits="userSpaceOnUse"><stop stop-color="#A4FFFF"/><stop offset="1" stop-color="#A4FFFF" stop-opacity="0"/></linearGradient><linearGradient id="paint70_linear_4_315" x1="1905.03" y1="601.917" x2="1905.03" y2="330.837" gradientUnits="userSpaceOnUse"><stop stop-color="#A4FFFF"/><stop offset="1" stop-color="#A4FFFF" stop-opacity="0"/></linearGradient><linearGradient id="paint71_linear_4_315" x1="1833.23" y1="427.965" x2="1833.23" y2="280.647" gradientUnits="userSpaceOnUse"><stop stop-color="#A4FFFF"/><stop offset="1" stop-color="#A4FFFF" stop-opacity="0"/></linearGradient><linearGradient id="paint72_linear_4_315" x1="1833.23" y1="391.076" x2="1833.23" y2="119.997" gradientUnits="userSpaceOnUse"><stop stop-color="#A4FFFF"/><stop offset="1" stop-color="#A4FFFF" stop-opacity="0"/></linearGradient><linearGradient id="paint73_linear_4_315" x1="1467" y1="474.73" x2="1467" y2="327.368" gradientUnits="userSpaceOnUse"><stop stop-color="#A4FFFF"/><stop offset="1" stop-color="#A4FFFF" stop-opacity="0"/></linearGradient><linearGradient id="paint74_linear_4_315" x1="1467" y1="473.949" x2="1467" y2="323.971" gradientUnits="userSpaceOnUse"><stop stop-color="#A4FFFF"/><stop offset="1" stop-color="#A4FFFF" stop-opacity="0"/></linearGradient><linearGradient id="paint75_linear_4_315" x1="1548.91" y1="255.979" x2="1548.91" y2="108.616" gradientUnits="userSpaceOnUse"><stop stop-color="#A4FFFF"/><stop offset="1" stop-color="#A4FFFF" stop-opacity="0"/></linearGradient><linearGradient id="paint76_linear_4_315" x1="1548.91" y1="267.529" x2="1548.91" y2="158.914" gradientUnits="userSpaceOnUse"><stop stop-color="#A4FFFF"/><stop offset="1" stop-color="#A4FFFF" stop-opacity="0"/></linearGradient><linearGradient id="paint77_linear_4_315" x1="1807.94" y1="512.543" x2="1807.94" y2="365.225" gradientUnits="userSpaceOnUse"><stop stop-color="#A4FFFF"/><stop offset="1" stop-color="#A4FFFF" stop-opacity="0"/></linearGradient><linearGradient id="paint78_linear_4_315" x1="1807.94" y1="511.748" x2="1807.94" y2="361.766" gradientUnits="userSpaceOnUse"><stop stop-color="#A4FFFF"/><stop offset="1" stop-color="#A4FFFF" stop-opacity="0"/></linearGradient></defs></svg>