<svg width="1922" height="635" fill="none" xmlns="http://www.w3.org/2000/svg"><g opacity=".6" stroke="#008D93" stroke-miterlimit="10"><g opacity=".5" stroke-width=".25"><path opacity=".5" d="M1 39.95s490.387 317.793 916.289 383.149M1 67.34s484.448 312.573 916.289 355.734M1 94.733s478.509 307.324 916.289 328.341M1 122.124s472.57 302.102 916.289 300.95M1 149.516s466.656 296.879 916.289 273.558M1 176.907s460.717 291.632 916.289 246.167M1 204.299s454.778 286.409 916.289 218.775M1 231.691s448.839 281.161 916.289 191.383M1 259.082s442.9 275.939 916.289 163.991M1 286.5s436.986 270.716 916.289 136.599M1 313.891S432.047 579.36 917.289 423.074M1 341.283s425.108 260.246 916.289 81.791M1 368.674s419.169 254.998 916.289 54.4M1 396.066s413.23 249.776 916.289 27.008M1 423.458s407.316 244.553 916.289-.384M1 450.849s401.377 239.306 916.289-27.775M1 478.241s395.438 234.083 916.289-55.167"/></g><g opacity=".3" stroke-width=".25"><path opacity=".3" d="M1186.83 273.675s232.52-433.454 734.14-207.358M1186.83 273.674s60.62-100.248 184.62-172.644c121.86-71.295 306.35-117.553 549.5-19.865"/><path opacity=".3" d="M1186.83 273.674s62.15-90.341 187.34-154.903c122.85-63.615 309.26-106.034 546.78-22.81"/><path opacity=".3" d="M1186.83 273.675s63.69-80.434 190.05-137.138c123.85-55.935 312.19-94.514 544.07-25.753"/><path opacity=".3" d="M1186.83 273.675s65.23-70.553 192.76-119.372c124.85-48.229 315.08-82.994 541.36-28.671"/><path opacity=".3" d="M1186.83 273.675s66.76-60.646 195.48-101.605c125.84-40.55 318-71.475 538.64-31.616"/><path opacity=".3" d="M1186.83 273.675s68.37-50.483 198.19-83.839c126.92-32.614 320.92-59.955 535.93-34.56"/><path opacity=".3" d="M1186.83 273.674s69.91-40.575 200.93-66.098c127.89-24.908 323.83-48.409 533.21-37.503"/><path opacity=".3" d="M1186.83 273.675s71.42-30.668 203.64-48.332c128.9-17.203 326.73-36.889 530.5-40.422"/><path opacity=".3" d="M1186.83 273.674s72.96-20.786 206.36-30.566c129.86-9.523 329.64-25.369 527.78-43.365"/><path opacity=".3" d="M1186.83 273.675s74.47-10.906 209.07-12.8c130.84-1.843 332.56-13.85 525.07-46.31"/><path opacity=".3" d="M1186.83 273.675s76-1.28 211.78 4.94c131.84 5.581 335.46-2.329 522.36-49.228"/><path opacity=".3" d="M1186.83 273.674s77.54 8.627 214.5 22.707c132.83 13.261 338.37 9.19 519.64-52.172"/><path opacity=".3" d="M1186.83 273.675s79.07 18.508 217.21 40.473c133.84 20.94 341.29 20.71 516.93-55.116"/><path opacity=".3" d="M1186.83 273.674s80.61 28.416 219.92 58.24c134.84 28.62 344.19 32.23 514.22-58.035"/><path opacity=".3" d="M1186.83 273.674s82.15 38.297 222.64 75.98c135.83 36.326 347.1 43.75 511.5-60.978"/><path opacity=".3" d="M1186.83 273.674s83.68 48.204 225.35 93.746c136.83 44.006 350.03 55.296 508.79-63.896"/></g><g opacity=".8" stroke-width=".5"><path opacity=".8" d="M1 239.32s228.733-124.85 731.075 131.428c268.465 136.958 399.075-17.408 528.195-17.075 194.56.487 301.23 198.833 660.68-26.444"/><path opacity=".8" d="M1 261.514s242.941-157.54 740.752 93.311c278.528 138.955 397.508 13.696 532.548 12.928 196.38-.614 309.65 174.897 646.65-36.3"/><path opacity=".8" d="M1 283.709s256.304-188.413 750.454 55.168c288.096 142.001 395.946 44.492 536.906 42.956 198.19-2.151 318.1 150.961 632.64-46.156"/><path opacity=".8" d="M1 305.878s270.23-220.464 760.131 17.024c297.959 144.433 394.389 75.493 541.249 72.985 199.99-3.405 326.55 127 618.62-56.038"/><path opacity=".8" d="M1 328.073S285.233 75.43 770.807 306.979c307.863 146.814 392.823 106.52 545.583 103.013 201.8-4.608 334.97 103.065 604.58-65.893"/><path opacity=".8" d="M1 350.269s298.313-284.976 779.484-59.238C1098.3 440.149 1171.75 428.578 1330.42 424.072c203.59-5.785 343.42 79.103 590.55-75.775"/><path opacity=".8" d="M1 372.438s312.469-317.462 789.161-97.381c327.799 151.345 389.699 168.625 554.279 163.069 205.42-6.911 351.87 55.168 576.53-85.63"/><path opacity=".8" d="M1 394.632s326.677-350.05 798.837-135.499c337.813 153.496 388.143 199.703 558.633 193.099 207.23-8.013 360.32 31.206 562.5-95.513"/><path opacity=".8" d="M1 416.828s340.962-382.74 808.54-173.643c347.87 155.569 386.58 230.807 562.96 223.127 209.02-9.114 368.74 7.27 548.47-105.369"/><path opacity=".8" d="M1 438.997s355.272-415.56 818.216-211.786c357.964 157.566 385.014 261.935 567.314 253.155 210.84-10.163 377.19-16.691 534.44-115.25"/><path opacity=".8" d="M1 461.192s369.608-448.48 827.893-249.904c368.097 159.486 383.457 293.091 571.667 283.184 212.66-11.213 385.63-40.627 520.41-125.106"/><path opacity=".8" d="M1 483.387S385.02 1.908 838.57 195.339c378.26 161.304 381.92 324.271 576.02 313.212 214.47-12.211 394.05-64.588 506.38-134.987"/><path opacity=".8" d="M1 505.556S399.433-8.997 848.246 179.391c388.454 163.044 380.364 355.477 580.344 343.24 216.29-13.21 402.5-88.524 492.36-144.843"/><path opacity=".8" d="M1 527.751s412.871-547.73 856.923-364.309c398.687 164.683 378.827 387.067 584.697 373.269 218.13-13.773 410.95-112.485 478.33-154.725"/><path opacity=".8" d="M1 549.946S428.361-31.013 867.625 147.494C1276.58 313.712 1244.91 565.69 1456.67 550.791 1676.63 535.917 1876.05 414.37 1921 386.21"/><path opacity=".8" d="M1 572.115s442.132-615.006 876.302-440.57c419.548 166.961 375.728 449.3 593.398 433.326 221.77-15.975 427.82-160.382 450.3-174.462"/><path opacity=".8" d="M1 594.31S457.365-53.361 886.978 115.596C1316.59 284.554 1261.14 596.025 1484.7 578.95c223.57-17.075 436.27-184.317 436.27-184.317"/></g><g opacity=".8" stroke-width=".25"><path opacity=".8" d="M1 244.03s228.733-124.85 731.075 131.429c268.465 136.958 399.075-17.408 528.195-17.075 194.56.486 301.23 198.832 660.68-26.445"/><path opacity=".8" d="M1 266.224s242.941-157.54 740.752 93.311c278.528 138.955 397.508 13.696 532.548 12.928 196.38-.614 309.65 174.897 646.65-36.3"/><path opacity=".8" d="M1 288.42s256.304-188.414 750.454 55.167c288.096 142.001 395.946 44.492 536.906 42.956 198.16-2.15 318.07 150.961 632.61-46.156"/><path opacity=".8" d="M1 310.589s270.23-220.464 760.131 17.024c297.959 144.433 394.389 75.493 541.249 72.984 199.99-3.405 326.55 127 618.62-56.037"/><path opacity=".8" d="M1 332.784S285.233 80.141 770.807 311.69c307.863 146.814 392.823 106.52 545.583 103.013 201.8-4.608 334.97 103.064 604.58-65.894"/><path opacity=".8" d="M1 354.979s298.313-284.975 779.484-59.238C1098.3 444.859 1171.75 433.288 1330.42 428.783c203.59-5.786 343.42 79.103 590.55-75.775"/><path opacity=".8" d="M1 377.148s312.469-317.461 789.161-97.381c327.799 151.345 389.699 168.625 554.279 163.07 205.42-6.912 351.87 55.167 576.53-85.631"/><path opacity=".8" d="M1 399.343s326.677-350.05 798.837-135.499c337.813 153.495 388.143 199.703 558.633 193.098 207.23-8.013 360.32 31.206 562.5-95.512"/><path opacity=".8" d="M1 421.538s340.962-382.74 808.54-173.642c347.87 155.569 386.58 230.806 562.96 223.126 209.02-9.113 368.74 7.27 548.47-105.368"/><path opacity=".8" d="M1 443.707s355.272-415.56 818.216-211.786c357.964 157.566 385.014 261.936 567.314 253.155 210.84-10.163 377.19-16.691 534.44-115.25"/><path opacity=".8" d="M1 465.902s369.608-448.48 827.893-249.904c368.097 159.486 383.457 293.091 571.667 283.184 212.66-11.213 385.63-40.627 520.41-125.106"/><path opacity=".8" d="M1 488.097S385.02 6.618 838.57 200.049c378.26 161.304 381.92 324.271 576.02 313.212 214.47-12.211 394.05-64.588 506.38-134.987"/><path opacity=".8" d="M1 510.266S399.433-4.287 848.246 184.101c388.454 163.044 380.364 355.477 580.344 343.24 216.29-13.209 402.5-88.523 492.36-144.843"/><path opacity=".8" d="M1 532.461s412.871-547.73 856.923-364.309c398.687 164.683 378.827 387.067 584.697 373.269 218.13-13.773 410.95-112.485 478.33-154.724"/><path opacity=".8" d="M1 554.656S428.361-26.302 867.625 152.204C1276.58 318.423 1244.91 570.4 1456.67 555.501c219.96-14.873 419.38-136.421 464.33-164.58"/><path opacity=".8" d="M1 576.825s442.132-615.006 876.302-440.57c419.548 166.961 375.728 449.3 593.398 433.326 221.77-15.975 427.82-160.382 450.3-174.462"/><path opacity=".8" d="M1 599.021S457.365-48.651 886.978 120.307C1316.59 289.265 1261.14 600.736 1484.7 583.661c223.57-17.075 436.27-184.318 436.27-184.318"/></g><path d="M1 164.261s249.801 355.81 603.077 362.62C952.974 533.639 1419.43-82.34 1920.97 232.536"/><path d="M1 634.015S324.196 63.578 708.779 46.298c413.251-18.56 542.691 405.14 774.721 477.075 261.91 81.203 437.47-3.276 437.47-3.276"/><path d="M1 115.622s173.873-79.359 367.56-36.684c177.021 38.988 566.034 395.95 756.52 460.794 214.4 72.984 556.33 10.24 795.89-423.239"/><path d="M1 486.484s216.112 112.536 483.629 66.892c229.449-39.142 520.521-372.987 788.491-372.629 257.69.359 425.14 108.927 647.85 403.349"/><path d="M1920.97 179.519s-458.43-354.888-1032.686-15.514C439.01 429.5 344.675 505.095 1 300.58"/><path d="M1920.97 187.813S1462.54-167.075 888.284 172.3C439.01 437.794 344.675 513.39 1 308.874" stroke-width=".25"/></g></svg>