<svg width="458" height="668" fill="none" xmlns="http://www.w3.org/2000/svg"><g opacity=".1"><path d="M226.533 449.917a4.756 4.756 0 014.751-4.761 4.756 4.756 0 014.75 4.761 4.756 4.756 0 01-4.75 4.76c-2.624.03-4.751-2.132-4.751-4.76z" fill="url(#paint0_linear_1_195)"/><path d="M232.07 373.865h-1.574V447.2h1.574v-73.335z" fill="url(#paint1_linear_1_195)"/><path d="M103.974 343.432a4.756 4.756 0 014.75-4.761 4.756 4.756 0 014.751 4.761 4.756 4.756 0 01-4.751 4.76 4.756 4.756 0 01-4.75-4.76z" fill="url(#paint2_linear_1_195)"/><path d="M109.511 150.877h-1.574v189.809h1.574V150.877z" fill="url(#paint3_linear_1_195)"/><path d="M447.548 372.433a4.756 4.756 0 014.751-4.76 4.756 4.756 0 014.75 4.76 4.756 4.756 0 01-4.75 4.761 4.756 4.756 0 01-4.751-4.761z" fill="url(#paint4_linear_1_195)"/><path d="M453.085 179.879h-1.574v189.809h1.574V179.879z" fill="url(#paint5_linear_1_195)"/><path d="M49.79 179.324a4.757 4.757 0 014.751-4.761 4.757 4.757 0 014.751 4.761 4.757 4.757 0 01-4.75 4.761c-2.595.029-4.751-2.103-4.751-4.761z" fill="url(#paint6_linear_1_195)"/><path d="M55.358 71.438h-1.574v105.17h1.574V71.438z" fill="url(#paint7_linear_1_195)"/><path d="M196.891 262.21a4.757 4.757 0 014.751-4.76 4.757 4.757 0 014.751 4.76 4.757 4.757 0 01-4.751 4.761c-2.623.029-4.751-2.132-4.751-4.761z" fill="url(#paint8_linear_1_195)"/><path d="M202.429 154.324h-1.574v105.17h1.574v-105.17z" fill="url(#paint9_linear_1_195)"/><path d="M388.906 226.667a4.757 4.757 0 014.751-4.761 4.756 4.756 0 014.75 4.761 4.756 4.756 0 01-4.75 4.76c-2.623.029-4.751-2.103-4.751-4.76z" fill="url(#paint10_linear_1_195)"/><path d="M394.473 118.78h-1.574v105.141h1.574V118.78z" fill="url(#paint11_linear_1_195)"/><path d="M347.285 270.505a4.757 4.757 0 014.751-4.761 4.757 4.757 0 014.751 4.761 4.757 4.757 0 01-4.751 4.76 4.757 4.757 0 01-4.751-4.76z" fill="url(#paint12_linear_1_195)"/><path d="M352.852 162.618h-1.574v105.171h1.574V162.618z" fill="url(#paint13_linear_1_195)"/><path d="M182.93 350.12a4.758 4.758 0 014.751-4.761 4.758 4.758 0 014.751 4.761 4.757 4.757 0 01-4.751 4.761c-2.623.029-4.751-2.132-4.751-4.761z" fill="url(#paint14_linear_1_195)"/><path d="M188.497 150.147h-1.574v197.228h1.574V150.147z" fill="url(#paint15_linear_1_195)"/><path d="M210.59 313.963a4.757 4.757 0 014.751-4.76 4.756 4.756 0 014.75 4.76 4.756 4.756 0 01-4.75 4.761 4.757 4.757 0 01-4.751-4.761z" fill="url(#paint16_linear_1_195)"/><path d="M216.157 153.769h-1.574v157.449h1.574V153.769z" fill="url(#paint17_linear_1_195)"/><path d="M142.796 523.106a4.757 4.757 0 014.751-4.76 4.757 4.757 0 014.751 4.76 4.757 4.757 0 01-4.751 4.761c-2.594 0-4.751-2.132-4.751-4.761z" fill="url(#paint18_linear_1_195)"/><path d="M148.363 157.536h-1.574v362.825h1.574V157.536z" fill="url(#paint19_linear_1_195)"/><path d="M281.386 365.57a4.756 4.756 0 014.751-4.761 4.756 4.756 0 014.75 4.761 4.756 4.756 0 01-4.75 4.76 4.756 4.756 0 01-4.751-4.76z" fill="url(#paint20_linear_1_195)"/><path d="M286.953 0h-1.574v362.825h1.574V0z" fill="url(#paint21_linear_1_195)"/><path d="M353.522 385.868a4.757 4.757 0 014.751-4.76 4.757 4.757 0 014.751 4.76 4.757 4.757 0 01-4.751 4.761 4.757 4.757 0 01-4.751-4.761z" fill="url(#paint22_linear_1_195)"/><path d="M359.06 20.298h-1.574v362.825h1.574V20.298z" fill="url(#paint23_linear_1_195)"/><path d="M62.411 602.984a4.756 4.756 0 014.75-4.76 4.756 4.756 0 014.752 4.76 4.757 4.757 0 01-4.751 4.761c-2.594 0-4.751-2.132-4.751-4.761z" fill="url(#paint24_linear_1_195)"/><path d="M67.978 237.415h-1.574v362.824h1.574V237.415z" fill="url(#paint25_linear_1_195)"/><path d="M443.817 304.53h-1.574v362.824h1.574V304.53z" fill="url(#paint26_linear_1_195)"/><path d="M366.463 459.263a4.757 4.757 0 014.751-4.761 4.757 4.757 0 014.751 4.761 4.757 4.757 0 01-4.751 4.76 4.757 4.757 0 01-4.751-4.76z" fill="url(#paint27_linear_1_195)"/><path d="M372.03 93.692h-1.574v362.825h1.574V93.692z" fill="url(#paint28_linear_1_195)"/><path d="M.242 506.021a4.757 4.757 0 014.75-4.761 4.757 4.757 0 014.752 4.761 4.756 4.756 0 01-4.751 4.76c-2.623.03-4.75-2.102-4.75-4.76z" fill="url(#paint29_linear_1_195)"/><path d="M5.78 302.543H4.206v200.732H5.78V302.543z" fill="url(#paint30_linear_1_195)"/><path d="M82.143 287.269a4.756 4.756 0 014.75-4.76 4.756 4.756 0 014.752 4.76 4.757 4.757 0 01-4.751 4.761c-2.623.029-4.751-2.103-4.751-4.761z" fill="url(#paint31_linear_1_195)"/><path d="M87.71 139.166h-1.574v145.387h1.574V139.166z" fill="url(#paint32_linear_1_195)"/><path d="M341.165 543.843a4.756 4.756 0 014.75-4.761 4.756 4.756 0 014.751 4.761 4.756 4.756 0 01-4.751 4.76 4.756 4.756 0 01-4.75-4.76z" fill="url(#paint33_linear_1_195)"/><path d="M346.731 340.336h-1.573v200.732h1.573V340.336z" fill="url(#paint34_linear_1_195)"/></g><defs><linearGradient id="paint0_linear_1_195" x1="231.285" y1="423.144" x2="231.285" y2="340.424" gradientUnits="userSpaceOnUse"><stop stop-color="#A4FFFF"/><stop offset="1" stop-color="#A4FFFF" stop-opacity="0"/></linearGradient><linearGradient id="paint1_linear_1_195" x1="231.283" y1="430.413" x2="231.283" y2="372.709" gradientUnits="userSpaceOnUse"><stop stop-color="#A4FFFF"/><stop offset="1" stop-color="#A4FFFF" stop-opacity="0"/></linearGradient><linearGradient id="paint2_linear_1_195" x1="108.725" y1="316.641" x2="108.725" y2="233.895" gradientUnits="userSpaceOnUse"><stop stop-color="#A4FFFF"/><stop offset="1" stop-color="#A4FFFF" stop-opacity="0"/></linearGradient><linearGradient id="paint3_linear_1_195" x1="108.723" y1="297.281" x2="108.723" y2="147.93" gradientUnits="userSpaceOnUse"><stop stop-color="#A4FFFF"/><stop offset="1" stop-color="#A4FFFF" stop-opacity="0"/></linearGradient><linearGradient id="paint4_linear_1_195" x1="452.296" y1="345.62" x2="452.296" y2="262.85" gradientUnits="userSpaceOnUse"><stop stop-color="#A4FFFF"/><stop offset="1" stop-color="#A4FFFF" stop-opacity="0"/></linearGradient><linearGradient id="paint5_linear_1_195" x1="452.295" y1="326.269" x2="452.295" y2="176.913" gradientUnits="userSpaceOnUse"><stop stop-color="#A4FFFF"/><stop offset="1" stop-color="#A4FFFF" stop-opacity="0"/></linearGradient><linearGradient id="paint6_linear_1_195" x1="54.565" y1="152.543" x2="54.565" y2="69.797" gradientUnits="userSpaceOnUse"><stop stop-color="#A4FFFF"/><stop offset="1" stop-color="#A4FFFF" stop-opacity="0"/></linearGradient><linearGradient id="paint7_linear_1_195" x1="54.564" y1="152.544" x2="54.564" y2="69.798" gradientUnits="userSpaceOnUse"><stop stop-color="#A4FFFF"/><stop offset="1" stop-color="#A4FFFF" stop-opacity="0"/></linearGradient><linearGradient id="paint8_linear_1_195" x1="201.64" y1="235.413" x2="201.64" y2="152.642" gradientUnits="userSpaceOnUse"><stop stop-color="#A4FFFF"/><stop offset="1" stop-color="#A4FFFF" stop-opacity="0"/></linearGradient><linearGradient id="paint9_linear_1_195" x1="201.639" y1="235.42" x2="201.639" y2="152.674" gradientUnits="userSpaceOnUse"><stop stop-color="#A4FFFF"/><stop offset="1" stop-color="#A4FFFF" stop-opacity="0"/></linearGradient><linearGradient id="paint10_linear_1_195" x1="393.676" y1="199.887" x2="393.676" y2="117.142" gradientUnits="userSpaceOnUse"><stop stop-color="#A4FFFF"/><stop offset="1" stop-color="#A4FFFF" stop-opacity="0"/></linearGradient><linearGradient id="paint11_linear_1_195" x1="393.678" y1="199.885" x2="393.678" y2="117.142" gradientUnits="userSpaceOnUse"><stop stop-color="#A4FFFF"/><stop offset="1" stop-color="#A4FFFF" stop-opacity="0"/></linearGradient><linearGradient id="paint12_linear_1_195" x1="352.053" y1="243.716" x2="352.053" y2="160.97" gradientUnits="userSpaceOnUse"><stop stop-color="#A4FFFF"/><stop offset="1" stop-color="#A4FFFF" stop-opacity="0"/></linearGradient><linearGradient id="paint13_linear_1_195" x1="352.052" y1="243.716" x2="352.052" y2="160.971" gradientUnits="userSpaceOnUse"><stop stop-color="#A4FFFF"/><stop offset="1" stop-color="#A4FFFF" stop-opacity="0"/></linearGradient><linearGradient id="paint14_linear_1_195" x1="187.698" y1="303.458" x2="187.698" y2="156.096" gradientUnits="userSpaceOnUse"><stop stop-color="#A4FFFF"/><stop offset="1" stop-color="#A4FFFF" stop-opacity="0"/></linearGradient><linearGradient id="paint15_linear_1_195" x1="187.7" y1="303.46" x2="187.7" y2="156.099" gradientUnits="userSpaceOnUse"><stop stop-color="#A4FFFF"/><stop offset="1" stop-color="#A4FFFF" stop-opacity="0"/></linearGradient><linearGradient id="paint16_linear_1_195" x1="215.358" y1="267.288" x2="215.358" y2="119.925" gradientUnits="userSpaceOnUse"><stop stop-color="#A4FFFF"/><stop offset="1" stop-color="#A4FFFF" stop-opacity="0"/></linearGradient><linearGradient id="paint17_linear_1_195" x1="215.36" y1="276.145" x2="215.36" y2="158.505" gradientUnits="userSpaceOnUse"><stop stop-color="#A4FFFF"/><stop offset="1" stop-color="#A4FFFF" stop-opacity="0"/></linearGradient><linearGradient id="paint18_linear_1_195" x1="147.571" y1="476.44" x2="147.571" y2="329.077" gradientUnits="userSpaceOnUse"><stop stop-color="#A4FFFF"/><stop offset="1" stop-color="#A4FFFF" stop-opacity="0"/></linearGradient><linearGradient id="paint19_linear_1_195" x1="147.571" y1="439.564" x2="147.571" y2="168.485" gradientUnits="userSpaceOnUse"><stop stop-color="#A4FFFF"/><stop offset="1" stop-color="#A4FFFF" stop-opacity="0"/></linearGradient><linearGradient id="paint20_linear_1_195" x1="286.15" y1="318.884" x2="286.15" y2="171.476" gradientUnits="userSpaceOnUse"><stop stop-color="#A4FFFF"/><stop offset="1" stop-color="#A4FFFF" stop-opacity="0"/></linearGradient><linearGradient id="paint21_linear_1_195" x1="286.15" y1="282.02" x2="286.15" y2="10.942" gradientUnits="userSpaceOnUse"><stop stop-color="#A4FFFF"/><stop offset="1" stop-color="#A4FFFF" stop-opacity="0"/></linearGradient><linearGradient id="paint22_linear_1_195" x1="358.277" y1="339.187" x2="358.277" y2="191.784" gradientUnits="userSpaceOnUse"><stop stop-color="#A4FFFF"/><stop offset="1" stop-color="#A4FFFF" stop-opacity="0"/></linearGradient><linearGradient id="paint23_linear_1_195" x1="358.276" y1="302.327" x2="358.276" y2="31.247" gradientUnits="userSpaceOnUse"><stop stop-color="#A4FFFF"/><stop offset="1" stop-color="#A4FFFF" stop-opacity="0"/></linearGradient><linearGradient id="paint24_linear_1_195" x1="67.183" y1="556.317" x2="67.183" y2="408.955" gradientUnits="userSpaceOnUse"><stop stop-color="#A4FFFF"/><stop offset="1" stop-color="#A4FFFF" stop-opacity="0"/></linearGradient><linearGradient id="paint25_linear_1_195" x1="67.183" y1="519.441" x2="67.183" y2="248.365" gradientUnits="userSpaceOnUse"><stop stop-color="#A4FFFF"/><stop offset="1" stop-color="#A4FFFF" stop-opacity="0"/></linearGradient><linearGradient id="paint26_linear_1_195" x1="443.034" y1="586.554" x2="443.034" y2="315.475" gradientUnits="userSpaceOnUse"><stop stop-color="#A4FFFF"/><stop offset="1" stop-color="#A4FFFF" stop-opacity="0"/></linearGradient><linearGradient id="paint27_linear_1_195" x1="371.227" y1="412.602" x2="371.227" y2="265.284" gradientUnits="userSpaceOnUse"><stop stop-color="#A4FFFF"/><stop offset="1" stop-color="#A4FFFF" stop-opacity="0"/></linearGradient><linearGradient id="paint28_linear_1_195" x1="371.227" y1="375.713" x2="371.227" y2="104.635" gradientUnits="userSpaceOnUse"><stop stop-color="#A4FFFF"/><stop offset="1" stop-color="#A4FFFF" stop-opacity="0"/></linearGradient><linearGradient id="paint29_linear_1_195" x1="4.997" y1="459.367" x2="4.997" y2="312.005" gradientUnits="userSpaceOnUse"><stop stop-color="#A4FFFF"/><stop offset="1" stop-color="#A4FFFF" stop-opacity="0"/></linearGradient><linearGradient id="paint30_linear_1_195" x1="4.998" y1="458.586" x2="4.998" y2="308.608" gradientUnits="userSpaceOnUse"><stop stop-color="#A4FFFF"/><stop offset="1" stop-color="#A4FFFF" stop-opacity="0"/></linearGradient><linearGradient id="paint31_linear_1_195" x1="86.913" y1="240.616" x2="86.913" y2="93.254" gradientUnits="userSpaceOnUse"><stop stop-color="#A4FFFF"/><stop offset="1" stop-color="#A4FFFF" stop-opacity="0"/></linearGradient><linearGradient id="paint32_linear_1_195" x1="86.915" y1="252.166" x2="86.915" y2="143.551" gradientUnits="userSpaceOnUse"><stop stop-color="#A4FFFF"/><stop offset="1" stop-color="#A4FFFF" stop-opacity="0"/></linearGradient><linearGradient id="paint33_linear_1_195" x1="345.937" y1="497.18" x2="345.937" y2="349.862" gradientUnits="userSpaceOnUse"><stop stop-color="#A4FFFF"/><stop offset="1" stop-color="#A4FFFF" stop-opacity="0"/></linearGradient><linearGradient id="paint34_linear_1_195" x1="345.935" y1="496.385" x2="345.935" y2="346.404" gradientUnits="userSpaceOnUse"><stop stop-color="#A4FFFF"/><stop offset="1" stop-color="#A4FFFF" stop-opacity="0"/></linearGradient></defs></svg>