<svg width="896" height="409" fill="none" xmlns="http://www.w3.org/2000/svg"><path d="M374.414 99.784h-96.707L236.931 58.97h-71.877L108.671 2.535l.433-.452 56.214 56.246h71.876l40.776 40.815h96.444v.64z" fill="#016969"/><path d="M374.301 97.07a2.395 2.395 0 012.391 2.394 2.395 2.395 0 01-2.391 2.393 2.395 2.395 0 01-2.391-2.393c-.018-1.32 1.055-2.393 2.391-2.393zM110.667.707a2.385 2.385 0 00-3.389 0 2.39 2.39 0 000 3.392 2.385 2.385 0 003.389 0c.941-.943.941-2.469 0-3.392zM75.613 406.909H10.307v-.622H75.35l35.975-36.009h71.877l40.776-40.815h98.854l36.408-36.442.433.452-36.578 36.631h-98.853l-40.777 40.795h-71.876l-35.976 36.01z" fill="#016969"/><path d="M357.678 291.645a2.385 2.385 0 013.389 0 2.39 2.39 0 010 3.392 2.385 2.385 0 01-3.389 0c-.923-.943-.923-2.469 0-3.392zM10.42 409c1.32 0 2.39-1.071 2.39-2.393a2.392 2.392 0 10-4.781 0 2.392 2.392 0 002.39 2.393zM404.027 147.552l-32.945-32.957H257.883l-33.867-33.899h-45.483l-18.223 18.24H22.487v-.64h137.559l18.224-18.222h46.009l33.868 33.88h113.198l33.134 33.146-.452.452z" fill="#016969"/><path d="M404.158 149.643a2.391 2.391 0 002.391-2.393 2.391 2.391 0 10-4.781 0 2.391 2.391 0 002.39 2.393zM22.62 101.009c1.32 0 2.39-1.071 2.39-2.393a2.392 2.392 0 10-2.39 2.393zM313.927 321.267h-38.254l-28.313-28.321h-55.442l-27.579-27.624H81.638v-.622h82.964l27.58 27.605h55.441l28.314 28.34h37.727l38.875-38.93.451.452-39.063 39.1z" fill="#016969"/><path d="M350.995 280.339a2.385 2.385 0 013.389 0 2.39 2.39 0 010 3.392 2.385 2.385 0 01-3.389 0 2.39 2.39 0 010-3.392zM81.77 267.394a2.392 2.392 0 000-4.786 2.392 2.392 0 000 4.786zM399.885 163.06l-32.154-32.203H259.954l-36.07-36.085h-32.945l-26.431 26.456H60.741v-.641h103.503l26.431-26.456h33.472l36.07 36.104h107.777l32.343 32.372-.452.453z" fill="#016969"/><path d="M60.873 123.301a2.396 2.396 0 01-2.391-2.394 2.395 2.395 0 012.39-2.393 2.395 2.395 0 012.392 2.393 2.395 2.395 0 01-2.391 2.394zM398.341 164.435a2.385 2.385 0 003.389 0 2.39 2.39 0 000-3.391 2.384 2.384 0 00-3.389 0 2.39 2.39 0 000 3.391zM309.07 289.705h-46.838l-54.274-54.306H96.039L69.043 262.42l-.452-.452 27.184-27.21h112.446l54.275 54.325h46.311l26.619-26.663h48.005v.64H335.69l-26.62 26.645z" fill="#016969"/><path d="M383.3 260.347a2.395 2.395 0 012.39 2.393 2.395 2.395 0 01-2.39 2.393 2.395 2.395 0 01-2.391-2.393 2.395 2.395 0 012.391-2.393zM67.217 260.423a2.39 2.39 0 000 3.391 2.383 2.383 0 003.389 0 2.39 2.39 0 000-3.391c-.942-.942-2.467-.942-3.39 0zM319.405 300.84h-25.772v-.641h25.509l29.311-29.338.452.452-29.5 29.527z" fill="#016969"/><path d="M346.91 269.466a2.384 2.384 0 013.388 0 2.39 2.39 0 010 3.392 2.384 2.384 0 01-3.388 0 2.389 2.389 0 010-3.392zM293.746 302.913a2.393 2.393 0 000-4.786 2.391 2.391 0 00-2.391 2.393 2.392 2.392 0 002.391 2.393zM399.885 182.204l-34.488-34.521h-97.178l-32.569-32.598h-54.011l-28.182 28.189H36.625L2.1 108.716l.433-.453 34.357 34.389h116.305l28.182-28.208h54.538l32.568 32.599h97.178l34.677 34.709-.452.452z" fill="#016969"/><path d="M401.711 180.188a2.388 2.388 0 010 3.391 2.382 2.382 0 01-3.388 0 2.388 2.388 0 010-3.391c.941-.924 2.466-.924 3.388 0zM4.095 106.869a2.385 2.385 0 00-3.389 0 2.39 2.39 0 000 3.392 2.385 2.385 0 003.389 0 2.425 2.425 0 000-3.392zM385.409 188.931l-28.013-28.057H270.29l-33.999-34.012h-52.58l-42.829 42.849-.452-.452 43.017-43.038h53.107l33.999 34.012h87.107l28.2 28.246-.451.452z" fill="#016969"/><path d="M387.253 186.915c.942.942.942 2.45 0 3.392a2.384 2.384 0 01-3.388 0 2.389 2.389 0 010-3.392 2.419 2.419 0 013.388 0zM140.75 171.803a2.392 2.392 0 002.391-2.394 2.392 2.392 0 10-4.782 0 2.393 2.393 0 002.391 2.394zM290.715 273.405H258.09l-62.144-62.201H30.977v-.641H196.21l62.144 62.221h32.097l23.25-23.291h63.066l27.259-27.266.452.434-27.448 27.473h-63.065l-23.25 23.271z" fill="#016969"/><path d="M402.464 220.833a2.384 2.384 0 013.389 0 2.39 2.39 0 010 3.391 2.384 2.384 0 01-3.389 0 2.424 2.424 0 010-3.391zM31.11 208.49a2.395 2.395 0 00-2.392 2.393 2.395 2.395 0 002.391 2.393 2.395 2.395 0 002.391-2.393 2.395 2.395 0 00-2.39-2.393zM259.691 198.9h-22.158v-.641h21.894l20.162-20.162h75.397v.622h-75.133L259.691 198.9z" fill="#016969"/><path d="M354.873 176.005a2.395 2.395 0 012.391 2.393 2.395 2.395 0 01-2.391 2.393 2.395 2.395 0 01-2.391-2.393 2.395 2.395 0 012.391-2.393zM237.665 200.972a2.393 2.393 0 000-4.786 2.391 2.391 0 00-2.391 2.393 2.392 2.392 0 002.391 2.393zM258.241 179.095l-30.855-30.902H182.75v-.622h44.899l31.044 31.072-.452.452z" fill="#016969"/><path d="M260.086 177.097a2.39 2.39 0 010 3.392 2.385 2.385 0 01-3.389 0 2.39 2.39 0 010-3.392 2.385 2.385 0 013.389 0zM182.863 145.479a2.395 2.395 0 00-2.391 2.393 2.395 2.395 0 002.391 2.393 2.395 2.395 0 002.391-2.393 2.395 2.395 0 00-2.391-2.393zM237.57 182.204l-21.555-21.594h-39.478v-.622h39.741l21.744 21.764-.452.452z" fill="#016969"/><path d="M237.702 184.277a2.393 2.393 0 000-4.786 2.391 2.391 0 00-2.391 2.393 2.392 2.392 0 002.391 2.393zM176.669 162.683a2.392 2.392 0 002.391-2.393 2.392 2.392 0 00-2.391-2.394 2.392 2.392 0 00-2.39 2.394 2.392 2.392 0 002.39 2.393zM60.553 272.538H33.048v.64h27.505v-.64z" fill="#016969"/><path d="M60.44 275.251c1.32 0 2.39-1.071 2.39-2.393a2.392 2.392 0 10-4.781 0 2.392 2.392 0 002.39 2.393zM33.161 270.465a2.395 2.395 0 00-2.39 2.393 2.395 2.395 0 002.39 2.393 2.395 2.395 0 002.391-2.393 2.383 2.383 0 00-2.39-2.393zM222.284 276.646l-27.768-27.794h-89.102v-.622h89.365l27.957 27.964-.452.452z" fill="#016969"/><path d="M224.11 274.649a2.39 2.39 0 010 3.391 2.385 2.385 0 01-3.389 0 2.39 2.39 0 010-3.391 2.384 2.384 0 013.389 0zM105.546 250.944a2.393 2.393 0 000-4.786 2.391 2.391 0 00-2.391 2.393 2.392 2.392 0 002.391 2.393zM75.877 390.628H15.465v-.64h60.148l46.01-46.034h52.731l29.97-30.017h56.797v.64h-56.533l-29.971 29.999h-52.731l-46.01 46.052z" fill="#016969"/><path d="M261.008 316.65a2.392 2.392 0 002.391-2.393 2.391 2.391 0 10-4.782 0 2.393 2.393 0 002.391 2.393zM15.597 387.915a2.395 2.395 0 00-2.39 2.393 2.395 2.395 0 002.39 2.393 2.395 2.395 0 002.391-2.393 2.395 2.395 0 00-2.39-2.393zM12.962 320.117l-.452-.452 35.712-35.746h106.741l20.69 20.709h64.798v.641h-65.062L154.7 284.56H48.486l-35.524 35.557z" fill="#016969"/><path d="M240.319 307.341a2.391 2.391 0 002.391-2.393 2.392 2.392 0 10-2.391 2.393zM11.135 318.12a2.389 2.389 0 000 3.391 2.383 2.383 0 003.389 0 2.389 2.389 0 000-3.391c-.941-.942-2.466-.942-3.389 0zM72.262 359.066H22.374l-17.62-17.618.451-.453 17.433 17.43h49.36l37.219-37.253h60.92v.641H109.48l-37.218 37.253z" fill="#016969"/><path d="M170.024 319.1a2.396 2.396 0 012.391 2.393 2.396 2.396 0 01-2.391 2.393 2.395 2.395 0 01-2.391-2.393 2.395 2.395 0 012.391-2.393zM6.768 339.601a2.385 2.385 0 00-3.389 0 2.389 2.389 0 000 3.391 2.383 2.383 0 003.389 0c.922-.923.922-2.449 0-3.391zM58.312 334.758H33.048v-.641h25l28.427-28.453h62.991v.622H86.739l-28.427 28.472z" fill="#016969"/><path d="M149.353 303.592a2.395 2.395 0 012.391 2.393 2.395 2.395 0 01-2.391 2.393 2.395 2.395 0 01-2.391-2.393c-.018-1.338 1.055-2.393 2.391-2.393zM33.161 336.831c1.32 0 2.391-1.071 2.391-2.393a2.392 2.392 0 10-4.782 0 2.392 2.392 0 002.391 2.393zM6.768 273.556l-.452-.452 46.048-46.091h120.879v.641H52.627l-45.86 45.902z" fill="#016969"/><path d="M173.13 224.94a2.396 2.396 0 012.391 2.394 2.395 2.395 0 01-2.391 2.393 2.395 2.395 0 01-2.39-2.393 2.395 2.395 0 012.39-2.394zM4.923 271.54a2.389 2.389 0 000 3.391 2.383 2.383 0 003.389 0 2.389 2.389 0 000-3.391 2.418 2.418 0 00-3.389 0z" fill="#016969"/><path d="M272.322 252.998h-19.39l-56.609-56.643H20.642v-.641h175.944l56.609 56.643h18.863l22.215-22.235h61.014l17.94-17.958.452.453-18.129 18.146h-61.014l-22.214 22.235z" fill="#016969"/><path d="M371.665 210.77a2.385 2.385 0 013.389 0 2.39 2.39 0 010 3.392 2.385 2.385 0 01-3.389 0 2.426 2.426 0 010-3.392zM20.755 198.428c1.32 0 2.391-1.071 2.391-2.393a2.392 2.392 0 10-4.782 0 2.392 2.392 0 002.391 2.393zM270.515 235.662h-20.689l-54.67-54.701H11.342v-.641H195.42l54.669 54.72h20.162l15.758-15.79h64.609l16.397-16.413.452.453-16.585 16.6h-64.61l-15.757 15.772z" fill="#016969"/><path d="M365.472 201.462a2.384 2.384 0 013.388 0c.942.942.942 2.45 0 3.392a2.384 2.384 0 01-3.388 0 2.39 2.39 0 010-3.392zM11.455 178.247a2.395 2.395 0 00-2.39 2.393 2.395 2.395 0 002.39 2.393 2.395 2.395 0 002.391-2.393 2.395 2.395 0 00-2.39-2.393zM269.367 213.54l-.451-.452 21.235-21.255h66.097v.64h-65.834l-21.047 21.067z" fill="#016969"/><path d="M356.115 189.76a2.395 2.395 0 012.391 2.393 2.395 2.395 0 01-2.391 2.393 2.395 2.395 0 01-2.39-2.393 2.395 2.395 0 012.39-2.393zM269.217 215.613c1.32 0 2.39-1.072 2.39-2.393a2.391 2.391 0 10-4.781 0 2.392 2.392 0 002.391 2.393zM214.603 72.423h-65.062L99.879 22.715l.452-.452 49.474 49.52h64.798v.64z" fill="#016969"/><path d="M214.471 69.71a2.395 2.395 0 012.391 2.393 2.395 2.395 0 01-2.391 2.393 2.395 2.395 0 01-2.391-2.393 2.395 2.395 0 012.391-2.393zM101.875 20.888a2.385 2.385 0 00-3.389 0 2.39 2.39 0 000 3.391 2.385 2.385 0 003.389 0c.941-.942.941-2.468 0-3.391zM127.421 73.045l-31.91-31.92H7.465v-.64h88.311l32.098 32.108-.452.452z" fill="#016969"/><path d="M129.248 71.048a2.39 2.39 0 010 3.392 2.385 2.385 0 01-3.389 0 2.39 2.39 0 010-3.392c.941-.942 2.466-.942 3.389 0zM7.577 38.412a2.395 2.395 0 00-2.39 2.393 2.395 2.395 0 002.39 2.393 2.395 2.395 0 002.391-2.393 2.395 2.395 0 00-2.39-2.393zM521.586 309.207h96.707l40.776 40.815h71.877l56.383 56.435-.452.452-56.195-56.247h-71.876l-40.777-40.814h-96.443v-.641z" fill="#016969"/><path d="M521.699 311.92a2.395 2.395 0 01-2.391-2.393 2.395 2.395 0 012.391-2.393 2.395 2.395 0 012.391 2.393 2.383 2.383 0 01-2.391 2.393zM785.333 408.285a2.385 2.385 0 003.389 0 2.39 2.39 0 000-3.392 2.385 2.385 0 00-3.389 0c-.941.942-.941 2.469 0 3.392zM820.387 2.083h65.306v.622H820.65l-35.976 36.028h-71.876l-40.776 40.795h-98.854l-36.409 36.443-.433-.452 36.579-36.613h98.853l40.777-40.814h71.876l35.976-36.01z" fill="#016969"/><path d="M538.322 117.365a2.385 2.385 0 01-3.389 0 2.39 2.39 0 010-3.392 2.385 2.385 0 013.389 0c.922.924.922 2.45 0 3.392zM885.58 4.796a2.395 2.395 0 002.391-2.393A2.395 2.395 0 00885.58.01a2.395 2.395 0 00-2.391 2.393 2.395 2.395 0 002.391 2.393zM491.973 261.439l32.945 32.957h113.199l33.867 33.899h45.483l18.223-18.24h137.823v.64H735.954l-18.223 18.241h-46.01l-33.868-33.899H524.655l-33.134-33.145.452-.453z" fill="#016969"/><path d="M490.147 263.437a2.39 2.39 0 010-3.392 2.385 2.385 0 013.389 0 2.39 2.39 0 010 3.392c-.942.942-2.466.942-3.389 0zM873.381 312.769a2.395 2.395 0 002.391-2.393 2.396 2.396 0 00-2.391-2.394 2.396 2.396 0 00-2.391 2.394 2.395 2.395 0 002.391 2.393zM582.073 87.725h38.253l28.314 28.321h55.423l27.598 27.624h82.701v.641h-82.964l-27.599-27.624h-55.422l-28.314-28.322h-37.727l-38.875 38.912-.451-.453 39.063-39.1z" fill="#016969"/><path d="M545.005 128.652a2.384 2.384 0 01-3.388 0 2.389 2.389 0 010-3.392 2.384 2.384 0 013.388 0c.942.942.942 2.469 0 3.392zM814.231 146.384a2.393 2.393 0 000-4.786 2.391 2.391 0 00-2.391 2.393 2.392 2.392 0 002.391 2.393zM496.115 245.932l32.154 32.203h107.777l36.07 36.084h32.945l26.431-26.456h103.767v.641H731.755l-26.431 26.456h-33.472l-36.07-36.104H528.005l-32.342-32.372.452-.452z" fill="#016969"/><path d="M835.127 285.691a2.395 2.395 0 012.391 2.393 2.395 2.395 0 01-2.391 2.393 2.395 2.395 0 01-2.391-2.393 2.395 2.395 0 012.391-2.393zM497.659 244.556a2.385 2.385 0 00-3.389 0 2.39 2.39 0 000 3.392 2.385 2.385 0 003.389 0 2.39 2.39 0 000-3.392zM586.929 119.286h46.839l54.274 54.306h111.919l26.995-27.021.452.452-27.184 27.21H687.778l-54.274-54.306h-46.311l-26.619 26.644h-48.006v-.64h47.742l26.619-26.645z" fill="#016969"/><path d="M512.7 148.644a2.395 2.395 0 01-2.391-2.393 2.395 2.395 0 012.391-2.393 2.395 2.395 0 012.391 2.393 2.395 2.395 0 01-2.391 2.393zM828.783 148.588a2.39 2.39 0 000-3.392 2.385 2.385 0 00-3.389 0 2.39 2.39 0 000 3.392c.942.923 2.467.923 3.389 0zM576.594 108.151h25.773v.641h-25.509l-29.312 29.338-.452-.433 29.5-29.546z" fill="#016969"/><path d="M549.09 139.524a2.382 2.382 0 01-3.388 0 2.388 2.388 0 010-3.391 2.382 2.382 0 013.388 0 2.39 2.39 0 010 3.391zM602.254 110.864a2.396 2.396 0 002.391-2.393 2.396 2.396 0 00-2.391-2.393 2.395 2.395 0 00-2.391 2.393 2.395 2.395 0 002.391 2.393zM496.115 226.787l34.488 34.521h97.178l32.569 32.598h54.01l28.164-28.189h116.85l34.527 34.558-.433.453-34.357-34.389H742.806l-28.182 28.208h-54.538l-32.568-32.599H530.34l-34.677-34.709.452-.452z" fill="#016969"/><path d="M494.27 228.803a2.39 2.39 0 010-3.392 2.385 2.385 0 013.389 0 2.39 2.39 0 010 3.392c-.923.924-2.448.924-3.389 0zM891.905 302.122a2.385 2.385 0 003.389 0 2.39 2.39 0 000-3.391 2.384 2.384 0 00-3.389 0 2.424 2.424 0 000 3.391zM510.591 220.06l28.013 28.058h87.106l33.981 34.03h52.598l42.829-42.868.452.452-43.017 43.038h-53.107l-33.999-34.012H538.34l-28.2-28.246.451-.452z" fill="#016969"/><path d="M508.746 222.076a2.39 2.39 0 010-3.392 2.385 2.385 0 013.389 0 2.39 2.39 0 010 3.392 2.42 2.42 0 01-3.389 0zM756.944 241.277a2.39 2.39 0 000-3.391 2.384 2.384 0 00-3.389 0 2.39 2.39 0 000 3.391 2.384 2.384 0 003.389 0zM605.285 135.586h32.625l62.143 62.201h164.969v.641H699.79l-62.144-62.202h-32.098l-23.249 23.272h-63.066l-27.26 27.285-.452-.453 27.448-27.473h63.066l23.25-23.271z" fill="#016969"/><path d="M493.536 188.159a2.385 2.385 0 01-3.389 0 2.39 2.39 0 010-3.392 2.385 2.385 0 013.389 0c.922.942.922 2.45 0 3.392zM864.89 200.5a2.395 2.395 0 002.391-2.393 2.395 2.395 0 00-2.391-2.393 2.395 2.395 0 00-2.39 2.393 2.395 2.395 0 002.39 2.393zM636.309 210.092h22.158v.64h-21.894l-20.163 20.181h-75.396v-.64h75.133l20.162-20.181z" fill="#016969"/><path d="M541.127 232.986a2.392 2.392 0 10-.002-4.784 2.392 2.392 0 00.002 4.784zM658.335 212.805a2.391 2.391 0 002.391-2.393 2.391 2.391 0 10-4.781 0 2.391 2.391 0 002.39 2.393zM637.759 229.896l30.855 30.903h44.636v.64h-44.899l-31.044-31.091.452-.452z" fill="#016969"/><path d="M635.914 231.893a2.39 2.39 0 010-3.391 2.384 2.384 0 013.389 0 2.39 2.39 0 010 3.391 2.385 2.385 0 01-3.389 0zM713.137 263.512a2.395 2.395 0 002.391-2.393 2.395 2.395 0 00-2.391-2.393 2.395 2.395 0 00-2.391 2.393 2.395 2.395 0 002.391 2.393zM658.43 226.787l21.555 21.595h39.477v.64h-39.741l-21.743-21.782.452-.453z" fill="#016969"/><path d="M658.279 229.501a2.393 2.393 0 000-4.787 2.392 2.392 0 00-2.391 2.393 2.392 2.392 0 002.391 2.394zM719.33 251.095a2.395 2.395 0 002.391-2.393 2.395 2.395 0 00-2.391-2.393 2.396 2.396 0 00-2.391 2.393 2.396 2.396 0 002.391 2.393zM862.951 135.812h-27.504v.641h27.504v-.641z" fill="#016969"/><path d="M835.56 138.526a2.395 2.395 0 01-2.391-2.393 2.395 2.395 0 012.391-2.393 2.395 2.395 0 012.391 2.393 2.395 2.395 0 01-2.391 2.393zM862.838 138.526a2.395 2.395 0 002.391-2.393 2.395 2.395 0 00-2.391-2.393 2.395 2.395 0 00-2.39 2.393 2.383 2.383 0 002.39 2.393zM673.716 132.345l27.768 27.794h89.102v.621H701.22l-27.956-27.963.452-.452z" fill="#016969"/><path d="M671.89 134.342a2.39 2.39 0 010-3.391 2.382 2.382 0 013.388 0 2.388 2.388 0 010 3.391 2.384 2.384 0 01-3.388 0zM790.454 162.852c1.32 0 2.39-1.072 2.39-2.393a2.391 2.391 0 10-4.781 0 2.392 2.392 0 002.391 2.393zM820.123 18.363h60.412v.64h-60.148l-46.01 46.034h-52.731l-29.97 30.017h-56.797v-.64h56.533l29.971-29.999h52.73l46.01-46.052z" fill="#016969"/><path d="M634.991 97.127a2.395 2.395 0 01-2.39-2.393 2.395 2.395 0 012.39-2.393 2.395 2.395 0 012.391 2.393 2.395 2.395 0 01-2.391 2.393zM880.402 21.076a2.395 2.395 0 002.391-2.393 2.395 2.395 0 00-2.391-2.393 2.396 2.396 0 00-2.391 2.393 2.396 2.396 0 002.391 2.393zM883.038 88.874l.452.452-35.712 35.746H741.036l-20.689-20.709h-64.798v-.622h65.061l20.69 20.69h106.214l35.524-35.557z" fill="#016969"/><path d="M655.681 106.455a2.395 2.395 0 01-2.391-2.393 2.395 2.395 0 012.391-2.393 2.396 2.396 0 012.391 2.393 2.396 2.396 0 01-2.391 2.393zM884.864 90.872a2.389 2.389 0 000-3.392 2.384 2.384 0 00-3.388 0 2.389 2.389 0 000 3.392c.941.942 2.466.942 3.388 0zM823.737 49.925h49.888l17.621 17.618-.452.453-17.432-17.43h-49.361l-37.218 37.253h-60.92v-.641h60.656l37.218-37.253z" fill="#016969"/><path d="M725.976 89.892a2.392 2.392 0 002.391-2.393 2.392 2.392 0 10-4.782 0 2.392 2.392 0 002.391 2.393zM889.232 69.39a2.385 2.385 0 003.389 0 2.39 2.39 0 000-3.392 2.385 2.385 0 00-3.389 0 2.425 2.425 0 000 3.392zM837.687 74.233h25.264v.64h-25l-28.427 28.453h-62.991v-.621h62.728l28.426-28.472z" fill="#016969"/><path d="M746.646 105.419a2.391 2.391 0 002.391-2.393 2.391 2.391 0 10-4.781 0 2.391 2.391 0 002.39 2.393zM862.838 76.946a2.392 2.392 0 002.391-2.393 2.392 2.392 0 10-4.781 0 2.392 2.392 0 002.39 2.393zM889.232 135.435l.452.452-46.047 46.091h-120.88v-.641h120.616l45.859-45.902z" fill="#016969"/><path d="M722.87 184.05a2.395 2.395 0 01-2.391-2.393 2.395 2.395 0 012.391-2.393 2.395 2.395 0 012.391 2.393 2.395 2.395 0 01-2.391 2.393zM891.077 137.451a2.39 2.39 0 000-3.392 2.385 2.385 0 00-3.389 0 2.39 2.39 0 000 3.392 2.42 2.42 0 003.389 0z" fill="#016969"/><path d="M623.678 155.993h19.39l56.609 56.662h175.681v.621H699.413l-56.609-56.642h-18.863l-22.214 22.235h-61.014l-17.941 17.957-.452-.433 18.129-18.146h61.014l22.215-22.254z" fill="#016969"/><path d="M524.335 198.221a2.385 2.385 0 01-3.389 0 2.39 2.39 0 010-3.392 2.385 2.385 0 013.389 0c.922.942.922 2.45 0 3.392zM875.245 215.368a2.395 2.395 0 002.39-2.393 2.395 2.395 0 00-2.39-2.393 2.395 2.395 0 00-2.391 2.393 2.383 2.383 0 002.391 2.393zM625.485 173.329h20.689l54.67 54.702h183.813v.64H700.58l-54.67-54.72h-20.162l-15.757 15.79h-64.61l-16.397 16.413-.452-.452 16.586-16.601h64.61l15.757-15.772z" fill="#016969"/><path d="M530.528 207.53a2.385 2.385 0 01-3.389 0 2.39 2.39 0 010-3.392 2.385 2.385 0 013.389 0c.941.942.941 2.468 0 3.392zM884.544 230.744a2.395 2.395 0 002.391-2.393 2.395 2.395 0 00-2.391-2.393 2.395 2.395 0 00-2.391 2.393 2.383 2.383 0 002.391 2.393zM626.633 195.47l.451.452-21.235 21.237h-66.097v-.622h65.834l21.047-21.067z" fill="#016969"/><path d="M539.884 219.231a2.391 2.391 0 002.391-2.393 2.391 2.391 0 10-4.782 0 2.392 2.392 0 002.391 2.393zM628.459 197.467a2.39 2.39 0 000-3.391 2.384 2.384 0 00-3.389 0 2.39 2.39 0 000 3.391c.942.942 2.467.942 3.389 0zM681.397 336.567h65.061l49.662 49.708-.451.453-49.474-49.52h-64.798v-.641z" fill="#016969"/><path d="M681.529 339.28a2.395 2.395 0 01-2.391-2.393 2.395 2.395 0 012.391-2.393 2.395 2.395 0 012.391 2.393 2.395 2.395 0 01-2.391 2.393zM794.125 388.103a2.385 2.385 0 003.389 0 2.39 2.39 0 000-3.392 2.385 2.385 0 00-3.389 0c-.941.942-.941 2.468 0 3.392zM768.578 335.945l31.91 31.921h88.047v.64h-88.311l-32.098-32.108.452-.453z" fill="#016969"/><path d="M766.752 337.943a2.39 2.39 0 010-3.392 2.385 2.385 0 013.389 0 2.39 2.39 0 010 3.392c-.942.942-2.466.942-3.389 0zM888.423 370.579c1.32 0 2.39-1.071 2.39-2.393a2.391 2.391 0 10-4.781 0 2.391 2.391 0 002.391 2.393z" fill="#016969"/></svg>