<svg width="506" height="450" fill="none" xmlns="http://www.w3.org/2000/svg"><path d="M237.098 264.633c.02 0 .04-.019.04-.039s-.02-.039-.04-.039c-.019 0-.039.019-.039.039s.02.039.039.039zm-38.247-27.422a.134.134 0 00.137-.137.134.134 0 00-.137-.137.134.134 0 00-.137.137c0 .059.059.137.137.137zm178.426 14.525c.02 0 .04-.02.04-.039 0-.02-.02-.04-.04-.04-.019 0-.039.02-.039.04-.02.019.02.039.039.039zm-8.93 7.82c.02 0 .04-.019.04-.039s-.02-.039-.04-.039c-.019 0-.039.019-.039.039 0 0 .02.039.039.039zm-9.576 6.959c.019 0 .039-.02.039-.04 0-.019-.02-.039-.039-.039-.02 0-.04.02-.04.039-.019.02 0 .04.04.04zm-10.184 6.096c.02 0 .04-.02.04-.039 0-.02-.02-.04-.04-.04-.019 0-.039.02-.039.04 0 .019.02.039.039.039zm-10.673 5.272a.176.176 0 100-.352.175.175 0 00-.176.176c0 .098.078.176.176.176zm-11.104 4.116a.134.134 0 00.138-.137.134.134 0 00-.138-.137.134.134 0 00-.137.137c0 .078.059.137.137.137zm-11.417 3.156a.134.134 0 00.137-.137.134.134 0 00-.137-.137.134.134 0 00-.137.137c0 .078.059.137.137.137zm-11.672 2.136a.137.137 0 100-.274.137.137 0 000 .274zm-11.809 1.059a.134.134 0 00.138-.137.134.134 0 00-.138-.137.134.134 0 00-.137.137c.02.078.079.137.137.137zm-11.848 0a.134.134 0 00.137-.137.134.134 0 00-.137-.137.134.134 0 00-.137.137c.02.078.059.137.137.137zm-11.809-1.078a.134.134 0 00.138-.137.134.134 0 00-.138-.137.134.134 0 00-.137.137c0 .078.079.137.137.137zm-11.652-2.117a.134.134 0 00.137-.137.134.134 0 00-.137-.137.134.134 0 00-.137.137c0 .078.059.137.137.137zm-11.417-3.156a.134.134 0 00.137-.137.134.134 0 00-.137-.137.134.134 0 00-.137.137c0 .078.059.137.137.137zm-11.104-4.037a.26.26 0 00.255-.255.26.26 0 00-.255-.255.26.26 0 00-.255.255.26.26 0 00.255.255zm-10.673-5.234a.175.175 0 00.176-.176.176.176 0 10-.352 0c0 .098.078.176.176.176zm-10.183-5.998a.246.246 0 00.254-.254c0-.157-.117-.275-.254-.275s-.255.118-.255.275a.26.26 0 00.255.254zm-9.596-7.095a.134.134 0 00.137-.138.134.134 0 00-.137-.137.134.134 0 00-.138.137c.02.079.079.138.138.138zm-8.911-7.626a.31.31 0 00.314-.313.31.31 0 00-.314-.313.31.31 0 00-.313.313.31.31 0 00.313.313zm-8.205-8.585a.31.31 0 00.313-.313.31.31 0 00-.313-.314.31.31 0 00-.313.314c0 .176.156.313.313.313zm-7.383-9.447a.134.134 0 00.137-.137.134.134 0 00-.137-.137.134.134 0 00-.137.137c0 .078.058.137.137.137zm-6.522-9.723a.31.31 0 00.314-.313.31.31 0 00-.314-.313.31.31 0 00-.313.313.31.31 0 00.313.313zm-5.62-10.623a.134.134 0 00.137-.137.134.134 0 00-.137-.137.134.134 0 00-.137.137c0 .078.059.137.137.137zm-4.661-10.781a.26.26 0 00.255-.254.26.26 0 00-.255-.255c-.157 0-.274.118-.274.255.02.137.137.254.274.254zm-3.662-11.407a.134.134 0 00.137-.137.134.134 0 00-.137-.137.133.133 0 00-.137.137c0 .078.058.137.137.137zm-2.624-11.643c.019 0 .039-.019.039-.039s-.02-.039-.039-.039c-.02 0-.04.019-.04.039-.019 0 0 .039.04.039zm6.286-70.073c.02 0 .04-.02.04-.04 0-.019-.02-.039-.04-.039-.019 0-.039.02-.039.039 0 .02.02.04.039.04zm268.961 46.454a.04.04 0 00.039-.04.039.039 0 00-.078 0c0 .022.017.04.039.04zm-.49 11.859c.02 0 .039-.02.039-.04 0-.019-.019-.039-.039-.039s-.039.02-.039.039c0 .02.019.04.039.04zm-1.449 11.78c.02 0 .039-.02.039-.039 0-.02-.019-.04-.039-.04s-.039.02-.039.04c0 .019.019.039.039.039zm-2.389 11.604c.02 0 .039-.02.039-.04 0-.019-.019-.039-.039-.039s-.039.02-.039.039c0 .02.019.04.039.04zm-3.349 11.388c.019 0 .039-.02.039-.04 0-.019-.02-.039-.039-.039-.02 0-.039.02-.039.039 0 .02.019.04.039.04zm-4.249 11.074c.019 0 .039-.02.039-.039 0-.02-.02-.04-.039-.04-.02 0-.04.02-.04.04 0 .019.02.039.04.039zm-5.131 10.683c.019 0 .039-.02.039-.039 0-.02-.02-.04-.039-.04-.02 0-.04.02-.04.04-.019.019 0 .039.04.039zm-6.013 10.232c.02 0 .039-.02.039-.04 0-.019-.019-.039-.039-.039s-.039.02-.039.039c0 .02.019.04.039.04zm-6.795 9.722c.019 0 .039-.02.039-.04 0-.019-.02-.039-.039-.039-.02 0-.039.02-.039.039 0 .02-.001.04.039.04zm-7.579 9.329c.157 0 .274-.117.274-.254 0-.138-.117-.255-.274-.255a.26.26 0 00-.255.255c-.019.137.098.254.255.254zm-8.304 8.253c.02 0 .04-.02.04-.04 0-.019-.02-.039-.04-.039-.019 0-.039.02-.039.039 0 .02.02.04.039.04zm-8.949 7.918a.175.175 0 00.176-.176.175.175 0 00-.176-.176.175.175 0 00-.176.176c0 .098.078.176.176.176zm-9.577 7.096a.26.26 0 00.255-.255.26.26 0 00-.255-.255.26.26 0 00-.254.255.26.26 0 00.254.255zm-10.085 6.213c.157 0 .274-.117.274-.255 0-.156-.117-.254-.274-.254a.26.26 0 00-.255.254c-.019.138.098.255.255.255zm-10.575 5.273a.176.176 0 00.176-.177.176.176 0 10-.176.177zm-10.967 4.743a.435.435 0 00.431-.431.435.435 0 00-.431-.431.422.422 0 00-.431.431c-.02.235.176.431.431.431zm-11.319 3.567a.423.423 0 00.431-.431.44.44 0 00-.431-.45.44.44 0 00-.431.45c0 .235.196.431.431.431zm-11.554 2.744a.528.528 0 100-1.057.528.528 0 000 1.057zm-11.731 1.549a.392.392 0 000-.784.393.393 0 000 .784zm-11.829.764a.434.434 0 00.431-.431.421.421 0 00-.431-.43.421.421 0 00-.43.43c0 .235.195.431.43.431zm-11.848-.294a.391.391 0 10.002-.782.391.391 0 00-.002.782zm-11.789-1.156a.435.435 0 00.431-.431.435.435 0 00-.431-.431.422.422 0 00-.431.431c0 .235.196.431.431.431zm-11.652-1.94a.66.66 0 00.665-.666.66.66 0 00-.665-.667.66.66 0 00-.666.667.66.66 0 00.666.666zm-11.437-2.979a.785.785 0 000-1.568.785.785 0 00-.783.784c0 .431.333.784.783.784zm-11.143-4.038a.786.786 0 00.783-.784.786.786 0 00-.783-.784.786.786 0 00-.783.784c-.02.431.332.784.783.784zm-10.791-5.273a.435.435 0 00.431-.431.435.435 0 00-.431-.431.422.422 0 00-.43.431c0 .235.195.431.43.431zm-10.34-5.664a.57.57 0 10-.002-1.138.57.57 0 00.002 1.138zm-9.85-6.666a.526.526 0 00.528-.529.526.526 0 00-.528-.528.526.526 0 00-.529.528.54.54 0 00.529.529zm-9.263-7.389a.526.526 0 00.528-.529.526.526 0 00-.528-.529.527.527 0 00-.529.529c0 .294.235.529.529.529zm-8.637-8.075a.568.568 0 100-1.137.568.568 0 000 1.137zm-7.931-8.997a.394.394 0 00.392-.392.394.394 0 00-.392-.392.394.394 0 00-.392.392c0 .215.177.392.392.392zm-7.206-9.409a.392.392 0 000-.783.392.392 0 00-.392.391c0 .196.176.392.392.392zm-6.404-9.859a.527.527 0 00.529-.529.527.527 0 00-.529-.529.527.527 0 00-.529.529c0 .294.235.529.529.529zm-5.582-10.565a.435.435 0 00.431-.431.422.422 0 00-.431-.431.435.435 0 00-.431.431c0 .235.196.431.431.431zm-4.7-10.918a.393.393 0 000-.784.394.394 0 00-.392.392c0 .216.177.392.392.392zm-3.799-11.329a.31.31 0 00.313-.313.31.31 0 00-.313-.314.31.31 0 00-.314.314.31.31 0 00.314.313zm-2.879-11.506a.31.31 0 00.313-.313.31.31 0 00-.313-.314.31.31 0 00-.313.314c.019.176.156.313.313.313zm-1.919-11.761a.259.259 0 00.254-.255.258.258 0 00-.254-.254.26.26 0 00-.255.254.26.26 0 00.255.255zm-.96-11.897a.176.176 0 10-.176-.176c0 .078.079.176.176.176zm0-11.918a.133.133 0 00.137-.137.134.134 0 00-.137-.137.134.134 0 00-.137.137c0 .079.059.137.137.137zm.96-11.917c.019 0 .039-.019.039-.039s-.02-.039-.039-.039c-.02 0-.04.019-.04.039s.02.039.04.039zm1.92-11.701c.019 0 .039-.02.039-.04 0-.019-.02-.039-.039-.039-.02 0-.04.02-.04.039 0 .02.02.04.04.04zm2.878-11.506c.02 0 .039-.02.039-.039 0-.02-.019-.04-.039-.04s-.039.02-.039.04c0 .019.019.039.039.039zm3.799-11.231c.02 0 .039-.02.039-.04 0-.019-.019-.039-.039-.039s-.039.02-.039.039c0 .02.019.04.039.04zm23.892-40.771c.02 0 .04-.02.04-.039 0-.02-.02-.04-.04-.04-.019 0-.039.02-.039.04s0 .04.039.04zm255.076 69.349c.02 0 .039-.02.039-.04 0-.019-.019-.039-.039-.039s-.039.02-.039.039c0 .02.019.04.039.04zm1.449 11.76c.02 0 .039-.019.039-.039a.041.041 0 00-.039-.039.041.041 0 00-.039.039c0 .02.019.039.039.039zm13.258 23.718c.02 0 .04-.02.04-.04 0-.019-.02-.039-.04-.039-.019 0-.039.02-.039.039 0 .02.02.04.039.04zm-1.331 11.799c.02 0 .039-.02.039-.039 0-.02-.019-.04-.039-.04s-.039.02-.039.04c0 0 .019.039.039.039zm-2.194 11.644c.02 0 .04-.02.04-.04 0-.019-.02-.039-.04-.039-.019 0-.039.02-.039.039-.02.02 0 .04.039.04zm-3.074 11.466c.019 0 .039-.02.039-.039 0-.02-.02-.04-.039-.04-.02 0-.04.02-.04.04 0 .019.02.039.04.039zm-3.917 11.192c.02 0 .039-.02.039-.039 0-.02-.019-.04-.039-.04s-.039.02-.039.04c0 .019.019.039.039.039zm-4.739 10.879c.019 0 .039-.02.039-.04 0-.019-.02-.039-.039-.039-.02 0-.04.02-.04.039 0 .02.02.04.04.04zm-5.542 10.486c.019 0 .039-.019.039-.039s-.02-.039-.039-.039c-.02 0-.04.019-.04.039s.02.039.04.039zm-6.306 10.133a.134.134 0 00.137-.137.134.134 0 00-.137-.137.134.134 0 00-.138.137c0 .079.059.137.138.137zm-7.031 9.585a.175.175 0 00.176-.176.175.175 0 00-.176-.176.175.175 0 00-.176.176c0 .098.078.176.176.176zm-7.736 9.134a.31.31 0 00.314-.313.31.31 0 00-.314-.313.31.31 0 00-.313.313.31.31 0 00.313.313zm-8.381 8.389a.31.31 0 00.313-.313.31.31 0 00-.313-.314.31.31 0 00-.314.314.31.31 0 00.314.313zm-8.989 7.684a.26.26 0 00.255-.254.26.26 0 00-.255-.255.26.26 0 00-.255.255.26.26 0 00.255.254zm-9.537 7.057a.26.26 0 00.254-.255.26.26 0 00-.254-.255.26.26 0 00-.255.255.26.26 0 00.255.255zm-10.027 6.959a.92.92 0 00.92-.922.92.92 0 10-1.84 0c0 .51.411.922.92.922zm-10.477 5.291a.66.66 0 00.666-.666.66.66 0 00-.666-.666.66.66 0 00-.666.666.66.66 0 00.666.666zm-10.869 4.469a.392.392 0 000-.784.393.393 0 000 .784zm-11.202 4.097a.569.569 0 10-.002-1.138.569.569 0 00.002 1.138zm-11.437 3.215a.702.702 0 00.705-.706.702.702 0 00-.705-.706.703.703 0 00-.705.706c0 .392.314.706.705.706zm-11.652 2.195a.702.702 0 00.705-.706.702.702 0 00-.705-.705.702.702 0 00-.705.705c0 .392.313.706.705.706zm-11.77 1.155a.526.526 0 00.529-.528.527.527 0 00-.529-.529.527.527 0 00-.529.529c0 .293.235.528.529.528zm-11.848.451a.527.527 0 00.529-.529.526.526 0 00-.529-.528.526.526 0 00-.529.528c0 .294.235.529.529.529zm-11.848-.195a.786.786 0 00.783-.784.786.786 0 00-.783-.784.786.786 0 00-.783.784c0 .431.352.784.783.784zm-11.789-1.45a.66.66 0 00.665-.667.66.66 0 00-.665-.666.66.66 0 00-.666.666c.019.373.313.667.666.667zm-11.632-2.039c.47 0 .842-.372.842-.843a.837.837 0 00-.842-.843.85.85 0 00-.843.843c0 .471.373.843.843.843zm-11.457-2.763a1.137 1.137 0 000-2.274 1.137 1.137 0 000 2.274zm-11.183-3.96c.607 0 1.097-.49 1.097-1.098a1.096 1.096 0 10-2.193 0c0 .608.489 1.098 1.096 1.098zm-10.868-5.037c.43 0 .783-.353.783-.784a.786.786 0 00-.783-.784.786.786 0 00-.784.784.8.8 0 00.784.784zm-10.477-5.195a1.137 1.137 0 10-.003-2.273 1.137 1.137 0 00.003 2.273zm-10.027-6.684a.784.784 0 10-.002-1.568.784.784 0 00.002 1.568zm-9.557-6.86a.962.962 0 000-1.921.961.961 0 000 1.921zm-8.969-7.86c.47 0 .842-.372.842-.842a.836.836 0 00-.842-.843.848.848 0 00-.842.843c0 .47.372.842.842.842zm-8.382-8.526a.702.702 0 00.705-.706.702.702 0 00-.705-.706.702.702 0 00-.705.706c0 .392.313.706.705.706zm-7.736-9.253a.44.44 0 00.431-.45.435.435 0 00-.431-.431.422.422 0 00-.43.431c0 .254.176.45.43.45zm-7.05-9.467a.527.527 0 00.529-.529.527.527 0 00-.529-.529.527.527 0 00-.529.529.54.54 0 00.529.529zm-6.306-10.134a.422.422 0 00.431-.431.435.435 0 00-.431-.431.435.435 0 00-.431.431c0 .235.196.431.431.431zm-5.522-10.486a.44.44 0 00.451-.431.44.44 0 00-.451-.431.435.435 0 00-.431.431c-.019.235.177.431.431.431zm-4.739-10.918a.392.392 0 000-.783.393.393 0 00-.392.392.38.38 0 00.392.391zm-3.917-11.153a.435.435 0 00.431-.431.435.435 0 00-.431-.431.422.422 0 00-.431.431c-.02.235.176.431.431.431zm-3.075-11.467a.434.434 0 00.431-.43c0-.235-.196-.451-.431-.451-.254 0-.431.196-.431.451 0 .235.196.43.431.43zm-2.212-11.682a.392.392 0 000-.783.393.393 0 00-.392.392c0 .196.176.391.392.391zm-1.313-11.799a.393.393 0 00.392-.392.393.393 0 00-.392-.392.393.393 0 00-.391.392.38.38 0 00.391.392zm-.45-11.996c.157 0 .274-.117.274-.254 0-.138-.117-.255-.274-.255a.26.26 0 00-.255.255.26.26 0 00.255.254zm.45-11.937a.175.175 0 00.176-.176.176.176 0 10-.352 0c0 .098.078.176.176.176zm1.312-11.78a.175.175 0 00.176-.176.176.176 0 10-.352 0c0 .098.098.176.176.176zm2.213-11.702a.134.134 0 00.138-.137.134.134 0 00-.138-.137.134.134 0 00-.137.137c0 .078.059.137.137.137zm3.075-11.544c.02 0 .039-.02.039-.04 0-.019-.019-.039-.039-.039s-.039.02-.039.039c-.02 0 0 .04.039.04zm3.917-11.213c.02 0 .039-.019.039-.039s-.019-.039-.039-.039-.039.02-.039.04c-.02.019 0 .039.039.039zm4.739-10.877c.02 0 .04-.02.04-.04s-.02-.04-.04-.04c-.019 0-.039.02-.039.04s0 .04.039.04zm5.523-10.487c.019 0 .039-.02.039-.04s-.02-.039-.039-.039c-.02 0-.04.02-.04.04 0 .019.02.039.04.039zm6.305-10.036c.02 0 .04-.02.04-.039 0-.02-.02-.04-.04-.04-.019 0-.039.02-.039.04s.02.04.039.04zm7.05-9.545c.02 0 .04-.02.04-.04s-.02-.04-.04-.04c-.019 0-.039.02-.039.04s.02.04.039.04zm7.736-8.997c.02 0 .04-.02.04-.04s-.02-.04-.04-.04c-.019 0-.039.02-.039.04-.02.02.02.04.039.04zm8.382-8.39c.02 0 .039-.02.039-.04 0-.019-.019-.038-.039-.038s-.039.02-.039.039c-.02.02 0 .04.039.04zm8.969-7.742c.02 0 .039-.02.039-.04 0-.019-.019-.039-.039-.039-.019 0-.039.02-.039.04s.02.039.039.039zm9.537-7.036c.02 0 .039-.02.039-.04s-.019-.04-.039-.04-.039.02-.039.04.019.04.039.04zm10.047-6.312c.02 0 .039-.02.039-.04s-.019-.039-.039-.039-.039.02-.039.04.019.039.039.039zM228.09 8.507c.02 0 .039-.02.039-.04 0-.019-.019-.038-.039-.038s-.039.02-.039.039c0 .02.019.04.039.04zm214.636 124.035c.02 0 .039-.02.039-.039a.041.041 0 00-.039-.039.041.041 0 00-.039.039c0 .019.019.039.039.039zm1.331 11.78c.02 0 .04-.019.04-.039s-.02-.039-.04-.039c-.019 0-.039.019-.039.039s.02.039.039.039zm13.65 11.859c.019 0 .039-.02.039-.04 0-.019-.02-.039-.039-.039-.02 0-.04.02-.04.039 0 .02.02.04.04.04zm-.411 11.859c.019 0 .039-.02.039-.04 0-.019-.02-.039-.039-.039-.02 0-.04.02-.04.039 0 .02.02.04.04.04zm-1.215 11.799c.02 0 .04-.02.04-.039 0-.02-.02-.04-.04-.04-.019 0-.039.02-.039.04-.02.019 0 .039.039.039zm-2.036 11.78a.134.134 0 00.137-.137.134.134 0 00-.137-.137.134.134 0 00-.137.137c0 .078.058.137.137.137zm-2.84 11.526a.134.134 0 00.137-.138.134.134 0 00-.137-.137.134.134 0 00-.137.137c0 .079.059.138.137.138zm-3.623 11.29a.134.134 0 00.137-.138.134.134 0 00-.137-.137.134.134 0 00-.137.137c0 .079.059.138.137.138zm-4.406 11.016a.134.134 0 00.137-.138.134.134 0 00-.137-.137.134.134 0 00-.137.137c.02.079.078.138.137.138zm-5.131 10.604c.02 0 .039-.02.039-.039 0-.02-.019-.04-.039-.04s-.039.02-.039.04c-.02.019 0 .039.039.039zm-5.875 10.388a.134.134 0 00.137-.137.134.134 0 00-.137-.137.134.134 0 00-.137.137c0 .078.059.137.137.137zm-6.56 10.016a.259.259 0 00.254-.255c0-.156-.117-.274-.254-.274-.138 0-.255.118-.255.274-.02.138.098.255.255.255zm-7.227 9.409a.26.26 0 00.255-.255.26.26 0 00-.255-.255.26.26 0 00-.255.255c-.019.137.098.255.255.255zm-7.873 8.918a.31.31 0 00.313-.313.31.31 0 00-.313-.314.31.31 0 00-.313.314c0 .176.156.313.313.313zm-8.44 8.272a.26.26 0 00.255-.255.26.26 0 00-.255-.255.26.26 0 00-.254.255c-.02.137.098.255.254.255zm-9.009 8.017a.568.568 0 100-1.137.568.568 0 000 1.137zm-9.517 7.35c.45 0 .842-.372.842-.843a.836.836 0 00-.842-.842.836.836 0 00-.842.842c0 .471.372.843.842.843zm-9.988 7.017c.803 0 1.449-.646 1.449-1.45 0-.804-.646-1.45-1.449-1.45s-1.449.646-1.449 1.45c0 .784.646 1.45 1.449 1.45zm-10.399 5.685c.803 0 1.45-.647 1.45-1.451s-.647-1.45-1.45-1.45c-.802 0-1.449.646-1.449 1.45 0 .804.647 1.451 1.449 1.451zm-10.771 4.488c.529 0 .96-.431.96-.96 0-.529-.431-.98-.96-.98a.966.966 0 00-.959.98c0 .509.431.96.959.96zm-11.084 4.254c.568 0 1.018-.451 1.018-1.019 0-.569-.45-1.02-1.018-1.02-.548 0-1.018.451-1.018 1.02.019.548.47 1.019 1.018 1.019zm-11.339 3.253a.849.849 0 00.843-.842.837.837 0 00-.843-.843.836.836 0 00-.842.843c0 .45.372.842.842.842zm-11.554 2.372a.568.568 0 10-.568-.569c-.019.314.255.569.568.569zm-11.711 2.176a.92.92 0 00.92-.921.92.92 0 10-1.841 0c-.019.509.412.921.921.921zm-11.809.803a.702.702 0 00.705-.705.702.702 0 00-.705-.706.702.702 0 00-.705.706c0 .392.313.705.705.705zm-11.848.216a.702.702 0 00.705-.706.702.702 0 00-.705-.705.702.702 0 00-.705.705c0 .392.313.706.705.706zm-11.848-.392a.92.92 0 00.92-.921.92.92 0 10-1.841 0c0 .49.412.921.921.921zm-11.77-1.215a1.137 1.137 0 000-2.274 1.137 1.137 0 000 2.274zm-11.632-2.411a.96.96 0 10-.96-.96c-.019.529.411.96.96.96zm-11.457-2.47a1.55 1.55 0 001.547-1.548c0-.843-.685-1.549-1.547-1.549-.842 0-1.547.686-1.547 1.549 0 .862.686 1.548 1.547 1.548zm-11.221-3.469a1.881 1.881 0 000-3.764c-1.038 0-1.88.843-1.88 1.882-.02 1.039.822 1.882 1.88 1.882zm-10.947-4.94a1.55 1.55 0 001.547-1.548c0-.843-.685-1.549-1.547-1.549-.842 0-1.547.686-1.547 1.549.019.862.705 1.548 1.547 1.548zm-10.576-5.331c.842 0 1.547-.686 1.547-1.549a1.55 1.55 0 00-1.547-1.548c-.861 0-1.547.686-1.547 1.548 0 .863.686 1.549 1.547 1.549zm-10.202-5.88c.94 0 1.723-.765 1.723-1.725 0-.941-.764-1.725-1.723-1.725a1.726 1.726 0 000 3.45zm-9.753-6.332c1.175 0 2.115-.94 2.115-2.116a2.12 2.12 0 00-2.115-2.117c-1.156 0-2.115.94-2.115 2.117a2.12 2.12 0 002.115 2.116zm-9.263-8.369a1.138 1.138 0 000-2.274c-.627 0-1.136.51-1.136 1.137s.489 1.137 1.136 1.137zm-8.734-8.017a1.137 1.137 0 000-2.274c-.627 0-1.136.51-1.136 1.137-.02.627.49 1.137 1.136 1.137zm-8.167-8.84a.92.92 0 100-1.841.92.92 0 000 1.841zm-7.559-9.232a.849.849 0 00.842-.843.849.849 0 00-.842-.843.837.837 0 00-.842.843c0 .47.392.843.842.843zm-6.893-9.644c.47 0 .842-.372.842-.843a.836.836 0 00-.842-.842.848.848 0 00-.842.842c0 .471.372.843.842.843zm-6.228-9.957c.529 0 .96-.431.96-.961 0-.529-.431-.98-.96-.98a.965.965 0 00-.959.98c0 .53.43.961.959.961zm-5.503-10.82a.66.66 0 00.666-.666.66.66 0 00-.666-.667.66.66 0 00-.666.667.66.66 0 00.666.666zm-4.779-11.075a.435.435 0 00.431-.431.435.435 0 00-.431-.431.422.422 0 00-.43.431c0 .235.195.431.43.431zm-4.014-11.075a.527.527 0 00.529-.529.526.526 0 00-.529-.528.526.526 0 00-.529.528c.02.275.255.529.529.529zm-3.232-11.428a.526.526 0 00.529-.528.527.527 0 00-.529-.529.526.526 0 00-.528.529c0 .294.254.528.528.528zm-2.428-11.603a.527.527 0 00.529-.529.527.527 0 00-.529-.529.527.527 0 00-.529.529c0 .294.235.529.529.529zm-1.625-11.839a.435.435 0 00.431-.431.434.434 0 00-.431-.43.421.421 0 00-.431.43c-.019.235.176.431.431.431zm-.823-12.015a.26.26 0 00.255-.254.26.26 0 00-.255-.255.26.26 0 00-.254.255c-.02.137.098.254.254.254zm0-11.722a.392.392 0 000-.783.392.392 0 00-.391.392c0 .196.176.391.391.391zm.823-11.839a.392.392 0 000-.783.393.393 0 00-.392.392c-.019.215.157.391.392.391zm1.625-11.975a.177.177 0 100-.353.177.177 0 000 .353zm2.429-11.526a.258.258 0 00.254-.254c0-.157-.117-.275-.254-.275s-.255.118-.255.275a.26.26 0 00.255.254zm3.231-11.505a.176.176 0 00.176-.177.175.175 0 00-.176-.176.175.175 0 00-.176.176c0 .098.098.177.176.177zm4.015-11.29c.02 0 .039-.02.039-.04s-.019-.039-.039-.039-.039.02-.039.04.019.039.039.039zm4.778-10.859c.02 0 .04-.02.04-.04s-.02-.039-.04-.039c-.019 0-.039.02-.039.04 0 .019.02.039.039.039zm5.503-10.429a.134.134 0 00.137-.136.134.134 0 00-.137-.137.134.134 0 00-.137.137c.02.078.078.137.137.137zm6.227-10.094a.134.134 0 00.138-.137.134.134 0 00-.138-.137.134.134 0 00-.137.137c0 .078.059.137.137.137zm6.894-9.605a.175.175 0 00.176-.176.175.175 0 00-.176-.176.175.175 0 00-.176.176c0 .098.078.176.176.176zm7.56-9.192a.134.134 0 00.137-.138.134.134 0 00-.137-.137.134.134 0 00-.138.137c0 .079.059.138.138.138zm8.166-8.605a.134.134 0 00.137-.137.134.134 0 00-.137-.137.133.133 0 00-.137.137c0 .078.058.137.137.137zm8.734-8.017a.134.134 0 00.137-.137.134.134 0 00-.137-.137.134.134 0 00-.137.137c0 .078.059.137.137.137zm9.263-7.487c.02 0 .039-.02.039-.04 0-.019-.019-.039-.039-.039s-.039.02-.039.04.019.039.039.039zm9.753-6.723c.019 0 .039-.02.039-.04 0-.019-.02-.039-.039-.039-.02 0-.04.02-.04.04s.02.039.04.039zm10.203-6.057c.019 0 .039-.02.039-.039 0-.02-.02-.04-.039-.04-.02 0-.04.02-.04.04-.019.02 0 .04.04.04zM214.166.079c.02 0 .039-.02.039-.04S214.186 0 214.166 0s-.039.02-.039.04c0 .019.019.039.039.039zm237.039 109.236c.02 0 .039-.02.039-.039 0-.02-.019-.04-.039-.04s-.039.02-.039.04c0 .019 0 .039.039.039zm2.84 11.525c.02 0 .039-.019.039-.039a.041.041 0 00-.039-.039.041.041 0 00-.039.039c-.02.02 0 .039.039.039zm2.036 11.682c.02 0 .04-.019.04-.039s-.02-.039-.04-.039c-.019 0-.039.019-.039.039-.02.02 0 .039.039.039zm1.215 11.8c.019 0 .039-.019.039-.039s-.02-.039-.039-.039c-.02 0-.04.019-.04.039s.02.039.04.039zm13.61 11.957a.134.134 0 00.137-.137.134.134 0 00-.137-.137.134.134 0 00-.137.137c.02.078.078.137.137.137zm-.372 11.858a.134.134 0 00.137-.137.134.134 0 00-.137-.137.134.134 0 00-.137.137c0 .078.059.137.137.137zm-1.136 11.8a.137.137 0 00.137-.137.137.137 0 10-.137.137zm-1.899 11.76a.176.176 0 100-.352.176.176 0 100 .352zm-2.625 11.565a.176.176 0 100-.352.176.176 0 100 .352zm-3.388 11.603a.392.392 0 000-.783.392.392 0 000 .783zm-4.093 11.251a.527.527 0 00.529-.529.526.526 0 00-.529-.528.526.526 0 00-.528.528c0 .294.235.529.528.529zm-4.797 10.468a.134.134 0 00.137-.137.134.134 0 00-.137-.137.134.134 0 00-.138.137c.02.078.079.137.138.137zm-5.484 10.506a.134.134 0 00.137-.137.134.134 0 00-.137-.137.134.134 0 00-.137.137c.02.078.078.137.137.137zm-6.13 10.29a.26.26 0 00.255-.254c0-.137-.118-.274-.255-.274s-.254.117-.254.274c-.02.137.098.254.254.254zm-6.795 9.644a.176.176 0 100-.352.175.175 0 00-.176.176c0 .098.078.176.176.176zm-7.383 9.349a.26.26 0 00.255-.254c0-.137-.118-.274-.255-.274s-.255.117-.255.274c-.019.137.118.254.255.254zm-7.97 9.096a.569.569 0 10-.002-1.138.569.569 0 00.002 1.138zm-8.519 8.487a.786.786 0 00.783-.784.786.786 0 00-.783-.784.787.787 0 00-.784.784.8.8 0 00.784.784zm-9.028 7.468a.569.569 0 10-.002-1.138.569.569 0 00.002 1.138zm-9.498 7.449a.92.92 0 00.92-.922.92.92 0 10-1.841 0c0 .51.412.922.921.922zm-9.929 6.821a1.274 1.274 0 10-.002-2.548 1.274 1.274 0 00.002 2.548zm-10.34 6.311c.979 0 1.762-.784 1.762-1.764s-.783-1.764-1.762-1.764-1.763.784-1.763 1.764c.02.96.803 1.764 1.763 1.764zm-10.673 4.665a1.27 1.27 0 001.273-1.274 1.27 1.27 0 00-1.273-1.274 1.27 1.27 0 00-1.273 1.274c0 .686.568 1.274 1.273 1.274zm-10.987 5.057a1.881 1.881 0 10-.002-3.762 1.881 1.881 0 00.002 3.762zm-11.26 3.744c1.038 0 1.88-.843 1.88-1.901a1.881 1.881 0 00-1.88-1.882c-1.038 0-1.88.843-1.88 1.882 0 1.058.842 1.901 1.88 1.901zm-11.457 2.254c.627 0 1.136-.509 1.136-1.136 0-.628-.509-1.157-1.136-1.157-.626 0-1.136.51-1.136 1.157 0 .627.51 1.136 1.136 1.136zm-11.632 2.352c.685 0 1.233-.548 1.233-1.234 0-.686-.548-1.235-1.233-1.235a1.23 1.23 0 00-1.234 1.235c0 .686.548 1.234 1.234 1.234zm-11.75 1.745c.803 0 1.449-.647 1.449-1.45 0-.804-.646-1.451-1.449-1.451s-1.449.647-1.449 1.451c0 .803.646 1.45 1.449 1.45zm-11.849.313c.568 0 1.019-.451 1.019-1.019 0-.549-.451-1.019-1.019-1.019-.568 0-1.018.451-1.018 1.019.02.568.47 1.019 1.018 1.019zm-11.848.412c.784 0 1.41-.628 1.41-1.412 0-.784-.626-1.411-1.41-1.411-.783 0-1.41.627-1.41 1.411s.647 1.412 1.41 1.412zm-11.828-.588a1.58 1.58 0 001.586-1.588 1.58 1.58 0 00-1.586-1.588 1.58 1.58 0 00-1.587 1.588c0 .882.725 1.588 1.587 1.588zm-11.75-1.529a1.58 1.58 0 001.586-1.587 1.58 1.58 0 00-1.586-1.588 1.58 1.58 0 00-1.587 1.588 1.58 1.58 0 001.587 1.587zm-11.633-2.176c.921 0 1.665-.745 1.665-1.666a1.664 1.664 0 10-3.329 0c-.02.921.724 1.666 1.664 1.666zm-11.476-2.47c1.214 0 2.194-.98 2.194-2.195 0-1.215-.98-2.195-2.194-2.195a2.19 2.19 0 00-2.193 2.195c0 1.196.979 2.195 2.193 2.195zm-11.241-3.43a2.5 2.5 0 002.507-2.509 2.5 2.5 0 00-2.507-2.508 2.5 2.5 0 00-2.507 2.508 2.512 2.512 0 002.507 2.509zm-10.986-4.9a2.056 2.056 0 002.056-2.058 2.056 2.056 0 10-4.112 0c-.02 1.137.9 2.058 2.056 2.058zm-10.693-4.175a3.027 3.027 0 003.036-3.038 3.027 3.027 0 00-3.036-3.038 3.026 3.026 0 00-3.035 3.038 3.052 3.052 0 003.035 3.038zm-10.32-6.233a2.646 2.646 0 000-5.292 2.647 2.647 0 00-2.644 2.646 2.634 2.634 0 002.644 2.646zm-9.929-6.331a2.76 2.76 0 002.761-2.764 2.759 2.759 0 00-2.761-2.763 2.758 2.758 0 00-2.761 2.763c-.02 1.529 1.214 2.764 2.761 2.764zm-9.518-7.448a2.408 2.408 0 002.409-2.411 2.408 2.408 0 10-4.818 0 2.408 2.408 0 002.409 2.411zm-9.028-7.566a2.542 2.542 0 002.546-2.548 2.542 2.542 0 00-2.546-2.548 2.542 2.542 0 00-2.546 2.548 2.555 2.555 0 002.546 2.548zm-8.499-9.134c.921 0 1.665-.745 1.665-1.667a1.664 1.664 0 10-3.329 0c-.02.922.744 1.667 1.664 1.667zm-7.971-9.036c.784 0 1.41-.627 1.41-1.411 0-.785-.626-1.412-1.41-1.412-.783 0-1.41.627-1.41 1.412 0 .784.627 1.411 1.41 1.411zm-7.402-9.272c.783 0 1.41-.627 1.41-1.411s-.627-1.411-1.41-1.411c-.784 0-1.41.627-1.41 1.411.019.764.646 1.411 1.41 1.411zm-6.776-9.918a1.23 1.23 0 001.234-1.235c0-.686-.549-1.234-1.234-1.234-.686 0-1.234.548-1.234 1.234a1.23 1.23 0 001.234 1.235zm-6.149-10.408a.962.962 0 000-1.921.962.962 0 000 1.921zm-5.484-10.388c.607 0 1.097-.49 1.097-1.098a1.096 1.096 0 10-2.194 0c0 .608.49 1.098 1.097 1.098zm-4.798-10.84c.607 0 1.097-.49 1.097-1.097a1.096 1.096 0 10-2.193 0c0 .588.489 1.097 1.096 1.097zm-4.092-11.094c.626 0 1.135-.51 1.135-1.137s-.509-1.156-1.135-1.156c-.627 0-1.136.509-1.136 1.156 0 .627.509 1.137 1.136 1.137zm-3.369-11.682c.47 0 .842-.373.842-.843a.837.837 0 00-.842-.843.85.85 0 00-.842.843c0 .47.372.843.842.843zm-2.644-11.624a.784.784 0 100-1.568.784.784 0 000 1.568zm-1.9-11.564a.92.92 0 00.921-.921.92.92 0 10-1.841 0c.02.49.431.921.92.921zm-1.116-12.035a.702.702 0 00.705-.706.702.702 0 00-.705-.705.702.702 0 00-.705.705c0 .392.314.706.705.706zm-.391-11.898a.66.66 0 00.665-.667.66.66 0 00-.665-.666.66.66 0 00-.666.666c.019.373.313.667.666.667zm.392-11.957a.567.567 0 10-.568-.568c-.02.314.235.568.568.568zm1.116-11.799a.57.57 0 10-.002-1.138.57.57 0 00.002 1.138zm1.899-11.86a.434.434 0 00.431-.43.435.435 0 00-.431-.431.422.422 0 00-.431.431c0 .235.196.43.431.43zm2.644-11.74a.26.26 0 00.254-.255.26.26 0 00-.254-.255.26.26 0 00-.255.255c-.019.137.098.255.255.255zm3.368-11.193a.43.43 0 100-.862.43.43 0 000 .862zm4.093-11.407a.175.175 0 00.176-.177.175.175 0 00-.176-.176.175.175 0 00-.176.176c0 .098.078.177.176.177zm4.798-10.762a.26.26 0 00.255-.254c0-.156-.118-.274-.255-.274s-.254.118-.254.274a.26.26 0 00.254.255zm5.484-10.643a.134.134 0 00.137-.137.134.134 0 00-.137-.137.133.133 0 00-.137.137c.019.079.058.137.137.137zm6.149-10.016a.259.259 0 00.254-.255c0-.137-.117-.274-.254-.274s-.255.118-.255.274c0 .157.118.255.255.255zm6.776-9.82a.175.175 0 00.176-.176.175.175 0 00-.176-.177.175.175 0 00-.176.177c0 .098.078.176.176.176zm7.403-9.311a.134.134 0 00.137-.136.134.134 0 00-.137-.137.133.133 0 00-.137.137c0 .078.058.137.137.137zm7.97-8.78a.134.134 0 00.137-.137.134.134 0 00-.137-.137.133.133 0 00-.137.137c0 .078.058.137.137.137zm8.499-8.35c.02 0 .04-.02.04-.039 0-.02-.02-.04-.04-.04-.019 0-.039.02-.039.04s.02.04.039.04zm305.837 101.631c.019 0 .039-.02.039-.039 0-.02-.02-.04-.039-.04-.02 0-.04.02-.04.04 0 .019.02.039.04.039zm1.899 11.721c.02 0 .04-.019.04-.039s-.02-.039-.04-.039c-.019 0-.039.019-.039.039s.02.039.039.039zm1.136 11.8c.02 0 .04-.019.04-.039s-.02-.039-.04-.039c-.019 0-.039.019-.039.039s.02.039.039.039zm13.591 11.957a.134.134 0 00.137-.137.134.134 0 00-.137-.137.134.134 0 00-.137.137c0 .078.059.137.137.137zm-.352 12.113a.393.393 0 00.391-.392.393.393 0 00-.391-.392.393.393 0 00-.392.392c0 .215.176.392.392.392zm-1.058 11.741a.31.31 0 00.314-.314.31.31 0 00-.314-.313.31.31 0 00-.313.313.31.31 0 00.313.314zm-1.782 11.721a.31.31 0 00.313-.313.31.31 0 00-.313-.314.31.31 0 00-.313.314c.019.176.156.313.313.313zm-2.468 11.565c.157 0 .274-.118.274-.255s-.117-.254-.274-.254a.258.258 0 00-.254.254.26.26 0 00.254.255zm-3.152 12.016c.47 0 .842-.373.842-.843a.836.836 0 00-.842-.843.836.836 0 00-.842.843c.019.47.391.843.842.843zm-3.819 11.838c.803 0 1.449-.646 1.449-1.45 0-.804-.646-1.451-1.449-1.451s-1.449.647-1.449 1.451.646 1.45 1.449 1.45zm-4.505 10.055a.526.526 0 00.529-.528.527.527 0 00-.529-.529.526.526 0 00-.528.529c0 .293.235.528.528.528zm-5.13 11.31a1.137 1.137 0 10-1.136-1.137c-.02.628.489 1.137 1.136 1.137zm-5.778 10.134a.92.92 0 100-1.842.92.92 0 00-.92.921c0 .51.411.921.92.921zm-6.384 9.467a.392.392 0 10-.392-.392c0 .216.177.392.392.392zm-6.971 9.919a.703.703 0 00.705-.706.703.703 0 00-.705-.706.702.702 0 00-.705.706c0 .392.313.706.705.706zm-7.521 9.114a.66.66 0 00.666-.666.66.66 0 00-.666-.667.66.66 0 00-.666.667.66.66 0 00.666.666zm-8.068 8.703a.66.66 0 00.666-.667.66.66 0 00-.666-.666.66.66 0 00-.666.666.66.66 0 00.666.667zm-8.578 8.644c.607 0 1.097-.49 1.097-1.098 0-.607-.49-1.097-1.097-1.097s-1.097.49-1.097 1.097c0 .589.51 1.098 1.097 1.098zm-9.028 7.801a1.23 1.23 0 001.234-1.235 1.23 1.23 0 00-1.234-1.235c-.685 0-1.233.549-1.233 1.235s.548 1.235 1.233 1.235zm-9.498 7.547c.92 0 1.665-.745 1.665-1.666a1.664 1.664 0 10-3.33 0c0 .921.745 1.666 1.665 1.666zm-9.889 6.546c.921 0 1.665-.744 1.665-1.666a1.664 1.664 0 10-3.33 0c0 .902.745 1.666 1.665 1.666zm-10.262 6.763a2.5 2.5 0 002.506-2.509 2.5 2.5 0 00-2.506-2.509 2.5 2.5 0 00-2.507 2.509 2.5 2.5 0 002.507 2.509zm-10.595 5.037c1.233 0 2.232-1 2.232-2.234a2.234 2.234 0 10-2.232 2.234zm-10.908 4.312a1.88 1.88 0 10-.001-3.761 1.88 1.88 0 00.001 3.761zm-11.163 4.018c1.038 0 1.88-.843 1.88-1.881a1.869 1.869 0 00-1.88-1.882 1.87 1.87 0 00-1.88 1.882c0 1.019.843 1.881 1.88 1.881zm-11.377 3.313a1.882 1.882 0 000-3.763 1.882 1.882 0 000 3.763zm-11.555 2.294c.862 0 1.547-.686 1.547-1.549a1.55 1.55 0 00-1.547-1.548 1.55 1.55 0 00-1.547 1.548c0 .863.705 1.549 1.547 1.549zm-11.692 1.862c.803 0 1.449-.647 1.449-1.451s-.646-1.45-1.449-1.45-1.449.646-1.449 1.45a1.46 1.46 0 001.449 1.451zm-11.788 1.372a1.58 1.58 0 001.586-1.588 1.58 1.58 0 00-1.586-1.588 1.58 1.58 0 00-1.587 1.588c0 .863.705 1.588 1.587 1.588zm-11.849.706c.96 0 1.763-.784 1.763-1.765 0-.98-.784-1.764-1.763-1.764-.979 0-1.762.784-1.762 1.764 0 .981.783 1.765 1.762 1.765zm-11.847.293a2.232 2.232 0 002.232-2.234c0-1.235-.999-2.254-2.232-2.254a2.237 2.237 0 00-2.233 2.254c0 1.235.999 2.234 2.233 2.234zm-11.829-.882c1.234 0 2.232-1 2.232-2.234a2.232 2.232 0 10-4.465 0c0 1.234.999 2.234 2.233 2.234zm-11.75-1.372a2.47 2.47 0 000-4.94 2.472 2.472 0 00-2.468 2.47c.02 1.372 1.117 2.47 2.468 2.47zm-11.613-2.019a2.717 2.717 0 002.722-2.724 2.718 2.718 0 00-2.722-2.725 2.718 2.718 0 00-2.722 2.725c-.02 1.489 1.214 2.724 2.722 2.724zm-11.476-2.999a2.717 2.717 0 002.722-2.724 2.718 2.718 0 00-2.722-2.725 2.718 2.718 0 00-2.722 2.725 2.717 2.717 0 002.722 2.724zm-11.28-3.312a3.069 3.069 0 003.074-3.078 3.069 3.069 0 00-3.074-3.077 3.069 3.069 0 00-3.075 3.077 3.069 3.069 0 003.075 3.078zm-11.026-4.469a2.935 2.935 0 002.937-2.94 2.935 2.935 0 00-2.937-2.941 2.936 2.936 0 00-2.938 2.941c-.019 1.626 1.312 2.94 2.938 2.94zm-10.771-4.489a3.42 3.42 0 003.427-3.43 3.42 3.42 0 00-3.427-3.43 3.42 3.42 0 00-3.427 3.43 3.445 3.445 0 003.427 3.43zm-10.438-5.978a3.069 3.069 0 003.075-3.078 3.069 3.069 0 00-3.075-3.077 3.082 3.082 0 00-3.075 3.077 3.095 3.095 0 003.075 3.078zm-10.086-6.057a3.244 3.244 0 003.251-3.254 3.244 3.244 0 00-3.251-3.253 3.244 3.244 0 00-3.251 3.253 3.27 3.27 0 003.251 3.254zm-9.693-7.154a2.94 2.94 0 10-.002-5.878 2.94 2.94 0 00.002 5.878zm-9.263-6.782a3.567 3.567 0 003.564-3.568 3.566 3.566 0 00-3.564-3.567 3.554 3.554 0 00-3.564 3.567 3.566 3.566 0 003.564 3.568zm-8.813-8.233a3.244 3.244 0 003.251-3.253 3.245 3.245 0 00-3.251-3.254 3.244 3.244 0 00-3.251 3.254 3.27 3.27 0 003.251 3.253zm-8.323-8.467a3.244 3.244 0 003.251-3.254 3.244 3.244 0 00-3.251-3.253 3.244 3.244 0 00-3.251 3.253 3.257 3.257 0 003.251 3.254zm-7.794-9.84a2.325 2.325 0 002.33-2.333 2.324 2.324 0 00-2.33-2.332 2.325 2.325 0 00-2.331 2.332 2.338 2.338 0 002.331 2.333zm-7.246-9.84c1.038 0 1.899-.843 1.899-1.882a1.885 1.885 0 00-1.899-1.881 1.881 1.881 0 000 3.763zm-6.678-9.663a2.018 2.018 0 002.017-2.019 2.018 2.018 0 10-2.017 2.019zm-6.091-10.192a2.015 2.015 0 002.017-2.019 2.015 2.015 0 00-2.017-2.019 2.015 2.015 0 00-2.017 2.019c0 1.117.901 2.019 2.017 2.019zm-5.444-10.84c.94 0 1.723-.764 1.723-1.725 0-.94-.763-1.724-1.723-1.724-.94 0-1.723.764-1.723 1.724 0 .961.764 1.725 1.723 1.725zm-4.837-11.153c.783 0 1.41-.627 1.41-1.411s-.627-1.411-1.41-1.411c-.783 0-1.41.627-1.41 1.411.019.784.646 1.411 1.41 1.411zm-4.152-11.368a1.137 1.137 0 000-2.274c-.626 0-1.136.51-1.136 1.137-.02.627.49 1.137 1.136 1.137zM95 210.299c.783 0 1.41-.627 1.41-1.411s-.627-1.411-1.41-1.411c-.784 0-1.41.627-1.41 1.411s.646 1.411 1.41 1.411zm-2.8-11.996a.92.92 0 00.92-.921.92.92 0 10-1.84 0c0 .49.41.921.92.921zm-2.115-11.682a.92.92 0 100-1.842.92.92 0 100 1.842zm-1.43-11.741a.961.961 0 000-1.921.962.962 0 000 1.921zm-.705-11.878a.92.92 0 00.92-.921.92.92 0 10-1.84 0 .92.92 0 00.92.921zm0-11.957c.47 0 .842-.372.842-.843a.848.848 0 00-.842-.842.836.836 0 00-.842.842c.02.471.391.843.842.843zm.705-12.015a.66.66 0 00.665-.666.66.66 0 00-.665-.667.66.66 0 00-.666.667c.02.372.313.666.666.666zm1.429-11.741a.703.703 0 00.705-.706.703.703 0 00-.705-.706.703.703 0 00-.705.706c0 .392.313.706.705.706zm2.116-11.722a.66.66 0 00.665-.666.66.66 0 00-.666-.666.66.66 0 00-.666.666.66.66 0 00.666.666zm2.8-11.525a.66.66 0 00.665-.666.66.66 0 00-.665-.667.66.66 0 00-.666.667c.02.372.313.666.666.666zm3.505-11.546c.255 0 .431-.196.431-.45a.422.422 0 00-.43-.431.435.435 0 00-.431.43c0 .236.176.451.43.451zm4.152-11.035a.526.526 0 00.528-.529.526.526 0 00-.528-.528.527.527 0 00-.529.528.54.54 0 00.529.53zm4.837-10.564a.786.786 0 00.783-.784.786.786 0 00-.783-.784.786.786 0 00-.783.784c-.02.431.333.784.783.784zm5.444-10.938a.393.393 0 00.392-.392.393.393 0 00-.392-.392.393.393 0 00-.392.392c0 .215.177.392.392.392zm6.091-10.173a.393.393 0 00.392-.392.393.393 0 00-.784 0c0 .215.176.392.392.392zm6.678-10.075a.134.134 0 00.137-.137.134.134 0 00-.137-.137.134.134 0 00-.137.137c0 .079.059.137.137.137zm7.246-9.349a.175.175 0 00.176-.176.175.175 0 00-.176-.177.176.176 0 100 .353zm363.059 149.731a.28.28 0 00.274-.274c0-.137-.117-.254-.274-.254a.258.258 0 00-.254.254c-.02.157.098.274.254.274zm-1.664 11.878a.392.392 0 000-.783.392.392 0 000 .783zm-2.311 11.546a.31.31 0 00.314-.314.31.31 0 00-.314-.313.31.31 0 00-.313.313.31.31 0 00.313.314zm-2.957 11.701a.526.526 0 00.528-.529.526.526 0 00-.528-.529.527.527 0 00-.529.529c0 .294.235.529.529.529zm-3.604 11.801c.568 0 1.018-.451 1.018-1.019 0-.569-.45-1.02-1.018-1.02-.568 0-1.018.451-1.018 1.02 0 .568.45 1.019 1.018 1.019zm-4.23 11.604c.842 0 1.547-.686 1.547-1.549a1.55 1.55 0 00-1.547-1.548 1.55 1.55 0 00-1.547 1.548c.02.863.705 1.549 1.547 1.549zm-4.837 11.015c.94 0 1.723-.764 1.723-1.705 0-.941-.763-1.725-1.723-1.725-.94 0-1.723.764-1.723 1.725 0 .96.763 1.705 1.723 1.705zm-5.444 11.251a2.408 2.408 0 002.409-2.411 2.408 2.408 0 10-4.818 0 2.42 2.42 0 002.409 2.411zm-6.032 8.801c.548 0 1.019-.451 1.019-1.019 0-.549-.451-1.019-1.019-1.019a1.01 1.01 0 00-1.018 1.019c.019.568.47 1.019 1.018 1.019zm-6.58 9.997a1.137 1.137 0 000-2.274 1.137 1.137 0 000 2.274zm-7.128 9.036a.702.702 0 00.705-.706.702.702 0 00-.705-.706.702.702 0 00-.705.706c0 .392.313.706.705.706zm-7.638 9.506a1.137 1.137 0 000-2.274c-.627 0-1.136.51-1.136 1.137-.019.627.49 1.137 1.136 1.137zm-8.146 8.938a1.45 1.45 0 10-.001-2.9 1.45 1.45 0 00.001 2.9zm-8.618 7.801c.607 0 1.097-.49 1.097-1.097a1.096 1.096 0 10-2.193 0c0 .607.489 1.097 1.096 1.097zm-9.067 8.742a2.19 2.19 0 002.194-2.195 2.19 2.19 0 00-2.194-2.195 2.19 2.19 0 00-2.193 2.195 2.19 2.19 0 002.193 2.195zm-9.458 7.135a2.19 2.19 0 002.193-2.195 2.19 2.19 0 00-2.193-2.195 2.19 2.19 0 00-2.194 2.195c-.019 1.215.979 2.195 2.194 2.195zm-9.87 6.645c1.233 0 2.232-1 2.232-2.234a2.233 2.233 0 10-4.465 0c0 1.234.999 2.234 2.233 2.234zm-10.204 6.292a2.5 2.5 0 002.507-2.509 2.5 2.5 0 00-2.507-2.509 2.5 2.5 0 00-2.506 2.509 2.5 2.5 0 002.506 2.509zm-10.536 6.017a3.069 3.069 0 003.075-3.077 3.08 3.08 0 00-3.075-3.077 3.08 3.08 0 00-3.074 3.077 3.069 3.069 0 003.074 3.077zm-10.81 4.312a2.541 2.541 0 002.546-2.548 2.542 2.542 0 00-2.546-2.548 2.542 2.542 0 00-2.546 2.548c-.019 1.412 1.136 2.548 2.546 2.548zm-11.084 4.019a2.324 2.324 0 002.33-2.333 2.323 2.323 0 00-2.33-2.332 2.324 2.324 0 00-2.33 2.332 2.325 2.325 0 002.33 2.333zm-11.3 3.782a2.5 2.5 0 002.507-2.509 2.5 2.5 0 00-2.507-2.508 2.5 2.5 0 00-2.507 2.508 2.513 2.513 0 002.507 2.509zm-11.476 3.176a2.717 2.717 0 002.722-2.725 2.717 2.717 0 00-2.722-2.724 2.717 2.717 0 00-2.722 2.724 2.717 2.717 0 002.722 2.725zm-11.613 2.137a2.542 2.542 0 002.546-2.548 2.542 2.542 0 00-2.546-2.549 2.542 2.542 0 00-2.546 2.549c-.019 1.411 1.136 2.548 2.546 2.548zm-11.75 1.666a2.547 2.547 0 002.546-2.549 2.547 2.547 0 10-5.092 0 2.547 2.547 0 002.546 2.549zm-11.809 1.392c1.626 0 2.958-1.314 2.958-2.94a2.94 2.94 0 00-2.958-2.941 2.935 2.935 0 00-2.937 2.941 2.935 2.935 0 002.937 2.94zm-11.848.332a2.935 2.935 0 002.938-2.94 2.935 2.935 0 00-2.938-2.94c-1.625 0-2.957 1.313-2.957 2.94s1.332 2.94 2.957 2.94zm-11.848-.156a3.111 3.111 0 003.114-3.117 3.11 3.11 0 00-3.114-3.116 3.11 3.11 0 00-3.114 3.116c-.019 1.725 1.391 3.117 3.114 3.117zm-11.809-1.078a3.027 3.027 0 003.035-3.039 3.04 3.04 0 00-3.035-3.038 3.028 3.028 0 00-3.036 3.038 3.04 3.04 0 003.036 3.039zm-11.75-1.274c1.9 0 3.427-1.549 3.427-3.43a3.432 3.432 0 00-3.427-3.43 3.445 3.445 0 00-3.427 3.43 3.42 3.42 0 003.427 3.43zm-11.613-2.529a3.216 3.216 0 003.212-3.214 3.203 3.203 0 00-3.212-3.215 3.203 3.203 0 00-3.212 3.215 3.215 3.215 0 003.212 3.214zm-11.496-2.881c1.822 0 3.29-1.47 3.29-3.293a3.286 3.286 0 00-3.29-3.293 3.286 3.286 0 00-3.29 3.293 3.286 3.286 0 003.29 3.293zm-11.299-3.685a3.203 3.203 0 003.212-3.215 3.203 3.203 0 00-3.212-3.214 3.215 3.215 0 00-3.212 3.214c.02 1.764 1.449 3.215 3.212 3.215zm-11.065-4.234a3.215 3.215 0 000-6.429 3.215 3.215 0 000 6.429zm-10.83-4.626a3.42 3.42 0 003.428-3.43 3.42 3.42 0 00-3.428-3.43 3.42 3.42 0 00-3.427 3.43 3.432 3.432 0 003.427 3.43zm-10.516-5.449a3.432 3.432 0 003.427-3.43 3.42 3.42 0 00-3.427-3.43 3.42 3.42 0 00-3.427 3.43 3.42 3.42 0 003.427 3.43zm-10.223-5.762a3.68 3.68 0 003.682-3.685 3.679 3.679 0 00-3.682-3.685 3.679 3.679 0 00-3.681 3.685 3.68 3.68 0 003.681 3.685zm-9.85-7.037a3.245 3.245 0 003.251-3.254 3.245 3.245 0 00-3.251-3.254 3.245 3.245 0 00-3.251 3.254 3.245 3.245 0 003.251 3.254zm-9.479-6.958a3.42 3.42 0 003.427-3.431 3.42 3.42 0 00-3.427-3.43 3.42 3.42 0 00-3.427 3.43 3.433 3.433 0 003.427 3.431zm-9.047-7.43a3.643 3.643 0 003.642-3.645 3.643 3.643 0 10-7.285 0 3.644 3.644 0 003.643 3.645zm-8.617-8.016a3.784 3.784 0 000-7.566 3.771 3.771 0 00-3.78 3.783 3.785 3.785 0 003.78 3.783zm-8.147-8.762a3.638 3.638 0 003.643-3.646 3.637 3.637 0 00-3.643-3.645 3.636 3.636 0 00-3.642 3.645 3.637 3.637 0 003.642 3.646zm-7.637-9.585a3.11 3.11 0 003.113-3.116 3.11 3.11 0 00-3.113-3.117 3.11 3.11 0 00-3.114 3.117c-.02 1.705 1.39 3.116 3.114 3.116zm-7.129-9.486a3.11 3.11 0 003.114-3.117 3.11 3.11 0 00-3.114-3.117 3.111 3.111 0 00-3.114 3.117c-.019 1.725 1.391 3.117 3.114 3.117zm-6.599-9.899a3.068 3.068 0 003.074-3.077 3.068 3.068 0 00-3.074-3.078 3.069 3.069 0 00-3.075 3.078 3.082 3.082 0 003.075 3.077zm-6.012-11.055c1.234 0 2.252-1 2.252-2.235a2.236 2.236 0 00-2.252-2.234 2.232 2.232 0 00-2.233 2.234c-.02 1.216 1 2.235 2.233 2.235zm-5.445-10.369c1.332 0 2.429-1.078 2.429-2.411a2.412 2.412 0 00-2.429-2.411 2.396 2.396 0 00-2.409 2.411c-.02 1.313 1.078 2.411 2.41 2.411zm-4.837-10.84a2.408 2.408 0 002.409-2.411c0-1.333-1.077-2.43-2.409-2.43a2.412 2.412 0 00-2.409 2.43c-.02 1.333 1.058 2.411 2.41 2.411zm-4.23-11.564a1.931 1.931 0 001.94-1.94 1.932 1.932 0 00-1.939-1.941 1.945 1.945 0 00-1.94 1.941c0 1.078.862 1.94 1.94 1.94zm-3.604-11.133a2.12 2.12 0 002.116-2.117 2.12 2.12 0 00-2.115-2.117 2.107 2.107 0 00-2.115 2.117c0 1.176.94 2.117 2.114 2.117zm-2.956-12.055a1.55 1.55 0 001.547-1.548c0-.843-.686-1.549-1.547-1.549-.842 0-1.547.686-1.547 1.549 0 .862.685 1.548 1.547 1.548zm-2.312-11.78c.784 0 1.41-.627 1.41-1.411s-.626-1.412-1.41-1.412c-.783 0-1.41.628-1.41 1.412 0 .784.627 1.411 1.41 1.411zm-1.664-11.702c.803 0 1.45-.647 1.45-1.451 0-.803-.647-1.45-1.45-1.45-.803 0-1.449.647-1.449 1.45 0 .804.646 1.451 1.45 1.451zm-.998-11.859c.783 0 1.41-.627 1.41-1.411s-.627-1.411-1.41-1.411c-.784 0-1.41.627-1.41 1.411s.626 1.411 1.41 1.411zm-.334-11.819c.803 0 1.45-.647 1.45-1.45 0-.804-.647-1.451-1.45-1.451-.803 0-1.449.647-1.449 1.451 0 .803.646 1.45 1.45 1.45zm.333-12.212c.607 0 1.097-.49 1.097-1.097a1.095 1.095 0 10-2.193 0c0 .607.49 1.097 1.096 1.097zm.999-11.819c.607 0 1.097-.49 1.097-1.098 0-.607-.49-1.097-1.097-1.097s-1.097.49-1.097 1.097c0 .608.49 1.098 1.097 1.098zm1.665-11.76c.607 0 1.097-.49 1.097-1.098a1.096 1.096 0 10-2.194 0c0 .608.49 1.098 1.097 1.098zm2.311-11.937a.784.784 0 10-.001-1.567.784.784 0 000 1.567zm2.957-11.31a.962.962 0 000-1.92.962.962 0 000 1.92zm3.603-11.702a.569.569 0 10-.001-1.137.569.569 0 000 1.137zm4.23-11.212c.255 0 .43-.196.43-.431a.435.435 0 00-.43-.431.435.435 0 00-.43.43c-.02.236.176.432.43.432zm4.837-10.702a.569.569 0 10-.001-1.137.569.569 0 00.001 1.137zm5.445-10.545a.569.569 0 10-.568-.569c-.02.314.254.569.568.569zm6.012-10.624a.175.175 0 00.176-.176.175.175 0 00-.176-.177.176.176 0 100 .353zm6.6-9.996c.019 0 .039-.02.039-.04s-.02-.039-.039-.039c-.02 0-.04.02-.04.04-.019.02 0 .039.04.039zm391.905 169.92a.44.44 0 00.451-.431c0-.255-.196-.431-.451-.431a.434.434 0 00-.43.431c0 .235.195.431.43.431zm-2.78 11.486a.393.393 0 00.392-.392.392.392 0 10-.392.392zm-3.408 11.232a.26.26 0 00.255-.255c0-.157-.118-.274-.255-.274s-.254.117-.254.274a.26.26 0 00.254.255zm-3.975 11.172a.26.26 0 00.255-.254.26.26 0 00-.255-.255c-.137 0-.274.118-.274.255s.117.254.274.254zm-4.583 12.232c.843 0 1.548-.686 1.548-1.549 0-.843-.686-1.548-1.548-1.548a1.55 1.55 0 00-1.547 1.548c.02.863.705 1.549 1.547 1.549zm-5.15 11.623a2.459 2.459 0 002.467-2.47 2.47 2.47 0 00-2.467-2.469 2.47 2.47 0 00-2.468 2.469c.02 1.353 1.116 2.47 2.468 2.47zm-5.699 9.957a2.015 2.015 0 002.017-2.018 2.015 2.015 0 00-2.017-2.019 2.015 2.015 0 00-2.017 2.019c0 1.117.901 2.018 2.017 2.018zm-6.227 10.095a2.015 2.015 0 002.017-2.019 2.015 2.015 0 00-2.017-2.019 2.016 2.016 0 00-2.018 2.019c0 1.098.901 2.019 2.018 2.019zm-6.777 8.86a1.137 1.137 0 000-2.274 1.138 1.138 0 000 2.274zm-7.265 9.977c.979 0 1.762-.785 1.762-1.765 0-.98-.783-1.764-1.762-1.764s-1.763.784-1.763 1.764.803 1.765 1.763 1.765zm-7.755 8.977c.979 0 1.763-.784 1.763-1.765 0-.98-.784-1.764-1.763-1.764-.979 0-1.763.784-1.763 1.764 0 .981.803 1.765 1.763 1.765zm-8.206 8.565c.979 0 1.762-.784 1.762-1.764s-.783-1.764-1.762-1.764-1.763.784-1.763 1.764.784 1.764 1.763 1.764zm-8.656 8.547a2.192 2.192 0 002.194-2.196 2.19 2.19 0 00-2.194-2.195 2.19 2.19 0 00-2.193 2.195c0 1.215.979 2.196 2.193 2.196zm-9.067 8.291a2.851 2.851 0 002.859-2.862 2.85 2.85 0 00-2.859-2.862 2.864 2.864 0 00-2.859 2.862 2.852 2.852 0 002.859 2.862zm-9.459 7.154a2.851 2.851 0 002.859-2.862 2.851 2.851 0 00-2.859-2.861 2.863 2.863 0 00-2.859 2.861 2.851 2.851 0 002.859 2.862zm-9.831 6.997a3.215 3.215 0 003.212-3.214 3.202 3.202 0 00-3.212-3.215 3.202 3.202 0 00-3.211 3.215 3.215 3.215 0 003.211 3.214zm-10.163 6.155c1.801 0 3.25-1.45 3.25-3.253a3.244 3.244 0 00-3.25-3.254 3.244 3.244 0 00-3.251 3.254 3.244 3.244 0 003.251 3.253zm-10.458 5.782a3.461 3.461 0 003.466-3.469 3.461 3.461 0 00-3.466-3.469 3.462 3.462 0 00-3.467 3.469c-.019 1.921 1.548 3.469 3.467 3.469zm-10.752 5.018a3.461 3.461 0 003.467-3.469 3.461 3.461 0 00-3.467-3.469 3.461 3.461 0 00-3.466 3.469 3.474 3.474 0 003.466 3.469zm-11.006 4.469a3.508 3.508 0 003.506-3.528 3.504 3.504 0 00-3.506-3.508 3.503 3.503 0 00-3.505 3.508 3.508 3.508 0 003.505 3.528zm-11.201 4.293a3.947 3.947 0 003.956-3.959 3.948 3.948 0 00-3.956-3.96 3.947 3.947 0 00-3.956 3.96 3.958 3.958 0 003.956 3.959zm-11.417 3.019a3.742 3.742 0 003.74-3.744 3.742 3.742 0 00-3.74-3.744 3.742 3.742 0 00-3.741 3.744c.02 2.078 1.684 3.744 3.741 3.744zm-11.555 2.43c1.939 0 3.525-1.568 3.525-3.508a3.523 3.523 0 00-3.525-3.528 3.507 3.507 0 00-3.505 3.528 3.49 3.49 0 003.505 3.508zm-11.672 1.588a3.069 3.069 0 003.075-3.078 3.069 3.069 0 00-3.075-3.077 3.069 3.069 0 00-3.074 3.077 3.082 3.082 0 003.074 3.078zm-11.769 1.803a3.462 3.462 0 003.466-3.469 3.462 3.462 0 00-3.466-3.47 3.48 3.48 0 00-3.486 3.47c0 1.901 1.567 3.469 3.486 3.469zm-11.829.902a3.595 3.595 0 003.603-3.607 3.595 3.595 0 00-3.603-3.606 3.595 3.595 0 00-3.603 3.606 3.595 3.595 0 003.603 3.607zm-11.848.157a3.608 3.608 0 003.603-3.607 3.595 3.595 0 00-3.603-3.607 3.596 3.596 0 00-3.603 3.607c-.02 1.999 1.606 3.607 3.603 3.607zm-11.848-.255a3.814 3.814 0 003.819-3.823 3.813 3.813 0 00-3.819-3.822 3.813 3.813 0 00-3.819 3.822c-.02 2.117 1.704 3.823 3.819 3.823zm-11.809-1.568a3.35 3.35 0 003.349-3.352 3.336 3.336 0 00-3.349-3.352 3.35 3.35 0 00-3.349 3.352 3.35 3.35 0 003.349 3.352zm-11.73-1.764c1.821 0 3.29-1.47 3.29-3.293a3.286 3.286 0 00-3.29-3.293 3.286 3.286 0 00-3.29 3.293 3.286 3.286 0 003.29 3.293zm-11.633-1.98a3.638 3.638 0 003.643-3.646 3.638 3.638 0 00-3.643-3.646 3.638 3.638 0 00-3.643 3.646 3.638 3.638 0 003.643 3.646zm-11.476-2.509a4.093 4.093 0 004.093-4.097 4.105 4.105 0 00-4.093-4.096 4.093 4.093 0 00-4.093 4.096 4.093 4.093 0 004.093 4.097zm-11.319-3.803a3.812 3.812 0 003.818-3.822 3.825 3.825 0 00-3.818-3.822 3.826 3.826 0 00-3.819 3.822 3.825 3.825 0 003.819 3.822zm-11.104-4.234a3.742 3.742 0 003.741-3.743 3.742 3.742 0 10-7.481 0 3.741 3.741 0 003.74 3.743zm-10.869-4.723a3.742 3.742 0 003.74-3.744 3.742 3.742 0 10-7.481 0 3.73 3.73 0 003.741 3.744zm-10.614-5.371a3.637 3.637 0 003.642-3.646 3.637 3.637 0 00-3.642-3.645 3.638 3.638 0 00-3.643 3.645c-.019 2 1.626 3.646 3.643 3.646zm-10.321-5.273c2.33 0 4.21-1.882 4.21-4.214 0-2.333-1.88-4.234-4.21-4.234a4.21 4.21 0 00-4.211 4.234c-.019 2.313 1.88 4.214 4.211 4.214zm-9.987-6.644a3.947 3.947 0 003.956-3.96 3.947 3.947 0 00-3.956-3.959 3.947 3.947 0 00-3.956 3.959 3.947 3.947 0 003.956 3.96zm-9.655-6.9a3.946 3.946 0 003.955-3.959 3.946 3.946 0 00-3.955-3.96 3.946 3.946 0 00-3.956 3.96 3.946 3.946 0 003.956 3.959zm-9.263-7.801a3.566 3.566 0 003.564-3.567 3.566 3.566 0 00-3.564-3.568 3.555 3.555 0 00-3.565 3.568 3.554 3.554 0 003.565 3.567zm-8.872-7.645a3.77 3.77 0 003.78-3.783 3.771 3.771 0 00-3.78-3.783 3.771 3.771 0 00-3.779 3.783 3.783 3.783 0 003.779 3.783zm-8.44-8.33a3.772 3.772 0 003.78-3.783 3.772 3.772 0 00-3.78-3.783 3.784 3.784 0 00-3.78 3.783 3.796 3.796 0 003.78 3.783zm-7.99-9.173a3.378 3.378 0 003.388-3.391 3.378 3.378 0 00-3.388-3.391 3.378 3.378 0 00-3.388 3.391 3.39 3.39 0 003.388 3.391zm-7.5-8.821a3.741 3.741 0 003.74-3.743 3.742 3.742 0 10-7.481 0 3.73 3.73 0 003.741 3.743zm-7.031-10.055a3.245 3.245 0 003.251-3.254 3.245 3.245 0 00-3.251-3.254 3.245 3.245 0 00-3.25 3.254 3.257 3.257 0 003.25 3.254zm-6.502-10.31a2.851 2.851 0 002.86-2.862 2.851 2.851 0 00-2.86-2.861 2.864 2.864 0 00-2.859 2.861 2.864 2.864 0 002.86 2.862zm-5.973-10.251a2.865 2.865 0 002.86-2.862 2.851 2.851 0 00-2.86-2.862 2.851 2.851 0 00-2.86 2.862 2.865 2.865 0 002.86 2.862zm-5.425-11.388a2.015 2.015 0 002.017-2.019c0-1.118-.9-2.019-2.017-2.019a2.015 2.015 0 00-2.017 2.019c0 1.117.901 2.019 2.017 2.019zm-4.857-10.644a2.19 2.19 0 002.194-2.195c0-1.215-.98-2.196-2.194-2.196a2.192 2.192 0 00-2.193 2.196 2.19 2.19 0 002.194 2.195zm-4.288-11.584c.92 0 1.664-.745 1.664-1.666a1.664 1.664 0 10-3.329 0c0 .902.744 1.666 1.665 1.666zm-3.682-11.584c.744 0 1.371-.608 1.371-1.372 0-.745-.607-1.352-1.37-1.352-.745 0-1.372.607-1.372 1.352 0 .764.608 1.372 1.371 1.372zm-3.094-11.722c.607 0 1.097-.49 1.097-1.097a1.095 1.095 0 10-2.194 0c0 .607.49 1.097 1.097 1.097zm-2.487-11.603c.607 0 1.096-.49 1.096-1.098a1.095 1.095 0 10-2.193 0c0 .608.49 1.098 1.097 1.098zm-1.88-11.271c.842 0 1.547-.686 1.547-1.549a1.55 1.55 0 00-1.547-1.548 1.55 1.55 0 00-1.547 1.548c.02.863.705 1.549 1.547 1.549zm-1.234-12.113a1.23 1.23 0 001.234-1.235 1.23 1.23 0 00-1.234-1.235 1.23 1.23 0 00-1.233 1.235 1.23 1.23 0 001.233 1.235zm-.626-11.977c.607 0 1.096-.49 1.096-1.097a1.095 1.095 0 10-2.193 0c0 .607.49 1.097 1.097 1.097zm-.001-11.819a1.137 1.137 0 10-1.135-1.137c-.02.628.49 1.137 1.135 1.137zm.627-12.035c.529 0 .96-.432.96-.961 0-.529-.431-.98-.96-.98a.966.966 0 00-.96.98c0 .549.412.961.96.961zm1.234-11.486a1.274 1.274 0 10-.002-2.548 1.274 1.274 0 00.002 2.548zm1.88-11.977a1.01 1.01 0 001.018-1.019c0-.568-.45-1.019-1.018-1.019-.548 0-1.018.451-1.018 1.019 0 .569.45 1.019 1.018 1.019zm2.488-11.956a.657.657 0 00.645-.667.657.657 0 10-1.312 0 .66.66 0 00.666.667zm3.093-11.467a.66.66 0 00.666-.666.66.66 0 00-.666-.666.66.66 0 00-.665.666.66.66 0 00.665.666zm3.682-11.27a.66.66 0 00.666-.667.66.66 0 00-.666-.666.66.66 0 00-.666.666c.02.373.314.667.666.667zm4.289-11.408a.31.31 0 00.313-.314.31.31 0 00-.313-.313.31.31 0 00-.314.313.31.31 0 00.314.314zm426.255 179.074c.138 0 .275-.117.275-.254s-.118-.255-.275-.255a.26.26 0 00-.254.255c0 .137.117.254.254.254zm-4.876 10.859a.31.31 0 00.314-.313.31.31 0 00-.314-.314.31.31 0 00-.313.314.31.31 0 00.313.313zm-5.405 10.428a.176.176 0 100-.352.175.175 0 00-.176.176c0 .098.078.176.176.176zm-5.934 11.388a1.27 1.27 0 001.273-1.274c0-.705-.568-1.274-1.273-1.274s-1.273.569-1.273 1.274c0 .686.568 1.274 1.273 1.274zm-6.423 9.212a.527.527 0 00.529-.529.527.527 0 00-.529-.529.527.527 0 00-.529.529c0 .294.235.529.529.529zm-6.933 11.389a2.295 2.295 0 002.291-2.293 2.283 2.283 0 00-2.291-2.294 2.296 2.296 0 00-2.291 2.294c.019 1.274 1.038 2.293 2.291 2.293zm-7.382 8.84c1.018 0 1.84-.823 1.84-1.842a1.84 1.84 0 10-3.681 0c0 1.019.822 1.842 1.841 1.842zm-7.834 9.467a2.412 2.412 0 002.408-2.43 2.408 2.408 0 10-4.817 0 2.387 2.387 0 002.409 2.43zm-8.284 8.547a2.471 2.471 0 000-4.94 2.458 2.458 0 00-2.467 2.47 2.47 2.47 0 002.467 2.47zm-8.695 8.467a2.864 2.864 0 002.859-2.862 2.851 2.851 0 00-2.859-2.861 2.851 2.851 0 00-2.859 2.861 2.864 2.864 0 002.859 2.862zm-9.087 7.232a2.47 2.47 0 002.468-2.469 2.471 2.471 0 00-2.468-2.47 2.458 2.458 0 00-2.467 2.47c.019 1.352 1.116 2.469 2.467 2.469zm-9.439 8.292a3.595 3.595 0 003.603-3.606c0-2-1.606-3.607-3.603-3.607a3.595 3.595 0 00-3.603 3.607 3.595 3.595 0 003.603 3.606zm-9.792 6.116a3.027 3.027 0 003.036-3.038 3.027 3.027 0 00-3.036-3.039 3.027 3.027 0 00-3.035 3.039 3.027 3.027 0 003.035 3.038zm-10.125 6.684c1.939 0 3.525-1.568 3.525-3.509a3.507 3.507 0 00-3.525-3.508 3.503 3.503 0 00-3.505 3.508 3.503 3.503 0 003.505 3.509zm-10.418 5.586a3.433 3.433 0 003.427-3.43 3.433 3.433 0 00-3.427-3.431 3.42 3.42 0 00-3.428 3.431 3.433 3.433 0 003.428 3.43zm-10.673 5.234a3.503 3.503 0 003.505-3.509c0-1.94-1.566-3.528-3.505-3.528a3.508 3.508 0 00-3.506 3.528 3.492 3.492 0 003.506 3.509zm-10.928 4.861a3.771 3.771 0 003.78-3.783 3.77 3.77 0 00-3.78-3.783 3.77 3.77 0 00-3.779 3.783 3.783 3.783 0 003.779 3.783zm-11.123 4.233a3.947 3.947 0 003.956-3.959 3.948 3.948 0 00-3.956-3.96 3.947 3.947 0 00-3.956 3.96c-.02 2.195 1.762 3.959 3.956 3.959zm-11.339 3.724a4.164 4.164 0 004.171-4.175 4.177 4.177 0 00-4.171-4.175 4.164 4.164 0 00-4.171 4.175 4.164 4.164 0 004.171 4.175zm-11.496 2.98c2.331 0 4.23-1.882 4.23-4.214a4.227 4.227 0 00-4.23-4.234 4.21 4.21 0 00-4.21 4.234 4.219 4.219 0 004.21 4.214zm-11.613 1.94a3.813 3.813 0 003.819-3.822 3.813 3.813 0 00-3.819-3.822 3.813 3.813 0 00-3.819 3.822 3.813 3.813 0 003.819 3.822zm-11.73 1.823a3.86 3.86 0 003.858-3.881 3.855 3.855 0 00-3.858-3.861 3.854 3.854 0 00-3.858 3.861c0 2.137 1.723 3.881 3.858 3.881zm-11.789 1.274a3.946 3.946 0 003.955-3.959 3.946 3.946 0 00-3.955-3.96 3.96 3.96 0 00-3.956 3.96 3.972 3.972 0 003.956 3.959zm-11.849.412a3.771 3.771 0 003.78-3.783 3.771 3.771 0 00-3.78-3.783 3.771 3.771 0 00-3.779 3.783 3.795 3.795 0 003.779 3.783zm-11.848.392a4.164 4.164 0 004.171-4.175 4.164 4.164 0 00-4.171-4.175 4.164 4.164 0 00-4.171 4.175 4.164 4.164 0 004.171 4.175zm-11.848-.902a3.854 3.854 0 003.858-3.861 3.855 3.855 0 00-3.858-3.862 3.855 3.855 0 00-3.858 3.862 3.855 3.855 0 003.858 3.861zm-11.789-1.176a3.86 3.86 0 003.858-3.881 3.855 3.855 0 00-3.858-3.861c-2.135 0-3.878 1.725-3.878 3.861.02 2.137 1.743 3.881 3.878 3.881zm-11.711-1.862a3.783 3.783 0 000-7.566 3.783 3.783 0 00-3.779 3.783 3.77 3.77 0 003.779 3.783zm-11.633-2.039a4.092 4.092 0 004.093-4.096 4.093 4.093 0 00-4.093-4.097 4.106 4.106 0 00-4.093 4.097c.02 2.274 1.841 4.096 4.093 4.096zm-11.476-2.979a4.035 4.035 0 004.035-4.057c0-2.235-1.802-4.058-4.035-4.058a4.035 4.035 0 00-4.034 4.058 4.022 4.022 0 004.034 4.057zm-11.338-3.352a4.176 4.176 0 000-8.35 4.177 4.177 0 00-4.172 4.175c0 2.294 1.88 4.175 4.172 4.175zm-11.143-4.057a4.164 4.164 0 004.171-4.175 4.164 4.164 0 00-4.171-4.175 4.177 4.177 0 00-4.172 4.175c0 2.293 1.88 4.175 4.172 4.175zm-10.909-4.528a4.281 4.281 0 004.269-4.273 4.268 4.268 0 10-8.538 0c0 2.372 1.9 4.273 4.269 4.273zm-10.692-5.37a4.035 4.035 0 004.034-4.058 4.03 4.03 0 00-4.034-4.038 4.03 4.03 0 00-4.034 4.038 4.035 4.035 0 004.034 4.058zm-10.399-5.45a4.28 4.28 0 004.269-4.273 4.268 4.268 0 10-8.538 0 4.268 4.268 0 004.269 4.273zm-10.125-6.154a4.324 4.324 0 004.309-4.312 4.312 4.312 0 00-4.309-4.313c-2.369 0-4.308 1.941-4.308 4.313a4.31 4.31 0 004.308 4.312zm-9.792-6.939a4.05 4.05 0 004.054-4.057c0-2.235-1.821-4.038-4.054-4.038a4.03 4.03 0 00-4.034 4.038c-.019 2.234 1.802 4.057 4.034 4.057zm-9.458-7.292a3.917 3.917 0 003.917-3.92 3.917 3.917 0 00-3.917-3.92 3.93 3.93 0 00-3.917 3.92c.02 2.156 1.763 3.92 3.917 3.92zm-9.068-7.507c2.233 0 4.054-1.803 4.054-4.038 0-2.234-1.821-4.038-4.054-4.038a4.03 4.03 0 00-4.034 4.038c-.019 2.235 1.782 4.038 4.034 4.038zm-8.694-8.369a3.742 3.742 0 003.74-3.744 3.742 3.742 0 10-7.481 0 3.742 3.742 0 003.741 3.744zm-8.285-8.507a3.742 3.742 0 003.741-3.744 3.755 3.755 0 00-3.741-3.744 3.742 3.742 0 00-3.74 3.744 3.742 3.742 0 003.74 3.744zm-7.833-8.664a3.947 3.947 0 003.956-3.96 3.947 3.947 0 00-3.956-3.959 3.947 3.947 0 00-3.956 3.959 3.96 3.96 0 003.956 3.96zm-7.402-9.153a4.093 4.093 0 004.092-4.097 4.105 4.105 0 00-4.093-4.096 4.092 4.092 0 00-4.093 4.096 4.093 4.093 0 004.094 4.097zm-6.914-9.625a4.105 4.105 0 004.093-4.096 4.093 4.093 0 00-4.093-4.097 4.105 4.105 0 00-4.093 4.097 4.105 4.105 0 004.093 4.096zm-6.443-10.623a3.42 3.42 0 003.427-3.431 3.432 3.432 0 00-3.427-3.43 3.432 3.432 0 00-3.427 3.43c0 1.882 1.547 3.431 3.427 3.431zm-5.914-10.409c1.822 0 3.29-1.47 3.29-3.293a3.286 3.286 0 00-3.29-3.292 3.286 3.286 0 00-3.29 3.292c-.02 1.804 1.47 3.293 3.29 3.293zm-5.424-11.838a2.015 2.015 0 002.017-2.019c0-1.118-.9-2.019-2.017-2.019a2.015 2.015 0 00-2.017 2.019c0 1.117.92 2.019 2.017 2.019zm-4.857-11.134a1.726 1.726 0 000-3.45c-.94 0-1.723.765-1.723 1.725 0 .961.763 1.725 1.723 1.725zM62.59 239.25c.95 0 1.722-.772 1.722-1.725a1.724 1.724 0 10-1.723 1.725zm-3.78-11.251c.94 0 1.723-.765 1.723-1.725 0-.941-.764-1.725-1.724-1.725-.94 0-1.723.765-1.723 1.725 0 .96.764 1.725 1.723 1.725zm-3.212-11.604a1.55 1.55 0 001.547-1.548c0-.843-.685-1.549-1.547-1.549-.842 0-1.547.686-1.547 1.549 0 .862.685 1.548 1.547 1.548zm-2.644-11.741c.744 0 1.37-.608 1.37-1.372 0-.745-.606-1.372-1.37-1.372-.744 0-1.371.607-1.371 1.372 0 .764.627 1.372 1.37 1.372zm-2.056-12.035a1.019 1.019 0 100-2.037 1.019 1.019 0 000 2.037zm-1.469-11.682c.607 0 1.096-.491 1.096-1.098a1.095 1.095 0 10-2.193 0c-.02.607.49 1.098 1.097 1.098zm-.901-11.918a1.019 1.019 0 100-2.037 1.019 1.019 0 000 2.037zm-.294-11.917a.961.961 0 000-1.921.962.962 0 000 1.921zm.294-11.898a.92.92 0 00.92-.921.92.92 0 10-1.84 0c0 .51.41.921.92.921zm.901-11.839a.92.92 0 00.92-.921.92.92 0 10-1.84 0c-.02.51.391.921.92.921zm1.469-11.898a.784.784 0 10-.001-1.567.784.784 0 000 1.567zm2.056-12.074a.393.393 0 000-.784.393.393 0 000 .784zm5.856-23.344c.02 0 .039-.02.039-.04s-.02-.039-.04-.039-.039.02-.039.04c-.02.019 0 .039.04.039zm445.016 194.873c.02 0 .039-.02.039-.04 0-.019-.019-.039-.039-.039-.019 0-.039.02-.039.039 0 .02.02.04.039.04zm-12.729 20.501a.527.527 0 00.529-.529.526.526 0 00-.529-.528.526.526 0 00-.529.528c0 .294.235.529.529.529zm-7.05 9.311a.31.31 0 00.313-.313.31.31 0 00-.313-.314.31.31 0 00-.314.314.31.31 0 00.314.313zm-7.501 9.664a.783.783 0 100-1.566.783.783 0 000 1.566zm-7.932 8.821c.431 0 .803-.353.803-.784a.79.79 0 00-.803-.784.786.786 0 00-.783.784c0 .431.353.784.783.784zm-8.322 9.251a1.58 1.58 0 001.586-1.588 1.58 1.58 0 00-1.586-1.587 1.58 1.58 0 00-1.586 1.587c0 .863.705 1.588 1.586 1.588zm-8.734 8.507a2.056 2.056 0 002.056-2.058c0-1.137-.92-2.058-2.056-2.058-1.136 0-2.076.921-2.076 2.058a2.087 2.087 0 002.076 2.058zm-9.087 7.625a2.056 2.056 0 002.056-2.058 2.056 2.056 0 10-4.112 0c-.02 1.117.92 2.058 2.056 2.058zm-9.439 8.095a2.997 2.997 0 002.996-2.999 2.997 2.997 0 00-2.996-2.999 2.997 2.997 0 00-2.996 2.999 2.997 2.997 0 002.996 2.999zm-9.772 6.762a3.026 3.026 0 003.035-3.038 3.026 3.026 0 00-3.035-3.038 3.027 3.027 0 00-3.036 3.038 3.027 3.027 0 003.036 3.038zm-10.086 6.037a2.822 2.822 0 000-5.645 2.822 2.822 0 00-2.82 2.823c.02 1.568 1.273 2.822 2.82 2.822zm-10.34 5.763a2.822 2.822 0 000-5.645 2.809 2.809 0 00-2.82 2.822 2.81 2.81 0 002.82 2.823zm-10.634 5.586a3.11 3.11 0 003.113-3.117 3.11 3.11 0 00-3.113-3.116 3.11 3.11 0 00-3.114 3.116 3.11 3.11 0 003.114 3.117zm-10.85 4.724a3.069 3.069 0 003.075-3.077 3.069 3.069 0 00-3.075-3.078 3.068 3.068 0 00-3.074 3.078 3.068 3.068 0 003.074 3.077zm-11.064 4.92a3.742 3.742 0 003.74-3.744 3.742 3.742 0 10-7.481 0 3.742 3.742 0 003.741 3.744zm-11.261 3.626a3.638 3.638 0 003.643-3.645 3.638 3.638 0 00-3.643-3.646 3.637 3.637 0 00-3.642 3.646 3.649 3.649 0 003.642 3.645zm-11.417 3.273a3.742 3.742 0 003.741-3.743 3.755 3.755 0 00-3.741-3.744 3.742 3.742 0 00-3.74 3.744 3.74 3.74 0 003.74 3.743zm-11.555 2.627a3.742 3.742 0 003.741-3.744 3.742 3.742 0 10-7.481 0 3.73 3.73 0 003.74 3.744zm-11.671 2.234a3.858 3.858 0 003.858-3.881 3.854 3.854 0 00-3.858-3.861 3.854 3.854 0 00-3.858 3.861c-.019 2.137 1.723 3.881 3.858 3.881zm-11.77 1.745a4.093 4.093 0 004.093-4.096 4.093 4.093 0 10-8.186 0c.02 2.273 1.841 4.096 4.093 4.096zm-11.808 1.431a4.527 4.527 0 004.523-4.528 4.515 4.515 0 00-4.523-4.528 4.528 4.528 0 000 9.056zm-11.849.372a4.498 4.498 0 004.485-4.488 4.486 4.486 0 10-8.969 0 4.485 4.485 0 004.484 4.488zm-11.848-.412c2.331 0 4.23-1.881 4.23-4.214a4.21 4.21 0 00-4.23-4.214 4.206 4.206 0 00-4.21 4.214c-.02 2.333 1.88 4.214 4.21 4.214zm-11.828-1.705a3.213 3.213 0 003.212-3.214 3.213 3.213 0 10-6.424 0 3.213 3.213 0 003.212 3.214zm-11.789-.862a3.595 3.595 0 003.603-3.607 3.595 3.595 0 00-3.603-3.606 3.595 3.595 0 00-3.604 3.606c0 2 1.606 3.607 3.604 3.607zm-11.731-1.019a4.402 4.402 0 004.406-4.41c0-2.431-1.978-4.391-4.406-4.391a4.381 4.381 0 00-4.387 4.391c0 2.43 1.958 4.41 4.387 4.41zm-11.613-2.372a4.382 4.382 0 004.387-4.391c0-2.43-1.959-4.39-4.387-4.39-2.428 0-4.406 1.96-4.406 4.39a4.41 4.41 0 004.406 4.391zm-11.496-2.744c2.527 0 4.583-2.038 4.583-4.567a4.562 4.562 0 00-4.583-4.567 4.57 4.57 0 00-4.563 4.567 4.557 4.557 0 004.563 4.567zm-11.339-3.881a4.122 4.122 0 004.132-4.136 4.147 4.147 0 00-4.132-4.136 4.135 4.135 0 000 8.272zm-11.162-3.862a4.268 4.268 0 004.269-4.273 4.269 4.269 0 10-8.538 0 4.268 4.268 0 004.269 4.273zm-10.967-4.41a4.34 4.34 0 004.348-4.351 4.352 4.352 0 00-4.348-4.351 4.34 4.34 0 00-4.348 4.351 4.352 4.352 0 004.348 4.351zm-10.732-5.116a4.268 4.268 0 004.269-4.273c0-2.352-1.9-4.273-4.269-4.273a4.256 4.256 0 00-4.269 4.273 4.255 4.255 0 004.269 4.273zm-10.496-5.527a4.269 4.269 0 004.269-4.273c0-2.353-1.9-4.273-4.269-4.273-2.35 0-4.27 1.92-4.27 4.273a4.27 4.27 0 004.27 4.273zm-10.223-6.136a4.135 4.135 0 000-8.271 4.135 4.135 0 00-4.133 4.136 4.135 4.135 0 004.133 4.135zm-9.929-6.35a4.268 4.268 0 004.269-4.273 4.268 4.268 0 10-8.538 0c.02 2.352 1.919 4.273 4.269 4.273zm-9.596-6.997a4.21 4.21 0 004.21-4.234 4.205 4.205 0 00-4.21-4.214 4.205 4.205 0 00-4.21 4.214c-.02 2.332 1.88 4.234 4.21 4.234zm-9.283-7.449a4.165 4.165 0 004.172-4.175 4.177 4.177 0 00-4.172-4.175 4.176 4.176 0 00-4.171 4.175c0 2.294 1.88 4.175 4.171 4.175zm-8.91-7.88a4.147 4.147 0 004.132-4.135 4.135 4.135 0 00-4.132-4.136 4.122 4.122 0 00-4.133 4.136 4.135 4.135 0 004.133 4.135zm-8.519-8.153a4.213 4.213 0 004.21-4.215 4.212 4.212 0 00-4.21-4.214 4.213 4.213 0 00-4.211 4.214 4.213 4.213 0 004.211 4.215zm-8.127-8.762a4.095 4.095 0 004.093-4.097 4.095 4.095 0 00-4.093-4.096 4.095 4.095 0 00-4.093 4.096 4.095 4.095 0 004.093 4.097zm-7.717-8.879a4.213 4.213 0 004.211-4.215 4.212 4.212 0 00-4.21-4.214 4.212 4.212 0 00-4.21 4.214 4.213 4.213 0 004.21 4.215zm-7.284-9.174a4.386 4.386 0 004.386-4.41 4.381 4.381 0 00-4.386-4.391 4.382 4.382 0 00-4.387 4.391c-.02 2.43 1.958 4.41 4.387 4.41zm-6.835-10.015a4.106 4.106 0 004.093-4.097 4.106 4.106 0 00-4.093-4.097 4.093 4.093 0 00-4.093 4.097 4.093 4.093 0 004.093 4.097zm-6.364-11.056a3.04 3.04 0 003.035-3.038 3.04 3.04 0 00-3.035-3.038 3.027 3.027 0 00-3.036 3.038 3.04 3.04 0 003.036 3.038zm-5.895-10.917a2.408 2.408 0 002.409-2.411c0-1.333-1.077-2.431-2.409-2.431a2.429 2.429 0 00-2.428 2.431 2.437 2.437 0 002.428 2.411zm-5.386-10.565a2.413 2.413 0 002.41-2.431 2.408 2.408 0 10-4.818 0c-.02 1.333 1.077 2.431 2.408 2.431zm-4.896-11.506a1.725 1.725 0 000-3.45 1.724 1.724 0 000 3.45zm-4.367-11.094c.92 0 1.665-.745 1.665-1.667a1.664 1.664 0 10-3.33 0c-.019.922.745 1.667 1.665 1.667zm-3.857-11.349a1.55 1.55 0 001.547-1.548c0-.843-.686-1.549-1.547-1.549-.862 0-1.547.686-1.547 1.549.02.862.704 1.548 1.547 1.548zm-3.31-11.251c.92 0 1.665-.745 1.665-1.666 0-.922-.745-1.686-1.665-1.686s-1.665.745-1.665 1.666c0 .921.745 1.686 1.665 1.686zm-2.781-11.683c.861 0 1.547-.686 1.547-1.548 0-.843-.686-1.549-1.547-1.549-.842 0-1.547.687-1.547 1.549.02.862.705 1.548 1.547 1.548zm-2.232-11.643c.861 0 1.547-.686 1.547-1.548 0-.843-.686-1.549-1.547-1.549a1.55 1.55 0 00-1.547 1.549c.02.862.704 1.548 1.547 1.548zm-1.665-11.878c.783 0 1.41-.627 1.41-1.411s-.627-1.411-1.41-1.411c-.784 0-1.41.627-1.41 1.411s.626 1.411 1.41 1.411zm-1.116-11.819c.783 0 1.41-.627 1.41-1.411s-.627-1.412-1.41-1.412c-.784 0-1.41.628-1.41 1.412 0 .784.626 1.411 1.41 1.411zm-.569-12.329a.92.92 0 00.92-.921.92.92 0 10-1.84 0 .92.92 0 00.92.921zm.001-11.996c.43 0 .783-.353.783-.784a.786.786 0 00-.783-.784.786.786 0 00-.784.784c0 .431.353.784.784.784zm.568-12.251a.393.393 0 00.391-.392.393.393 0 00-.391-.392.393.393 0 00-.392.392c0 .215.176.392.392.392zm1.116-12.074a.134.134 0 00.137-.137.134.134 0 00-.137-.137.134.134 0 00-.137.137c0 .078.058.137.137.137zm440.16 212.494a.31.31 0 00.313-.313.31.31 0 00-.313-.314.31.31 0 00-.313.314.31.31 0 00.313.313zm-17.136 16.799a.702.702 0 00.705-.706.702.702 0 00-.705-.706.703.703 0 00-.705.706c0 .373.314.706.705.706zm-9.106 8.036a1.137 1.137 0 000-2.274 1.137 1.137 0 000 2.274zm-9.42 6.487a.435.435 0 00.431-.431.423.423 0 00-.431-.431.422.422 0 00-.43.431c-.02.235.176.431.43.431zm-9.753 8.076c.979 0 1.763-.784 1.763-1.764s-.784-1.764-1.763-1.764c-.979 0-1.762.784-1.762 1.764s.803 1.764 1.762 1.764zm-10.026 7.018a2.47 2.47 0 000-4.94 2.459 2.459 0 00-2.468 2.47 2.471 2.471 0 002.468 2.47zm-10.321 5.664a2.295 2.295 0 002.292-2.293 2.296 2.296 0 00-2.292-2.293 2.295 2.295 0 00-2.291 2.293 2.295 2.295 0 002.291 2.293zm-10.555 6.234a3.11 3.11 0 003.113-3.117 3.11 3.11 0 00-3.113-3.117 3.11 3.11 0 00-3.114 3.117 3.11 3.11 0 003.114 3.117zm-10.811 4.547a2.763 2.763 0 000-5.527 2.762 2.762 0 00-2.761 2.763 2.762 2.762 0 002.761 2.764zm-10.986 4.822a3.174 3.174 0 003.173-3.176 3.173 3.173 0 10-6.345 0 3.16 3.16 0 003.172 3.176zm-11.202 4.096a3.348 3.348 0 003.349-3.351 3.348 3.348 0 10-6.697 0c.019 1.842 1.508 3.351 3.348 3.351zm-11.339 3.352a3.29 3.29 0 003.29-3.293 3.291 3.291 0 00-3.29-3.293 3.292 3.292 0 00-3.29 3.293 3.291 3.291 0 003.29 3.293zm-11.514 3.176a3.567 3.567 0 003.564-3.568 3.566 3.566 0 10-7.129 0c.02 1.98 1.606 3.568 3.565 3.568zm-11.613 2.019a3.215 3.215 0 003.211-3.215 3.201 3.201 0 00-3.211-3.214 3.214 3.214 0 00-3.212 3.214c.019 1.784 1.449 3.215 3.212 3.215zm-11.712 2.45a3.784 3.784 0 003.78-3.783 3.77 3.77 0 00-3.78-3.783 3.783 3.783 0 00-3.779 3.783c0 2.077 1.703 3.783 3.779 3.783zm-11.769 1.313a3.783 3.783 0 003.779-3.783 3.771 3.771 0 00-3.779-3.783 3.783 3.783 0 00-3.78 3.783 3.771 3.771 0 003.78 3.783zm-11.828 1.019a4 4 0 003.995-3.999 3.988 3.988 0 00-3.995-3.998 3.988 3.988 0 00-3.995 3.998 3.989 3.989 0 003.995 3.999zm-11.849.274a3.988 3.988 0 003.995-3.998 3.989 3.989 0 00-3.995-3.999 4 4 0 00-3.995 3.999 4 4 0 003.995 3.998zm-11.848-.666a3.595 3.595 0 003.603-3.607 3.595 3.595 0 00-3.603-3.606 3.607 3.607 0 00-3.603 3.606c0 2 1.605 3.607 3.603 3.607zm-11.829-.353c2.233 0 4.035-1.823 4.035-4.057 0-2.235-1.822-4.058-4.035-4.058a4.051 4.051 0 00-4.053 4.058 4.05 4.05 0 004.053 4.057zm-11.789-1.96a3.42 3.42 0 003.427-3.43 3.42 3.42 0 00-3.427-3.43 3.42 3.42 0 00-3.427 3.43 3.42 3.42 0 003.427 3.43zm-11.711-.921a4.34 4.34 0 004.348-4.351 4.34 4.34 0 00-4.348-4.352 4.34 4.34 0 00-4.347 4.352 4.352 4.352 0 004.347 4.351zm-11.613-1.803a4.92 4.92 0 000-9.84c-2.702 0-4.915 2.215-4.915 4.92a4.92 4.92 0 004.915 4.92zm-11.495-3.215a4.62 4.62 0 004.622-4.626 4.62 4.62 0 00-4.622-4.626 4.62 4.62 0 00-4.622 4.626 4.62 4.62 0 004.622 4.626zm-11.359-3.371a4.663 4.663 0 004.661-4.665 4.663 4.663 0 00-4.661-4.665 4.663 4.663 0 00-4.661 4.665 4.663 4.663 0 004.661 4.665zm-11.182-4.626a3.96 3.96 0 003.956-3.96 3.946 3.946 0 00-3.956-3.959 3.946 3.946 0 00-3.955 3.959 3.946 3.946 0 003.955 3.96zm-11.006-3.803a4.565 4.565 0 004.563-4.567 4.565 4.565 0 00-4.563-4.567 4.565 4.565 0 00-4.563 4.567 4.565 4.565 0 004.563 4.567zm-10.79-5.115a4.34 4.34 0 004.347-4.352 4.34 4.34 0 00-4.347-4.351 4.352 4.352 0 000 8.703zm-10.556-5.92a3.813 3.813 0 003.819-3.822 3.814 3.814 0 00-3.819-3.823 3.814 3.814 0 00-3.819 3.823c-.019 2.117 1.704 3.822 3.819 3.822zm-10.321-5.861c2.115 0 3.839-1.724 3.839-3.822 0-2.117-1.724-3.822-3.839-3.822a3.812 3.812 0 00-3.818 3.822 3.812 3.812 0 003.818 3.822zm-10.046-5.998a4.148 4.148 0 004.133-4.135 4.135 4.135 0 00-4.133-4.136 4.135 4.135 0 00-4.132 4.136c.02 2.273 1.861 4.135 4.132 4.135zm-9.733-6.625c2.35 0 4.27-1.901 4.27-4.273 0-2.371-1.9-4.273-4.27-4.273a4.269 4.269 0 00-4.269 4.273 4.268 4.268 0 004.269 4.273zm-9.439-7.095a4.34 4.34 0 004.347-4.352 4.339 4.339 0 00-4.347-4.351 4.34 4.34 0 00-4.348 4.351c0 2.392 1.959 4.352 4.348 4.352zm-9.087-7.606a4.351 4.351 0 000-8.702 4.352 4.352 0 00-4.348 4.351c-.019 2.391 1.939 4.351 4.348 4.351zm-8.754-7.879a4.486 4.486 0 004.485-4.489 4.486 4.486 0 00-4.485-4.489c-2.467 0-4.484 2.019-4.484 4.489a4.474 4.474 0 004.484 4.489zm-8.381-8.566a4.31 4.31 0 004.308-4.312 4.31 4.31 0 00-4.308-4.312 4.31 4.31 0 00-4.308 4.312 4.31 4.31 0 004.308 4.312zm-8.01-8.761a4.31 4.31 0 004.308-4.313 4.298 4.298 0 00-4.308-4.312 4.31 4.31 0 00-4.309 4.312 4.31 4.31 0 004.309 4.313zm-7.599-9.154c2.35 0 4.27-1.921 4.27-4.273a4.269 4.269 0 10-8.54 0 4.269 4.269 0 004.27 4.273zm-7.187-9.311a4.402 4.402 0 004.406-4.41c0-2.43-1.977-4.391-4.406-4.391a4.382 4.382 0 00-4.387 4.391c0 2.45 1.978 4.41 4.387 4.41zm-6.736-11.015a3.11 3.11 0 003.114-3.117 3.11 3.11 0 00-3.114-3.117 3.11 3.11 0 00-3.114 3.117 3.124 3.124 0 003.114 3.117zm-6.307-10.056a3.11 3.11 0 003.114-3.116 3.11 3.11 0 00-3.113-3.117 3.11 3.11 0 00-3.114 3.117c-.02 1.725 1.39 3.116 3.114 3.116zm-5.855-10.663a2.764 2.764 0 002.762-2.783 2.76 2.76 0 00-2.762-2.764 2.76 2.76 0 00-2.761 2.764c0 1.529 1.234 2.783 2.761 2.783zm-5.385-10.8a2.541 2.541 0 002.545-2.548 2.542 2.542 0 00-2.545-2.548 2.542 2.542 0 00-2.546 2.548 2.541 2.541 0 002.546 2.548zm-4.896-11.231a2.107 2.107 0 002.115-2.117c0-1.176-.94-2.117-2.115-2.117a2.107 2.107 0 00-2.116 2.117 2.12 2.12 0 002.115 2.117zm-4.426-10.938a2.19 2.19 0 002.194-2.195 2.19 2.19 0 00-2.194-2.195 2.19 2.19 0 00-2.193 2.195 2.19 2.19 0 002.193 2.195zm-3.916-11.192a2.19 2.19 0 002.193-2.195 2.19 2.19 0 00-2.194-2.195 2.19 2.19 0 00-2.193 2.195c0 1.196.98 2.195 2.194 2.195zm-3.408-12.995a.569.569 0 10-.002-1.137.569.569 0 00.002 1.137zm-2.879-11.29a.784.784 0 100-1.567.784.784 0 000 1.567zm-2.389-11.879a.527.527 0 00.528-.529.527.527 0 00-.528-.529.527.527 0 00-.53.529.54.54 0 00.53.529zm-1.861-11.859a.393.393 0 00.392-.392.393.393 0 00-.784 0c0 .216.177.392.392.392zm-1.312-11.917a.259.259 0 00.255-.255.259.259 0 00-.255-.254.259.259 0 00-.254.254c0 .138.098.255.254.255zm-.803-11.976a.134.134 0 00.137-.137.134.134 0 00-.137-.137.134.134 0 00-.137.137c0 .078.059.137.137.137zm427.431 212.69a.423.423 0 00.431-.431.435.435 0 00-.431-.431.435.435 0 00-.431.431c-.02.235.176.431.431.431zm-9.733 7.135a.784.784 0 10-.002-1.568.784.784 0 00.002 1.568zm-10.007 6.391a.786.786 0 000-1.569.786.786 0 000 1.569zm-10.262 5.84a.702.702 0 00.705-.705.702.702 0 00-.705-.706.703.703 0 00-.705.706c0 .392.314.705.705.705zm-10.516 6.802a2.015 2.015 0 002.017-2.019 2.015 2.015 0 00-2.017-2.019 2.015 2.015 0 00-2.017 2.019c0 1.117.9 2.019 2.017 2.019zm-10.732 3.665a.66.66 0 00.666-.666.66.66 0 00-.666-.666.66.66 0 00-.666.666c.02.372.313.666.666.666zm-10.928 5.978a2.06 2.06 0 002.056-2.077 2.056 2.056 0 10-4.112 0 2.036 2.036 0 002.056 2.077zm-11.143 4.097c1.136 0 2.076-.921 2.076-2.058a2.06 2.06 0 00-2.076-2.058 2.056 2.056 0 00-2.056 2.058c0 1.137.92 2.058 2.056 2.058zm-11.28 1.823a.247.247 0 00.255-.255c0-.137-.118-.274-.255-.274s-.254.117-.254.274c-.02.137.098.255.254.255zm-11.437 3.979c.607 0 1.097-.49 1.097-1.097a1.096 1.096 0 10-2.194 0c0 .588.49 1.097 1.097 1.097zm-11.554 3.725c1.214 0 2.194-.98 2.194-2.196 0-1.215-.98-2.195-2.194-2.195a2.19 2.19 0 00-2.193 2.195c-.02 1.216.979 2.196 2.193 2.196zm-11.672 3.077a3.11 3.11 0 003.114-3.116 3.11 3.11 0 00-3.114-3.117 3.11 3.11 0 00-3.113 3.117 3.122 3.122 0 003.113 3.116zm-11.731 2.43a3.917 3.917 0 003.917-3.92 3.917 3.917 0 10-7.833 0 3.904 3.904 0 003.916 3.92zm-11.808 1.235a3.989 3.989 0 003.995-3.999 4 4 0 00-3.995-3.998 3.988 3.988 0 00-3.995 3.998 4 4 0 003.995 3.999zm-11.829.353a3.742 3.742 0 003.741-3.744 3.755 3.755 0 00-3.741-3.744 3.742 3.742 0 00-3.74 3.744 3.742 3.742 0 003.74 3.744zm-11.848.137a3.742 3.742 0 003.741-3.744 3.742 3.742 0 00-3.741-3.744 3.742 3.742 0 00-3.74 3.744 3.73 3.73 0 003.74 3.744zm-11.868-.019a4.093 4.093 0 004.093-4.097 4.092 4.092 0 10-8.186 0c.02 2.254 1.841 4.097 4.093 4.097zm-11.808-.627a4.34 4.34 0 004.347-4.352 4.34 4.34 0 00-4.347-4.351 4.34 4.34 0 00-4.348 4.351c-.02 2.392 1.939 4.352 4.348 4.352zm-11.77-1.569a4.177 4.177 0 004.171-4.175 4.176 4.176 0 00-4.171-4.175c-2.292 0-4.172 1.882-4.172 4.175-.019 2.293 1.861 4.175 4.172 4.175zm-11.711-2.038c2.233 0 4.034-1.823 4.034-4.058a4.03 4.03 0 00-4.034-4.037 4.03 4.03 0 00-4.034 4.037 4.022 4.022 0 004.034 4.058zm-11.613-1.941a4.499 4.499 0 004.485-4.489 4.486 4.486 0 10-8.97 0 4.499 4.499 0 004.485 4.489zm-11.496-2.94a4.457 4.457 0 004.446-4.449c0-2.45-1.998-4.45-4.446-4.45a4.444 4.444 0 00-4.445 4.45 4.443 4.443 0 004.445 4.449zm-11.358-3.626a4.164 4.164 0 004.171-4.175 4.176 4.176 0 00-4.171-4.175 4.164 4.164 0 00-4.171 4.175c-.02 2.293 1.86 4.175 4.171 4.175zm-11.222-3.862a4.165 4.165 0 004.172-4.175 4.165 4.165 0 00-4.172-4.175 4.177 4.177 0 00-4.171 4.175 4.176 4.176 0 004.171 4.175zm-11.025-3.978a4.528 4.528 0 000-9.056 4.527 4.527 0 00-4.524 4.528c-.019 2.489 2.017 4.528 4.524 4.528zm-10.85-5.077a4.268 4.268 0 004.27-4.273 4.269 4.269 0 10-8.539 0 4.281 4.281 0 004.269 4.273zm-10.633-5.135a4.382 4.382 0 004.386-4.391 4.381 4.381 0 00-4.386-4.391 4.381 4.381 0 00-4.387 4.391 4.395 4.395 0 004.387 4.391zm-10.38-5.665a4.445 4.445 0 004.446-4.449 4.445 4.445 0 10-8.891 0 4.444 4.444 0 004.445 4.449zm-10.144-6.018c2.526 0 4.583-2.038 4.583-4.567 0-2.528-2.057-4.567-4.583-4.567a4.57 4.57 0 00-4.563 4.567 4.57 4.57 0 004.563 4.567zm-9.87-6.586a4.557 4.557 0 004.563-4.567 4.558 4.558 0 00-4.563-4.567 4.558 4.558 0 00-4.563 4.567 4.557 4.557 0 004.563 4.567zm-9.576-6.938a4.62 4.62 0 004.621-4.626 4.62 4.62 0 00-4.621-4.626 4.62 4.62 0 00-4.622 4.626c.02 2.548 2.076 4.626 4.622 4.626zm-9.263-8.057a3.947 3.947 0 003.956-3.959 3.959 3.959 0 00-3.956-3.959 3.947 3.947 0 00-3.956 3.959 3.971 3.971 0 003.956 3.959zm-8.95-7.487a4.269 4.269 0 004.269-4.273 4.269 4.269 0 10-8.539 0c.02 2.371 1.92 4.273 4.27 4.273zm-8.597-7.938a4.499 4.499 0 004.484-4.489 4.499 4.499 0 00-4.484-4.489 4.499 4.499 0 00-4.485 4.489 4.499 4.499 0 004.485 4.489zm-8.245-9.585a3.42 3.42 0 003.427-3.43 3.42 3.42 0 00-3.427-3.431 3.42 3.42 0 00-3.427 3.431 3.42 3.42 0 003.427 3.43zm-7.872-8.037a4.268 4.268 0 004.269-4.273 4.269 4.269 0 10-8.539 0c0 2.372 1.9 4.273 4.27 4.273zm-7.501-9.977a3.461 3.461 0 003.466-3.469 3.461 3.461 0 00-3.466-3.469 3.461 3.461 0 00-3.466 3.469 3.474 3.474 0 003.466 3.469zm-7.089-9.526a3.461 3.461 0 003.466-3.469 3.461 3.461 0 00-3.466-3.469 3.461 3.461 0 00-3.467 3.469 3.461 3.461 0 003.467 3.469zm-6.678-11.564c.94 0 1.723-.765 1.723-1.725 0-.961-.764-1.725-1.723-1.725-.94 0-1.724.764-1.724 1.725 0 .96.784 1.725 1.724 1.725zm-6.247-9.154a2.646 2.646 0 000-5.292 2.646 2.646 0 00-2.644 2.646 2.634 2.634 0 002.644 2.646zm-5.817-12.172a.787.787 0 00.784-.784.786.786 0 00-.784-.784.786.786 0 00-.783.784c-.02.411.333.784.783.784zm-5.365-9.703c.92 0 1.664-.744 1.664-1.666a1.664 1.664 0 10-3.329 0c0 .922.725 1.666 1.665 1.666zm-4.916-12.427c.02 0 .039-.019.039-.039s-.02-.039-.04-.039c-.019 0-.039.019-.039.039-.02.02 0 .039.04.039zm-4.465-10.918a.133.133 0 00.137-.137.134.134 0 00-.137-.137.134.134 0 00-.137.137c.02.079.078.137.137.137zm-3.976-11.035c.137 0 .255-.118.255-.274a.26.26 0 00-.255-.255.26.26 0 00-.254.255c0 .156.117.274.254.274zM19.25 232.86a.569.569 0 10-.001-1.138.569.569 0 00.002 1.138zm387.461 187.895c.02 0 .04-.019.04-.039s-.02-.039-.04-.039c-.019 0-.039.019-.039.039s.02.039.039.039zm-21.953 8.958c.02 0 .039-.02.039-.04 0-.019-.019-.039-.039-.039s-.039.02-.039.039c0 .02.019.04.039.04zm-11.221 4.037a.247.247 0 00.254-.255.258.258 0 00-.254-.254.26.26 0 00-.255.254c-.019.138.098.255.255.255zm-46.198 10.408a.134.134 0 00.137-.137.134.134 0 00-.137-.137.134.134 0 00-.137.137c.02.078.078.137.137.137zm-11.75 1.451a.134.134 0 00.137-.137.133.133 0 00-.137-.137.134.134 0 00-.137.137c0 .078.059.137.137.137zm-11.829 1.273a.43.43 0 10.002-.86.43.43 0 00-.002.86zm-11.828 1.412c.744 0 1.351-.607 1.351-1.372 0-.764-.607-1.372-1.351-1.372s-1.371.608-1.371 1.372c0 .765.607 1.372 1.371 1.372zm-11.868 0a1.37 1.37 0 100-2.742 1.37 1.37 0 000 2.742zm-11.848-.745c.607 0 1.097-.49 1.097-1.097a1.096 1.096 0 10-2.193 0c0 .607.489 1.097 1.096 1.097zm-11.808-.979c.607 0 1.096-.49 1.096-1.098a1.096 1.096 0 10-2.193 0c0 .608.49 1.098 1.097 1.098zm-11.77-1.314a1.23 1.23 0 001.234-1.235 1.23 1.23 0 00-1.234-1.235 1.23 1.23 0 00-1.234 1.235 1.23 1.23 0 001.234 1.235zm-11.692-1.568a1.58 1.58 0 001.586-1.587 1.58 1.58 0 00-1.586-1.588 1.58 1.58 0 00-1.586 1.588 1.58 1.58 0 001.586 1.587zm-11.613-1.882a2.107 2.107 0 002.115-2.117 2.12 2.12 0 00-2.115-2.116c-1.175 0-2.115.94-2.115 2.116 0 1.176.94 2.117 2.115 2.117zm-11.495-3.567c.783 0 1.41-.627 1.41-1.411 0-.785-.627-1.412-1.41-1.412-.784 0-1.41.627-1.41 1.412 0 .764.626 1.411 1.41 1.411zm-11.378-.196a4.565 4.565 0 004.563-4.567 4.565 4.565 0 00-4.563-4.567 4.565 4.565 0 00-4.563 4.567 4.565 4.565 0 004.563 4.567zm-11.241-4.9a3.462 3.462 0 003.466-3.47 3.461 3.461 0 00-3.466-3.469 3.461 3.461 0 00-3.466 3.469 3.462 3.462 0 003.466 3.47zm-11.065-6.057c.921 0 1.665-.745 1.665-1.666a1.664 1.664 0 10-3.329 0c0 .921.744 1.666 1.664 1.666zm-10.869-1.666a4.69 4.69 0 004.7-4.704 4.703 4.703 0 00-4.7-4.704c-2.585 0-4.7 2.117-4.7 4.704a4.703 4.703 0 004.7 4.704zm-10.692-5.998a3.855 3.855 0 003.858-3.861c0-2.137-1.724-3.881-3.858-3.881a3.859 3.859 0 00-3.858 3.881 3.854 3.854 0 003.858 3.861zm-10.458-8.173c.705 0 1.273-.569 1.273-1.275 0-.705-.568-1.274-1.273-1.274s-1.273.569-1.273 1.274c0 .706.568 1.275 1.273 1.275zm-10.223-4.861a2.409 2.409 0 002.409-2.411 2.408 2.408 0 00-2.409-2.411c-1.332 0-2.428 1.078-2.428 2.411 0 1.332 1.096 2.411 2.428 2.411zm-9.968-8.253a.568.568 0 10-.568-.568c-.019.314.235.568.568.568zm-9.713-3.351a4.03 4.03 0 004.034-4.038 4.044 4.044 0 00-8.088 0 4.059 4.059 0 004.054 4.038zm-9.42-8.919a2.324 2.324 0 002.331-2.332 2.325 2.325 0 00-2.331-2.333 2.325 2.325 0 00-2.33 2.333 2.336 2.336 0 002.33 2.332zm-9.106-7.233a2.675 2.675 0 002.683-2.685 2.675 2.675 0 00-2.683-2.685 2.675 2.675 0 00-2.683 2.685 2.675 2.675 0 002.683 2.685zm-8.813-6.762a3.86 3.86 0 003.858-3.881c0-2.136-1.724-3.881-3.858-3.881-2.135 0-3.858 1.745-3.858 3.881a3.86 3.86 0 003.858 3.881zm-8.46-11.173c.568 0 1.019-.45 1.019-1.019 0-.568-.45-1.019-1.019-1.019-.568 0-1.018.451-1.018 1.019 0 .569.47 1.019 1.018 1.019zm-8.127-9.33a.31.31 0 00.313-.313.31.31 0 00-.313-.314.31.31 0 00-.314.314c0 .176.157.313.314.313zm-7.755-7.742a1.55 1.55 0 001.547-1.548c0-.843-.686-1.549-1.547-1.549-.842 0-1.548.686-1.548 1.549 0 .862.686 1.548 1.547 1.548zm-7.403-10.78c.02 0 .04-.02.04-.04 0-.019-.02-.039-.04-.039s-.04.02-.04.039c0 .02.02.04.04.04zm-7.011-9.214a.393.393 0 00.392-.391.393.393 0 00-.392-.392.393.393 0 00-.392.392c0 .215.176.391.392.391zm-6.6-10.113a.134.134 0 00.137-.137.133.133 0 00-.137-.137.133.133 0 00-.137.137c0 .078.059.137.137.137zm-6.207-10.114a.134.134 0 00.137-.137.133.133 0 00-.137-.137.133.133 0 00-.137.137c0 .078.058.137.137.137zm-16.078-31.812c.02 0 .04-.02.04-.04 0-.019-.02-.039-.04-.039s-.04.02-.04.039c0 .02.02.04.04.04zm176.252 175.212a.392.392 0 000-.783.392.392 0 000 .783zm-11.241-4.018a.134.134 0 00.137-.137.134.134 0 00-.137-.137.134.134 0 00-.137.137c0 .079.058.137.137.137zm-11.085-4.272c.02 0 .04-.02.04-.04 0-.019-.02-.039-.04-.039-.019 0-.039.02-.039.039 0 .02 0 .04.039.04zm-10.928-4.372a.31.31 0 00.314-.314.31.31 0 00-.314-.313.31.31 0 00-.313.313.31.31 0 00.313.314zm-10.731-5.038a.31.31 0 00.313-.313.31.31 0 00-.313-.313.31.31 0 00-.313.313.31.31 0 00.313.313zm-10.536-5.722c.02 0 .04-.02.04-.04 0-.019-.02-.039-.04-.039-.019 0-.039.02-.039.039 0 .02.02.04.039.04zm-10.301-5.646a.26.26 0 00.255-.255.26.26 0 00-.255-.254c-.137 0-.274.117-.274.254.02.137.137.255.274.255zm-10.066-6.39a.134.134 0 00.137-.137.134.134 0 00-.137-.137.134.134 0 00-.137.137c0 .078.059.137.137.137zm-9.811-6.664a.134.134 0 00.137-.137.134.134 0 00-.137-.138.134.134 0 00-.137.138c0 .078.058.137.137.137zm-9.557-7.017a.134.134 0 00.137-.137.134.134 0 00-.137-.137.133.133 0 00-.137.137c0 .078.058.137.137.137zm-9.263-7.272a.26.26 0 00.255-.255.26.26 0 00-.255-.255.26.26 0 00-.254.255c0 .137.097.255.254.255zm-8.969-7.977c.02 0 .039-.02.039-.04 0-.019-.02-.039-.04-.039s-.039.02-.039.039c-.02.02 0 .04.04.04zm-8.675-8.096c.019 0 .038-.019.038-.039s-.02-.039-.039-.039c-.02 0-.04.019-.04.039s.02.039.04.039zm-8.344-8.428c.02 0 .04-.02.04-.04 0-.019-.02-.039-.04-.039s-.039.02-.039.039c0 .02.02.04.04.04zm-8.009-8.761c.02 0 .04-.02.04-.04 0-.019-.02-.039-.04-.039s-.039.02-.039.039c0 .02.02.04.04.04zm-14.962-18.406c.02 0 .04-.019.04-.039s-.02-.039-.04-.039-.04.019-.04.039.02.039.04.039zm105.419 103.336c.019 0 .039-.019.039-.039s-.02-.039-.039-.039c-.02 0-.04.019-.04.039s.02.039.04.039zm-10.576-5.351c.02 0 .039-.019.039-.039a.041.041 0 00-.039-.039c-.019 0-.039.019-.039.039s.02.039.039.039zm-10.379-5.743c.02 0 .04-.019.04-.039s-.02-.039-.04-.039c0 0-.039.019-.039.039s.02.039.039.039zm-10.145-6.115c.02 0 .04-.02.04-.04 0-.019-.02-.039-.04-.039-.019 0-.039.02-.039.039-.02.02 0 .04.039.04zm-9.928-6.508c.02 0 .039-.019.039-.039a.041.041 0 00-.039-.039.041.041 0 00-.039.039c0 .02.019.039.039.039zm-9.674-6.86c.02 0 .039-.02.039-.039 0-.02-.02-.039-.04-.039s-.039.019-.039.039c0 .019.02.039.04.039zm-9.4-7.233c.02 0 .039-.02.039-.039 0-.02-.02-.04-.04-.04s-.039.02-.039.04c0 .019.02.039.04.039zM53.6 371.988c.02 0 .04-.02.04-.039 0-.02-.02-.04-.04-.04s-.039.02-.039.04c0 .019.02.039.04.039zm-7.892-8.84c.02 0 .04-.02.04-.039 0-.02-.02-.04-.04-.04s-.04.02-.04.04c0 .019.02.039.04.039zm-7.559-9.134c.02 0 .039-.02.039-.04 0-.019-.02-.039-.04-.039-.019 0-.039.02-.039.039 0 .02.02.04.04.04zM134.755 450c.019 0 .039-.02.039-.04 0-.019-.02-.039-.039-.039-.02 0-.04.02-.04.039 0 .02.02.04.04.04zm-59.241-39.026a.176.176 0 100-.353.176.176 0 100 .353zm-34.251-32.91c.02 0 .039-.019.039-.039s-.02-.039-.04-.039c-.019 0-.039.019-.039.039-.02.02.02.039.04.039zm-7.794-8.918c.02 0 .039-.02.039-.039 0-.02-.02-.04-.04-.04-.019 0-.039.02-.039.04-.02.019 0 .039.04.039zm47.803 63.017c.02 0 .04-.02.04-.04 0-.019-.02-.039-.04-.039s-.04.02-.04.039c-.02.02 0 .04.04.04zm-9.4-7.233c.02 0 .039-.019.039-.039s-.02-.039-.04-.039-.039.019-.039.039.02.039.04.039zM6.776 356.307c.02 0 .04-.019.04-.039s-.02-.039-.04-.039-.04.019-.04.039.02.039.04.039zM.04 346.526c.019 0 .039-.019.039-.039s-.02-.039-.04-.039-.039.019-.039.039.02.039.04.039z" fill="#fff"/></svg>