<svg width="499" height="673" fill="none" xmlns="http://www.w3.org/2000/svg"><g opacity=".2"><path d="M133.954 460.551a4.029 4.029 0 100 5.697c1.555-1.556 1.573-4.125 0-5.697z" fill="url(#paint0_linear_50_13711)"/><path d="M66.044 399.316l.944-.943 62.912 62.912-.944.943-62.912-62.912z" fill="url(#paint1_linear_50_13711)"/><path d="M185.699 253.867a4.029 4.029 0 10-5.697 5.698 4.029 4.029 0 005.697-5.698z" fill="url(#paint2_linear_50_13711)"/><path d="M117.807 192.615l.943-.943 62.93 62.929-.944.944-62.929-62.93z" fill="url(#paint3_linear_50_13711)"/><path d="M83.345 222.324a4.029 4.029 0 10-5.697 5.698 4.029 4.029 0 005.697-5.698z" fill="url(#paint4_linear_50_13711)"/><path d="M15.435 161.09l.944-.944 62.912 62.912-.944.944-62.912-62.912z" fill="url(#paint5_linear_50_13711)"/><path d="M69.347 265.226a4.03 4.03 0 100 5.697c1.573-1.537 1.59-4.106 0-5.697z" fill="url(#paint6_linear_50_13711)"/><path d="M1.455 204.01l.943-.944 62.93 62.929-.944.944-62.93-62.929z" fill="url(#paint7_linear_50_13711)"/><path d="M185.385 474.094a4.029 4.029 0 10-5.697 5.698 4.029 4.029 0 005.697-5.698z" fill="url(#paint8_linear_50_13711)"/><path d="M117.475 412.86l.943-.944 62.912 62.912-.943.944-62.912-62.912z" fill="url(#paint9_linear_50_13711)"/><path d="M33.889 253.535a4.029 4.029 0 10-5.697 5.698 4.029 4.029 0 005.697-5.698z" fill="url(#paint10_linear_50_13711)"/><path d="M-2.548 223.774l.944-.943 31.456 31.456-.944.943-31.456-31.456z" fill="url(#paint11_linear_50_13711)"/><path d="M84.603 519.129a4.029 4.029 0 100 5.697c1.555-1.556 1.573-4.125 0-5.697z" fill="url(#paint12_linear_50_13711)"/><path d="M48.149 489.35l.944-.943 31.456 31.456-.944.943-31.456-31.456z" fill="url(#paint13_linear_50_13711)"/><path d="M67.53 96.587a4.03 4.03 0 100 5.697c1.555-1.555 1.572-4.124 0-5.697z" fill="url(#paint14_linear_50_13711)"/><path d="M31.093 66.826l.944-.943 31.456 31.456-.944.944-31.456-31.457z" fill="url(#paint15_linear_50_13711)"/><path d="M81.807 188.561a4.029 4.029 0 10-5.697 5.698 4.029 4.029 0 005.697-5.698z" fill="url(#paint16_linear_50_13711)"/><path d="M45.353 158.783l.944-.944 31.456 31.456-.944.944-31.456-31.456z" fill="url(#paint17_linear_50_13711)"/><path d="M215.967 427.644a4.029 4.029 0 10-5.697 5.698 4.029 4.029 0 005.697-5.698z" fill="url(#paint18_linear_50_13711)"/><path d="M148.074 366.392l.944-.943 62.929 62.929-.943.944-62.93-62.93z" fill="url(#paint19_linear_50_13711)"/><path d="M198.683 217.186a4.029 4.029 0 10-5.697 5.698 4.029 4.029 0 005.697-5.698z" fill="url(#paint20_linear_50_13711)"/><path d="M130.791 155.969l.944-.943 62.912 62.912-.944.943-62.912-62.912z" fill="url(#paint21_linear_50_13711)"/><path d="M100.593 476.226a4.029 4.029 0 100 5.697c1.59-1.555 1.59-4.107 0-5.697z" fill="url(#paint22_linear_50_13711)"/><path d="M32.718 414.992l.944-.944 62.93 62.93-.944.943-62.93-62.929z" fill="url(#paint23_linear_50_13711)"/><path d="M234.613 136.694a4.029 4.029 0 10-5.697 5.698 4.029 4.029 0 005.697-5.698z" fill="url(#paint24_linear_50_13711)"/><path d="M166.721 75.442l.943-.944 62.93 62.93-.944.943-62.929-62.929z" fill="url(#paint25_linear_50_13711)"/><path d="M396.402 497.459a4.029 4.029 0 100 5.697c1.59-1.555 1.573-4.124 0-5.697z" fill="url(#paint26_linear_50_13711)"/><path d="M174.34 282.038l.944-.944 217.098 217.099-.943.944L174.34 282.038z" fill="url(#paint27_linear_50_13711)"/><path d="M449.44 421.353a4.029 4.029 0 100 5.697c1.59-1.555 1.59-4.107 0-5.697z" fill="url(#paint28_linear_50_13711)"/><path d="M111.236 89.824l.944-.943 333.241 333.241-.944.944L111.236 89.824z" fill="url(#paint29_linear_50_13711)"/><path d="M151.307 493.946a4.029 4.029 0 10-5.696 5.697 4.029 4.029 0 005.696-5.697z" fill="url(#paint30_linear_50_13711)"/><path d="M-70.754 278.525l.943-.943L147.288 494.68l-.944.944-217.099-217.099z" fill="url(#paint31_linear_50_13711)"/><path d="M291.671 480.84a4.029 4.029 0 100 5.697c1.59-1.555 1.573-4.124 0-5.697z" fill="url(#paint32_linear_50_13711)"/><path d="M69.61 265.454l.943-.944L287.65 481.609l-.943.943L69.609 265.454z" fill="url(#paint33_linear_50_13711)"/><path d="M390.32 347.204a4.029 4.029 0 10-5.697 5.698 4.029 4.029 0 005.697-5.698z" fill="url(#paint34_linear_50_13711)"/><path d="M168.258 131.783l.944-.944 217.099 217.099-.944.944-217.099-217.099z" fill="url(#paint35_linear_50_13711)"/><path d="M62.968 372.753a4.03 4.03 0 100 5.697c1.59-1.555 1.59-4.106 0-5.697z" fill="url(#paint36_linear_50_13711)"/><path d="M-62.121 254.339l.943-.944 120.11 120.11-.944.944-120.11-120.11z" fill="url(#paint37_linear_50_13711)"/><path d="M253.696 309.946a4.03 4.03 0 00-5.697 0 4.029 4.029 0 105.697 0z" fill="url(#paint38_linear_50_13711)"/><path d="M128.607 191.532l.943-.944 120.11 120.11-.944.943-120.109-120.109z" fill="url(#paint39_linear_50_13711)"/></g><defs><linearGradient id="paint0_linear_50_13711" x1="115.055" y1="447.373" x2="65.543" y2="397.862" gradientUnits="userSpaceOnUse"><stop stop-color="#A4FFFF"/><stop offset="1" stop-color="#A4FFFF" stop-opacity="0"/></linearGradient><linearGradient id="paint1_linear_50_13711" x1="115.052" y1="447.374" x2="65.542" y2="397.864" gradientUnits="userSpaceOnUse"><stop stop-color="#A4FFFF"/><stop offset="1" stop-color="#A4FFFF" stop-opacity="0"/></linearGradient><linearGradient id="paint2_linear_50_13711" x1="166.811" y1="240.676" x2="117.285" y2="191.149" gradientUnits="userSpaceOnUse"><stop stop-color="#A4FFFF"/><stop offset="1" stop-color="#A4FFFF" stop-opacity="0"/></linearGradient><linearGradient id="paint3_linear_50_13711" x1="166.817" y1="240.681" x2="117.304" y2="191.169" gradientUnits="userSpaceOnUse"><stop stop-color="#A4FFFF"/><stop offset="1" stop-color="#A4FFFF" stop-opacity="0"/></linearGradient><linearGradient id="paint4_linear_50_13711" x1="64.452" y1="209.15" x2="14.94" y2="159.639" gradientUnits="userSpaceOnUse"><stop stop-color="#A4FFFF"/><stop offset="1" stop-color="#A4FFFF" stop-opacity="0"/></linearGradient><linearGradient id="paint5_linear_50_13711" x1="64.451" y1="209.149" x2="14.941" y2="159.639" gradientUnits="userSpaceOnUse"><stop stop-color="#A4FFFF"/><stop offset="1" stop-color="#A4FFFF" stop-opacity="0"/></linearGradient><linearGradient id="paint6_linear_50_13711" x1="50.459" y1="252.062" x2=".946" y2="202.549" gradientUnits="userSpaceOnUse"><stop stop-color="#A4FFFF"/><stop offset="1" stop-color="#A4FFFF" stop-opacity="0"/></linearGradient><linearGradient id="paint7_linear_50_13711" x1="50.46" y1="252.063" x2=".948" y2="202.552" gradientUnits="userSpaceOnUse"><stop stop-color="#A4FFFF"/><stop offset="1" stop-color="#A4FFFF" stop-opacity="0"/></linearGradient><linearGradient id="paint8_linear_50_13711" x1="166.495" y1="460.921" x2="116.997" y2="411.423" gradientUnits="userSpaceOnUse"><stop stop-color="#A4FFFF"/><stop offset="1" stop-color="#A4FFFF" stop-opacity="0"/></linearGradient><linearGradient id="paint9_linear_50_13711" x1="166.489" y1="460.918" x2="116.979" y2="411.408" gradientUnits="userSpaceOnUse"><stop stop-color="#A4FFFF"/><stop offset="1" stop-color="#A4FFFF" stop-opacity="0"/></linearGradient><linearGradient id="paint10_linear_50_13711" x1="15.003" y1="240.363" x2="-34.508" y2="190.851" gradientUnits="userSpaceOnUse"><stop stop-color="#A4FFFF"/><stop offset="1" stop-color="#A4FFFF" stop-opacity="0"/></linearGradient><linearGradient id="paint11_linear_50_13711" x1="22.198" y1="247.559" x2="-2.558" y2="222.803" gradientUnits="userSpaceOnUse"><stop stop-color="#A4FFFF"/><stop offset="1" stop-color="#A4FFFF" stop-opacity="0"/></linearGradient><linearGradient id="paint12_linear_50_13711" x1="65.703" y1="505.951" x2="16.191" y2="456.44" gradientUnits="userSpaceOnUse"><stop stop-color="#A4FFFF"/><stop offset="1" stop-color="#A4FFFF" stop-opacity="0"/></linearGradient><linearGradient id="paint13_linear_50_13711" x1="72.898" y1="513.147" x2="48.143" y2="488.392" gradientUnits="userSpaceOnUse"><stop stop-color="#A4FFFF"/><stop offset="1" stop-color="#A4FFFF" stop-opacity="0"/></linearGradient><linearGradient id="paint14_linear_50_13711" x1="48.637" y1="83.421" x2="-.875" y2="33.909" gradientUnits="userSpaceOnUse"><stop stop-color="#A4FFFF"/><stop offset="1" stop-color="#A4FFFF" stop-opacity="0"/></linearGradient><linearGradient id="paint15_linear_50_13711" x1="55.833" y1="90.615" x2="31.078" y2="65.86" gradientUnits="userSpaceOnUse"><stop stop-color="#A4FFFF"/><stop offset="1" stop-color="#A4FFFF" stop-opacity="0"/></linearGradient><linearGradient id="paint16_linear_50_13711" x1="62.903" y1="175.378" x2="13.377" y2="125.851" gradientUnits="userSpaceOnUse"><stop stop-color="#A4FFFF"/><stop offset="1" stop-color="#A4FFFF" stop-opacity="0"/></linearGradient><linearGradient id="paint17_linear_50_13711" x1="70.105" y1="182.579" x2="45.349" y2="157.824" gradientUnits="userSpaceOnUse"><stop stop-color="#A4FFFF"/><stop offset="1" stop-color="#A4FFFF" stop-opacity="0"/></linearGradient><linearGradient id="paint18_linear_50_13711" x1="197.077" y1="414.467" x2="147.566" y2="364.955" gradientUnits="userSpaceOnUse"><stop stop-color="#A4FFFF"/><stop offset="1" stop-color="#A4FFFF" stop-opacity="0"/></linearGradient><linearGradient id="paint19_linear_50_13711" x1="197.078" y1="414.466" x2="147.567" y2="364.955" gradientUnits="userSpaceOnUse"><stop stop-color="#A4FFFF"/><stop offset="1" stop-color="#A4FFFF" stop-opacity="0"/></linearGradient><linearGradient id="paint20_linear_50_13711" x1="179.793" y1="204.011" x2="130.281" y2="154.5" gradientUnits="userSpaceOnUse"><stop stop-color="#A4FFFF"/><stop offset="1" stop-color="#A4FFFF" stop-opacity="0"/></linearGradient><linearGradient id="paint21_linear_50_13711" x1="179.795" y1="204.011" x2="130.285" y2="154.501" gradientUnits="userSpaceOnUse"><stop stop-color="#A4FFFF"/><stop offset="1" stop-color="#A4FFFF" stop-opacity="0"/></linearGradient><linearGradient id="paint22_linear_50_13711" x1="81.711" y1="463.05" x2="32.184" y2="413.523" gradientUnits="userSpaceOnUse"><stop stop-color="#A4FFFF"/><stop offset="1" stop-color="#A4FFFF" stop-opacity="0"/></linearGradient><linearGradient id="paint23_linear_50_13711" x1="81.714" y1="463.055" x2="32.204" y2="413.544" gradientUnits="userSpaceOnUse"><stop stop-color="#A4FFFF"/><stop offset="1" stop-color="#A4FFFF" stop-opacity="0"/></linearGradient><linearGradient id="paint24_linear_50_13711" x1="215.719" y1="123.508" x2="166.208" y2="73.997" gradientUnits="userSpaceOnUse"><stop stop-color="#A4FFFF"/><stop offset="1" stop-color="#A4FFFF" stop-opacity="0"/></linearGradient><linearGradient id="paint25_linear_50_13711" x1="215.719" y1="123.509" x2="166.208" y2="73.998" gradientUnits="userSpaceOnUse"><stop stop-color="#A4FFFF"/><stop offset="1" stop-color="#A4FFFF" stop-opacity="0"/></linearGradient><linearGradient id="paint26_linear_50_13711" x1="365.627" y1="472.393" x2="277.451" y2="384.218" gradientUnits="userSpaceOnUse"><stop stop-color="#A4FFFF"/><stop offset="1" stop-color="#A4FFFF" stop-opacity="0"/></linearGradient><linearGradient id="paint27_linear_50_13711" x1="343.563" y1="450.33" x2="181.361" y2="288.128" gradientUnits="userSpaceOnUse"><stop stop-color="#A4FFFF"/><stop offset="1" stop-color="#A4FFFF" stop-opacity="0"/></linearGradient><linearGradient id="paint28_linear_50_13711" x1="418.665" y1="396.295" x2="330.49" y2="308.12" gradientUnits="userSpaceOnUse"><stop stop-color="#A4FFFF"/><stop offset="1" stop-color="#A4FFFF" stop-opacity="0"/></linearGradient><linearGradient id="paint29_linear_50_13711" x1="370.738" y1="348.369" x2="121.764" y2="99.396" gradientUnits="userSpaceOnUse"><stop stop-color="#A4FFFF"/><stop offset="1" stop-color="#A4FFFF" stop-opacity="0"/></linearGradient><linearGradient id="paint30_linear_50_13711" x1="120.537" y1="468.87" x2="32.361" y2="380.695" gradientUnits="userSpaceOnUse"><stop stop-color="#A4FFFF"/><stop offset="1" stop-color="#A4FFFF" stop-opacity="0"/></linearGradient><linearGradient id="paint31_linear_50_13711" x1="98.472" y1="446.807" x2="-63.73" y2="284.605" gradientUnits="userSpaceOnUse"><stop stop-color="#A4FFFF"/><stop offset="1" stop-color="#A4FFFF" stop-opacity="0"/></linearGradient><linearGradient id="paint32_linear_50_13711" x1="260.892" y1="455.779" x2="172.717" y2="367.603" gradientUnits="userSpaceOnUse"><stop stop-color="#A4FFFF"/><stop offset="1" stop-color="#A4FFFF" stop-opacity="0"/></linearGradient><linearGradient id="paint33_linear_50_13711" x1="238.826" y1="433.714" x2="76.626" y2="271.514" gradientUnits="userSpaceOnUse"><stop stop-color="#A4FFFF"/><stop offset="1" stop-color="#A4FFFF" stop-opacity="0"/></linearGradient><linearGradient id="paint34_linear_50_13711" x1="359.544" y1="322.135" x2="271.368" y2="233.959" gradientUnits="userSpaceOnUse"><stop stop-color="#A4FFFF"/><stop offset="1" stop-color="#A4FFFF" stop-opacity="0"/></linearGradient><linearGradient id="paint35_linear_50_13711" x1="337.48" y1="300.071" x2="175.278" y2="137.869" gradientUnits="userSpaceOnUse"><stop stop-color="#A4FFFF"/><stop offset="1" stop-color="#A4FFFF" stop-opacity="0"/></linearGradient><linearGradient id="paint36_linear_50_13711" x1="32.186" y1="347.684" x2="-56.017" y2="259.482" gradientUnits="userSpaceOnUse"><stop stop-color="#A4FFFF"/><stop offset="1" stop-color="#A4FFFF" stop-opacity="0"/></linearGradient><linearGradient id="paint37_linear_50_13711" x1="31.73" y1="347.228" x2="-58.013" y2="257.485" gradientUnits="userSpaceOnUse"><stop stop-color="#A4FFFF"/><stop offset="1" stop-color="#A4FFFF" stop-opacity="0"/></linearGradient><linearGradient id="paint38_linear_50_13711" x1="222.917" y1="284.882" x2="134.768" y2="196.733" gradientUnits="userSpaceOnUse"><stop stop-color="#A4FFFF"/><stop offset="1" stop-color="#A4FFFF" stop-opacity="0"/></linearGradient><linearGradient id="paint39_linear_50_13711" x1="222.443" y1="284.408" x2="132.702" y2="194.666" gradientUnits="userSpaceOnUse"><stop stop-color="#A4FFFF"/><stop offset="1" stop-color="#A4FFFF" stop-opacity="0"/></linearGradient></defs></svg>