<svg width="506" height="450" fill="none" xmlns="http://www.w3.org/2000/svg"><path d="M237.098 264.633c.02 0 .04-.019.04-.039s-.02-.039-.04-.039c-.019 0-.039.019-.039.039s.02.039.039.039zM198.851 237.211a.134.134 0 00.137-.137.134.134 0 00-.137-.137.134.134 0 00-.137.137c0 .059.059.137.137.137zM377.277 251.736c.02 0 .04-.02.04-.039 0-.02-.02-.04-.04-.04-.019 0-.039.02-.039.04-.02.019.02.039.039.039zM368.347 259.556c.02 0 .04-.019.04-.039s-.02-.039-.04-.039c-.019 0-.039.019-.039.039 0 0 .02.039.039.039zM358.771 266.515c.019 0 .039-.02.039-.04 0-.019-.02-.039-.039-.039-.02 0-.04.02-.04.039-.019.02 0 .04.04.04zM348.587 272.611c.02 0 .04-.02.04-.039 0-.02-.02-.04-.04-.04-.019 0-.039.02-.039.04 0 .019.02.039.039.039zM337.914 277.883a.176.176 0 100-.352.175.175 0 00-.176.176c0 .098.078.176.176.176zM326.81 281.999a.134.134 0 00.138-.137.134.134 0 00-.138-.137.134.134 0 00-.137.137c0 .078.059.137.137.137zM315.393 285.155a.134.134 0 00.137-.137.134.134 0 00-.137-.137.134.134 0 00-.137.137c0 .078.059.137.137.137zM303.721 287.291a.137.137 0 100-.274.137.137 0 000 .274zM291.912 288.35a.134.134 0 00.138-.137.134.134 0 00-.138-.137.134.134 0 00-.137.137c.02.078.079.137.137.137zM280.064 288.35a.134.134 0 00.137-.137.134.134 0 00-.137-.137.134.134 0 00-.137.137c.02.078.059.137.137.137zM268.255 287.272a.134.134 0 00.138-.137.134.134 0 00-.138-.137.134.134 0 00-.137.137c0 .078.079.137.137.137zM256.603 285.155a.134.134 0 00.137-.137.134.134 0 00-.137-.137.134.134 0 00-.137.137c0 .078.059.137.137.137zM245.186 281.999a.134.134 0 00.137-.137.134.134 0 00-.137-.137.134.134 0 00-.137.137c0 .078.059.137.137.137zM234.082 277.962a.26.26 0 00.255-.255.26.26 0 00-.255-.255.26.26 0 00-.255.255.26.26 0 00.255.255zM223.409 272.728a.175.175 0 00.176-.176.176.176 0 10-.352 0c0 .098.078.176.176.176zM213.226 266.73a.246.246 0 00.254-.254c0-.157-.117-.275-.254-.275s-.255.118-.255.275a.26.26 0 00.255.254zM203.63 259.635a.134.134 0 00.137-.138.134.134 0 00-.137-.137.134.134 0 00-.138.137c.02.079.079.138.138.138zM194.719 252.009a.31.31 0 00.314-.313.31.31 0 00-.314-.313.31.31 0 00-.313.313.31.31 0 00.313.313zM186.514 243.424a.31.31 0 00.313-.313.31.31 0 00-.313-.314.31.31 0 00-.313.314c0 .176.156.313.313.313zM179.131 233.977a.134.134 0 00.137-.137.134.134 0 00-.137-.137.134.134 0 00-.137.137c0 .078.058.137.137.137zM172.609 224.254a.31.31 0 00.314-.313.31.31 0 00-.314-.313.31.31 0 00-.313.313.31.31 0 00.313.313zM166.989 213.631a.134.134 0 00.137-.137.134.134 0 00-.137-.137.134.134 0 00-.137.137c0 .078.059.137.137.137zM162.328 202.85a.26.26 0 00.255-.254.26.26 0 00-.255-.255c-.157 0-.274.118-.274.255.02.137.137.254.274.254zM158.666 191.443a.134.134 0 00.137-.137.134.134 0 00-.137-.137.133.133 0 00-.137.137c0 .078.058.137.137.137zM156.042 179.8c.019 0 .039-.019.039-.039s-.02-.039-.039-.039c-.02 0-.04.019-.04.039-.019 0 0 .039.04.039zM162.328 109.727c.02 0 .04-.02.04-.04 0-.019-.02-.039-.04-.039-.019 0-.039.02-.039.039 0 .02.02.04.039.04zM431.289 156.181a.04.04 0 00.039-.04.039.039 0 00-.078 0c0 .022.017.04.039.04zM430.799 168.04c.02 0 .039-.02.039-.04 0-.019-.019-.039-.039-.039s-.039.02-.039.039c0 .02.019.04.039.04zM429.35 179.82c.02 0 .039-.02.039-.039 0-.02-.019-.04-.039-.04s-.039.02-.039.04c0 .019.019.039.039.039zM426.961 191.424c.02 0 .039-.02.039-.04 0-.019-.019-.039-.039-.039s-.039.02-.039.039c0 .02.019.04.039.04zM423.612 202.812c.019 0 .039-.02.039-.04 0-.019-.02-.039-.039-.039-.02 0-.039.02-.039.039 0 .02.019.04.039.04zM419.363 213.886c.019 0 .039-.02.039-.039 0-.02-.02-.04-.039-.04-.02 0-.04.02-.04.04 0 .019.02.039.04.039zM414.232 224.569c.019 0 .039-.02.039-.039 0-.02-.02-.04-.039-.04-.02 0-.04.02-.04.04-.019.019 0 .039.04.039zM408.219 234.801c.02 0 .039-.02.039-.04 0-.019-.019-.039-.039-.039s-.039.02-.039.039c0 .02.019.04.039.04zM401.424 244.523c.019 0 .039-.02.039-.04 0-.019-.02-.039-.039-.039-.02 0-.039.02-.039.039 0 .02-.001.04.039.04zM393.845 253.852c.157 0 .274-.117.274-.254 0-.138-.117-.255-.274-.255a.26.26 0 00-.255.255c-.019.137.098.254.255.254zM385.541 262.105c.02 0 .04-.02.04-.04 0-.019-.02-.039-.04-.039-.019 0-.039.02-.039.039 0 .02.02.04.039.04zM376.592 270.023a.175.175 0 00.176-.176.175.175 0 00-.176-.176.175.175 0 00-.176.176c0 .098.078.176.176.176zM367.015 277.119a.26.26 0 00.255-.255.26.26 0 00-.255-.255.26.26 0 00-.254.255.26.26 0 00.254.255zM356.93 283.332c.157 0 .274-.117.274-.255 0-.156-.117-.254-.274-.254a.26.26 0 00-.255.254c-.019.138.098.255.255.255zM346.355 288.605a.176.176 0 00.176-.177.176.176 0 10-.176.177zM335.388 293.348a.435.435 0 00.431-.431.435.435 0 00-.431-.431.422.422 0 00-.431.431c-.02.235.176.431.431.431zM324.069 296.915a.423.423 0 00.431-.431.44.44 0 00-.431-.45.44.44 0 00-.431.45c0 .235.196.431.431.431zM312.515 299.659a.528.528 0 100-1.057.528.528 0 000 1.057zM300.784 301.208a.392.392 0 000-.784.393.393 0 000 .784zM288.955 301.972a.434.434 0 00.431-.431.421.421 0 00-.431-.43.421.421 0 00-.43.43c0 .235.195.431.43.431zM277.107 301.678a.391.391 0 10.002-.782.391.391 0 00-.002.782zM265.318 300.522a.435.435 0 00.431-.431.435.435 0 00-.431-.431.422.422 0 00-.431.431c0 .235.196.431.431.431zM253.666 298.582a.66.66 0 00.665-.666.66.66 0 00-.665-.667.66.66 0 00-.666.667.66.66 0 00.666.666zM242.229 295.603a.785.785 0 000-1.568.785.785 0 00-.783.784c0 .431.333.784.783.784zM231.086 291.565a.786.786 0 00.783-.784.786.786 0 00-.783-.784.786.786 0 00-.783.784c-.02.431.332.784.783.784zM220.295 286.292a.435.435 0 00.431-.431.435.435 0 00-.431-.431.422.422 0 00-.43.431c0 .235.195.431.43.431zM209.955 280.628a.57.57 0 10-.002-1.138.57.57 0 00.002 1.138zM200.105 273.962a.526.526 0 00.528-.529.526.526 0 00-.528-.528.526.526 0 00-.529.528.54.54 0 00.529.529zM190.842 266.573a.526.526 0 00.528-.529.526.526 0 00-.528-.529.527.527 0 00-.529.529c0 .294.235.529.529.529zM182.205 258.498a.568.568 0 100-1.137.568.568 0 000 1.137zM174.274 249.501a.394.394 0 00.392-.392.394.394 0 00-.392-.392.394.394 0 00-.392.392c0 .215.177.392.392.392zM167.068 240.092a.392.392 0 000-.783.392.392 0 00-.392.391c0 .196.176.392.392.392zM160.664 230.233a.527.527 0 00.529-.529.527.527 0 00-.529-.529.527.527 0 00-.529.529c0 .294.235.529.529.529zM155.082 219.668a.435.435 0 00.431-.431.422.422 0 00-.431-.431.435.435 0 00-.431.431c0 .235.196.431.431.431zM150.382 208.75a.393.393 0 000-.784.394.394 0 00-.392.392c0 .216.177.392.392.392zM146.583 197.421a.31.31 0 00.313-.313.31.31 0 00-.313-.314.31.31 0 00-.314.314.31.31 0 00.314.313zM143.704 185.915a.31.31 0 00.313-.313.31.31 0 00-.313-.314.31.31 0 00-.313.314c.019.176.156.313.313.313zM141.785 174.154a.259.259 0 00.254-.255.258.258 0 00-.254-.254.26.26 0 00-.255.254.26.26 0 00.255.255zM140.825 162.257a.176.176 0 10-.176-.176c0 .078.079.176.176.176zM140.825 150.339a.133.133 0 00.137-.137.134.134 0 00-.137-.137.134.134 0 00-.137.137c0 .079.059.137.137.137zM141.785 138.422c.019 0 .039-.019.039-.039s-.02-.039-.039-.039c-.02 0-.04.019-.04.039s.02.039.04.039zM143.705 126.721c.019 0 .039-.02.039-.04 0-.019-.02-.039-.039-.039-.02 0-.04.02-.04.039 0 .02.02.04.04.04zM146.583 115.215c.02 0 .039-.02.039-.039 0-.02-.019-.04-.039-.04s-.039.02-.039.04c0 .019.019.039.039.039zM150.382 103.984c.02 0 .039-.02.039-.04 0-.019-.019-.039-.039-.039s-.039.02-.039.039c0 .02.019.04.039.04zM174.274 63.213c.02 0 .04-.02.04-.039 0-.02-.02-.04-.04-.04-.019 0-.039.02-.039.04s0 .04.039.04zM429.35 132.562c.02 0 .039-.02.039-.04 0-.019-.019-.039-.039-.039s-.039.02-.039.039c0 .02.019.04.039.04zM430.799 144.322c.02 0 .039-.019.039-.039a.041.041 0 00-.039-.039.041.041 0 00-.039.039c0 .02.019.039.039.039zM444.057 168.04c.02 0 .04-.02.04-.04 0-.019-.02-.039-.04-.039-.019 0-.039.02-.039.039 0 .02.02.04.039.04zM442.726 179.839c.02 0 .039-.02.039-.039 0-.02-.019-.04-.039-.04s-.039.02-.039.04c0 0 .019.039.039.039zM440.532 191.483c.02 0 .04-.02.04-.04 0-.019-.02-.039-.04-.039-.019 0-.039.02-.039.039-.02.02 0 .04.039.04zM437.458 202.949c.019 0 .039-.02.039-.039 0-.02-.02-.04-.039-.04-.02 0-.04.02-.04.04 0 .019.02.039.04.039zM433.541 214.141c.02 0 .039-.02.039-.039 0-.02-.019-.04-.039-.04s-.039.02-.039.04c0 .019.019.039.039.039zM428.802 225.02c.019 0 .039-.02.039-.04 0-.019-.02-.039-.039-.039-.02 0-.04.02-.04.039 0 .02.02.04.04.04zM423.26 235.506c.019 0 .039-.019.039-.039s-.02-.039-.039-.039c-.02 0-.04.019-.04.039s.02.039.04.039zM416.954 245.639a.134.134 0 00.137-.137.134.134 0 00-.137-.137.134.134 0 00-.138.137c0 .079.059.137.138.137zM409.923 255.224a.175.175 0 00.176-.176.175.175 0 00-.176-.176.175.175 0 00-.176.176c0 .098.078.176.176.176zM402.187 264.358a.31.31 0 00.314-.313.31.31 0 00-.314-.313.31.31 0 00-.313.313.31.31 0 00.313.313zM393.806 272.747a.31.31 0 00.313-.313.31.31 0 00-.313-.314.31.31 0 00-.314.314.31.31 0 00.314.313zM384.817 280.431a.26.26 0 00.255-.254.26.26 0 00-.255-.255.26.26 0 00-.255.255.26.26 0 00.255.254zM375.28 287.488a.26.26 0 00.254-.255.26.26 0 00-.254-.255.26.26 0 00-.255.255.26.26 0 00.255.255zM365.253 294.447a.92.92 0 00.92-.922.92.92 0 10-1.84 0c0 .51.411.922.92.922zM354.776 299.738a.66.66 0 00.666-.666.66.66 0 00-.666-.666.66.66 0 00-.666.666.66.66 0 00.666.666zM343.907 304.207a.392.392 0 000-.784.393.393 0 000 .784zM332.705 308.304a.569.569 0 10-.002-1.138.569.569 0 00.002 1.138zM321.268 311.519a.702.702 0 00.705-.706.702.702 0 00-.705-.706.703.703 0 00-.705.706c0 .392.314.706.705.706zM309.616 313.714a.702.702 0 00.705-.706.702.702 0 00-.705-.705.702.702 0 00-.705.705c0 .392.313.706.705.706zM297.846 314.869a.526.526 0 00.529-.528.527.527 0 00-.529-.529.527.527 0 00-.529.529c0 .293.235.528.529.528zM285.998 315.32a.527.527 0 00.529-.529.526.526 0 00-.529-.528.526.526 0 00-.529.528c0 .294.235.529.529.529zM274.15 315.125a.786.786 0 00.783-.784.786.786 0 00-.783-.784.786.786 0 00-.783.784c0 .431.352.784.783.784zM262.361 313.675a.66.66 0 00.665-.667.66.66 0 00-.665-.666.66.66 0 00-.666.666c.019.373.313.667.666.667zM250.729 311.636c.47 0 .842-.372.842-.843a.837.837 0 00-.842-.843.85.85 0 00-.843.843c0 .471.373.843.843.843zM239.272 308.873a1.137 1.137 0 000-2.274 1.137 1.137 0 000 2.274zM228.089 304.913c.607 0 1.097-.49 1.097-1.098a1.096 1.096 0 10-2.193 0c0 .608.489 1.098 1.096 1.098zM217.221 299.876c.43 0 .783-.353.783-.784a.786.786 0 00-.783-.784.786.786 0 00-.784.784.8.8 0 00.784.784zM206.744 294.681a1.137 1.137 0 10-.003-2.273 1.137 1.137 0 00.003 2.273zM196.717 287.997a.784.784 0 10-.002-1.568.784.784 0 00.002 1.568zM187.16 281.137a.962.962 0 000-1.921.961.961 0 000 1.921zM178.191 273.277c.47 0 .842-.372.842-.842a.836.836 0 00-.842-.843.848.848 0 00-.842.843c0 .47.372.842.842.842zM169.809 264.751a.702.702 0 00.705-.706.702.702 0 00-.705-.706.702.702 0 00-.705.706c0 .392.313.706.705.706zM162.073 255.498a.44.44 0 00.431-.45.435.435 0 00-.431-.431.422.422 0 00-.43.431c0 .254.176.45.43.45zM155.023 246.031a.527.527 0 00.529-.529.527.527 0 00-.529-.529.527.527 0 00-.529.529.54.54 0 00.529.529zM148.717 235.897a.422.422 0 00.431-.431.435.435 0 00-.431-.431.435.435 0 00-.431.431c0 .235.196.431.431.431zM143.195 225.411a.44.44 0 00.451-.431.44.44 0 00-.451-.431.435.435 0 00-.431.431c-.019.235.177.431.431.431zM138.456 214.493a.392.392 0 000-.783.393.393 0 00-.392.392.38.38 0 00.392.391zM134.539 203.34a.435.435 0 00.431-.431.435.435 0 00-.431-.431.422.422 0 00-.431.431c-.02.235.176.431.431.431zM131.464 191.873a.434.434 0 00.431-.43c0-.235-.196-.451-.431-.451-.254 0-.431.196-.431.451 0 .235.196.43.431.43zM129.252 180.191a.392.392 0 000-.783.393.393 0 00-.392.392c0 .196.176.391.392.391zM127.939 168.392a.393.393 0 00.392-.392.393.393 0 00-.392-.392.393.393 0 00-.391.392.38.38 0 00.391.392zM127.489 156.396c.157 0 .274-.117.274-.254 0-.138-.117-.255-.274-.255a.26.26 0 00-.255.255.26.26 0 00.255.254zM127.939 144.459a.175.175 0 00.176-.176.176.176 0 10-.352 0c0 .098.078.176.176.176zM129.251 132.679a.175.175 0 00.176-.176.176.176 0 10-.352 0c0 .098.098.176.176.176zM131.464 120.977a.134.134 0 00.138-.137.134.134 0 00-.138-.137.134.134 0 00-.137.137c0 .078.059.137.137.137zM134.539 109.433c.02 0 .039-.02.039-.04 0-.019-.019-.039-.039-.039s-.039.02-.039.039c-.02 0 0 .04.039.04zM138.456 98.22c.02 0 .039-.019.039-.039s-.019-.039-.039-.039-.039.02-.039.04c-.02.019 0 .039.039.039zM143.195 87.343c.02 0 .04-.02.04-.04s-.02-.04-.04-.04c-.019 0-.039.02-.039.04s0 .04.039.04zM148.718 76.856c.019 0 .039-.02.039-.04s-.02-.039-.039-.039c-.02 0-.04.02-.04.04 0 .019.02.039.04.039zM155.023 66.82c.02 0 .04-.02.04-.039 0-.02-.02-.04-.04-.04-.019 0-.039.02-.039.04s.02.04.039.04zM162.073 57.275c.02 0 .04-.02.04-.04s-.02-.04-.04-.04c-.019 0-.039.02-.039.04s.02.04.039.04zM169.809 48.278c.02 0 .04-.02.04-.04s-.02-.04-.04-.04c-.019 0-.039.02-.039.04-.02.02.02.04.039.04zM178.191 39.888c.02 0 .039-.02.039-.04 0-.019-.019-.038-.039-.038s-.039.02-.039.039c-.02.02 0 .04.039.04zM187.16 32.146c.02 0 .039-.02.039-.04 0-.019-.019-.039-.039-.039-.019 0-.039.02-.039.04s.02.039.039.039zM196.697 25.11c.02 0 .039-.02.039-.04s-.019-.04-.039-.04-.039.02-.039.04.019.04.039.04zM206.744 18.798c.02 0 .039-.02.039-.04s-.019-.039-.039-.039-.039.02-.039.04.019.039.039.039zM228.09 8.507c.02 0 .039-.02.039-.04 0-.019-.019-.038-.039-.038s-.039.02-.039.039c0 .02.019.04.039.04zM442.726 132.542c.02 0 .039-.02.039-.039a.041.041 0 00-.039-.039.041.041 0 00-.039.039c0 .019.019.039.039.039zM444.057 144.322c.02 0 .04-.019.04-.039s-.02-.039-.04-.039c-.019 0-.039.019-.039.039s.02.039.039.039zM457.707 156.181c.019 0 .039-.02.039-.04 0-.019-.02-.039-.039-.039-.02 0-.04.02-.04.039 0 .02.02.04.04.04zM457.296 168.04c.019 0 .039-.02.039-.04 0-.019-.02-.039-.039-.039-.02 0-.04.02-.04.039 0 .02.02.04.04.04zM456.081 179.839c.02 0 .04-.02.04-.039 0-.02-.02-.04-.04-.04-.019 0-.039.02-.039.04-.02.019 0 .039.039.039zM454.045 191.619a.134.134 0 00.137-.137.134.134 0 00-.137-.137.134.134 0 00-.137.137c0 .078.058.137.137.137zM451.205 203.145a.134.134 0 00.137-.138.134.134 0 00-.137-.137.134.134 0 00-.137.137c0 .079.059.138.137.138zM447.582 214.435a.134.134 0 00.137-.138.134.134 0 00-.137-.137.134.134 0 00-.137.137c0 .079.059.138.137.138zM443.176 225.451a.134.134 0 00.137-.138.134.134 0 00-.137-.137.134.134 0 00-.137.137c.02.079.078.138.137.138zM438.045 236.055c.02 0 .039-.02.039-.039 0-.02-.019-.04-.039-.04s-.039.02-.039.04c-.02.019 0 .039.039.039zM432.17 246.443a.134.134 0 00.137-.137.134.134 0 00-.137-.137.134.134 0 00-.137.137c0 .078.059.137.137.137zM425.61 256.459a.259.259 0 00.254-.255c0-.156-.117-.274-.254-.274-.138 0-.255.118-.255.274-.02.138.098.255.255.255zM418.383 265.868a.26.26 0 00.255-.255.26.26 0 00-.255-.255.26.26 0 00-.255.255c-.019.137.098.255.255.255zM410.51 274.786a.31.31 0 00.313-.313.31.31 0 00-.313-.314.31.31 0 00-.313.314c0 .176.156.313.313.313zM402.07 283.058a.26.26 0 00.255-.255.26.26 0 00-.255-.255.26.26 0 00-.254.255c-.02.137.098.255.254.255zM393.061 291.075a.568.568 0 100-1.137.568.568 0 000 1.137zM383.544 298.425c.45 0 .842-.372.842-.843a.836.836 0 00-.842-.842.836.836 0 00-.842.842c0 .471.372.843.842.843zM373.556 305.442c.803 0 1.449-.646 1.449-1.45 0-.804-.646-1.45-1.449-1.45s-1.449.646-1.449 1.45c0 .784.646 1.45 1.449 1.45zM363.157 311.127c.803 0 1.45-.647 1.45-1.451s-.647-1.45-1.45-1.45c-.802 0-1.449.646-1.449 1.45 0 .804.647 1.451 1.449 1.451zM352.386 315.615c.529 0 .96-.431.96-.96 0-.529-.431-.98-.96-.98a.966.966 0 00-.959.98c0 .509.431.96.959.96zM341.302 319.869c.568 0 1.018-.451 1.018-1.019 0-.569-.45-1.02-1.018-1.02-.548 0-1.018.451-1.018 1.02.019.548.47 1.019 1.018 1.019zM329.963 323.122a.849.849 0 00.843-.842.837.837 0 00-.843-.843.836.836 0 00-.842.843c0 .45.372.842.842.842zM318.409 325.494a.568.568 0 10-.568-.569c-.019.314.255.569.568.569zM306.698 327.67a.92.92 0 00.92-.921.92.92 0 10-1.841 0c-.019.509.412.921.921.921zM294.889 328.473a.702.702 0 00.705-.705.702.702 0 00-.705-.706.702.702 0 00-.705.706c0 .392.313.705.705.705zM283.041 328.689a.702.702 0 00.705-.706.702.702 0 00-.705-.705.702.702 0 00-.705.705c0 .392.313.706.705.706zM271.193 328.297a.92.92 0 00.92-.921.92.92 0 10-1.841 0c0 .49.412.921.921.921zM259.423 327.082a1.137 1.137 0 000-2.274 1.137 1.137 0 000 2.274zM247.791 324.671a.96.96 0 10-.96-.96c-.019.529.411.96.96.96zM236.334 322.201a1.55 1.55 0 001.547-1.548c0-.843-.685-1.549-1.547-1.549-.842 0-1.547.686-1.547 1.549 0 .862.686 1.548 1.547 1.548zM225.113 318.732a1.881 1.881 0 000-3.764c-1.038 0-1.88.843-1.88 1.882-.02 1.039.822 1.882 1.88 1.882zM214.166 313.792a1.55 1.55 0 001.547-1.548c0-.843-.685-1.549-1.547-1.549-.842 0-1.547.686-1.547 1.549.019.862.705 1.548 1.547 1.548zM203.59 308.461c.842 0 1.547-.686 1.547-1.549a1.55 1.55 0 00-1.547-1.548c-.861 0-1.547.686-1.547 1.548 0 .863.686 1.549 1.547 1.549zM193.388 302.581c.94 0 1.723-.765 1.723-1.725 0-.941-.764-1.725-1.723-1.725a1.726 1.726 0 000 3.45zM183.635 296.249c1.175 0 2.115-.94 2.115-2.116a2.12 2.12 0 00-2.115-2.117c-1.156 0-2.115.94-2.115 2.117a2.12 2.12 0 002.115 2.116zM174.372 287.88a1.138 1.138 0 000-2.274c-.627 0-1.136.51-1.136 1.137s.489 1.137 1.136 1.137zM165.638 279.863a1.137 1.137 0 000-2.274c-.627 0-1.136.51-1.136 1.137-.02.627.49 1.137 1.136 1.137zM157.471 271.023a.92.92 0 100-1.841.92.92 0 000 1.841zM149.912 261.791a.849.849 0 00.842-.843.849.849 0 00-.842-.843.837.837 0 00-.842.843c0 .47.392.843.842.843zM143.019 252.147c.47 0 .842-.372.842-.843a.836.836 0 00-.842-.842.848.848 0 00-.842.842c0 .471.372.843.842.843zM136.791 242.19c.529 0 .96-.431.96-.961 0-.529-.431-.98-.96-.98a.965.965 0 00-.959.98c0 .53.43.961.959.961zM131.288 231.37a.66.66 0 00.666-.666.66.66 0 00-.666-.667.66.66 0 00-.666.667.66.66 0 00.666.666zM126.509 220.295a.435.435 0 00.431-.431.435.435 0 00-.431-.431.422.422 0 00-.43.431c0 .235.195.431.43.431zM122.495 209.22a.527.527 0 00.529-.529.526.526 0 00-.529-.528.526.526 0 00-.529.528c.02.275.255.529.529.529zM119.263 197.792a.526.526 0 00.529-.528.527.527 0 00-.529-.529.526.526 0 00-.528.529c0 .294.254.528.528.528zM116.835 186.189a.527.527 0 00.529-.529.527.527 0 00-.529-.529.527.527 0 00-.529.529c0 .294.235.529.529.529zM115.21 174.35a.435.435 0 00.431-.431.434.434 0 00-.431-.43.421.421 0 00-.431.43c-.019.235.176.431.431.431zM114.387 162.335a.26.26 0 00.255-.254.26.26 0 00-.255-.255.26.26 0 00-.254.255c-.02.137.098.254.254.254zM114.387 150.613a.392.392 0 000-.783.392.392 0 00-.391.392c0 .196.176.391.391.391zM115.21 138.774a.392.392 0 000-.783.393.393 0 00-.392.392c-.019.215.157.391.392.391zM116.835 126.799a.177.177 0 100-.353.177.177 0 000 .353zM119.264 115.273a.258.258 0 00.254-.254c0-.157-.117-.275-.254-.275s-.255.118-.255.275a.26.26 0 00.255.254zM122.495 103.768a.176.176 0 00.176-.177.175.175 0 00-.176-.176.175.175 0 00-.176.176c0 .098.098.177.176.177zM126.51 92.478c.02 0 .039-.02.039-.04s-.019-.039-.039-.039-.039.02-.039.04.019.039.039.039zM131.288 81.619c.02 0 .04-.02.04-.04s-.02-.039-.04-.039c-.019 0-.039.02-.039.04 0 .019.02.039.039.039zM136.791 71.19a.134.134 0 00.137-.136.134.134 0 00-.137-.137.134.134 0 00-.137.137c.02.078.078.137.137.137zM143.018 61.096a.134.134 0 00.138-.137.134.134 0 00-.138-.137.134.134 0 00-.137.137c0 .078.059.137.137.137zM149.912 51.491a.175.175 0 00.176-.176.175.175 0 00-.176-.176.175.175 0 00-.176.176c0 .098.078.176.176.176zM157.472 42.299a.134.134 0 00.137-.138.134.134 0 00-.137-.137.134.134 0 00-.138.137c0 .079.059.138.138.138zM165.638 33.694a.134.134 0 00.137-.137.134.134 0 00-.137-.137.133.133 0 00-.137.137c0 .078.058.137.137.137zM174.372 25.677a.134.134 0 00.137-.137.134.134 0 00-.137-.137.134.134 0 00-.137.137c0 .078.059.137.137.137zM183.635 18.19c.02 0 .039-.02.039-.04 0-.019-.019-.039-.039-.039s-.039.02-.039.04.019.039.039.039zM193.388 11.467c.019 0 .039-.02.039-.04 0-.019-.02-.039-.039-.039-.02 0-.04.02-.04.04s.02.039.04.039zM203.591 5.41c.019 0 .039-.02.039-.039 0-.02-.02-.04-.039-.04-.02 0-.04.02-.04.04-.019.02 0 .04.04.04zM214.166.079c.02 0 .039-.02.039-.04S214.186 0 214.166 0s-.039.02-.039.04c0 .019.019.039.039.039zM451.205 109.315c.02 0 .039-.02.039-.039 0-.02-.019-.04-.039-.04s-.039.02-.039.04c0 .019 0 .039.039.039zM454.045 120.84c.02 0 .039-.019.039-.039a.041.041 0 00-.039-.039.041.041 0 00-.039.039c-.02.02 0 .039.039.039zM456.081 132.522c.02 0 .04-.019.04-.039s-.02-.039-.04-.039c-.019 0-.039.019-.039.039-.02.02 0 .039.039.039zM457.296 144.322c.019 0 .039-.019.039-.039s-.02-.039-.039-.039c-.02 0-.04.019-.04.039s.02.039.04.039zM470.906 156.279a.134.134 0 00.137-.137.134.134 0 00-.137-.137.134.134 0 00-.137.137c.02.078.078.137.137.137zM470.534 168.137a.134.134 0 00.137-.137.134.134 0 00-.137-.137.134.134 0 00-.137.137c0 .078.059.137.137.137zM469.398 179.937a.137.137 0 00.137-.137.137.137 0 10-.137.137zM467.499 191.697a.176.176 0 100-.352.176.176 0 100 .352zM464.874 203.262a.176.176 0 100-.352.176.176 0 100 .352zM461.486 214.865a.392.392 0 000-.783.392.392 0 000 .783zM457.393 226.116a.527.527 0 00.529-.529.526.526 0 00-.529-.528.526.526 0 00-.528.528c0 .294.235.529.528.529zM452.596 236.584a.134.134 0 00.137-.137.134.134 0 00-.137-.137.134.134 0 00-.138.137c.02.078.079.137.138.137zM447.112 247.09a.134.134 0 00.137-.137.134.134 0 00-.137-.137.134.134 0 00-.137.137c.02.078.078.137.137.137zM440.982 257.38a.26.26 0 00.255-.254c0-.137-.118-.274-.255-.274s-.254.117-.254.274c-.02.137.098.254.254.254zM434.187 267.024a.176.176 0 100-.352.175.175 0 00-.176.176c0 .098.078.176.176.176zM426.804 276.373a.26.26 0 00.255-.254c0-.137-.118-.274-.255-.274s-.255.117-.255.274c-.019.137.118.254.255.254zM418.834 285.469a.569.569 0 10-.002-1.138.569.569 0 00.002 1.138zM410.315 293.956a.786.786 0 00.783-.784.786.786 0 00-.783-.784.787.787 0 00-.784.784.8.8 0 00.784.784zM401.287 301.424a.569.569 0 10-.002-1.138.569.569 0 00.002 1.138zM391.789 308.873a.92.92 0 00.92-.922.92.92 0 10-1.841 0c0 .51.412.922.921.922zM381.86 315.694a1.274 1.274 0 10-.002-2.548 1.274 1.274 0 00.002 2.548zM371.52 322.005c.979 0 1.762-.784 1.762-1.764s-.783-1.764-1.762-1.764-1.763.784-1.763 1.764c.02.96.803 1.764 1.763 1.764zM360.847 326.67a1.27 1.27 0 001.273-1.274 1.27 1.27 0 00-1.273-1.274 1.27 1.27 0 00-1.273 1.274c0 .686.568 1.274 1.273 1.274zM349.86 331.727a1.881 1.881 0 10-.002-3.762 1.881 1.881 0 00.002 3.762zM338.6 335.471c1.038 0 1.88-.843 1.88-1.901a1.881 1.881 0 00-1.88-1.882c-1.038 0-1.88.843-1.88 1.882 0 1.058.842 1.901 1.88 1.901zM327.143 337.725c.627 0 1.136-.509 1.136-1.136 0-.628-.509-1.157-1.136-1.157-.626 0-1.136.51-1.136 1.157 0 .627.51 1.136 1.136 1.136zM315.511 340.077c.685 0 1.233-.548 1.233-1.234 0-.686-.548-1.235-1.233-1.235a1.23 1.23 0 00-1.234 1.235c0 .686.548 1.234 1.234 1.234zM303.761 341.822c.803 0 1.449-.647 1.449-1.45 0-.804-.646-1.451-1.449-1.451s-1.449.647-1.449 1.451c0 .803.646 1.45 1.449 1.45zM291.912 342.135c.568 0 1.019-.451 1.019-1.019 0-.549-.451-1.019-1.019-1.019-.568 0-1.018.451-1.018 1.019.02.568.47 1.019 1.018 1.019zM280.064 342.547c.784 0 1.41-.628 1.41-1.412 0-.784-.626-1.411-1.41-1.411-.783 0-1.41.627-1.41 1.411s.647 1.412 1.41 1.412zM268.236 341.959a1.58 1.58 0 001.586-1.588 1.58 1.58 0 00-1.586-1.588 1.58 1.58 0 00-1.587 1.588c0 .882.725 1.588 1.587 1.588zM256.486 340.43a1.58 1.58 0 001.586-1.587 1.58 1.58 0 00-1.586-1.588 1.58 1.58 0 00-1.587 1.588 1.58 1.58 0 001.587 1.587zM244.853 338.254c.921 0 1.665-.745 1.665-1.666a1.664 1.664 0 10-3.329 0c-.02.921.724 1.666 1.664 1.666zM233.377 335.784c1.214 0 2.194-.98 2.194-2.195 0-1.215-.98-2.195-2.194-2.195a2.19 2.19 0 00-2.193 2.195c0 1.196.979 2.195 2.193 2.195zM222.136 332.354a2.5 2.5 0 002.507-2.509 2.5 2.5 0 00-2.507-2.508 2.5 2.5 0 00-2.507 2.508 2.512 2.512 0 002.507 2.509zM211.15 327.454a2.056 2.056 0 002.056-2.058 2.056 2.056 0 10-4.112 0c-.02 1.137.9 2.058 2.056 2.058zM200.457 323.279a3.027 3.027 0 003.036-3.038 3.027 3.027 0 00-3.036-3.038 3.026 3.026 0 00-3.035 3.038 3.052 3.052 0 003.035 3.038zM190.137 317.046a2.646 2.646 0 000-5.292 2.647 2.647 0 00-2.644 2.646 2.634 2.634 0 002.644 2.646zM180.208 310.715a2.76 2.76 0 002.761-2.764 2.759 2.759 0 00-2.761-2.763 2.758 2.758 0 00-2.761 2.763c-.02 1.529 1.214 2.764 2.761 2.764zM170.69 303.267a2.408 2.408 0 002.409-2.411 2.408 2.408 0 10-4.818 0 2.408 2.408 0 002.409 2.411zM161.662 295.701a2.542 2.542 0 002.546-2.548 2.542 2.542 0 00-2.546-2.548 2.542 2.542 0 00-2.546 2.548 2.555 2.555 0 002.546 2.548zM153.163 286.567c.921 0 1.665-.745 1.665-1.667a1.664 1.664 0 10-3.329 0c-.02.922.744 1.667 1.664 1.667zM145.192 277.531c.784 0 1.41-.627 1.41-1.411 0-.785-.626-1.412-1.41-1.412-.783 0-1.41.627-1.41 1.412 0 .784.627 1.411 1.41 1.411zM137.79 268.259c.783 0 1.41-.627 1.41-1.411s-.627-1.411-1.41-1.411c-.784 0-1.41.627-1.41 1.411.019.764.646 1.411 1.41 1.411zM131.014 258.341a1.23 1.23 0 001.234-1.235c0-.686-.549-1.234-1.234-1.234-.686 0-1.234.548-1.234 1.234a1.23 1.23 0 001.234 1.235zM124.865 247.933a.962.962 0 000-1.921.962.962 0 000 1.921zM119.381 237.545c.607 0 1.097-.49 1.097-1.098a1.096 1.096 0 10-2.194 0c0 .608.49 1.098 1.097 1.098zM114.583 226.705c.607 0 1.097-.49 1.097-1.097a1.096 1.096 0 10-2.193 0c0 .588.489 1.097 1.096 1.097zM110.491 215.611c.626 0 1.135-.51 1.135-1.137s-.509-1.156-1.135-1.156c-.627 0-1.136.509-1.136 1.156 0 .627.509 1.137 1.136 1.137zM107.122 203.929c.47 0 .842-.373.842-.843a.837.837 0 00-.842-.843.85.85 0 00-.842.843c0 .47.372.843.842.843zM104.478 192.305a.784.784 0 100-1.568.784.784 0 000 1.568zM102.578 180.741a.92.92 0 00.921-.921.92.92 0 10-1.841 0c.02.49.431.921.92.921zM101.462 168.706a.702.702 0 00.705-.706.702.702 0 00-.705-.705.702.702 0 00-.705.705c0 .392.314.706.705.706zM101.071 156.808a.66.66 0 00.665-.667.66.66 0 00-.665-.666.66.66 0 00-.666.666c.019.373.313.667.666.667zM101.463 144.851a.567.567 0 10-.568-.568c-.02.314.235.568.568.568zM102.579 133.052a.57.57 0 10-.002-1.138.57.57 0 00.002 1.138zM104.478 121.192a.434.434 0 00.431-.43.435.435 0 00-.431-.431.422.422 0 00-.431.431c0 .235.196.43.431.43zM107.122 109.452a.26.26 0 00.254-.255.26.26 0 00-.254-.255.26.26 0 00-.255.255c-.019.137.098.255.255.255zM110.49 98.259a.43.43 0 100-.862.43.43 0 000 .862zM114.583 86.852a.175.175 0 00.176-.177.175.175 0 00-.176-.176.175.175 0 00-.176.176c0 .098.078.177.176.177zM119.381 76.09a.26.26 0 00.255-.254c0-.156-.118-.274-.255-.274s-.254.118-.254.274c0 .137.117.255.254.255zM124.865 65.447a.134.134 0 00.137-.137.134.134 0 00-.137-.137.133.133 0 00-.137.137c.019.079.058.137.137.137zM131.014 55.431a.259.259 0 00.254-.255c0-.137-.117-.274-.254-.274s-.255.118-.255.274c0 .157.118.255.255.255zM137.79 45.611a.175.175 0 00.176-.176.175.175 0 00-.176-.177.175.175 0 00-.176.177c0 .098.078.176.176.176zM145.193 36.3a.134.134 0 00.137-.136.134.134 0 00-.137-.137.133.133 0 00-.137.137c0 .078.058.137.137.137zM153.163 27.52a.134.134 0 00.137-.137.134.134 0 00-.137-.137.133.133 0 00-.137.137c0 .078.058.137.137.137zM161.662 19.17c.02 0 .04-.02.04-.039 0-.02-.02-.04-.04-.04-.019 0-.039.02-.039.04s.02.04.039.04zM467.499 120.801c.019 0 .039-.02.039-.039 0-.02-.02-.04-.039-.04-.02 0-.04.02-.04.04 0 .019.02.039.04.039zM469.398 132.522c.02 0 .04-.019.04-.039s-.02-.039-.04-.039c-.019 0-.039.019-.039.039s.02.039.039.039zM470.534 144.322c.02 0 .04-.019.04-.039s-.02-.039-.04-.039c-.019 0-.039.019-.039.039s.02.039.039.039zM484.125 156.279a.134.134 0 00.137-.137.134.134 0 00-.137-.137.134.134 0 00-.137.137c0 .078.059.137.137.137zM483.773 168.392a.393.393 0 00.391-.392.393.393 0 00-.391-.392.393.393 0 00-.392.392c0 .215.176.392.392.392zM482.715 180.133a.31.31 0 00.314-.314.31.31 0 00-.314-.313.31.31 0 00-.313.313.31.31 0 00.313.314zM480.933 191.854a.31.31 0 00.313-.313.31.31 0 00-.313-.314.31.31 0 00-.313.314c.019.176.156.313.313.313zM478.465 203.419c.157 0 .274-.118.274-.255s-.117-.254-.274-.254a.258.258 0 00-.254.254.26.26 0 00.254.255zM475.313 215.435c.47 0 .842-.373.842-.843a.836.836 0 00-.842-.843.836.836 0 00-.842.843c.019.47.391.843.842.843zM471.494 227.273c.803 0 1.449-.646 1.449-1.45 0-.804-.646-1.451-1.449-1.451s-1.449.647-1.449 1.451.646 1.45 1.449 1.45zM466.989 237.328a.526.526 0 00.529-.528.527.527 0 00-.529-.529.526.526 0 00-.528.529c0 .293.235.528.528.528zM461.859 248.638a1.137 1.137 0 10-1.136-1.137c-.02.628.489 1.137 1.136 1.137zM456.081 258.772a.92.92 0 100-1.842.92.92 0 00-.92.921c0 .51.411.921.92.921zM449.697 268.239a.392.392 0 10-.392-.392c0 .216.177.392.392.392zM442.726 278.158a.703.703 0 00.705-.706.703.703 0 00-.705-.706.702.702 0 00-.705.706c0 .392.313.706.705.706zM435.205 287.272a.66.66 0 00.666-.666.66.66 0 00-.666-.667.66.66 0 00-.666.667.66.66 0 00.666.666zM427.137 295.975a.66.66 0 00.666-.667.66.66 0 00-.666-.666.66.66 0 00-.666.666.66.66 0 00.666.667zM418.559 304.619c.607 0 1.097-.49 1.097-1.098 0-.607-.49-1.097-1.097-1.097s-1.097.49-1.097 1.097c0 .589.51 1.098 1.097 1.098zM409.531 312.42a1.23 1.23 0 001.234-1.235 1.23 1.23 0 00-1.234-1.235c-.685 0-1.233.549-1.233 1.235s.548 1.235 1.233 1.235zM400.033 319.967c.92 0 1.665-.745 1.665-1.666a1.664 1.664 0 10-3.33 0c0 .921.745 1.666 1.665 1.666zM390.144 326.513c.921 0 1.665-.744 1.665-1.666a1.664 1.664 0 10-3.33 0c0 .902.745 1.666 1.665 1.666zM379.882 333.276a2.5 2.5 0 002.506-2.509 2.5 2.5 0 00-2.506-2.509 2.5 2.5 0 00-2.507 2.509 2.5 2.5 0 002.507 2.509zM369.287 338.313c1.233 0 2.232-1 2.232-2.234a2.234 2.234 0 10-2.232 2.234zM358.379 342.625a1.88 1.88 0 10-.001-3.761 1.88 1.88 0 00.001 3.761zM347.216 346.643c1.038 0 1.88-.843 1.88-1.881a1.869 1.869 0 00-1.88-1.882 1.87 1.87 0 00-1.88 1.882c0 1.019.843 1.881 1.88 1.881zM335.839 349.956a1.882 1.882 0 000-3.763 1.882 1.882 0 000 3.763zM324.284 352.25c.862 0 1.547-.686 1.547-1.549a1.55 1.55 0 00-1.547-1.548 1.55 1.55 0 00-1.547 1.548c0 .863.705 1.549 1.547 1.549zM312.592 354.112c.803 0 1.449-.647 1.449-1.451s-.646-1.45-1.449-1.45-1.449.646-1.449 1.45a1.46 1.46 0 001.449 1.451zM300.804 355.484a1.58 1.58 0 001.586-1.588 1.58 1.58 0 00-1.586-1.588 1.58 1.58 0 00-1.587 1.588c0 .863.705 1.588 1.587 1.588zM288.955 356.19c.96 0 1.763-.784 1.763-1.765 0-.98-.784-1.764-1.763-1.764-.979 0-1.762.784-1.762 1.764 0 .981.783 1.765 1.762 1.765zM277.108 356.483a2.232 2.232 0 002.232-2.234c0-1.235-.999-2.254-2.232-2.254a2.237 2.237 0 00-2.233 2.254c0 1.235.999 2.234 2.233 2.234zM265.279 355.601c1.234 0 2.232-1 2.232-2.234a2.232 2.232 0 10-4.465 0c0 1.234.999 2.234 2.233 2.234zM253.529 354.229a2.47 2.47 0 000-4.94 2.472 2.472 0 00-2.468 2.47c.02 1.372 1.117 2.47 2.468 2.47zM241.916 352.21a2.717 2.717 0 002.722-2.724 2.718 2.718 0 00-2.722-2.725 2.718 2.718 0 00-2.722 2.725c-.02 1.489 1.214 2.724 2.722 2.724zM230.44 349.211a2.717 2.717 0 002.722-2.724 2.718 2.718 0 00-2.722-2.725 2.718 2.718 0 00-2.722 2.725 2.717 2.717 0 002.722 2.724zM219.16 345.899a3.069 3.069 0 003.074-3.078 3.069 3.069 0 00-3.074-3.077 3.069 3.069 0 00-3.075 3.077 3.069 3.069 0 003.075 3.078zM208.134 341.43a2.935 2.935 0 002.937-2.94 2.935 2.935 0 00-2.937-2.941 2.936 2.936 0 00-2.938 2.941c-.019 1.626 1.312 2.94 2.938 2.94zM197.363 336.941a3.42 3.42 0 003.427-3.43 3.42 3.42 0 00-3.427-3.43 3.42 3.42 0 00-3.427 3.43 3.445 3.445 0 003.427 3.43zM186.925 330.963a3.069 3.069 0 003.075-3.078 3.069 3.069 0 00-3.075-3.077 3.082 3.082 0 00-3.075 3.077 3.095 3.095 0 003.075 3.078zM176.839 324.906a3.244 3.244 0 003.251-3.254 3.244 3.244 0 00-3.251-3.253 3.244 3.244 0 00-3.251 3.253 3.27 3.27 0 003.251 3.254zM167.146 317.752a2.94 2.94 0 10-.002-5.878 2.94 2.94 0 00.002 5.878zM157.883 310.97a3.567 3.567 0 003.564-3.568 3.566 3.566 0 00-3.564-3.567 3.554 3.554 0 00-3.564 3.567 3.566 3.566 0 003.564 3.568zM149.07 302.737a3.244 3.244 0 003.251-3.253 3.245 3.245 0 00-3.251-3.254 3.244 3.244 0 00-3.251 3.254 3.27 3.27 0 003.251 3.253zM140.747 294.27a3.244 3.244 0 003.251-3.254 3.244 3.244 0 00-3.251-3.253 3.244 3.244 0 00-3.251 3.253 3.257 3.257 0 003.251 3.254zM132.953 284.43a2.325 2.325 0 002.33-2.333 2.324 2.324 0 00-2.33-2.332 2.325 2.325 0 00-2.331 2.332 2.338 2.338 0 002.331 2.333zM125.707 274.59c1.038 0 1.899-.843 1.899-1.882a1.885 1.885 0 00-1.899-1.881 1.881 1.881 0 000 3.763zM119.029 264.927a2.018 2.018 0 002.017-2.019 2.018 2.018 0 10-2.017 2.019zM112.938 254.735a2.015 2.015 0 002.017-2.019 2.015 2.015 0 00-2.017-2.019 2.015 2.015 0 00-2.017 2.019c0 1.117.901 2.019 2.017 2.019zM107.494 243.895c.94 0 1.723-.764 1.723-1.725 0-.94-.763-1.724-1.723-1.724-.94 0-1.723.764-1.723 1.724 0 .961.764 1.725 1.723 1.725zM102.657 232.742c.783 0 1.41-.627 1.41-1.411s-.627-1.411-1.41-1.411c-.783 0-1.41.627-1.41 1.411.019.784.646 1.411 1.41 1.411zM98.505 221.374a1.137 1.137 0 000-2.274c-.626 0-1.136.51-1.136 1.137-.02.627.49 1.137 1.136 1.137zM95 210.299c.783 0 1.41-.627 1.41-1.411s-.627-1.411-1.41-1.411c-.784 0-1.41.627-1.41 1.411s.646 1.411 1.41 1.411zM92.2 198.303a.92.92 0 00.92-.921.92.92 0 10-1.84 0c0 .49.41.921.92.921zM90.085 186.621a.92.92 0 100-1.842.92.92 0 100 1.842zM88.655 174.88a.961.961 0 000-1.921.962.962 0 000 1.921zM87.95 163.002a.92.92 0 00.92-.921.92.92 0 10-1.84 0 .92.92 0 00.92.921zM87.95 151.045c.47 0 .842-.372.842-.843a.848.848 0 00-.842-.842.836.836 0 00-.842.842c.02.471.391.843.842.843zM88.655 139.03a.66.66 0 00.665-.666.66.66 0 00-.665-.667.66.66 0 00-.666.667c.02.372.313.666.666.666zM90.084 127.289a.703.703 0 00.705-.706.703.703 0 00-.705-.706.703.703 0 00-.705.706c0 .392.313.706.705.706zM92.2 115.567a.66.66 0 00.665-.666.66.66 0 00-.666-.666.66.66 0 00-.666.666.66.66 0 00.666.666zM95 104.042a.66.66 0 00.665-.666.66.66 0 00-.665-.667.66.66 0 00-.666.667c.02.372.313.666.666.666zM98.505 92.496c.255 0 .431-.196.431-.45a.422.422 0 00-.43-.431.435.435 0 00-.431.43c0 .236.176.451.43.451zM102.657 81.461a.526.526 0 00.528-.529.526.526 0 00-.528-.528.527.527 0 00-.529.528.54.54 0 00.529.53zM107.494 70.897a.786.786 0 00.783-.784.786.786 0 00-.783-.784.786.786 0 00-.783.784c-.02.431.333.784.783.784zM112.938 59.959a.393.393 0 00.392-.392.393.393 0 00-.392-.392.393.393 0 00-.392.392c0 .215.177.392.392.392zM119.029 49.786a.393.393 0 00.392-.392.393.393 0 00-.784 0c0 .215.176.392.392.392zM125.707 39.711a.134.134 0 00.137-.137.134.134 0 00-.137-.137.134.134 0 00-.137.137c0 .079.059.137.137.137zM132.953 30.362a.175.175 0 00.176-.176.175.175 0 00-.176-.177.176.176 0 100 .353zM496.012 180.093a.28.28 0 00.274-.274c0-.137-.117-.254-.274-.254a.258.258 0 00-.254.254c-.02.157.098.274.254.274zM494.348 191.971a.392.392 0 000-.783.392.392 0 000 .783zM492.037 203.517a.31.31 0 00.314-.314.31.31 0 00-.314-.313.31.31 0 00-.313.313.31.31 0 00.313.314zM489.08 215.218a.526.526 0 00.528-.529.526.526 0 00-.528-.529.527.527 0 00-.529.529c0 .294.235.529.529.529zM485.476 227.019c.568 0 1.018-.451 1.018-1.019 0-.569-.45-1.02-1.018-1.02-.568 0-1.018.451-1.018 1.02 0 .568.45 1.019 1.018 1.019zM481.246 238.623c.842 0 1.547-.686 1.547-1.549a1.55 1.55 0 00-1.547-1.548 1.55 1.55 0 00-1.547 1.548c.02.863.705 1.549 1.547 1.549zM476.409 249.638c.94 0 1.723-.764 1.723-1.705 0-.941-.763-1.725-1.723-1.725-.94 0-1.723.764-1.723 1.725 0 .96.763 1.705 1.723 1.705zM470.965 260.889a2.408 2.408 0 002.409-2.411 2.408 2.408 0 10-4.818 0 2.42 2.42 0 002.409 2.411zM464.933 269.69c.548 0 1.019-.451 1.019-1.019 0-.549-.451-1.019-1.019-1.019a1.01 1.01 0 00-1.018 1.019c.019.568.47 1.019 1.018 1.019zM458.353 279.687a1.137 1.137 0 000-2.274 1.137 1.137 0 000 2.274zM451.225 288.723a.702.702 0 00.705-.706.702.702 0 00-.705-.706.702.702 0 00-.705.706c0 .392.313.706.705.706zM443.587 298.229a1.137 1.137 0 000-2.274c-.627 0-1.136.51-1.136 1.137-.019.627.49 1.137 1.136 1.137zM435.441 307.167a1.45 1.45 0 10-.001-2.9 1.45 1.45 0 00.001 2.9zM426.823 314.968c.607 0 1.097-.49 1.097-1.097a1.096 1.096 0 10-2.193 0c0 .607.489 1.097 1.096 1.097zM417.756 323.71a2.19 2.19 0 002.194-2.195 2.19 2.19 0 00-2.194-2.195 2.19 2.19 0 00-2.193 2.195 2.19 2.19 0 002.193 2.195zM408.298 330.845a2.19 2.19 0 002.193-2.195 2.19 2.19 0 00-2.193-2.195 2.19 2.19 0 00-2.194 2.195c-.019 1.215.979 2.195 2.194 2.195zM398.428 337.49c1.233 0 2.232-1 2.232-2.234a2.233 2.233 0 10-4.465 0c0 1.234.999 2.234 2.233 2.234zM388.224 343.782a2.5 2.5 0 002.507-2.509 2.5 2.5 0 00-2.507-2.509 2.5 2.5 0 00-2.506 2.509 2.5 2.5 0 002.506 2.509zM377.688 349.799a3.069 3.069 0 003.075-3.077 3.08 3.08 0 00-3.075-3.077 3.08 3.08 0 00-3.074 3.077 3.069 3.069 0 003.074 3.077zM366.878 354.111a2.541 2.541 0 002.546-2.548 2.542 2.542 0 00-2.546-2.548 2.542 2.542 0 00-2.546 2.548c-.019 1.412 1.136 2.548 2.546 2.548zM355.794 358.13a2.324 2.324 0 002.33-2.333 2.323 2.323 0 00-2.33-2.332 2.324 2.324 0 00-2.33 2.332 2.325 2.325 0 002.33 2.333zM344.494 361.912a2.5 2.5 0 002.507-2.509 2.5 2.5 0 00-2.507-2.508 2.5 2.5 0 00-2.507 2.508 2.513 2.513 0 002.507 2.509zM333.018 365.088a2.717 2.717 0 002.722-2.725 2.717 2.717 0 00-2.722-2.724 2.717 2.717 0 00-2.722 2.724 2.717 2.717 0 002.722 2.725zM321.405 367.225a2.542 2.542 0 002.546-2.548 2.542 2.542 0 00-2.546-2.549 2.542 2.542 0 00-2.546 2.549c-.019 1.411 1.136 2.548 2.546 2.548zM309.655 368.891a2.547 2.547 0 002.546-2.549 2.547 2.547 0 10-5.092 0 2.547 2.547 0 002.546 2.549zM297.846 370.283c1.626 0 2.958-1.314 2.958-2.94a2.94 2.94 0 00-2.958-2.941 2.935 2.935 0 00-2.937 2.941 2.935 2.935 0 002.937 2.94zM285.998 370.615a2.935 2.935 0 002.938-2.94 2.935 2.935 0 00-2.938-2.94c-1.625 0-2.957 1.313-2.957 2.94s1.332 2.94 2.957 2.94zM274.15 370.459a3.111 3.111 0 003.114-3.117 3.11 3.11 0 00-3.114-3.116 3.11 3.11 0 00-3.114 3.116c-.019 1.725 1.391 3.117 3.114 3.117zM262.341 369.381a3.027 3.027 0 003.035-3.039 3.04 3.04 0 00-3.035-3.038 3.028 3.028 0 00-3.036 3.038 3.04 3.04 0 003.036 3.039zM250.591 368.107c1.9 0 3.427-1.549 3.427-3.43a3.432 3.432 0 00-3.427-3.43 3.445 3.445 0 00-3.427 3.43 3.42 3.42 0 003.427 3.43zM238.978 365.578a3.216 3.216 0 003.212-3.214 3.203 3.203 0 00-3.212-3.215 3.203 3.203 0 00-3.212 3.215 3.215 3.215 0 003.212 3.214zM227.482 362.697c1.822 0 3.29-1.47 3.29-3.293a3.286 3.286 0 00-3.29-3.293 3.286 3.286 0 00-3.29 3.293 3.286 3.286 0 003.29 3.293zM216.183 359.012a3.203 3.203 0 003.212-3.215 3.203 3.203 0 00-3.212-3.214 3.215 3.215 0 00-3.212 3.214c.02 1.764 1.449 3.215 3.212 3.215zM205.118 354.778a3.215 3.215 0 000-6.429 3.215 3.215 0 000 6.429zM194.288 350.152a3.42 3.42 0 003.428-3.43 3.42 3.42 0 00-3.428-3.43 3.42 3.42 0 00-3.427 3.43 3.432 3.432 0 003.427 3.43zM183.772 344.703a3.432 3.432 0 003.427-3.43 3.42 3.42 0 00-3.427-3.43 3.42 3.42 0 00-3.427 3.43 3.42 3.42 0 003.427 3.43zM173.549 338.941a3.68 3.68 0 003.682-3.685 3.679 3.679 0 00-3.682-3.685 3.679 3.679 0 00-3.681 3.685 3.68 3.68 0 003.681 3.685zM163.699 331.904a3.245 3.245 0 003.251-3.254 3.245 3.245 0 00-3.251-3.254 3.245 3.245 0 00-3.251 3.254 3.245 3.245 0 003.251 3.254zM154.22 324.946a3.42 3.42 0 003.427-3.431 3.42 3.42 0 00-3.427-3.43 3.42 3.42 0 00-3.427 3.43 3.433 3.433 0 003.427 3.431zM145.173 317.516a3.643 3.643 0 003.642-3.645 3.643 3.643 0 10-7.285 0 3.644 3.644 0 003.643 3.645zM136.556 309.5a3.784 3.784 0 000-7.566 3.771 3.771 0 00-3.78 3.783 3.785 3.785 0 003.78 3.783zM128.409 300.738a3.638 3.638 0 003.643-3.646 3.637 3.637 0 00-3.643-3.645 3.636 3.636 0 00-3.642 3.645 3.637 3.637 0 003.642 3.646zM120.772 291.153a3.11 3.11 0 003.113-3.116 3.11 3.11 0 00-3.113-3.117 3.11 3.11 0 00-3.114 3.117c-.02 1.705 1.39 3.116 3.114 3.116zM113.643 281.667a3.11 3.11 0 003.114-3.117 3.11 3.11 0 00-3.114-3.117 3.111 3.111 0 00-3.114 3.117c-.019 1.725 1.391 3.117 3.114 3.117zM107.044 271.768a3.068 3.068 0 003.074-3.077 3.068 3.068 0 00-3.074-3.078 3.069 3.069 0 00-3.075 3.078 3.082 3.082 0 003.075 3.077zM101.032 260.713c1.234 0 2.252-1 2.252-2.235a2.236 2.236 0 00-2.252-2.234 2.232 2.232 0 00-2.233 2.234c-.02 1.216 1 2.235 2.233 2.235zM95.587 250.344c1.332 0 2.429-1.078 2.429-2.411a2.412 2.412 0 00-2.429-2.411 2.396 2.396 0 00-2.409 2.411c-.02 1.313 1.078 2.411 2.41 2.411zM90.75 239.504a2.408 2.408 0 002.409-2.411c0-1.333-1.077-2.43-2.409-2.43a2.412 2.412 0 00-2.409 2.43c-.02 1.333 1.058 2.411 2.41 2.411zM86.52 227.94A1.931 1.931 0 0088.46 226a1.932 1.932 0 00-1.939-1.941A1.945 1.945 0 0084.581 226c0 1.078.862 1.94 1.94 1.94zM82.916 216.807a2.12 2.12 0 002.116-2.117 2.12 2.12 0 00-2.115-2.117 2.107 2.107 0 00-2.115 2.117c0 1.176.94 2.117 2.114 2.117zM79.96 204.752a1.55 1.55 0 001.547-1.548c0-.843-.686-1.549-1.547-1.549-.842 0-1.547.686-1.547 1.549 0 .862.685 1.548 1.547 1.548zM77.648 192.972c.784 0 1.41-.627 1.41-1.411s-.626-1.412-1.41-1.412c-.783 0-1.41.628-1.41 1.412 0 .784.627 1.411 1.41 1.411zM75.984 181.27c.803 0 1.45-.647 1.45-1.451 0-.803-.647-1.45-1.45-1.45-.803 0-1.449.647-1.449 1.45 0 .804.646 1.451 1.45 1.451zM74.986 169.411c.783 0 1.41-.627 1.41-1.411s-.627-1.411-1.41-1.411c-.784 0-1.41.627-1.41 1.411s.626 1.411 1.41 1.411zM74.652 157.592c.803 0 1.45-.647 1.45-1.45 0-.804-.647-1.451-1.45-1.451-.803 0-1.449.647-1.449 1.451 0 .803.646 1.45 1.45 1.45zM74.985 145.38c.607 0 1.097-.49 1.097-1.097a1.095 1.095 0 10-2.193 0c0 .607.49 1.097 1.096 1.097zM75.984 133.561c.607 0 1.097-.49 1.097-1.098 0-.607-.49-1.097-1.097-1.097s-1.097.49-1.097 1.097c0 .608.49 1.098 1.097 1.098zM77.649 121.801c.607 0 1.097-.49 1.097-1.098 0-.608-.49-1.098-1.097-1.098s-1.097.49-1.097 1.098c0 .608.49 1.098 1.097 1.098zM79.96 109.864a.784.784 0 10-.001-1.567.784.784 0 000 1.567zM82.917 98.554a.962.962 0 000-1.92.962.962 0 000 1.92zM86.52 86.852a.569.569 0 10-.001-1.137.569.569 0 000 1.137zM90.75 75.64c.255 0 .43-.196.43-.431a.435.435 0 00-.43-.431.435.435 0 00-.43.43c-.02.236.176.432.43.432zM95.587 64.938a.569.569 0 10-.001-1.137.569.569 0 00.001 1.137zM101.032 54.393a.569.569 0 10-.568-.569c-.02.314.254.569.568.569zM107.044 43.769a.175.175 0 00.176-.176.175.175 0 00-.176-.177.176.176 0 100 .353zM113.644 33.773c.019 0 .039-.02.039-.04s-.02-.039-.039-.039c-.02 0-.04.02-.04.04-.019.02 0 .039.04.039zM505.549 203.693a.44.44 0 00.451-.431c0-.255-.196-.431-.451-.431a.434.434 0 00-.43.431c0 .235.195.431.43.431zM502.769 215.179a.393.393 0 00.392-.392.392.392 0 10-.392.392zM499.361 226.411a.26.26 0 00.255-.255c0-.157-.118-.274-.255-.274s-.254.117-.254.274a.26.26 0 00.254.255zM495.386 237.583a.26.26 0 00.255-.254.26.26 0 00-.255-.255c-.137 0-.274.118-.274.255s.117.254.274.254zM490.803 249.815c.843 0 1.548-.686 1.548-1.549 0-.843-.686-1.548-1.548-1.548a1.55 1.55 0 00-1.547 1.548c.02.863.705 1.549 1.547 1.549zM485.653 261.438a2.459 2.459 0 002.467-2.47 2.47 2.47 0 00-2.467-2.469 2.47 2.47 0 00-2.468 2.469c.02 1.353 1.116 2.47 2.468 2.47zM479.954 271.395a2.015 2.015 0 002.017-2.018 2.015 2.015 0 00-2.017-2.019 2.015 2.015 0 00-2.017 2.019c0 1.117.901 2.018 2.017 2.018zM473.727 281.49a2.015 2.015 0 002.017-2.019 2.015 2.015 0 00-2.017-2.019 2.016 2.016 0 00-2.018 2.019c0 1.098.901 2.019 2.018 2.019zM466.95 290.35a1.137 1.137 0 000-2.274 1.138 1.138 0 000 2.274zM459.685 300.327c.979 0 1.762-.785 1.762-1.765 0-.98-.783-1.764-1.762-1.764s-1.763.784-1.763 1.764.803 1.765 1.763 1.765zM451.93 309.304c.979 0 1.763-.784 1.763-1.765 0-.98-.784-1.764-1.763-1.764-.979 0-1.763.784-1.763 1.764 0 .981.803 1.765 1.763 1.765zM443.724 317.869c.979 0 1.762-.784 1.762-1.764s-.783-1.764-1.762-1.764-1.763.784-1.763 1.764.784 1.764 1.763 1.764zM435.068 326.416a2.192 2.192 0 002.194-2.196 2.19 2.19 0 00-2.194-2.195 2.19 2.19 0 00-2.193 2.195c0 1.215.979 2.196 2.193 2.196zM426.001 334.707a2.851 2.851 0 002.859-2.862 2.85 2.85 0 00-2.859-2.862 2.864 2.864 0 00-2.859 2.862 2.852 2.852 0 002.859 2.862zM416.542 341.861a2.851 2.851 0 002.859-2.862 2.851 2.851 0 00-2.859-2.861 2.863 2.863 0 00-2.859 2.861 2.851 2.851 0 002.859 2.862zM406.711 348.858a3.215 3.215 0 003.212-3.214 3.202 3.202 0 00-3.212-3.215 3.202 3.202 0 00-3.211 3.215 3.215 3.215 0 003.211 3.214zM396.548 355.013c1.801 0 3.25-1.45 3.25-3.253a3.244 3.244 0 00-3.25-3.254 3.244 3.244 0 00-3.251 3.254 3.244 3.244 0 003.251 3.253zM386.09 360.795a3.461 3.461 0 003.466-3.469 3.461 3.461 0 00-3.466-3.469 3.462 3.462 0 00-3.467 3.469c-.019 1.921 1.548 3.469 3.467 3.469zM375.338 365.813a3.461 3.461 0 003.467-3.469 3.461 3.461 0 00-3.467-3.469 3.461 3.461 0 00-3.466 3.469 3.474 3.474 0 003.466 3.469zM364.332 370.282a3.508 3.508 0 003.506-3.528 3.504 3.504 0 00-3.506-3.508 3.503 3.503 0 00-3.505 3.508 3.508 3.508 0 003.505 3.528zM353.131 374.575a3.947 3.947 0 003.956-3.959 3.948 3.948 0 00-3.956-3.96 3.947 3.947 0 00-3.956 3.96 3.958 3.958 0 003.956 3.959zM341.714 377.594a3.742 3.742 0 003.74-3.744 3.742 3.742 0 00-3.74-3.744 3.742 3.742 0 00-3.741 3.744c.02 2.078 1.684 3.744 3.741 3.744zM330.159 380.024c1.939 0 3.525-1.568 3.525-3.508a3.523 3.523 0 00-3.525-3.528 3.507 3.507 0 00-3.505 3.528 3.49 3.49 0 003.505 3.508zM318.487 381.612a3.069 3.069 0 003.075-3.078 3.069 3.069 0 00-3.075-3.077 3.069 3.069 0 00-3.074 3.077 3.082 3.082 0 003.074 3.078zM306.718 383.415a3.462 3.462 0 003.466-3.469 3.462 3.462 0 00-3.466-3.47 3.48 3.48 0 00-3.486 3.47c0 1.901 1.567 3.469 3.486 3.469zM294.889 384.317a3.595 3.595 0 003.603-3.607 3.595 3.595 0 00-3.603-3.606 3.595 3.595 0 00-3.603 3.606 3.595 3.595 0 003.603 3.607zM283.041 384.474a3.608 3.608 0 003.603-3.607 3.595 3.595 0 00-3.603-3.607 3.596 3.596 0 00-3.603 3.607c-.02 1.999 1.606 3.607 3.603 3.607zM271.193 384.219a3.814 3.814 0 003.819-3.823 3.813 3.813 0 00-3.819-3.822 3.813 3.813 0 00-3.819 3.822c-.02 2.117 1.704 3.823 3.819 3.823zM259.384 382.651a3.35 3.35 0 003.349-3.352 3.336 3.336 0 00-3.349-3.352 3.35 3.35 0 00-3.349 3.352 3.35 3.35 0 003.349 3.352zM247.654 380.887c1.821 0 3.29-1.47 3.29-3.293a3.286 3.286 0 00-3.29-3.293 3.286 3.286 0 00-3.29 3.293 3.286 3.286 0 003.29 3.293zM236.021 378.907a3.638 3.638 0 003.643-3.646 3.638 3.638 0 00-3.643-3.646 3.638 3.638 0 00-3.643 3.646 3.638 3.638 0 003.643 3.646zM224.545 376.398a4.093 4.093 0 004.093-4.097 4.105 4.105 0 00-4.093-4.096 4.093 4.093 0 00-4.093 4.096 4.093 4.093 0 004.093 4.097zM213.226 372.595a3.812 3.812 0 003.818-3.822 3.825 3.825 0 00-3.818-3.822 3.826 3.826 0 00-3.819 3.822 3.825 3.825 0 003.819 3.822zM202.122 368.361a3.742 3.742 0 003.741-3.743 3.742 3.742 0 10-7.481 0 3.741 3.741 0 003.74 3.743zM191.253 363.638a3.742 3.742 0 003.74-3.744 3.742 3.742 0 10-7.481 0 3.73 3.73 0 003.741 3.744zM180.639 358.267a3.637 3.637 0 003.642-3.646 3.637 3.637 0 00-3.642-3.645 3.638 3.638 0 00-3.643 3.645c-.019 2 1.626 3.646 3.643 3.646zM170.318 352.994c2.33 0 4.21-1.882 4.21-4.214 0-2.333-1.88-4.234-4.21-4.234a4.21 4.21 0 00-4.211 4.234c-.019 2.313 1.88 4.214 4.211 4.214zM160.331 346.35a3.947 3.947 0 003.956-3.96 3.947 3.947 0 00-3.956-3.959 3.947 3.947 0 00-3.956 3.959 3.947 3.947 0 003.956 3.96zM150.676 339.45a3.946 3.946 0 003.955-3.959 3.946 3.946 0 00-3.955-3.96 3.946 3.946 0 00-3.956 3.96 3.946 3.946 0 003.956 3.959zM141.413 331.649a3.566 3.566 0 003.564-3.567 3.566 3.566 0 00-3.564-3.568 3.555 3.555 0 00-3.565 3.568 3.554 3.554 0 003.565 3.567zM132.541 324.004a3.77 3.77 0 003.78-3.783 3.771 3.771 0 00-3.78-3.783 3.771 3.771 0 00-3.779 3.783 3.783 3.783 0 003.779 3.783zM124.101 315.674a3.772 3.772 0 003.78-3.783 3.772 3.772 0 00-3.78-3.783 3.784 3.784 0 00-3.78 3.783 3.796 3.796 0 003.78 3.783zM116.111 306.501a3.378 3.378 0 003.388-3.391 3.378 3.378 0 00-3.388-3.391 3.378 3.378 0 00-3.388 3.391 3.39 3.39 0 003.388 3.391zM108.611 297.68a3.741 3.741 0 003.74-3.743 3.742 3.742 0 10-7.481 0 3.73 3.73 0 003.741 3.743zM101.58 287.625a3.245 3.245 0 003.251-3.254 3.245 3.245 0 00-3.251-3.254 3.245 3.245 0 00-3.25 3.254 3.257 3.257 0 003.25 3.254zM95.078 277.315a2.851 2.851 0 002.86-2.862 2.851 2.851 0 00-2.86-2.861 2.864 2.864 0 00-2.859 2.861 2.864 2.864 0 002.86 2.862zM89.105 267.064a2.865 2.865 0 002.86-2.862 2.851 2.851 0 00-2.86-2.862 2.851 2.851 0 00-2.86 2.862 2.865 2.865 0 002.86 2.862zM83.68 255.676a2.015 2.015 0 002.017-2.019c0-1.118-.9-2.019-2.017-2.019a2.015 2.015 0 00-2.017 2.019c0 1.117.901 2.019 2.017 2.019zM78.823 245.032a2.19 2.19 0 002.194-2.195c0-1.215-.98-2.196-2.194-2.196a2.192 2.192 0 00-2.193 2.196 2.19 2.19 0 002.194 2.195zM74.535 233.448c.92 0 1.664-.745 1.664-1.666a1.664 1.664 0 10-3.329 0c0 .902.744 1.666 1.665 1.666zM70.853 221.864c.744 0 1.371-.608 1.371-1.372 0-.745-.607-1.352-1.37-1.352-.745 0-1.372.607-1.372 1.352 0 .764.608 1.372 1.371 1.372zM67.759 210.142c.607 0 1.097-.49 1.097-1.097a1.095 1.095 0 10-2.194 0c0 .607.49 1.097 1.097 1.097zM65.272 198.539c.607 0 1.096-.49 1.096-1.098a1.095 1.095 0 10-2.193 0c0 .608.49 1.098 1.097 1.098zM63.392 187.268c.842 0 1.547-.686 1.547-1.549 0-.842-.685-1.548-1.547-1.548a1.55 1.55 0 00-1.547 1.548c.02.863.705 1.549 1.547 1.549zM62.158 175.155a1.23 1.23 0 001.234-1.235 1.23 1.23 0 00-1.234-1.235 1.23 1.23 0 00-1.233 1.235 1.23 1.23 0 001.233 1.235zM61.532 163.178c.607 0 1.096-.49 1.096-1.097a1.095 1.095 0 10-2.193 0c0 .607.49 1.097 1.097 1.097zM61.531 151.359a1.137 1.137 0 10-1.135-1.137c-.02.628.49 1.137 1.135 1.137zM62.158 139.324c.529 0 .96-.432.96-.961 0-.529-.431-.98-.96-.98a.966.966 0 00-.96.98c0 .549.412.961.96.961zM63.392 127.838a1.274 1.274 0 10-.002-2.548 1.274 1.274 0 00.002 2.548zM65.272 115.861c.568 0 1.018-.45 1.018-1.019 0-.568-.45-1.019-1.018-1.019-.548 0-1.018.451-1.018 1.019 0 .569.45 1.019 1.018 1.019zM67.76 103.905a.657.657 0 00.645-.667.657.657 0 10-1.312 0 .66.66 0 00.666.667zM70.853 92.438a.66.66 0 00.666-.666.66.66 0 00-.666-.666.66.66 0 00-.665.666.66.66 0 00.665.666zM74.535 81.168a.66.66 0 00.666-.667.66.66 0 00-.666-.666.66.66 0 00-.666.666c.02.373.314.667.666.667zM78.824 69.76a.31.31 0 00.313-.314.31.31 0 00-.313-.313.31.31 0 00-.314.313.31.31 0 00.314.314zM505.079 248.834c.138 0 .275-.117.275-.254s-.118-.255-.275-.255a.26.26 0 00-.254.255c0 .137.117.254.254.254zM500.203 259.693a.31.31 0 00.314-.313.31.31 0 00-.314-.314.31.31 0 00-.313.314.31.31 0 00.313.313zM494.798 270.121a.176.176 0 100-.352.175.175 0 00-.176.176c0 .098.078.176.176.176zM488.864 281.509a1.27 1.27 0 001.273-1.274c0-.705-.568-1.274-1.273-1.274s-1.273.569-1.273 1.274c0 .686.568 1.274 1.273 1.274zM482.441 290.721a.527.527 0 00.529-.529.527.527 0 00-.529-.529.527.527 0 00-.529.529c0 .294.235.529.529.529zM475.508 302.11a2.295 2.295 0 002.291-2.293 2.283 2.283 0 00-2.291-2.294 2.296 2.296 0 00-2.291 2.294c.019 1.274 1.038 2.293 2.291 2.293zM468.126 310.95c1.018 0 1.84-.823 1.84-1.842a1.84 1.84 0 10-3.681 0c0 1.019.822 1.842 1.841 1.842zM460.292 320.417a2.412 2.412 0 002.408-2.43 2.408 2.408 0 10-4.817 0 2.387 2.387 0 002.409 2.43zM452.008 328.964a2.471 2.471 0 000-4.94 2.458 2.458 0 00-2.467 2.47 2.47 2.47 0 002.467 2.47zM443.313 337.431a2.864 2.864 0 002.859-2.862 2.851 2.851 0 00-2.859-2.861 2.851 2.851 0 00-2.859 2.861 2.864 2.864 0 002.859 2.862zM434.226 344.663a2.47 2.47 0 002.468-2.469 2.471 2.471 0 00-2.468-2.47 2.458 2.458 0 00-2.467 2.47c.019 1.352 1.116 2.469 2.467 2.469zM424.787 352.955a3.595 3.595 0 003.603-3.606c0-2-1.606-3.607-3.603-3.607a3.595 3.595 0 00-3.603 3.607 3.595 3.595 0 003.603 3.606zM414.995 359.071a3.027 3.027 0 003.036-3.038 3.027 3.027 0 00-3.036-3.039 3.027 3.027 0 00-3.035 3.039 3.027 3.027 0 003.035 3.038zM404.87 365.755c1.939 0 3.525-1.568 3.525-3.509a3.507 3.507 0 00-3.525-3.508 3.503 3.503 0 00-3.505 3.508 3.503 3.503 0 003.505 3.509zM394.452 371.341a3.433 3.433 0 003.427-3.43 3.433 3.433 0 00-3.427-3.431 3.42 3.42 0 00-3.428 3.431 3.433 3.433 0 003.428 3.43zM383.779 376.575a3.503 3.503 0 003.505-3.509c0-1.94-1.566-3.528-3.505-3.528a3.508 3.508 0 00-3.506 3.528 3.492 3.492 0 003.506 3.509zM372.851 381.436a3.771 3.771 0 003.78-3.783 3.77 3.77 0 00-3.78-3.783 3.77 3.77 0 00-3.779 3.783 3.783 3.783 0 003.779 3.783zM361.728 385.669a3.947 3.947 0 003.956-3.959 3.948 3.948 0 00-3.956-3.96 3.947 3.947 0 00-3.956 3.96c-.02 2.195 1.762 3.959 3.956 3.959zM350.389 389.393a4.164 4.164 0 004.171-4.175 4.177 4.177 0 00-4.171-4.175 4.164 4.164 0 00-4.171 4.175 4.164 4.164 0 004.171 4.175zM338.893 392.373c2.331 0 4.23-1.882 4.23-4.214a4.227 4.227 0 00-4.23-4.234 4.21 4.21 0 00-4.21 4.234 4.219 4.219 0 004.21 4.214zM327.28 394.313a3.813 3.813 0 003.819-3.822 3.813 3.813 0 00-3.819-3.822 3.813 3.813 0 00-3.819 3.822 3.813 3.813 0 003.819 3.822zM315.55 396.136a3.86 3.86 0 003.858-3.881 3.855 3.855 0 00-3.858-3.861 3.854 3.854 0 00-3.858 3.861c0 2.137 1.723 3.881 3.858 3.881zM303.761 397.41a3.946 3.946 0 003.955-3.959 3.946 3.946 0 00-3.955-3.96 3.96 3.96 0 00-3.956 3.96 3.972 3.972 0 003.956 3.959zM291.912 397.822a3.771 3.771 0 003.78-3.783 3.771 3.771 0 00-3.78-3.783 3.771 3.771 0 00-3.779 3.783 3.795 3.795 0 003.779 3.783zM280.064 398.214a4.164 4.164 0 004.171-4.175 4.164 4.164 0 00-4.171-4.175 4.164 4.164 0 00-4.171 4.175 4.164 4.164 0 004.171 4.175zM268.216 397.312a3.854 3.854 0 003.858-3.861 3.855 3.855 0 00-3.858-3.862 3.855 3.855 0 00-3.858 3.862 3.855 3.855 0 003.858 3.861zM256.427 396.136a3.86 3.86 0 003.858-3.881 3.855 3.855 0 00-3.858-3.861c-2.135 0-3.878 1.725-3.878 3.861.02 2.137 1.743 3.881 3.878 3.881zM244.716 394.274a3.783 3.783 0 000-7.566 3.783 3.783 0 00-3.779 3.783 3.77 3.77 0 003.779 3.783zM233.083 392.235a4.092 4.092 0 004.093-4.096 4.093 4.093 0 00-4.093-4.097 4.106 4.106 0 00-4.093 4.097c.02 2.274 1.841 4.096 4.093 4.096zM221.607 389.256a4.035 4.035 0 004.035-4.057c0-2.235-1.802-4.058-4.035-4.058a4.035 4.035 0 00-4.034 4.058 4.022 4.022 0 004.034 4.057zM210.269 385.904a4.176 4.176 0 000-8.35 4.177 4.177 0 00-4.172 4.175c0 2.294 1.88 4.175 4.172 4.175zM199.126 381.847a4.164 4.164 0 004.171-4.175 4.164 4.164 0 00-4.171-4.175 4.177 4.177 0 00-4.172 4.175c0 2.293 1.88 4.175 4.172 4.175zM188.217 377.319a4.281 4.281 0 004.269-4.273 4.268 4.268 0 10-8.538 0c0 2.372 1.9 4.273 4.269 4.273zM177.525 371.949a4.035 4.035 0 004.034-4.058 4.03 4.03 0 00-4.034-4.038 4.03 4.03 0 00-4.034 4.038 4.035 4.035 0 004.034 4.058zM167.126 366.499a4.28 4.28 0 004.269-4.273 4.268 4.268 0 10-8.538 0 4.268 4.268 0 004.269 4.273zM157.001 360.345a4.324 4.324 0 004.309-4.312 4.312 4.312 0 00-4.309-4.313c-2.369 0-4.308 1.941-4.308 4.313a4.31 4.31 0 004.308 4.312zM147.209 353.406a4.05 4.05 0 004.054-4.057c0-2.235-1.821-4.038-4.054-4.038a4.03 4.03 0 00-4.034 4.038c-.019 2.234 1.802 4.057 4.034 4.057zM137.751 346.114a3.917 3.917 0 003.917-3.92 3.917 3.917 0 00-3.917-3.92 3.93 3.93 0 00-3.917 3.92c.02 2.156 1.763 3.92 3.917 3.92zM128.683 338.607c2.233 0 4.054-1.803 4.054-4.038 0-2.234-1.821-4.038-4.054-4.038a4.03 4.03 0 00-4.034 4.038c-.019 2.235 1.782 4.038 4.034 4.038zM119.989 330.238a3.742 3.742 0 003.74-3.744 3.742 3.742 0 10-7.481 0 3.742 3.742 0 003.741 3.744zM111.704 321.731a3.742 3.742 0 003.741-3.744 3.755 3.755 0 00-3.741-3.744 3.742 3.742 0 00-3.74 3.744 3.742 3.742 0 003.74 3.744zM103.871 313.067a3.947 3.947 0 003.956-3.96 3.947 3.947 0 00-3.956-3.959 3.947 3.947 0 00-3.956 3.959 3.96 3.96 0 003.956 3.96zM96.469 303.914a4.093 4.093 0 004.092-4.097 4.105 4.105 0 00-4.093-4.096 4.092 4.092 0 00-4.093 4.096 4.093 4.093 0 004.094 4.097zM89.555 294.289a4.105 4.105 0 004.093-4.096 4.093 4.093 0 00-4.093-4.097 4.105 4.105 0 00-4.093 4.097 4.105 4.105 0 004.093 4.096zM83.112 283.666a3.42 3.42 0 003.427-3.431 3.432 3.432 0 00-3.427-3.43 3.432 3.432 0 00-3.427 3.43c0 1.882 1.547 3.431 3.427 3.431zM77.198 273.257c1.822 0 3.29-1.47 3.29-3.293a3.286 3.286 0 00-3.29-3.292 3.286 3.286 0 00-3.29 3.292c-.02 1.804 1.47 3.293 3.29 3.293zM71.774 261.419a2.015 2.015 0 002.017-2.019c0-1.118-.9-2.019-2.017-2.019a2.015 2.015 0 00-2.017 2.019c0 1.117.92 2.019 2.017 2.019zM66.917 250.285c.94 0 1.723-.764 1.723-1.725 0-.941-.763-1.725-1.723-1.725-.94 0-1.723.765-1.723 1.725 0 .961.763 1.725 1.723 1.725zM62.59 239.25c.95 0 1.722-.772 1.722-1.725a1.724 1.724 0 10-1.723 1.725zM58.81 227.999c.94 0 1.723-.765 1.723-1.725 0-.941-.764-1.725-1.724-1.725-.94 0-1.723.765-1.723 1.725 0 .96.764 1.725 1.723 1.725zM55.598 216.395a1.55 1.55 0 001.547-1.548c0-.843-.685-1.549-1.547-1.549-.842 0-1.547.686-1.547 1.549 0 .862.685 1.548 1.547 1.548zM52.954 204.654c.744 0 1.37-.608 1.37-1.372 0-.745-.606-1.372-1.37-1.372-.744 0-1.371.607-1.371 1.372 0 .764.627 1.372 1.37 1.372zM50.898 192.619a1.019 1.019 0 100-2.037 1.019 1.019 0 000 2.037zM49.429 180.937c.607 0 1.096-.491 1.096-1.098a1.095 1.095 0 10-2.193 0c-.02.607.49 1.098 1.097 1.098zM48.528 169.019a1.019 1.019 0 100-2.037 1.019 1.019 0 000 2.037zM48.234 157.102a.961.961 0 000-1.921.962.962 0 000 1.921zM48.528 145.204a.92.92 0 00.92-.921.92.92 0 10-1.84 0c0 .51.41.921.92.921zM49.429 133.365a.92.92 0 00.92-.921.92.92 0 10-1.84 0c-.02.51.391.921.92.921zM50.898 121.467a.784.784 0 10-.001-1.567.784.784 0 000 1.567zM52.954 109.393a.393.393 0 000-.784.393.393 0 000 .784zM58.81 86.049c.02 0 .039-.02.039-.04s-.02-.039-.04-.039-.039.02-.039.04c-.02.019 0 .039.04.039zM503.826 280.922c.02 0 .039-.02.039-.04 0-.019-.019-.039-.039-.039-.019 0-.039.02-.039.039 0 .02.02.04.039.04zM491.097 301.423a.527.527 0 00.529-.529.526.526 0 00-.529-.528.526.526 0 00-.529.528c0 .294.235.529.529.529zM484.047 310.734a.31.31 0 00.313-.313.31.31 0 00-.313-.314.31.31 0 00-.314.314.31.31 0 00.314.313zM476.546 320.398a.783.783 0 100-1.566.783.783 0 000 1.566zM468.614 329.219c.431 0 .803-.353.803-.784a.79.79 0 00-.803-.784.786.786 0 00-.783.784c0 .431.353.784.783.784zM460.292 338.47a1.58 1.58 0 001.586-1.588 1.58 1.58 0 00-1.586-1.587 1.58 1.58 0 00-1.586 1.587c0 .863.705 1.588 1.586 1.588zM451.558 346.977a2.056 2.056 0 002.056-2.058c0-1.137-.92-2.058-2.056-2.058-1.136 0-2.076.921-2.076 2.058a2.087 2.087 0 002.076 2.058zM442.471 354.602a2.056 2.056 0 002.056-2.058 2.056 2.056 0 10-4.112 0c-.02 1.117.92 2.058 2.056 2.058zM433.032 362.697a2.997 2.997 0 002.996-2.999 2.997 2.997 0 00-2.996-2.999 2.997 2.997 0 00-2.996 2.999 2.997 2.997 0 002.996 2.999zM423.26 369.459a3.026 3.026 0 003.035-3.038 3.026 3.026 0 00-3.035-3.038 3.027 3.027 0 00-3.036 3.038 3.027 3.027 0 003.036 3.038zM413.174 375.496a2.822 2.822 0 000-5.645 2.822 2.822 0 00-2.82 2.823c.02 1.568 1.273 2.822 2.82 2.822zM402.834 381.259a2.822 2.822 0 000-5.645 2.809 2.809 0 00-2.82 2.822 2.81 2.81 0 002.82 2.823zM392.2 386.845a3.11 3.11 0 003.113-3.117 3.11 3.11 0 00-3.113-3.116 3.11 3.11 0 00-3.114 3.116 3.11 3.11 0 003.114 3.117zM381.35 391.569a3.069 3.069 0 003.075-3.077 3.069 3.069 0 00-3.075-3.078 3.068 3.068 0 00-3.074 3.078 3.068 3.068 0 003.074 3.077zM370.286 396.489a3.742 3.742 0 003.74-3.744 3.742 3.742 0 10-7.481 0 3.742 3.742 0 003.741 3.744zM359.025 400.115a3.638 3.638 0 003.643-3.645 3.638 3.638 0 00-3.643-3.646 3.637 3.637 0 00-3.642 3.646 3.649 3.649 0 003.642 3.645zM347.608 403.388a3.742 3.742 0 003.741-3.743 3.755 3.755 0 00-3.741-3.744 3.742 3.742 0 00-3.74 3.744 3.74 3.74 0 003.74 3.743zM336.053 406.015a3.742 3.742 0 003.741-3.744 3.742 3.742 0 10-7.481 0 3.73 3.73 0 003.74 3.744zM324.382 408.249a3.858 3.858 0 003.858-3.881 3.854 3.854 0 00-3.858-3.861 3.854 3.854 0 00-3.858 3.861c-.019 2.137 1.723 3.881 3.858 3.881zM312.612 409.994a4.093 4.093 0 004.093-4.096 4.093 4.093 0 10-8.186 0c.02 2.273 1.841 4.096 4.093 4.096zM300.804 411.425a4.527 4.527 0 004.523-4.528 4.515 4.515 0 00-4.523-4.528 4.528 4.528 0 000 9.056zM288.955 411.797a4.498 4.498 0 004.485-4.488 4.486 4.486 0 10-8.969 0 4.485 4.485 0 004.484 4.488zM277.107 411.385c2.331 0 4.23-1.881 4.23-4.214a4.21 4.21 0 00-4.23-4.214 4.206 4.206 0 00-4.21 4.214c-.02 2.333 1.88 4.214 4.21 4.214zM265.279 409.68a3.213 3.213 0 003.212-3.214 3.213 3.213 0 10-6.424 0 3.213 3.213 0 003.212 3.214zM253.49 408.818a3.595 3.595 0 003.603-3.607 3.595 3.595 0 00-3.603-3.606 3.595 3.595 0 00-3.604 3.606c0 2 1.606 3.607 3.604 3.607zM241.759 407.799a4.402 4.402 0 004.406-4.41c0-2.431-1.978-4.391-4.406-4.391a4.381 4.381 0 00-4.387 4.391c0 2.43 1.958 4.41 4.387 4.41zM230.146 405.427a4.382 4.382 0 004.387-4.391c0-2.43-1.959-4.39-4.387-4.39-2.428 0-4.406 1.96-4.406 4.39a4.41 4.41 0 004.406 4.391zM218.65 402.683c2.527 0 4.583-2.038 4.583-4.567a4.562 4.562 0 00-4.583-4.567 4.57 4.57 0 00-4.563 4.567 4.557 4.557 0 004.563 4.567zM207.311 398.802a4.122 4.122 0 004.132-4.136 4.147 4.147 0 00-4.132-4.136 4.135 4.135 0 000 8.272zM196.149 394.94a4.268 4.268 0 004.269-4.273 4.269 4.269 0 10-8.538 0 4.268 4.268 0 004.269 4.273zM185.182 390.53a4.34 4.34 0 004.348-4.351 4.352 4.352 0 00-4.348-4.351 4.34 4.34 0 00-4.348 4.351 4.352 4.352 0 004.348 4.351zM174.45 385.414a4.268 4.268 0 004.269-4.273c0-2.352-1.9-4.273-4.269-4.273a4.256 4.256 0 00-4.269 4.273 4.255 4.255 0 004.269 4.273zM163.954 379.887a4.269 4.269 0 004.269-4.273c0-2.353-1.9-4.273-4.269-4.273-2.35 0-4.27 1.92-4.27 4.273a4.27 4.27 0 004.27 4.273zM153.731 373.751a4.135 4.135 0 000-8.271 4.135 4.135 0 00-4.133 4.136 4.135 4.135 0 004.133 4.135zM143.802 367.401a4.268 4.268 0 004.269-4.273 4.268 4.268 0 10-8.538 0c.02 2.352 1.919 4.273 4.269 4.273zM134.206 360.404a4.21 4.21 0 004.21-4.234 4.205 4.205 0 00-4.21-4.214 4.205 4.205 0 00-4.21 4.214c-.02 2.332 1.88 4.234 4.21 4.234zM124.923 352.955a4.165 4.165 0 004.172-4.175 4.177 4.177 0 00-4.172-4.175 4.176 4.176 0 00-4.171 4.175c0 2.294 1.88 4.175 4.171 4.175zM116.013 345.075a4.147 4.147 0 004.132-4.135 4.135 4.135 0 00-4.132-4.136 4.122 4.122 0 00-4.133 4.136 4.135 4.135 0 004.133 4.135zM107.494 336.922a4.213 4.213 0 004.21-4.215 4.212 4.212 0 00-4.21-4.214 4.213 4.213 0 00-4.211 4.214 4.213 4.213 0 004.211 4.215zM99.367 328.16a4.095 4.095 0 004.093-4.097 4.095 4.095 0 00-4.093-4.096 4.095 4.095 0 00-4.093 4.096 4.095 4.095 0 004.093 4.097zM91.65 319.281a4.213 4.213 0 004.211-4.215 4.212 4.212 0 00-4.21-4.214 4.212 4.212 0 00-4.21 4.214 4.213 4.213 0 004.21 4.215zM84.366 310.107a4.386 4.386 0 004.386-4.41 4.381 4.381 0 00-4.386-4.391 4.382 4.382 0 00-4.387 4.391c-.02 2.43 1.958 4.41 4.387 4.41zM77.531 300.092a4.106 4.106 0 004.093-4.097 4.106 4.106 0 00-4.093-4.097 4.093 4.093 0 00-4.093 4.097 4.093 4.093 0 004.093 4.097zM71.167 289.036a3.04 3.04 0 003.035-3.038 3.04 3.04 0 00-3.035-3.038 3.027 3.027 0 00-3.036 3.038 3.04 3.04 0 003.036 3.038zM65.272 278.119a2.408 2.408 0 002.409-2.411c0-1.333-1.077-2.431-2.409-2.431a2.429 2.429 0 00-2.428 2.431 2.437 2.437 0 002.428 2.411zM59.886 267.554a2.413 2.413 0 002.41-2.431 2.408 2.408 0 10-4.818 0c-.02 1.333 1.077 2.431 2.408 2.431zM54.99 256.048a1.725 1.725 0 000-3.45 1.724 1.724 0 000 3.45zM50.623 244.954c.92 0 1.665-.745 1.665-1.667a1.664 1.664 0 10-3.33 0c-.019.922.745 1.667 1.665 1.667zM46.766 233.605a1.55 1.55 0 001.547-1.548c0-.843-.686-1.549-1.547-1.549-.862 0-1.547.686-1.547 1.549.02.862.704 1.548 1.547 1.548zM43.456 222.354c.92 0 1.665-.745 1.665-1.666 0-.922-.745-1.686-1.665-1.686s-1.665.745-1.665 1.666c0 .921.745 1.686 1.665 1.686zM40.675 210.671c.861 0 1.547-.686 1.547-1.548 0-.843-.686-1.549-1.547-1.549-.842 0-1.547.687-1.547 1.549.02.862.705 1.548 1.547 1.548zM38.443 199.028c.861 0 1.547-.686 1.547-1.548 0-.843-.686-1.549-1.547-1.549-.843 0-1.547.686-1.547 1.549.02.862.704 1.548 1.547 1.548zM36.778 187.15c.783 0 1.41-.627 1.41-1.411s-.627-1.411-1.41-1.411c-.784 0-1.41.627-1.41 1.411s.626 1.411 1.41 1.411zM35.662 175.331c.783 0 1.41-.627 1.41-1.411s-.627-1.412-1.41-1.412c-.784 0-1.41.628-1.41 1.412 0 .784.626 1.411 1.41 1.411zM35.093 163.002a.92.92 0 00.92-.921.92.92 0 10-1.84 0 .92.92 0 00.92.921zM35.094 151.006c.43 0 .783-.353.783-.784a.786.786 0 00-.783-.784.786.786 0 00-.784.784c0 .431.353.784.784.784zM35.662 138.755a.393.393 0 00.391-.392.393.393 0 00-.391-.392.393.393 0 00-.392.392c0 .215.176.392.392.392zM36.778 126.681a.134.134 0 00.137-.137.134.134 0 00-.137-.137.134.134 0 00-.137.137c0 .078.058.137.137.137zM476.938 339.175a.31.31 0 00.313-.313.31.31 0 00-.313-.314.31.31 0 00-.313.314.31.31 0 00.313.313zM459.802 355.974a.702.702 0 00.705-.706.702.702 0 00-.705-.706.703.703 0 00-.705.706c0 .373.314.706.705.706zM450.696 364.01a1.137 1.137 0 000-2.274 1.137 1.137 0 000 2.274zM441.276 370.497a.435.435 0 00.431-.431.423.423 0 00-.431-.431.422.422 0 00-.43.431c-.02.235.176.431.43.431zM431.523 378.573c.979 0 1.763-.784 1.763-1.764s-.784-1.764-1.763-1.764c-.979 0-1.762.784-1.762 1.764s.803 1.764 1.762 1.764zM421.497 385.591a2.47 2.47 0 000-4.94 2.459 2.459 0 00-2.468 2.47 2.471 2.471 0 002.468 2.47zM411.176 391.255a2.295 2.295 0 002.292-2.293 2.296 2.296 0 00-2.292-2.293 2.295 2.295 0 00-2.291 2.293 2.295 2.295 0 002.291 2.293zM400.621 397.489a3.11 3.11 0 003.113-3.117 3.11 3.11 0 00-3.113-3.117 3.11 3.11 0 00-3.114 3.117 3.11 3.11 0 003.114 3.117zM389.81 402.036a2.763 2.763 0 000-5.527 2.762 2.762 0 00-2.761 2.763 2.762 2.762 0 002.761 2.764zM378.824 406.858a3.174 3.174 0 003.173-3.176 3.173 3.173 0 10-6.345 0 3.16 3.16 0 003.172 3.176zM367.622 410.954a3.348 3.348 0 003.349-3.351 3.348 3.348 0 10-6.697 0c.019 1.842 1.508 3.351 3.348 3.351zM356.283 414.306a3.29 3.29 0 003.29-3.293 3.291 3.291 0 00-3.29-3.293 3.292 3.292 0 00-3.29 3.293 3.291 3.291 0 003.29 3.293zM344.769 417.482a3.567 3.567 0 003.564-3.568 3.566 3.566 0 10-7.129 0c.02 1.98 1.606 3.568 3.565 3.568zM333.156 419.501a3.215 3.215 0 003.211-3.215 3.201 3.201 0 00-3.211-3.214 3.214 3.214 0 00-3.212 3.214c.019 1.784 1.449 3.215 3.212 3.215zM321.444 421.951a3.784 3.784 0 003.78-3.783 3.77 3.77 0 00-3.78-3.783 3.783 3.783 0 00-3.779 3.783c0 2.077 1.703 3.783 3.779 3.783zM309.675 423.264a3.783 3.783 0 003.779-3.783 3.771 3.771 0 00-3.779-3.783 3.783 3.783 0 00-3.78 3.783 3.771 3.771 0 003.78 3.783zM297.847 424.283a4 4 0 003.995-3.999 3.988 3.988 0 00-3.995-3.998 3.988 3.988 0 00-3.995 3.998 3.989 3.989 0 003.995 3.999zM285.998 424.557a3.988 3.988 0 003.995-3.998 3.989 3.989 0 00-3.995-3.999 4 4 0 00-3.995 3.999 4 4 0 003.995 3.998zM274.15 423.891a3.595 3.595 0 003.603-3.607 3.595 3.595 0 00-3.603-3.606 3.607 3.607 0 00-3.603 3.606c0 2 1.605 3.607 3.603 3.607zM262.321 423.538c2.233 0 4.035-1.823 4.035-4.057 0-2.235-1.822-4.058-4.035-4.058a4.051 4.051 0 00-4.053 4.058 4.05 4.05 0 004.053 4.057zM250.532 421.578a3.42 3.42 0 003.427-3.43 3.42 3.42 0 00-3.427-3.43 3.42 3.42 0 00-3.427 3.43 3.42 3.42 0 003.427 3.43zM238.821 420.657a4.34 4.34 0 004.348-4.351 4.34 4.34 0 00-4.348-4.352 4.34 4.34 0 00-4.347 4.352 4.352 4.352 0 004.347 4.351zM227.208 418.854a4.92 4.92 0 000-9.84c-2.702 0-4.915 2.215-4.915 4.92a4.92 4.92 0 004.915 4.92zM215.713 415.639a4.62 4.62 0 004.622-4.626 4.62 4.62 0 00-4.622-4.626 4.62 4.62 0 00-4.622 4.626 4.62 4.62 0 004.622 4.626zM204.354 412.268a4.663 4.663 0 004.661-4.665 4.663 4.663 0 00-4.661-4.665 4.663 4.663 0 00-4.661 4.665 4.663 4.663 0 004.661 4.665zM193.172 407.642a3.96 3.96 0 003.956-3.96 3.946 3.946 0 00-3.956-3.959 3.946 3.946 0 00-3.955 3.959 3.946 3.946 0 003.955 3.96zM182.166 403.839a4.565 4.565 0 004.563-4.567 4.565 4.565 0 00-4.563-4.567 4.565 4.565 0 00-4.563 4.567 4.565 4.565 0 004.563 4.567zM171.376 398.724a4.34 4.34 0 004.347-4.352 4.34 4.34 0 00-4.347-4.351 4.352 4.352 0 000 8.703zM160.82 392.804a3.813 3.813 0 003.819-3.822 3.814 3.814 0 00-3.819-3.823 3.814 3.814 0 00-3.819 3.823c-.019 2.117 1.704 3.822 3.819 3.822zM150.499 386.943c2.115 0 3.839-1.724 3.839-3.822 0-2.117-1.724-3.822-3.839-3.822a3.812 3.812 0 00-3.818 3.822 3.812 3.812 0 003.818 3.822zM140.453 380.945a4.148 4.148 0 004.133-4.135 4.135 4.135 0 00-4.133-4.136 4.135 4.135 0 00-4.132 4.136c.02 2.273 1.861 4.135 4.132 4.135zM130.72 374.32c2.35 0 4.27-1.901 4.27-4.273 0-2.371-1.9-4.273-4.27-4.273a4.269 4.269 0 00-4.269 4.273 4.268 4.268 0 004.269 4.273zM121.281 367.225a4.34 4.34 0 004.347-4.352 4.339 4.339 0 00-4.347-4.351 4.34 4.34 0 00-4.348 4.351c0 2.392 1.959 4.352 4.348 4.352zM112.194 359.619a4.351 4.351 0 000-8.702 4.352 4.352 0 00-4.348 4.351c-.019 2.391 1.939 4.351 4.348 4.351zM103.44 351.74a4.486 4.486 0 004.485-4.489 4.486 4.486 0 00-4.485-4.489c-2.467 0-4.484 2.019-4.484 4.489a4.474 4.474 0 004.484 4.489zM95.059 343.174a4.31 4.31 0 004.308-4.312 4.31 4.31 0 00-4.308-4.312 4.31 4.31 0 00-4.308 4.312 4.31 4.31 0 004.308 4.312zM87.049 334.413a4.31 4.31 0 004.308-4.313 4.298 4.298 0 00-4.308-4.312 4.31 4.31 0 00-4.309 4.312 4.31 4.31 0 004.309 4.313zM79.45 325.259c2.35 0 4.27-1.921 4.27-4.273a4.269 4.269 0 10-8.54 0 4.269 4.269 0 004.27 4.273zM72.263 315.948a4.402 4.402 0 004.406-4.41c0-2.43-1.977-4.391-4.406-4.391a4.382 4.382 0 00-4.387 4.391c0 2.45 1.978 4.41 4.387 4.41zM65.527 304.933a3.11 3.11 0 003.114-3.117 3.11 3.11 0 00-3.114-3.117 3.11 3.11 0 00-3.114 3.117 3.124 3.124 0 003.114 3.117zM59.22 294.877a3.11 3.11 0 003.114-3.116 3.11 3.11 0 00-3.113-3.117 3.11 3.11 0 00-3.114 3.117c-.02 1.725 1.39 3.116 3.114 3.116zM53.365 284.214a2.764 2.764 0 002.762-2.783 2.76 2.76 0 00-2.762-2.764 2.76 2.76 0 00-2.761 2.764c0 1.529 1.234 2.783 2.761 2.783zM47.98 273.414a2.541 2.541 0 002.545-2.548 2.542 2.542 0 00-2.545-2.548 2.542 2.542 0 00-2.546 2.548 2.541 2.541 0 002.546 2.548zM43.084 262.183a2.107 2.107 0 002.115-2.117c0-1.176-.94-2.117-2.115-2.117a2.107 2.107 0 00-2.116 2.117 2.12 2.12 0 002.115 2.117zM38.658 251.245a2.19 2.19 0 002.194-2.195 2.19 2.19 0 00-2.194-2.195 2.19 2.19 0 00-2.193 2.195 2.19 2.19 0 002.193 2.195zM34.742 240.053a2.19 2.19 0 002.193-2.195 2.19 2.19 0 00-2.194-2.195 2.19 2.19 0 00-2.193 2.195c0 1.196.98 2.195 2.194 2.195zM31.334 227.058a.569.569 0 10-.002-1.137.569.569 0 00.002 1.137zM28.455 215.768a.784.784 0 100-1.567.784.784 0 000 1.567zM26.066 203.889a.527.527 0 00.528-.529.527.527 0 00-.528-.529.527.527 0 00-.53.529.54.54 0 00.53.529zM24.205 192.03a.393.393 0 00.392-.392.393.393 0 00-.784 0c0 .216.177.392.392.392zM22.893 180.113a.259.259 0 00.255-.255.259.259 0 00-.255-.254.259.259 0 00-.254.254c0 .138.098.255.254.255zM22.09 168.137a.134.134 0 00.137-.137.134.134 0 00-.137-.137.134.134 0 00-.137.137c0 .078.059.137.137.137zM449.521 380.827a.423.423 0 00.431-.431.435.435 0 00-.431-.431.435.435 0 00-.431.431c-.02.235.176.431.431.431zM439.788 387.962a.784.784 0 10-.002-1.568.784.784 0 00.002 1.568zM429.781 394.353a.786.786 0 000-1.569.786.786 0 000 1.569zM419.519 400.193a.702.702 0 00.705-.705.702.702 0 00-.705-.706.703.703 0 00-.705.706c0 .392.314.705.705.705zM409.003 406.995a2.015 2.015 0 002.017-2.019 2.015 2.015 0 00-2.017-2.019 2.015 2.015 0 00-2.017 2.019c0 1.117.9 2.019 2.017 2.019zM398.271 410.66a.66.66 0 00.666-.666.66.66 0 00-.666-.666.66.66 0 00-.666.666c.02.372.313.666.666.666zM387.343 416.638a2.06 2.06 0 002.056-2.077 2.056 2.056 0 10-4.112 0 2.036 2.036 0 002.056 2.077zM376.2 420.735c1.136 0 2.076-.921 2.076-2.058a2.06 2.06 0 00-2.076-2.058 2.056 2.056 0 00-2.056 2.058c0 1.137.92 2.058 2.056 2.058zM364.92 422.558a.247.247 0 00.255-.255c0-.137-.118-.274-.255-.274s-.254.117-.254.274c-.02.137.098.255.254.255zM353.483 426.537c.607 0 1.097-.49 1.097-1.097a1.096 1.096 0 10-2.194 0c0 .588.49 1.097 1.097 1.097zM341.929 430.262c1.214 0 2.194-.98 2.194-2.196 0-1.215-.98-2.195-2.194-2.195a2.19 2.19 0 00-2.193 2.195c-.02 1.216.979 2.196 2.193 2.196zM330.257 433.339a3.11 3.11 0 003.114-3.116 3.11 3.11 0 00-3.114-3.117 3.11 3.11 0 00-3.113 3.117 3.122 3.122 0 003.113 3.116zM318.526 435.769a3.917 3.917 0 003.917-3.92 3.917 3.917 0 10-7.833 0 3.904 3.904 0 003.916 3.92zM306.718 437.004a3.989 3.989 0 003.995-3.999 4 4 0 00-3.995-3.998 3.988 3.988 0 00-3.995 3.998 4 4 0 003.995 3.999zM294.889 437.357a3.742 3.742 0 003.741-3.744 3.755 3.755 0 00-3.741-3.744 3.742 3.742 0 00-3.74 3.744 3.742 3.742 0 003.74 3.744zM283.041 437.494a3.742 3.742 0 003.741-3.744 3.742 3.742 0 00-3.741-3.744 3.742 3.742 0 00-3.74 3.744 3.73 3.73 0 003.74 3.744zM271.173 437.475a4.093 4.093 0 004.093-4.097 4.092 4.092 0 10-8.186 0c.02 2.254 1.841 4.097 4.093 4.097zM259.365 436.848a4.34 4.34 0 004.347-4.352 4.34 4.34 0 00-4.347-4.351 4.34 4.34 0 00-4.348 4.351c-.02 2.392 1.939 4.352 4.348 4.352zM247.595 435.279a4.177 4.177 0 004.171-4.175 4.176 4.176 0 00-4.171-4.175c-2.292 0-4.172 1.882-4.172 4.175-.019 2.293 1.861 4.175 4.172 4.175zM235.884 433.241c2.233 0 4.034-1.823 4.034-4.058a4.03 4.03 0 00-4.034-4.037 4.03 4.03 0 00-4.034 4.037 4.022 4.022 0 004.034 4.058zM224.271 431.3a4.499 4.499 0 004.485-4.489 4.486 4.486 0 10-8.97 0 4.499 4.499 0 004.485 4.489zM212.775 428.36a4.457 4.457 0 004.446-4.449c0-2.45-1.998-4.45-4.446-4.45a4.444 4.444 0 00-4.445 4.45 4.443 4.443 0 004.445 4.449zM201.417 424.734a4.164 4.164 0 004.171-4.175 4.176 4.176 0 00-4.171-4.175 4.164 4.164 0 00-4.171 4.175c-.02 2.293 1.86 4.175 4.171 4.175zM190.195 420.872a4.165 4.165 0 004.172-4.175 4.165 4.165 0 00-4.172-4.175 4.177 4.177 0 00-4.171 4.175 4.176 4.176 0 004.171 4.175zM179.17 416.894a4.528 4.528 0 000-9.056 4.527 4.527 0 00-4.524 4.528c-.019 2.489 2.017 4.528 4.524 4.528zM168.32 411.817a4.268 4.268 0 004.27-4.273 4.269 4.269 0 10-8.539 0 4.281 4.281 0 004.269 4.273zM157.687 406.682a4.382 4.382 0 004.386-4.391 4.381 4.381 0 00-4.386-4.391 4.381 4.381 0 00-4.387 4.391 4.395 4.395 0 004.387 4.391zM147.307 401.017a4.445 4.445 0 004.446-4.449 4.445 4.445 0 10-8.891 0 4.444 4.444 0 004.445 4.449zM137.163 394.999c2.526 0 4.583-2.038 4.583-4.567 0-2.528-2.057-4.567-4.583-4.567a4.57 4.57 0 00-4.563 4.567 4.57 4.57 0 004.563 4.567zM127.293 388.413a4.557 4.557 0 004.563-4.567 4.558 4.558 0 00-4.563-4.567 4.558 4.558 0 00-4.563 4.567 4.557 4.557 0 004.563 4.567zM117.717 381.475a4.62 4.62 0 004.621-4.626 4.62 4.62 0 00-4.621-4.626 4.62 4.62 0 00-4.622 4.626c.02 2.548 2.076 4.626 4.622 4.626zM108.454 373.418a3.947 3.947 0 003.956-3.959 3.959 3.959 0 00-3.956-3.959 3.947 3.947 0 00-3.956 3.959 3.971 3.971 0 003.956 3.959zM99.504 365.931c2.35 0 4.269-1.902 4.269-4.273a4.269 4.269 0 10-8.539 0c.02 2.371 1.92 4.273 4.27 4.273zM90.907 357.993a4.499 4.499 0 004.484-4.489 4.499 4.499 0 00-4.484-4.489 4.499 4.499 0 00-4.485 4.489 4.499 4.499 0 004.485 4.489zM82.662 348.408a3.42 3.42 0 003.427-3.43 3.42 3.42 0 00-3.427-3.431 3.42 3.42 0 00-3.427 3.431 3.42 3.42 0 003.427 3.43zM74.79 340.371c2.35 0 4.269-1.901 4.269-4.273a4.269 4.269 0 10-8.539 0c0 2.372 1.9 4.273 4.27 4.273zM67.289 330.394a3.461 3.461 0 003.466-3.469 3.461 3.461 0 00-3.466-3.469 3.461 3.461 0 00-3.466 3.469 3.474 3.474 0 003.466 3.469zM60.2 320.868a3.461 3.461 0 003.466-3.469 3.461 3.461 0 00-3.466-3.469 3.461 3.461 0 00-3.467 3.469 3.461 3.461 0 003.467 3.469zM53.522 309.304c.94 0 1.723-.765 1.723-1.725 0-.961-.764-1.725-1.723-1.725-.94 0-1.724.764-1.724 1.725 0 .96.784 1.725 1.724 1.725zM47.275 300.15a2.646 2.646 0 000-5.292 2.646 2.646 0 00-2.644 2.646 2.634 2.634 0 002.644 2.646zM41.458 287.978c.431 0 .784-.353.784-.784a.786.786 0 00-.784-.784.786.786 0 00-.783.784c-.02.411.333.784.783.784zM36.093 278.275c.92 0 1.664-.744 1.664-1.666a1.664 1.664 0 10-3.329 0c0 .922.725 1.666 1.665 1.666zM31.177 265.848c.02 0 .039-.019.039-.039s-.02-.039-.04-.039c-.019 0-.039.019-.039.039-.02.02 0 .039.04.039zM26.712 254.93a.133.133 0 00.137-.137.134.134 0 00-.137-.137.134.134 0 00-.137.137c.02.079.078.137.137.137zM22.736 243.895c.137 0 .255-.118.255-.274a.26.26 0 00-.255-.255.26.26 0 00-.254.255c0 .156.117.274.254.274zM19.25 232.86a.569.569 0 10-.001-1.138.569.569 0 00.002 1.138zM406.711 420.755c.02 0 .04-.019.04-.039s-.02-.039-.04-.039c-.019 0-.039.019-.039.039s.02.039.039.039zM384.758 429.713c.02 0 .039-.02.039-.04 0-.019-.019-.039-.039-.039s-.039.02-.039.039c0 .02.019.04.039.04zM373.537 433.75a.247.247 0 00.254-.255.258.258 0 00-.254-.254.26.26 0 00-.255.254c-.019.138.098.255.255.255zM327.339 444.158a.134.134 0 00.137-.137.134.134 0 00-.137-.137.134.134 0 00-.137.137c.02.078.078.137.137.137zM315.589 445.609a.134.134 0 00.137-.137.133.133 0 00-.137-.137.134.134 0 00-.137.137c0 .078.059.137.137.137zM303.76 446.882a.43.43 0 10.002-.86.43.43 0 00-.002.86zM291.932 448.294c.744 0 1.351-.607 1.351-1.372 0-.764-.607-1.372-1.351-1.372s-1.371.608-1.371 1.372c0 .765.607 1.372 1.371 1.372zM280.064 448.294a1.37 1.37 0 100-2.742 1.37 1.37 0 000 2.742zM268.216 447.549c.607 0 1.097-.49 1.097-1.097a1.096 1.096 0 10-2.193 0c0 .607.489 1.097 1.096 1.097zM256.408 446.57c.607 0 1.096-.49 1.096-1.098a1.096 1.096 0 10-2.193 0c0 .608.49 1.098 1.097 1.098zM244.638 445.256a1.23 1.23 0 001.234-1.235 1.23 1.23 0 00-1.234-1.235 1.23 1.23 0 00-1.234 1.235 1.23 1.23 0 001.234 1.235zM232.946 443.688a1.58 1.58 0 001.586-1.587 1.58 1.58 0 00-1.586-1.588 1.58 1.58 0 00-1.586 1.588 1.58 1.58 0 001.586 1.587zM221.333 441.806a2.107 2.107 0 002.115-2.117 2.12 2.12 0 00-2.115-2.116c-1.175 0-2.115.94-2.115 2.116 0 1.176.94 2.117 2.115 2.117zM209.838 438.239c.783 0 1.41-.627 1.41-1.411 0-.785-.627-1.412-1.41-1.412-.784 0-1.41.627-1.41 1.412 0 .764.626 1.411 1.41 1.411zM198.46 438.043a4.565 4.565 0 004.563-4.567 4.565 4.565 0 00-4.563-4.567 4.565 4.565 0 00-4.563 4.567 4.565 4.565 0 004.563 4.567zM187.219 433.143a3.462 3.462 0 003.466-3.47 3.461 3.461 0 00-3.466-3.469 3.461 3.461 0 00-3.466 3.469 3.462 3.462 0 003.466 3.47zM176.154 427.086c.921 0 1.665-.745 1.665-1.666a1.664 1.664 0 10-3.329 0c0 .921.744 1.666 1.664 1.666zM165.285 425.42a4.69 4.69 0 004.7-4.704 4.703 4.703 0 00-4.7-4.704c-2.585 0-4.7 2.117-4.7 4.704a4.703 4.703 0 004.7 4.704zM154.593 419.422a3.855 3.855 0 003.858-3.861c0-2.137-1.724-3.881-3.858-3.881a3.859 3.859 0 00-3.858 3.881 3.854 3.854 0 003.858 3.861zM144.135 411.249c.705 0 1.273-.569 1.273-1.275 0-.705-.568-1.274-1.273-1.274s-1.273.569-1.273 1.274c0 .706.568 1.275 1.273 1.275zM133.912 406.388a2.409 2.409 0 002.409-2.411 2.408 2.408 0 00-2.409-2.411c-1.332 0-2.428 1.078-2.428 2.411 0 1.332 1.096 2.411 2.428 2.411zM123.944 398.135a.568.568 0 10-.568-.568c-.019.314.235.568.568.568zM114.231 394.784a4.03 4.03 0 004.034-4.038 4.044 4.044 0 00-8.088 0 4.059 4.059 0 004.054 4.038zM104.811 385.865a2.324 2.324 0 002.331-2.332 2.325 2.325 0 00-2.331-2.333 2.325 2.325 0 00-2.33 2.333 2.336 2.336 0 002.33 2.332zM95.705 378.632a2.675 2.675 0 002.683-2.685 2.675 2.675 0 00-2.683-2.685 2.675 2.675 0 00-2.683 2.685 2.675 2.675 0 002.683 2.685zM86.892 371.87a3.86 3.86 0 003.858-3.881c0-2.136-1.724-3.881-3.858-3.881-2.135 0-3.858 1.745-3.858 3.881a3.86 3.86 0 003.858 3.881zM78.432 360.697c.568 0 1.019-.45 1.019-1.019 0-.568-.45-1.019-1.019-1.019-.568 0-1.018.451-1.018 1.019 0 .569.47 1.019 1.018 1.019zM70.305 351.367a.31.31 0 00.313-.313.31.31 0 00-.313-.314.31.31 0 00-.314.314c0 .176.157.313.314.313zM62.55 343.625a1.55 1.55 0 001.547-1.548c0-.843-.686-1.549-1.547-1.549-.842 0-1.548.686-1.548 1.549 0 .862.686 1.548 1.547 1.548zM55.147 332.845c.02 0 .04-.02.04-.04 0-.019-.02-.039-.04-.039s-.04.02-.04.039c0 .02.02.04.04.04zM48.136 323.631a.393.393 0 00.392-.391.393.393 0 00-.392-.392.393.393 0 00-.392.392c0 .215.176.391.392.391zM41.536 313.518a.134.134 0 00.137-.137.133.133 0 00-.137-.137.133.133 0 00-.137.137c0 .078.059.137.137.137zM35.329 303.404a.134.134 0 00.137-.137.133.133 0 00-.137-.137.133.133 0 00-.137.137c0 .078.058.137.137.137zM19.251 271.592c.02 0 .04-.02.04-.04 0-.019-.02-.039-.04-.039s-.04.02-.04.039c0 .02.02.04.04.04zM195.503 446.804a.392.392 0 000-.783.392.392 0 000 .783zM184.262 442.786a.134.134 0 00.137-.137.134.134 0 00-.137-.137.134.134 0 00-.137.137c0 .079.058.137.137.137zM173.177 438.514c.02 0 .04-.02.04-.04 0-.019-.02-.039-.04-.039-.019 0-.039.02-.039.039 0 .02 0 .04.039.04zM162.249 434.142a.31.31 0 00.314-.314.31.31 0 00-.314-.313.31.31 0 00-.313.313.31.31 0 00.313.314zM151.518 429.104a.31.31 0 00.313-.313.31.31 0 00-.313-.313.31.31 0 00-.313.313.31.31 0 00.313.313zM140.982 423.382c.02 0 .04-.02.04-.04 0-.019-.02-.039-.04-.039-.019 0-.039.02-.039.039 0 .02.02.04.039.04zM130.681 417.736a.26.26 0 00.255-.255.26.26 0 00-.255-.254c-.137 0-.274.117-.274.254.02.137.137.255.274.255zM120.615 411.346a.134.134 0 00.137-.137.134.134 0 00-.137-.137.134.134 0 00-.137.137c0 .078.059.137.137.137zM110.804 404.682a.134.134 0 00.137-.137.134.134 0 00-.137-.138.134.134 0 00-.137.138c0 .078.058.137.137.137zM101.247 397.665a.134.134 0 00.137-.137.134.134 0 00-.137-.137.133.133 0 00-.137.137c0 .078.058.137.137.137zM91.984 390.393a.26.26 0 00.255-.255.26.26 0 00-.255-.255.26.26 0 00-.254.255c0 .137.097.255.254.255zM83.015 382.416c.02 0 .039-.02.039-.04 0-.019-.02-.039-.04-.039s-.039.02-.039.039c-.02.02 0 .04.04.04zM74.34 374.32c.019 0 .038-.019.038-.039s-.02-.039-.039-.039c-.02 0-.04.019-.04.039s.02.039.04.039zM65.996 365.892c.02 0 .04-.02.04-.04 0-.019-.02-.039-.04-.039s-.039.02-.039.039c0 .02.02.04.04.04zM57.987 357.131c.02 0 .04-.02.04-.04 0-.019-.02-.039-.04-.039s-.039.02-.039.039c0 .02.02.04.04.04zM43.025 338.725c.02 0 .04-.019.04-.039s-.02-.039-.04-.039-.04.019-.04.039.02.039.04.039zM148.444 442.061c.019 0 .039-.019.039-.039s-.02-.039-.039-.039c-.02 0-.04.019-.04.039s.02.039.04.039zM137.868 436.71c.02 0 .039-.019.039-.039a.041.041 0 00-.039-.039c-.019 0-.039.019-.039.039s.02.039.039.039zM127.489 430.967c.02 0 .04-.019.04-.039s-.02-.039-.04-.039c0 0-.039.019-.039.039s.02.039.039.039zM117.344 424.852c.02 0 .04-.02.04-.04 0-.019-.02-.039-.04-.039-.019 0-.039.02-.039.039-.02.02 0 .04.039.04zM107.416 418.344c.02 0 .039-.019.039-.039a.041.041 0 00-.039-.039.041.041 0 00-.039.039c0 .02.019.039.039.039zM97.742 411.484c.02 0 .039-.02.039-.039 0-.02-.02-.039-.04-.039s-.039.019-.039.039c0 .019.02.039.04.039zM88.342 404.251c.02 0 .039-.02.039-.039 0-.02-.02-.04-.04-.04s-.039.02-.039.04c0 .019.02.039.04.039zM53.6 371.988c.02 0 .04-.02.04-.039 0-.02-.02-.04-.04-.04s-.039.02-.039.04c0 .019.02.039.04.039zM45.708 363.148c.02 0 .04-.02.04-.039 0-.02-.02-.04-.04-.04s-.04.02-.04.04c0 .019.02.039.04.039zM38.149 354.014c.02 0 .039-.02.039-.04 0-.019-.02-.039-.04-.039-.019 0-.039.02-.039.039 0 .02.02.04.04.04zM134.755 450c.019 0 .039-.02.039-.04 0-.019-.02-.039-.039-.039-.02 0-.04.02-.04.039 0 .02.02.04.04.04zM75.514 410.974a.176.176 0 100-.353.176.176 0 100 .353zM41.263 378.064c.02 0 .039-.019.039-.039s-.02-.039-.04-.039c-.019 0-.039.019-.039.039-.02.02.02.039.04.039zM33.469 369.146c.02 0 .039-.02.039-.039 0-.02-.02-.04-.04-.04-.019 0-.039.02-.039.04-.02.019 0 .039.04.039zM81.272 432.163c.02 0 .04-.02.04-.04 0-.019-.02-.039-.04-.039s-.04.02-.04.039c-.02.02 0 .04.04.04zM71.872 424.93c.02 0 .039-.019.039-.039s-.02-.039-.04-.039-.039.019-.039.039.02.039.04.039zM6.776 356.307c.02 0 .04-.019.04-.039s-.02-.039-.04-.039-.04.019-.04.039.02.039.04.039zM.04 346.526c.019 0 .039-.019.039-.039s-.02-.039-.04-.039-.039.019-.039.039.02.039.04.039z" fill="#fff"/></svg>