<svg width="541" height="617" fill="none" xmlns="http://www.w3.org/2000/svg"><g opacity=".2"><path d="M203.282 180.923a4.029 4.029 0 111.475-5.503c1.099 1.905.451 4.391-1.475 5.503z" fill="url(#paint0_linear_4_1235)"/><path d="M121.838 222.494l.667 1.156 77.051-44.485-.667-1.156-77.051 44.485z" fill="url(#paint1_linear_4_1235)"/><path d="M199.77 393.956a4.028 4.028 0 11-4.028-6.978 4.028 4.028 0 014.028 6.978z" fill="url(#paint2_linear_4_1235)"/><path d="M118.338 435.549l.667 1.156 77.073-44.498-.667-1.156-77.073 44.498z" fill="url(#paint3_linear_4_1235)"/><path d="M92.74 397.933a4.028 4.028 0 11-4.029-6.977 4.028 4.028 0 014.029 6.977z" fill="url(#paint4_linear_4_1235)"/><path d="M11.295 439.505l.668 1.156 77.05-44.486-.666-1.156-77.052 44.486z" fill="url(#paint5_linear_4_1235)"/><path d="M90.323 352.87a4.029 4.029 0 111.474-5.503c1.121 1.893.473 4.378-1.474 5.503z" fill="url(#paint6_linear_4_1235)"/><path d="M8.9 394.429l.667 1.156 77.072-44.498-.667-1.156L8.9 394.429z" fill="url(#paint7_linear_4_1235)"/><path d="M256.466 181.152a4.029 4.029 0 11-4.028-6.978 4.029 4.029 0 014.028 6.978z" fill="url(#paint8_linear_4_1235)"/><path d="M175.021 222.723l.667 1.156 77.051-44.485-.667-1.156-77.051 44.485z" fill="url(#paint9_linear_4_1235)"/><path d="M.877 256.716a4.029 4.029 0 11-4.028-6.979 4.029 4.029 0 014.028 6.979z" fill="url(#paint10_linear_4_1235)"/><path d="M53.047 354.986a4.03 4.03 0 01-4.028-6.978 4.029 4.029 0 014.028 6.978z" fill="url(#paint11_linear_4_1235)"/><path d="M10.15 374.302l.667 1.156 38.525-22.243-.667-1.156-38.525 22.243z" fill="url(#paint12_linear_4_1235)"/><path d="M170.774 111.568a4.029 4.029 0 111.474-5.503c1.1 1.905.452 4.391-1.474 5.503z" fill="url(#paint13_linear_4_1235)"/><path d="M127.855 130.896l.667 1.156 38.526-22.243-.667-1.155-38.526 22.242z" fill="url(#paint14_linear_4_1235)"/><path d="M44.92 515.292a4.028 4.028 0 111.475-5.503c1.1 1.905.452 4.391-1.475 5.503z" fill="url(#paint15_linear_4_1235)"/><path d="M2.023 534.609l.667 1.155 38.526-22.242-.668-1.156-38.525 22.243z" fill="url(#paint16_linear_4_1235)"/><path d="M82.516 430.148a4.029 4.029 0 11-4.028-6.979 4.029 4.029 0 014.028 6.979z" fill="url(#paint17_linear_4_1235)"/><path d="M39.597 449.476l.667 1.156 38.526-22.243-.668-1.155-38.525 22.242z" fill="url(#paint18_linear_4_1235)"/><path d="M273.984 233.934a4.028 4.028 0 11-4.029-6.977 4.028 4.028 0 014.029 6.977z" fill="url(#paint19_linear_4_1235)"/><path d="M192.551 275.527l.668 1.156 77.072-44.498-.667-1.156-77.073 44.498z" fill="url(#paint20_linear_4_1235)"/><path d="M202.819 432.748a4.03 4.03 0 11-4.028-6.98 4.03 4.03 0 014.028 6.98z" fill="url(#paint21_linear_4_1235)"/><path d="M121.395 474.307l.668 1.156 77.051-44.486-.667-1.155-77.052 44.485z" fill="url(#paint22_linear_4_1235)"/><path d="M175.115 157.147a4.029 4.029 0 111.475-5.503c1.133 1.914.473 4.378-1.475 5.503z" fill="url(#paint23_linear_4_1235)"/><path d="M93.704 198.727l.668 1.156 77.072-44.498-.667-1.155-77.073 44.497z" fill="url(#paint24_linear_4_1235)"/><path d="M216.691 519.797a4.029 4.029 0 11-4.028-6.979 4.029 4.029 0 014.028 6.979z" fill="url(#paint25_linear_4_1235)"/><path d="M135.259 561.39l.667 1.156 77.073-44.498-.668-1.156-77.072 44.498z" fill="url(#paint26_linear_4_1235)"/><path d="M466.34 213.199a4.03 4.03 0 01-4.029-6.978 4.029 4.029 0 015.503 1.475c1.134 1.914.452 4.391-1.474 5.503z" fill="url(#paint27_linear_4_1235)"/><path d="M196.089 363.806l.668 1.155 265.89-153.512-.667-1.155-265.891 153.512z" fill="url(#paint28_linear_4_1235)"/><path d="M497.873 300.439a4.03 4.03 0 01-4.028-6.978 4.028 4.028 0 015.502 1.475c1.134 1.914.474 4.378-1.474 5.503z" fill="url(#paint29_linear_4_1235)"/><path d="M85.387 533.137l.667 1.156L494.19 298.656l-.668-1.156L85.387 533.137z" fill="url(#paint30_linear_4_1235)"/><path d="M228.688 153.156a4.03 4.03 0 11-4.028-6.98 4.03 4.03 0 014.028 6.98z" fill="url(#paint31_linear_4_1235)"/><path d="M-41.563 303.763l.668 1.156 265.89-153.512-.667-1.156-265.89 153.512z" fill="url(#paint32_linear_4_1235)"/><path d="M360.876 202.145a4.029 4.029 0 111.475-5.503c1.133 1.914.451 4.391-1.475 5.503z" fill="url(#paint33_linear_4_1235)"/><path d="M90.635 352.718l.667 1.156 265.891-153.512-.667-1.156L90.635 352.718z" fill="url(#paint34_linear_4_1235)"/><path d="M421.577 356.76a4.03 4.03 0 01-4.029-6.978 4.029 4.029 0 014.029 6.978z" fill="url(#paint35_linear_4_1235)"/><path d="M151.326 507.367l.668 1.155 265.89-153.512-.667-1.155-265.891 153.512z" fill="url(#paint36_linear_4_1235)"/><path d="M111.992 247.356a4.029 4.029 0 111.474-5.503c1.134 1.914.474 4.378-1.474 5.503z" fill="url(#paint37_linear_4_1235)"/><path d="M-39.484 329.36l.668 1.155 147.103-84.93-.667-1.155-147.104 84.93z" fill="url(#paint38_linear_4_1235)"/><path d="M279.965 357.387a4.029 4.029 0 11-4.028-6.976 4.029 4.029 0 014.028 6.976z" fill="url(#paint39_linear_4_1235)"/><path d="M128.49 439.391l.667 1.156 147.103-84.931-.667-1.155-147.103 84.93z" fill="url(#paint40_linear_4_1235)"/></g><defs><linearGradient id="paint0_linear_4_1235" x1="181.616" y1="188.76" x2="120.977" y2="223.77" gradientUnits="userSpaceOnUse"><stop stop-color="#A4FFFF"/><stop offset="1" stop-color="#A4FFFF" stop-opacity="0"/></linearGradient><linearGradient id="paint1_linear_4_1235" x1="181.614" y1="188.758" x2="120.977" y2="223.767" gradientUnits="userSpaceOnUse"><stop stop-color="#A4FFFF"/><stop offset="1" stop-color="#A4FFFF" stop-opacity="0"/></linearGradient><linearGradient id="paint2_linear_4_1235" x1="178.112" y1="401.809" x2="117.454" y2="436.83" gradientUnits="userSpaceOnUse"><stop stop-color="#A4FFFF"/><stop offset="1" stop-color="#A4FFFF" stop-opacity="0"/></linearGradient><linearGradient id="paint3_linear_4_1235" x1="178.118" y1="401.806" x2="117.478" y2="436.816" gradientUnits="userSpaceOnUse"><stop stop-color="#A4FFFF"/><stop offset="1" stop-color="#A4FFFF" stop-opacity="0"/></linearGradient><linearGradient id="paint4_linear_4_1235" x1="71.081" y1="405.768" x2="10.442" y2="440.778" gradientUnits="userSpaceOnUse"><stop stop-color="#A4FFFF"/><stop offset="1" stop-color="#A4FFFF" stop-opacity="0"/></linearGradient><linearGradient id="paint5_linear_4_1235" x1="71.08" y1="405.769" x2="10.443" y2="440.778" gradientUnits="userSpaceOnUse"><stop stop-color="#A4FFFF"/><stop offset="1" stop-color="#A4FFFF" stop-opacity="0"/></linearGradient><linearGradient id="paint6_linear_4_1235" x1="68.671" y1="360.697" x2="8.03" y2="395.708" gradientUnits="userSpaceOnUse"><stop stop-color="#A4FFFF"/><stop offset="1" stop-color="#A4FFFF" stop-opacity="0"/></linearGradient><linearGradient id="paint7_linear_4_1235" x1="68.672" y1="360.696" x2="8.033" y2="395.706" gradientUnits="userSpaceOnUse"><stop stop-color="#A4FFFF"/><stop offset="1" stop-color="#A4FFFF" stop-opacity="0"/></linearGradient><linearGradient id="paint8_linear_4_1235" x1="234.81" y1="188.987" x2="174.187" y2="223.987" gradientUnits="userSpaceOnUse"><stop stop-color="#A4FFFF"/><stop offset="1" stop-color="#A4FFFF" stop-opacity="0"/></linearGradient><linearGradient id="paint9_linear_4_1235" x1="234.803" y1="188.989" x2="174.166" y2="223.998" gradientUnits="userSpaceOnUse"><stop stop-color="#A4FFFF"/><stop offset="1" stop-color="#A4FFFF" stop-opacity="0"/></linearGradient><linearGradient id="paint10_linear_4_1235" x1="-20.772" y1="264.562" x2="-81.411" y2="299.572" gradientUnits="userSpaceOnUse"><stop stop-color="#A4FFFF"/><stop offset="1" stop-color="#A4FFFF" stop-opacity="0"/></linearGradient><linearGradient id="paint11_linear_4_1235" x1="31.396" y1="362.821" x2="-29.243" y2="397.831" gradientUnits="userSpaceOnUse"><stop stop-color="#A4FFFF"/><stop offset="1" stop-color="#A4FFFF" stop-opacity="0"/></linearGradient><linearGradient id="paint12_linear_4_1235" x1="40.208" y1="357.732" x2="9.889" y2="375.237" gradientUnits="userSpaceOnUse"><stop stop-color="#A4FFFF"/><stop offset="1" stop-color="#A4FFFF" stop-opacity="0"/></linearGradient><linearGradient id="paint13_linear_4_1235" x1="149.107" y1="119.404" x2="88.468" y2="154.414" gradientUnits="userSpaceOnUse"><stop stop-color="#A4FFFF"/><stop offset="1" stop-color="#A4FFFF" stop-opacity="0"/></linearGradient><linearGradient id="paint14_linear_4_1235" x1="157.92" y1="114.316" x2="127.601" y2="131.821" gradientUnits="userSpaceOnUse"><stop stop-color="#A4FFFF"/><stop offset="1" stop-color="#A4FFFF" stop-opacity="0"/></linearGradient><linearGradient id="paint15_linear_4_1235" x1="23.264" y1="523.121" x2="-37.375" y2="558.131" gradientUnits="userSpaceOnUse"><stop stop-color="#A4FFFF"/><stop offset="1" stop-color="#A4FFFF" stop-opacity="0"/></linearGradient><linearGradient id="paint16_linear_4_1235" x1="32.077" y1="518.034" x2="1.758" y2="535.539" gradientUnits="userSpaceOnUse"><stop stop-color="#A4FFFF"/><stop offset="1" stop-color="#A4FFFF" stop-opacity="0"/></linearGradient><linearGradient id="paint17_linear_4_1235" x1="60.844" y1="437.989" x2=".187" y2="473.01" gradientUnits="userSpaceOnUse"><stop stop-color="#A4FFFF"/><stop offset="1" stop-color="#A4FFFF" stop-opacity="0"/></linearGradient><linearGradient id="paint18_linear_4_1235" x1="69.664" y1="432.897" x2="39.345" y2="450.402" gradientUnits="userSpaceOnUse"><stop stop-color="#A4FFFF"/><stop offset="1" stop-color="#A4FFFF" stop-opacity="0"/></linearGradient><linearGradient id="paint19_linear_4_1235" x1="252.327" y1="241.774" x2="191.688" y2="276.784" gradientUnits="userSpaceOnUse"><stop stop-color="#A4FFFF"/><stop offset="1" stop-color="#A4FFFF" stop-opacity="0"/></linearGradient><linearGradient id="paint20_linear_4_1235" x1="252.328" y1="241.775" x2="191.69" y2="276.784" gradientUnits="userSpaceOnUse"><stop stop-color="#A4FFFF"/><stop offset="1" stop-color="#A4FFFF" stop-opacity="0"/></linearGradient><linearGradient id="paint21_linear_4_1235" x1="181.162" y1="440.585" x2="120.523" y2="475.595" gradientUnits="userSpaceOnUse"><stop stop-color="#A4FFFF"/><stop offset="1" stop-color="#A4FFFF" stop-opacity="0"/></linearGradient><linearGradient id="paint22_linear_4_1235" x1="181.163" y1="440.586" x2="120.526" y2="475.594" gradientUnits="userSpaceOnUse"><stop stop-color="#A4FFFF"/><stop offset="1" stop-color="#A4FFFF" stop-opacity="0"/></linearGradient><linearGradient id="paint23_linear_4_1235" x1="153.466" y1="164.987" x2="92.809" y2="200.008" gradientUnits="userSpaceOnUse"><stop stop-color="#A4FFFF"/><stop offset="1" stop-color="#A4FFFF" stop-opacity="0"/></linearGradient><linearGradient id="paint24_linear_4_1235" x1="153.471" y1="164.983" x2="92.833" y2="199.992" gradientUnits="userSpaceOnUse"><stop stop-color="#A4FFFF"/><stop offset="1" stop-color="#A4FFFF" stop-opacity="0"/></linearGradient><linearGradient id="paint25_linear_4_1235" x1="195.028" y1="527.643" x2="134.389" y2="562.653" gradientUnits="userSpaceOnUse"><stop stop-color="#A4FFFF"/><stop offset="1" stop-color="#A4FFFF" stop-opacity="0"/></linearGradient><linearGradient id="paint26_linear_4_1235" x1="195.028" y1="527.642" x2="134.389" y2="562.652" gradientUnits="userSpaceOnUse"><stop stop-color="#A4FFFF"/><stop offset="1" stop-color="#A4FFFF" stop-opacity="0"/></linearGradient><linearGradient id="paint27_linear_4_1235" x1="430.126" y1="229.445" x2="322.133" y2="291.795" gradientUnits="userSpaceOnUse"><stop stop-color="#A4FFFF"/><stop offset="1" stop-color="#A4FFFF" stop-opacity="0"/></linearGradient><linearGradient id="paint28_linear_4_1235" x1="403.103" y1="245.045" x2="204.447" y2="359.74" gradientUnits="userSpaceOnUse"><stop stop-color="#A4FFFF"/><stop offset="1" stop-color="#A4FFFF" stop-opacity="0"/></linearGradient><linearGradient id="paint29_linear_4_1235" x1="461.661" y1="316.678" x2="353.669" y2="379.027" gradientUnits="userSpaceOnUse"><stop stop-color="#A4FFFF"/><stop offset="1" stop-color="#A4FFFF" stop-opacity="0"/></linearGradient><linearGradient id="paint30_linear_4_1235" x1="402.963" y1="350.566" x2="98.034" y2="526.617" gradientUnits="userSpaceOnUse"><stop stop-color="#A4FFFF"/><stop offset="1" stop-color="#A4FFFF" stop-opacity="0"/></linearGradient><linearGradient id="paint31_linear_4_1235" x1="192.475" y1="169.414" x2="84.483" y2="231.764" gradientUnits="userSpaceOnUse"><stop stop-color="#A4FFFF"/><stop offset="1" stop-color="#A4FFFF" stop-opacity="0"/></linearGradient><linearGradient id="paint32_linear_4_1235" x1="165.452" y1="185.015" x2="-33.204" y2="299.709" gradientUnits="userSpaceOnUse"><stop stop-color="#A4FFFF"/><stop offset="1" stop-color="#A4FFFF" stop-opacity="0"/></linearGradient><linearGradient id="paint33_linear_4_1235" x1="324.66" y1="218.386" x2="216.668" y2="280.736" gradientUnits="userSpaceOnUse"><stop stop-color="#A4FFFF"/><stop offset="1" stop-color="#A4FFFF" stop-opacity="0"/></linearGradient><linearGradient id="paint34_linear_4_1235" x1="297.635" y1="233.988" x2="98.981" y2="348.681" gradientUnits="userSpaceOnUse"><stop stop-color="#A4FFFF"/><stop offset="1" stop-color="#A4FFFF" stop-opacity="0"/></linearGradient><linearGradient id="paint35_linear_4_1235" x1="385.36" y1="373.009" x2="277.367" y2="435.359" gradientUnits="userSpaceOnUse"><stop stop-color="#A4FFFF"/><stop offset="1" stop-color="#A4FFFF" stop-opacity="0"/></linearGradient><linearGradient id="paint36_linear_4_1235" x1="358.338" y1="388.61" x2="159.682" y2="503.304" gradientUnits="userSpaceOnUse"><stop stop-color="#A4FFFF"/><stop offset="1" stop-color="#A4FFFF" stop-opacity="0"/></linearGradient><linearGradient id="paint37_linear_4_1235" x1="75.77" y1="263.604" x2="-32.256" y2="325.973" gradientUnits="userSpaceOnUse"><stop stop-color="#A4FFFF"/><stop offset="1" stop-color="#A4FFFF" stop-opacity="0"/></linearGradient><linearGradient id="paint38_linear_4_1235" x1="75.211" y1="263.927" x2="-34.701" y2="327.384" gradientUnits="userSpaceOnUse"><stop stop-color="#A4FFFF"/><stop offset="1" stop-color="#A4FFFF" stop-opacity="0"/></linearGradient><linearGradient id="paint39_linear_4_1235" x1="243.747" y1="373.631" x2="135.787" y2="435.962" gradientUnits="userSpaceOnUse"><stop stop-color="#A4FFFF"/><stop offset="1" stop-color="#A4FFFF" stop-opacity="0"/></linearGradient><linearGradient id="paint40_linear_4_1235" x1="243.167" y1="373.966" x2="133.256" y2="437.423" gradientUnits="userSpaceOnUse"><stop stop-color="#A4FFFF"/><stop offset="1" stop-color="#A4FFFF" stop-opacity="0"/></linearGradient></defs></svg>