<svg width="375" height="215" fill="none" xmlns="http://www.w3.org/2000/svg"><path d="M148.658 52.454H97.863L76.446 30.999H38.693L9.08 1.332l.227-.238 29.526 29.568h37.752l21.417 21.455h50.657v.337z" fill="#016969"/><path d="M148.598 51.027a1.259 1.259 0 010 2.516 1.258 1.258 0 01-1.255-1.258 1.245 1.245 0 011.255-1.258zM10.127.371a1.252 1.252 0 00-1.78 0 1.257 1.257 0 000 1.783 1.252 1.252 0 001.78 0 1.257 1.257 0 000-1.783zm-18.412 213.53h-34.301v-.327h34.163l18.895-18.929h37.753l21.417-21.455h51.922l19.124-19.157.227.238-19.212 19.256H69.781l-21.418 21.445H10.611l-18.896 18.929z" fill="#016969"/><path d="M139.867 153.309a1.252 1.252 0 011.78 0 1.258 1.258 0 010 1.783 1.25 1.25 0 01-1.78 0 1.274 1.274 0 010-1.783zm24.344-75.745l-17.304-17.325H87.451l-17.789-17.82H45.773l-9.572 9.589h-72.39v-.337h72.252l9.572-9.579H69.8l17.788 17.81h59.457l17.403 17.424-.238.238z" fill="#016969"/><path d="M164.28 78.663c.694 0 1.256-.563 1.256-1.258a1.257 1.257 0 10-2.511 0c0 .695.562 1.258 1.255 1.258zm-47.393 90.218H96.795l-14.872-14.888h-29.12l-14.486-14.521H-5.12v-.327h43.577l14.486 14.512h29.12l14.871 14.897h19.816l20.419-20.464.237.238-20.518 20.553z" fill="#016969"/><path d="M136.357 147.367a1.252 1.252 0 011.78 0 1.258 1.258 0 010 1.783 1.252 1.252 0 01-1.78 0 1.256 1.256 0 010-1.783zm25.679-61.651l-16.889-16.928H88.538L69.593 49.819H52.289L38.406 63.726h-54.502v-.337h54.364L52.15 49.482h17.58l18.946 18.979h56.609l16.987 17.017-.237.238z" fill="#016969"/><path d="M161.225 86.44a1.252 1.252 0 001.78 0 1.258 1.258 0 000-1.784 1.252 1.252 0 00-1.78 0 1.258 1.258 0 000 1.783zm-46.889 65.85H89.735l-28.507-28.548H2.444l-14.18 14.205-.237-.238 14.278-14.303h59.061l28.507 28.557h24.325l13.982-14.016h25.214v.336h-25.076l-13.982 14.007z" fill="#016969"/><path d="M153.325 136.857a1.258 1.258 0 010 2.516 1.258 1.258 0 010-2.516zm-33.561 21.286h-13.536v-.337h13.398l15.396-15.422.237.238-15.495 15.521z" fill="#016969"/><path d="M134.211 141.651a1.252 1.252 0 011.78 0 1.258 1.258 0 010 1.783 1.252 1.252 0 01-1.78 0 1.258 1.258 0 010-1.783zm-27.924 17.582c.694 0 1.256-.563 1.256-1.258a1.257 1.257 0 10-2.512 0c0 .695.563 1.258 1.256 1.258zm55.749-63.453l-18.115-18.147H92.879L75.773 60.497H47.404L32.602 75.315h-61.365L-46.897 57.15l.227-.238 18.046 18.077h61.088L47.266 60.16H75.91l17.107 17.136h51.041l18.214 18.246-.237.238z" fill="#016969"/><path d="M162.995 94.72a1.258 1.258 0 010 1.783 1.252 1.252 0 01-1.78 0 1.258 1.258 0 010-1.783 1.27 1.27 0 011.78 0zm-8.563 4.596l-14.713-14.749H93.967L76.11 66.687H48.492L25.997 89.214l-.237-.238L48.354 66.35h27.894l17.858 17.88h45.751l14.813 14.847-.238.238z" fill="#016969"/><path d="M155.401 98.256a1.256 1.256 0 010 1.783 1.252 1.252 0 01-1.78 0 1.258 1.258 0 010-1.783 1.27 1.27 0 011.78 0zM25.928 90.311c.693 0 1.255-.563 1.255-1.258a1.257 1.257 0 10-1.255 1.258zm78.767 53.41H87.559l-32.64-32.697h-86.648v-.337h86.786l32.64 32.707h16.86l12.211-12.243h33.125l14.318-14.333.237.228-14.416 14.442h-33.125l-12.212 12.233z" fill="#016969"/><path d="M163.39 116.085a1.252 1.252 0 011.78 0 1.256 1.256 0 010 1.783 1.25 1.25 0 01-1.78 0 1.276 1.276 0 010-1.783zM88.4 104.556H76.762v-.337h11.5l10.59-10.598h39.601v.326H98.99L88.4 104.556z" fill="#016969"/><path d="M138.394 92.52a1.259 1.259 0 010 2.517 1.259 1.259 0 010-2.516zm-61.563 13.125c.694 0 1.256-.563 1.256-1.258a1.257 1.257 0 10-1.256 1.258zm10.808-11.499L71.432 77.9H47.988v-.327H71.57l16.305 16.334-.237.238z" fill="#016969"/><path d="M88.608 93.095a1.257 1.257 0 010 1.783 1.252 1.252 0 01-1.78 0 1.257 1.257 0 010-1.783 1.252 1.252 0 011.78 0zM48.047 76.474a1.259 1.259 0 000 2.516 1.259 1.259 0 000-2.516zM76.781 95.78L65.46 84.428H44.725v-.327h20.873l11.42 11.44-.237.239z" fill="#016969"/><path d="M76.85 96.87c.694 0 1.256-.564 1.256-1.258a1.257 1.257 0 10-1.255 1.258zM44.794 85.518a1.257 1.257 0 10-.002-2.514 1.257 1.257 0 00.002 2.514zm23.958 59.907l-14.584-14.61h-46.8v-.327h46.938l14.684 14.699-.238.238z" fill="#016969"/><path d="M69.712 144.375a1.257 1.257 0 010 1.783 1.252 1.252 0 01-1.78 0 1.257 1.257 0 010-1.783 1.252 1.252 0 011.78 0zM7.437 131.914a1.257 1.257 0 000-2.516 1.257 1.257 0 000 2.516zm-15.583 73.429h-31.731v-.337h31.592l24.166-24.199h27.697l15.741-15.779h29.832v.337H59.458l-15.742 15.769H16.02l-24.166 24.209z" fill="#016969"/><path d="M89.092 166.454c.694 0 1.256-.563 1.256-1.258a1.257 1.257 0 10-1.256 1.258zm-130.284 1.823l-.237-.238 18.757-18.79h56.065l10.867 10.886h34.035v.337H44.121l-10.867-10.886h-55.788l-18.659 18.691z" fill="#016969"/><path d="M78.225 161.561c.694 0 1.256-.563 1.256-1.258a1.257 1.257 0 10-2.511 0c0 .695.562 1.258 1.255 1.258zm-88.27 27.19h-26.203l-9.255-9.261.237-.238 9.156 9.163h25.926l19.55-19.583h31.997v.336H9.503l-19.548 19.583z" fill="#016969"/><path d="M41.303 167.742a1.259 1.259 0 010 2.516 1.259 1.259 0 010-2.516zm-58.675 8.231h-13.27v-.336h13.131L-2.58 160.68h33.086v.326H-2.441l-14.931 14.967z" fill="#016969"/><path d="M30.447 159.59a1.259 1.259 0 010 2.516 1.259 1.259 0 01-1.256-1.258 1.24 1.24 0 011.256-1.258zm-74.892-15.789l-.238-.238 24.186-24.228h63.491v.336h-63.352l-24.087 24.13z" fill="#016969"/><path d="M42.935 118.245a1.258 1.258 0 010 2.516 1.259 1.259 0 010-2.516z" fill="#016969"/><path d="M95.034 132.994H84.85l-29.733-29.776h-92.275v-.337h92.413l29.733 29.776h9.908l11.668-11.688h32.047l9.423-9.44.237.237-9.522 9.539h-32.047l-11.668 11.689z" fill="#016969"/><path d="M147.214 110.796a1.251 1.251 0 011.779 0 1.256 1.256 0 010 1.783 1.251 1.251 0 01-1.779 0 1.274 1.274 0 010-1.783zm-53.129 13.085H83.22L54.504 95.126h-96.547v-.337h96.685l28.715 28.766h10.59l8.276-8.301h33.936l8.612-8.628.238.238-8.712 8.727h-33.935l-8.277 8.29z" fill="#016969"/><path d="M143.961 105.903a1.251 1.251 0 011.779 0 1.256 1.256 0 010 1.783 1.251 1.251 0 01-1.779 0 1.256 1.256 0 010-1.783zm-50.478 6.349l-.238-.238 11.154-11.173h34.717v.337h-34.579l-11.054 11.074z" fill="#016969"/><path d="M139.046 99.751a1.259 1.259 0 010 2.516 1.258 1.258 0 010-2.516zm-45.643 13.591c.694 0 1.256-.563 1.256-1.258a1.257 1.257 0 10-1.256 1.258zM64.718 38.07H30.545L4.461 11.94l.237-.237 25.985 26.031h34.035v.337z" fill="#016969"/><path d="M64.649 36.644a1.259 1.259 0 010 2.516 1.259 1.259 0 010-2.516zM5.509 10.98a1.252 1.252 0 00-1.78 0 1.257 1.257 0 000 1.783 1.252 1.252 0 001.78 0 1.257 1.257 0 000-1.783zm13.418 27.418l-16.76-16.78H-44.08v-.336H2.305L19.164 38.16l-.237.238z" fill="#016969"/><path d="M19.886 37.348a1.257 1.257 0 010 1.783 1.252 1.252 0 01-1.78 0 1.257 1.257 0 010-1.783 1.252 1.252 0 011.78 0zm206.072 125.194h50.794l21.418 21.455h37.752l29.615 29.667-.238.237-29.515-29.567h-37.753l-21.417-21.455h-50.656v-.337z" fill="#016969"/><path d="M226.017 163.968a1.258 1.258 0 010-2.516 1.259 1.259 0 010 2.516zm138.472 50.656a1.25 1.25 0 001.78 0 1.258 1.258 0 000-1.783 1.252 1.252 0 00-1.78 0 1.258 1.258 0 000 1.783zM382.9 1.094h34.302v.327h-34.163l-18.896 18.94H326.39l-21.417 21.444h-51.922l-19.123 19.157-.228-.237 19.213-19.247h51.921l21.418-21.455h37.752L382.9 1.095z" fill="#016969"/><path d="M234.748 61.695a1.252 1.252 0 01-1.78 0 1.258 1.258 0 010-1.782 1.252 1.252 0 011.78 0 1.274 1.274 0 010 1.782zm-24.344 75.737l17.304 17.324h59.457l17.788 17.82h23.889l9.572-9.589h72.39v.337h-72.252l-9.571 9.588h-24.166l-17.789-17.819H227.57l-17.403-17.424.237-.237z" fill="#016969"/><path d="M209.445 138.481a1.258 1.258 0 010-1.783 1.252 1.252 0 011.78 0 1.258 1.258 0 010 1.783 1.25 1.25 0 01-1.78 0zm48.283-92.367h20.092l14.872 14.888h29.11l14.496 14.521h43.438v.337H336.16l-14.496-14.521h-29.11L277.682 46.45h-19.816l-20.418 20.454-.238-.237 20.518-20.554z" fill="#016969"/><path d="M238.259 67.628a1.252 1.252 0 01-1.78 0 1.258 1.258 0 010-1.783 1.252 1.252 0 011.78 0 1.258 1.258 0 010 1.783zm-25.68 61.651l16.889 16.928h56.609l18.945 18.969h17.304l13.883-13.907h54.503v.337h-54.365l-13.882 13.907h-17.581l-18.945-18.979H229.33l-16.988-17.017.237-.238z" fill="#016969"/><path d="M213.39 128.557a1.25 1.25 0 00-1.78 0 1.257 1.257 0 000 1.782 1.25 1.25 0 001.78 0 1.255 1.255 0 000-1.782zm46.889-65.852h24.601l28.508 28.547h58.784l14.179-14.204.237.238-14.278 14.303h-59.061l-28.507-28.547h-24.324l-13.982 14.006h-25.214v-.337h25.076l13.981-14.006z" fill="#016969"/><path d="M221.291 78.138a1.259 1.259 0 010-2.516 1.258 1.258 0 010 2.516zm33.56-21.286h13.536v.337h-13.398l-15.396 15.423-.237-.228 15.495-15.532z" fill="#016969"/><path d="M240.404 73.344a1.25 1.25 0 01-1.779 0 1.256 1.256 0 010-1.783 1.25 1.25 0 011.779 0 1.256 1.256 0 010 1.783zm27.924-15.065a1.259 1.259 0 000-2.516 1.259 1.259 0 000 2.516zm-55.749 60.936l18.115 18.147h51.042l17.106 17.136h28.369l14.792-14.818h61.375l18.135 18.166-.228.238-18.045-18.077h-61.088l-14.803 14.828h-28.645l-17.106-17.136h-51.042l-18.214-18.246.237-.238z" fill="#016969"/><path d="M211.61 120.276a1.258 1.258 0 010-1.783 1.25 1.25 0 011.78 0 1.256 1.256 0 010 1.783 1.27 1.27 0 01-1.78 0zm8.573-4.596l14.714 14.749h45.751l17.848 17.889h27.627l22.495-22.535.238.238-22.594 22.624h-27.894l-17.858-17.879h-45.752l-14.812-14.848.237-.238z" fill="#016969"/><path d="M219.214 116.739a1.258 1.258 0 010-1.783 1.252 1.252 0 011.78 0 1.258 1.258 0 010 1.783 1.269 1.269 0 01-1.78 0zm130.363 10.094a1.256 1.256 0 000-1.783 1.251 1.251 0 00-1.779 0 1.256 1.256 0 000 1.783 1.251 1.251 0 001.779 0zm-79.657-55.56h17.136l32.64 32.698h86.649v.337h-86.787L286.917 71.61h-16.859l-12.211 12.233h-33.125l-14.318 14.343-.237-.238 14.416-14.442h33.125l12.212-12.233z" fill="#016969"/><path d="M211.225 98.91a1.252 1.252 0 01-1.78 0 1.258 1.258 0 010-1.784 1.252 1.252 0 011.78 0 1.276 1.276 0 010 1.783zm74.99 11.529h11.638v.337h-11.499l-10.59 10.609h-39.602v-.337h39.463l10.59-10.609z" fill="#016969"/><path d="M236.221 122.474a1.257 1.257 0 000-2.516 1.257 1.257 0 000 2.516zm61.563-10.608c.694 0 1.256-.563 1.256-1.258a1.257 1.257 0 10-2.511 0c0 .695.562 1.258 1.255 1.258zm-10.807 8.984l16.206 16.245h23.445v.337h-23.583l-16.306-16.344.238-.238z" fill="#016969"/><path d="M286.008 121.9a1.256 1.256 0 010-1.783 1.251 1.251 0 011.779 0 1.256 1.256 0 010 1.783 1.251 1.251 0 01-1.779 0zm40.56 16.621a1.259 1.259 0 000-2.516 1.26 1.26 0 000 2.516zm-28.734-19.305l11.322 11.351h20.735v.337h-20.874l-11.42-11.451.237-.237z" fill="#016969"/><path d="M297.755 120.642c.693 0 1.255-.563 1.255-1.258a1.256 1.256 0 10-2.511 0c0 .695.562 1.258 1.256 1.258zm32.066 11.352a1.259 1.259 0 000-2.516 1.258 1.258 0 000 2.516zM305.863 69.57l14.585 14.61h46.799v.327h-46.938l-14.684-14.7.238-.237z" fill="#016969"/><path d="M304.904 70.62a1.256 1.256 0 010-1.783 1.25 1.25 0 011.779 0 1.256 1.256 0 010 1.783 1.25 1.25 0 01-1.779 0zm62.274 14.987c.694 0 1.256-.564 1.256-1.258a1.257 1.257 0 10-1.256 1.258zm15.584-75.955h31.73v.337H382.9l-24.166 24.199h-27.696l-15.742 15.78h-29.832v-.338h29.694l15.741-15.769h27.696l24.167-24.209z" fill="#016969"/><path d="M285.523 51.057a1.259 1.259 0 010-2.516 1.259 1.259 0 010 2.516zm130.284-4.339l.238.238-18.758 18.79h-56.065l-10.867-10.885h-34.034v-.327h34.173L341.36 65.41h55.789l18.658-18.691z" fill="#016969"/><path d="M296.39 55.96a1.259 1.259 0 010-2.516 1.259 1.259 0 010 2.516zm88.27-29.716h26.203l9.255 9.261-.237.238-9.156-9.162h-25.927L365.25 46.164h-31.998v-.337h31.859l19.549-19.583z" fill="#016969"/><path d="M333.312 47.253a1.257 1.257 0 000-2.516 1.257 1.257 0 000 2.516zm58.675-8.231h13.27v.337h-13.131l-14.931 14.957h-33.086v-.327h32.947l14.931-14.967z" fill="#016969"/><path d="M344.169 55.416a1.257 1.257 0 000-2.516 1.257 1.257 0 000 2.516zm74.892 15.778l.237.238-24.186 24.228h-63.491v-.336h63.352l24.088-24.13z" fill="#016969"/><path d="M331.68 96.75a1.258 1.258 0 010-2.516 1.258 1.258 0 010 2.516z" fill="#016969"/><path d="M279.581 82.001h10.184l29.733 29.786h92.275v.326H319.36l-29.733-29.775h-9.908l-11.668 11.688h-32.047l-9.423 9.44-.237-.228 9.522-9.539h32.047l11.668-11.698z" fill="#016969"/><path d="M227.402 104.199a1.252 1.252 0 01-1.78 0 1.256 1.256 0 010-1.783 1.252 1.252 0 011.78 0 1.276 1.276 0 010 1.783zm53.128-13.085h10.867l28.715 28.756h96.546v.336h-96.685l-28.715-28.765h-10.59l-8.276 8.3h-33.936l-8.612 8.629-.237-.238 8.711-8.727h33.936l8.276-8.29z" fill="#016969"/><path d="M230.655 109.093a1.252 1.252 0 01-1.78 0 1.256 1.256 0 010-1.783 1.252 1.252 0 011.78 0 1.258 1.258 0 010 1.783zm50.478-6.34l.237.238-11.154 11.163H235.5v-.327h34.578l11.055-11.074z" fill="#016969"/><path d="M235.569 115.243a1.257 1.257 0 000-2.516 1.257 1.257 0 000 2.516zm46.523-11.44a1.258 1.258 0 000-1.783 1.252 1.252 0 00-1.78 0 1.258 1.258 0 000 1.783 1.252 1.252 0 001.78 0zm27.805 73.121h34.173l26.085 26.131-.238.237-25.985-26.031h-34.035v-.337z" fill="#016969"/><path d="M309.966 178.351a1.26 1.26 0 010-2.516 1.259 1.259 0 010 2.516zm59.14 25.664a1.252 1.252 0 001.78 0 1.256 1.256 0 000-1.783 1.252 1.252 0 00-1.78 0 1.258 1.258 0 000 1.783zm-13.418-27.418l16.76 16.78h46.247v.337H372.31l-16.859-16.879.237-.238z" fill="#016969"/><path d="M354.729 177.647a1.258 1.258 0 010-1.783 1.252 1.252 0 011.78 0 1.258 1.258 0 010 1.783 1.252 1.252 0 01-1.78 0z" fill="#016969"/></svg>