<svg width="140" height="133" fill="none" xmlns="http://www.w3.org/2000/svg"><path fill-rule="evenodd" clip-rule="evenodd" d="M20.163.156C12.25 1.28 4.996 6.93 1.95 14.346c-2.692 6.549-2.517 13.657.49 19.93 2.923 6.097 7.893 10.385 14.478 12.49 1.872.598 2.798.7 6.418.7 3.619 0 4.546-.102 6.418-.7 6.58-2.104 11.595-6.421 14.445-12.436 1.877-3.961 2.298-5.872 2.304-10.448.005-3.145-.12-4.328-.654-6.243-1.893-6.787-6.146-12.082-12.09-15.056-1.642-.82-3.838-1.698-4.88-1.95C26.405.039 22.5-.175 20.162.157zm51.343 0C63.592 1.28 56.339 6.93 53.292 14.346c-2.692 6.549-2.517 13.657.49 19.93 2.923 6.097 7.893 10.385 14.478 12.49 1.871.598 2.798.7 6.417.7 3.62 0 4.546-.102 6.418-.7 6.58-2.104 11.596-6.421 14.445-12.436 1.877-3.961 2.299-5.872 2.305-10.448.004-3.145-.12-4.328-.654-6.243-1.894-6.787-6.146-12.082-12.09-15.056-1.642-.82-3.838-1.698-4.881-1.95-2.471-.595-6.377-.809-8.714-.477zM8.599 57.107c-4.23 1.497-7.088 4.585-8.205 8.866-.312 1.193-.39 6.952-.393 28.67-.004 29.579-.031 29.053 1.638 31.968 1.756 3.067 5.026 5.394 8.536 6.075 2.159.419 80.17.419 82.33 0 4.84-.94 8.784-4.768 9.868-9.581.162-.72.298-3.76.302-6.757.004-2.996.054-5.448.111-5.448.056 0 4.815 2.363 10.573 5.249 5.759 2.887 11.257 5.456 12.218 5.708 4.609 1.208 9.793-.889 12.399-5.014 2.091-3.312 2.092-3.328 1.991-22.958l-.09-17.464-.929-2.007c-1.239-2.674-3.204-4.775-5.598-5.98-1.814-.914-2.1-.968-5.136-.968h-3.215l-11.158 5.573-11.159 5.573v-5.436c0-5.726-.286-7.688-1.469-10.061-1.341-2.69-4.311-5.167-7.276-6.068-1.408-.427-5.843-.476-42.723-.467-38.272.009-41.255.046-42.615.527zm121.372 20.495l.717.733v32.611l-.853.873c-.469.48-1.158.868-1.532.861-.373-.006-6.258-2.804-13.077-6.219l-12.398-6.209-.079-5.502-.079-5.501 12.332-6.168c8.061-4.033 12.664-6.176 13.292-6.19.651-.015 1.193.215 1.677.711zM39.668 90.676c-2.242 1.561-2.925 4.133-1.685 6.343.723 1.29 2.7 2.538 4.022 2.538 1.32 0 3.298-1.248 4.022-2.538 1.726-3.077-.532-7.015-4.022-7.015-.943 0-1.674.21-2.337.672zm18.67 0c-2.242 1.561-2.925 4.133-1.685 6.343.723 1.29 2.7 2.538 4.022 2.538 1.321 0 3.298-1.248 4.022-2.538 1.726-3.077-.532-7.015-4.022-7.015-.943 0-1.674.21-2.337.672z" fill="#033452"/></svg>