<svg width="140" height="140" fill="none" xmlns="http://www.w3.org/2000/svg"><path fill-rule="evenodd" clip-rule="evenodd" d="M70 140c38.66 0 70-31.34 70-70S108.66 0 70 0 0 31.34 0 70s31.34 70 70 70zm-.93-104.91c-.655.203-1.492 1.1-1.68 1.799-.326 1.208.16 2.5 1.176 3.128.43.265.79.328 2.442.426 8.072.478 14.48 3.276 19.887 8.681 4.576 4.574 7.379 10.11 8.39 16.574.325 2.075.325 6.554 0 8.63-1.011 6.462-3.814 11.999-8.39 16.572-4.575 4.574-10.114 7.376-16.579 8.387-1.063.167-2.333.236-4.316.236-4.955 0-9.069-.95-13.29-3.073-5.508-2.768-10.388-7.646-13.157-13.152-1.883-3.743-2.852-7.544-3.134-12.291-.104-1.76-.15-2.002-.468-2.483-.554-.836-1.228-1.183-2.3-1.183-.748 0-.995.063-1.456.368-.305.202-.702.602-.88.89-.306.49-.325.645-.312 2.51.036 5.244 1.513 10.722 4.246 15.752 4.712 8.668 13.3 15.169 22.88 17.318 2.98.669 4.44.821 7.871.821s4.892-.152 7.87-.821c12.912-2.896 23.411-13.392 26.309-26.299.669-2.978.821-4.438.821-7.868 0-4.379-.454-7.266-1.756-11.155-4.6-13.743-17.386-23.346-31.742-23.84-1.172-.04-2.166-.01-2.432.073zm-12.32 2.45c-2.382.986-2.693 1.166-3.148 1.823-.914 1.317-.394 3.201 1.092 3.959.89.454 1.733.311 4.099-.693 2.281-.968 2.602-1.178 3.009-1.976.922-1.807-.385-3.935-2.409-3.923-.533.004-1.157.195-2.642.81zm-9.11 5.679c-.276.099-.739.367-1.027.595-.798.632-3.004 2.954-3.239 3.41-1.15 2.221 1.142 4.769 3.43 3.813.661-.276 3.8-3.383 4.15-4.11.52-1.07.23-2.333-.73-3.174-.776-.682-1.658-.864-2.584-.534zm-7.855 10.138c-.524.232-1.081.755-1.342 1.26-.113.218-.55 1.24-.973 2.271-.573 1.4-.768 2.046-.768 2.547 0 2.002 2.134 3.297 3.928 2.382.798-.407 1.009-.727 1.977-3.008 1-2.353 1.147-3.21.7-4.08-.151-.296-.42-.674-.598-.84-.727-.677-2.052-.918-2.924-.532zm24.235 6.261c-.444.202-.902.763-.98 1.2-.036.195-.05 4.464-.032 9.488.03 9.03.034 9.138.257 9.438.425.571.78.756 1.453.756h.621l7.175-4.487c3.946-2.469 7.331-4.651 7.523-4.851a1.66 1.66 0 000-2.3c-.192-.199-3.573-2.377-7.513-4.84-6.32-3.952-7.222-4.483-7.667-4.517-.28-.022-.652.028-.837.113zm7.323 7.813c2.21 1.39 4.017 2.551 4.017 2.581 0 .045-6.898 4.419-8.452 5.36l-.418.254V64.398l.418.253c.23.14 2.226 1.39 4.435 2.78z" fill="#033452"/></svg>