<svg width="67" height="50" fill="none" xmlns="http://www.w3.org/2000/svg"><g opacity=".94" fill="#fff"><path opacity=".94" d="M13.689 25.694a4.364 4.364 0 00.013 6.162 4.38 4.38 0 006.182-.013c7.466-7.509 19.663-7.547 27.18-.078a4.365 4.365 0 006.157-6.188c-10.94-10.862-28.67-10.81-39.532.117z"/><path opacity=".94" d="M65.546 13.175C47.776-4.468 18.938-4.378 1.272 13.37a4.352 4.352 0 00.013 6.162 4.365 4.365 0 006.17-.013c14.27-14.344 37.561-14.409 51.922-.155a4.365 4.365 0 006.17-.013c1.71-1.722 1.71-4.48 0-6.175zm-37.95 21.93c-3.344 3.367-3.331 8.83.039 12.17s8.84 3.327 12.183-.039c3.344-3.366 3.331-8.83-.038-12.17-3.37-3.34-8.827-3.327-12.184.04z"/></g></svg>