<svg width="140" height="140" fill="none" xmlns="http://www.w3.org/2000/svg"><path fill-rule="evenodd" clip-rule="evenodd" d="M71.23.423a2 2 0 00-2.46 0l-20.415 15.93a2 2 0 01-.985.408l-25.698 3.17a2 2 0 00-1.74 1.74l-3.171 25.7a2 2 0 01-.409.985L.423 68.77a2 2 0 000 2.46l15.93 20.415c.222.285.363.626.408.985l3.17 25.699a2 2 0 001.74 1.74l25.699 3.171c.36.044.7.185.985.408l20.414 15.93a2.001 2.001 0 002.46 0l20.415-15.93c.285-.223.626-.364.985-.408l25.698-3.171a2 2 0 001.74-1.74l3.171-25.699c.045-.36.186-.7.409-.985l15.929-20.414a2.001 2.001 0 000-2.461l-15.929-20.414a2.005 2.005 0 01-.409-.985l-3.171-25.7a1.999 1.999 0 00-1.74-1.74l-25.698-3.17a2 2 0 01-.985-.408L71.23.423zm6.117 72.296c13.927-2.95 16.892-3.505 17.734-3.317 2.241.502 3.753 2.45 3.68 4.742-.048 1.537-.72 2.742-2.016 3.617-.872.588-38.426 8.631-39.896 8.544-1.177-.07-2.741-.974-3.48-2.012-.371-.523-1.525-4.306-3.428-11.245-2.62-9.548-2.846-10.547-2.602-11.484.89-3.408 4.944-4.596 7.628-2.234.916.807.948.896 3.173 8.806 1.236 4.395 2.3 8.022 2.366 8.059.065.037 7.643-1.527 16.84-3.476z" fill="#033452"/></svg>