<svg width="261" height="214" fill="none" xmlns="http://www.w3.org/2000/svg"><path d="M108.221 213.72C48.968 213.72.509 166.019.225 107.404.083 78.76 11.138 51.797 31.355 31.485 51.572 11.174 78.465 0 107.11 0c71.587 0 127.455 62.45 148.145 89.318 7.978 10.345 7.955 24.81-.047 35.178-19.412 25.165-71.848 84.229-139.387 88.964-2.509.165-5.066.26-7.599.26z" fill="#02142A"/><path d="M19.944 164.883A737.408 737.408 0 0135.711 116.4a854.014 854.014 0 01-33.522-8.262c.237 20.927 6.747 40.434 17.755 56.745z" fill="#02142A"/><path d="M5.765 79.518a105.102 105.102 0 00-3.599 27.863c0 .236.024.473.024.734a910.75 910.75 0 0033.521 8.261 824.619 824.619 0 0112.215-31.65 843.21 843.21 0 01-42.161-5.208zM98.68 128.118c-3.337 27.437-4.332 55.206-3.077 82.903 4.143.497 8.357.781 12.641.781 2.486 0 4.995-.094 7.457-.26 56.555-3.953 102.481-46.565 126.911-74.688-48.127 1.302-96.325-1.705-143.931-8.736z" fill="#02142A"/><path d="M242.613 136.83a314.132 314.132 0 0011.103-13.517c7.457-9.683 7.481-23.176.047-32.835a303.936 303.936 0 00-5.421-6.818c-47.63 4.853-95.497 6.676-143.15 4.924a470.28 470.28 0 00-6.487 39.511c47.583 7.054 95.781 10.061 143.908 8.735zM131.635 4.403c-7.931-1.586-16.122-2.485-24.526-2.485-7.196 0-14.25.733-21.14 2.13C72.144 29.994 59.314 56.981 47.927 84.75a906.718 906.718 0 0057.217 3.86c6.037-28.882 14.772-57.147 26.491-84.206z" fill="#02142A"/><path d="M105.144 88.608a940.937 940.937 0 01-57.218-3.859A809.001 809.001 0 0035.711 116.4a858.274 858.274 0 0062.97 11.718c1.61-13.28 3.74-26.466 6.463-39.51z" fill="#02142A"/><path d="M35.71 116.377c-5.8 15.979-11.078 32.148-15.766 48.482 16.832 24.951 44.174 42.398 75.636 46.139-1.255-27.698-.26-55.466 3.077-82.903-21.116-3.101-42.114-7.031-62.946-11.718z" fill="#0D396D"/><path d="M96.007 16.69c-49.95 0-90.431 40.623-90.17 90.62.26 52.128 45.593 93.106 97.603 89.46 57.715-4.024 102.741-53.974 120.993-77.647 5.563-7.221 5.61-17.282.023-24.526-19.009-24.62-67.184-77.907-128.45-77.907z" fill="#093F7A"/><path d="M97 198.948c-51.086 0-92.869-41.096-93.105-91.615-.119-24.69 9.398-47.937 26.821-65.432 17.423-17.494 40.6-27.13 65.29-27.13 62.568 0 111.737 55.04 129.965 78.69 6.084 7.907 6.084 18.962-.024 26.869-17.115 22.182-63.277 74.262-122.389 78.381-2.178.166-4.38.237-6.557.237z" fill="#02142A"/><path d="M96.007 16.69c-49.95 0-90.431 40.623-90.17 90.62.26 52.128 45.593 93.106 97.603 89.46 57.715-4.024 102.741-53.974 120.993-77.647 5.563-7.221 5.61-17.282.023-24.526-19.009-24.62-67.184-77.907-128.45-77.907z" fill="#093F7A"/><path d="M145.72 163.06c-4.498 0-8.144-3.646-8.144-8.12 0-1.918.71-3.811 2.012-5.35a65.457 65.457 0 0015.838-42.706 65.536 65.536 0 00-15.838-42.706c-1.302-1.515-2.012-3.41-2.012-5.35 0-4.475 3.646-8.12 8.144-8.12 1.751 0 3.456.568 4.876 1.657 21.945 16.618 39.25 36.077 49.903 49.5a8.076 8.076 0 010 10.061c-10.653 13.399-27.958 32.858-49.903 49.477-1.42 1.065-3.125 1.657-4.876 1.657z" fill="#02142A"/><path d="M139.494 58.828c0 1.515.568 2.935 1.563 4.071 10.155 11.813 16.31 27.177 16.31 43.985s-6.155 32.172-16.31 43.984c-.971 1.137-1.563 2.581-1.563 4.072 0 5.113 5.871 8.002 9.943 4.924 21.732-16.476 38.942-35.793 49.571-49.145 1.776-2.249 1.776-5.421 0-7.646-10.629-13.376-27.816-32.693-49.548-49.146-4.095-3.124-9.966-.213-9.966 4.9z" fill="#0D396D"/><path d="M161.889 125.562h22.442a302.264 302.264 0 0014.795-17.258 2.278 2.278 0 000-2.841c-6.794-8.546-16.381-19.624-28.123-30.798h-14.322c5.018 9.919 7.717 20.927 7.717 32.195a72.873 72.873 0 01-2.509 18.702z" fill="#02142A"/><path d="M89.922 166.563c-32.906 0-59.68-26.774-59.68-59.679 0-32.906 26.774-59.68 59.68-59.68 32.905 0 59.679 26.774 59.679 59.68 0 32.905-26.774 59.679-59.68 59.679z" fill="#0D396D"/><path d="M89.82 162.642c30.83 0 55.822-24.992 55.822-55.821 0-30.829-24.992-55.82-55.821-55.82C58.99 51 34 75.991 34 106.82s24.992 55.821 55.82 55.821z" fill="#0A2240"/><path d="M74.608 124.768c-2.976 0-5.616-.688-7.92-2.064-2.272-1.376-4.064-3.376-5.376-6-1.28-2.624-1.92-5.792-1.92-9.504 0-3.712.64-6.88 1.92-9.504 1.312-2.624 3.104-4.624 5.376-6 2.304-1.376 4.944-2.064 7.92-2.064s5.6.688 7.872 2.064c2.304 1.376 4.096 3.376 5.376 6 1.312 2.624 1.968 5.792 1.968 9.504 0 3.712-.656 6.88-1.968 9.504-1.28 2.624-3.072 4.624-5.376 6-2.272 1.376-4.896 2.064-7.872 2.064zm0-9.072c.736 0 1.392-.256 1.968-.768.576-.512 1.024-1.392 1.344-2.64.352-1.248.528-2.944.528-5.088 0-2.176-.176-3.872-.528-5.088-.32-1.248-.768-2.128-1.344-2.64-.576-.512-1.232-.768-1.968-.768s-1.392.256-1.968.768c-.576.512-1.04 1.392-1.392 2.64-.32 1.216-.48 2.912-.48 5.088 0 2.144.16 3.84.48 5.088.352 1.248.816 2.128 1.392 2.64s1.232.768 1.968.768zm29.118 9.072c-2.304 0-4.64-.256-7.008-.768-2.368-.512-4.448-1.264-6.24-2.256l3.84-8.352a18.438 18.438 0 004.512 1.872c1.6.384 3.104.576 4.512.576 1.28 0 2.32-.208 3.12-.624.832-.448 1.248-1.104 1.248-1.968 0-.736-.304-1.296-.912-1.68-.608-.416-1.632-.624-3.072-.624h-4.464v-6.96l8.688-8.832 1.008 3.792H92.206V90.4h25.056v6.96l-8.688 8.832-5.424-3.072h2.976c4.224 0 7.44.944 9.648 2.832 2.208 1.888 3.312 4.32 3.312 7.296 0 1.92-.544 3.76-1.632 5.52-1.056 1.76-2.72 3.2-4.992 4.32-2.24 1.12-5.152 1.68-8.736 1.68z" fill="#3A8BE4"/></svg>