<svg width="262" height="214" fill="none" xmlns="http://www.w3.org/2000/svg"><path d="M108.597 213.72C49.344 213.72.885 166.019.601 107.404.459 78.76 11.514 51.797 31.731 31.485 51.948 11.174 78.841 0 107.485 0 179.072 0 234.94 62.45 255.63 89.318c7.978 10.345 7.954 24.81-.047 35.178-19.412 25.165-71.848 84.229-139.387 88.964-2.509.165-5.066.26-7.599.26z" fill="#0D396D"/><path d="M6.164 79.518a105.101 105.101 0 00-3.598 27.863c0 .236.023.473.023.734a910.738 910.738 0 0033.521 8.261 824.453 824.453 0 0112.216-31.65 836.404 836.404 0 01-42.162-5.208zm92.892 48.6c-3.337 27.437-4.332 55.206-3.077 82.903 4.143.497 8.357.781 12.641.781 2.486 0 4.995-.094 7.457-.26 56.532-3.953 102.481-46.565 126.911-74.688-48.103 1.302-96.325-1.705-143.931-8.736z" fill="#02142A"/><path d="M242.989 136.83a314.132 314.132 0 0011.103-13.517c7.457-9.683 7.481-23.176.047-32.835a303.936 303.936 0 00-5.421-6.818c-47.63 4.853-95.497 6.676-143.151 4.924a470.685 470.685 0 00-6.486 39.511c47.583 7.054 95.805 10.061 143.908 8.735zM132.01 4.403c-7.931-1.586-16.122-2.485-24.526-2.485-7.173 0-14.25.733-21.14 2.13C72.52 29.994 59.69 56.981 48.302 84.75a906.718 906.718 0 0057.217 3.86c6.037-28.882 14.772-57.147 26.491-84.206z" fill="#093F7A"/><path d="M105.52 88.608a940.932 940.932 0 01-57.218-3.859A809.001 809.001 0 0036.087 116.4a858.264 858.264 0 0062.97 11.718 480.21 480.21 0 016.463-39.51z" fill="#02142A"/><path d="M36.087 116.377c-5.8 15.979-11.08 32.148-15.767 48.482 16.832 24.951 44.174 42.398 75.636 46.139-1.255-27.698-.26-55.466 3.077-82.903-21.116-3.101-42.114-7.031-62.947-11.718z" fill="#04244B"/><path d="M96.382 16.69c-49.95 0-90.431 40.623-90.17 90.62.26 52.128 45.593 93.106 97.603 89.46 57.715-4.024 102.741-53.974 120.993-77.647 5.563-7.221 5.61-17.282.023-24.526-19.009-24.62-67.16-77.907-128.45-77.907z" fill="#02142A"/><path d="M97.377 198.948c-51.087 0-92.87-41.096-93.106-91.615-.119-24.69 9.398-47.937 26.821-65.432 17.424-17.494 40.6-27.13 65.29-27.13 62.568 0 111.737 55.04 129.965 78.69 6.084 7.907 6.084 18.962-.024 26.869-17.115 22.182-63.277 74.262-122.389 78.381-2.178.166-4.38.237-6.557.237z" fill="#093F7A"/><path d="M96.382 16.69c-49.95 0-90.431 40.623-90.17 90.62.26 52.128 45.593 93.106 97.603 89.46 57.715-4.024 102.741-53.974 120.993-77.647 5.563-7.221 5.61-17.282.023-24.526-19.009-24.62-67.16-77.907-128.45-77.907z" fill="#02142A"/><path d="M146.095 163.06c-4.498 0-8.144-3.646-8.144-8.12 0-1.918.71-3.811 2.012-5.35a65.457 65.457 0 0015.838-42.706 65.536 65.536 0 00-15.838-42.706c-1.302-1.515-2.012-3.41-2.012-5.35 0-4.475 3.646-8.12 8.144-8.12 1.751 0 3.456.568 4.876 1.657 21.945 16.618 39.25 36.077 49.903 49.5a8.076 8.076 0 010 10.061c-10.653 13.399-27.958 32.858-49.903 49.477-1.42 1.065-3.125 1.657-4.876 1.657z" fill="#093F7A"/><path d="M139.869 58.828c0 1.515.568 2.935 1.563 4.071 10.155 11.813 16.31 27.177 16.31 43.985s-6.155 32.172-16.31 43.984c-.971 1.137-1.563 2.581-1.563 4.072 0 5.113 5.871 8.002 9.943 4.924 21.732-16.476 38.942-35.793 49.547-49.145 1.776-2.249 1.776-5.421 0-7.646-10.629-13.376-27.815-32.693-49.547-49.146-4.072-3.124-9.943-.213-9.943 4.9z" fill="#04244B"/><path d="M162.264 125.562h22.442a302.264 302.264 0 0014.795-17.258 2.278 2.278 0 000-2.841c-6.794-8.546-16.381-19.624-28.123-30.798h-14.322c5.018 9.919 7.717 20.927 7.717 32.195a72.873 72.873 0 01-2.509 18.702zm-71.966 41.001c-32.906 0-59.68-26.774-59.68-59.679 0-32.906 26.774-59.68 59.68-59.68 32.905 0 59.679 26.774 59.679 59.68 0 32.905-26.774 59.679-59.68 59.679z" fill="#02142A"/><path d="M89.821 162.642c30.829 0 55.821-24.992 55.821-55.821 0-30.829-24.992-55.82-55.821-55.82C58.991 51 34 75.991 34 106.82s24.992 55.821 55.821 55.821z" fill="#0A2240"/><path d="M75.608 124.768c-2.976 0-5.616-.688-7.92-2.064-2.272-1.376-4.064-3.376-5.376-6-1.28-2.624-1.92-5.792-1.92-9.504 0-3.712.64-6.88 1.92-9.504 1.312-2.624 3.104-4.624 5.376-6 2.304-1.376 4.944-2.064 7.92-2.064s5.6.688 7.872 2.064c2.304 1.376 4.096 3.376 5.376 6 1.312 2.624 1.968 5.792 1.968 9.504 0 3.712-.656 6.88-1.968 9.504-1.28 2.624-3.072 4.624-5.376 6-2.272 1.376-4.896 2.064-7.872 2.064zm0-9.072c.736 0 1.392-.256 1.968-.768.576-.512 1.024-1.392 1.344-2.64.352-1.248.528-2.944.528-5.088 0-2.176-.176-3.872-.528-5.088-.32-1.248-.768-2.128-1.344-2.64-.576-.512-1.232-.768-1.968-.768s-1.392.256-1.968.768c-.576.512-1.04 1.392-1.392 2.64-.32 1.216-.48 2.912-.48 5.088 0 2.144.16 3.84.48 5.088.352 1.248.816 2.128 1.392 2.64s1.232.768 1.968.768zM93.11 124v-6.96l12.144-11.232c.768-.736 1.328-1.376 1.68-1.92.384-.544.64-1.024.768-1.44.128-.448.192-.864.192-1.248 0-.832-.272-1.472-.816-1.92-.544-.48-1.36-.72-2.448-.72-.992 0-1.936.272-2.832.816-.896.512-1.6 1.28-2.112 2.304l-8.544-4.272c1.216-2.304 3.04-4.176 5.472-5.616 2.432-1.44 5.456-2.16 9.072-2.16 2.656 0 5.008.432 7.056 1.296 2.048.864 3.648 2.08 4.8 3.648 1.152 1.568 1.728 3.424 1.728 5.568 0 1.088-.144 2.176-.432 3.264-.256 1.088-.8 2.24-1.632 3.456-.832 1.184-2.064 2.512-3.696 3.984l-9.12 8.304-1.776-3.936h17.424V124H93.11z" fill="#3A8BE4"/></svg>