<svg width="261" height="214" fill="none" xmlns="http://www.w3.org/2000/svg"><path d="M107.998 213.72C48.744 213.72.285 166.019.001 107.404-.14 78.76 10.915 51.797 31.131 31.485 51.348 11.174 78.241 0 106.885 0c71.587 0 127.456 62.45 148.146 89.318 7.978 10.345 7.954 24.81-.048 35.178-19.411 25.165-71.847 84.229-139.386 88.964-2.533.165-5.09.26-7.599.26z" fill="#02142B"/><path d="M19.697 164.883A737.408 737.408 0 0135.463 116.4a854.043 854.043 0 01-33.52-8.262c.236 20.927 6.77 40.434 17.754 56.745z" fill="#093F7A"/><path d="M5.541 79.518a105.102 105.102 0 00-3.598 27.863c0 .236.023.473.023.734a910.727 910.727 0 0033.521 8.261 824.288 824.288 0 0112.216-31.65A836.4 836.4 0 015.54 79.518z" fill="#093F7A"/><path d="M98.433 128.118c-3.337 27.437-4.332 55.206-3.077 82.903 4.143.497 8.357.781 12.641.781 2.486 0 4.995-.094 7.457-.26 56.532-3.953 102.481-46.565 126.911-74.688-48.103 1.302-96.325-1.705-143.932-8.736z" fill="#02142B"/><path d="M242.365 136.83a314.132 314.132 0 0011.103-13.517c7.457-9.683 7.481-23.176.047-32.835a303.936 303.936 0 00-5.421-6.818c-47.63 4.853-95.497 6.676-143.151 4.924a470.726 470.726 0 00-6.486 39.511c47.583 7.054 95.805 10.061 143.908 8.735zM131.386 4.403c-7.93-1.586-16.121-2.485-24.525-2.485-7.173 0-14.25.733-21.14 2.13C71.896 29.994 59.065 56.981 47.68 84.75a906.72 906.72 0 0057.217 3.86c6.037-28.882 14.772-57.147 26.49-84.206z" fill="#0D396D"/><path d="M104.92 88.608a940.94 940.94 0 01-57.217-3.859A809.001 809.001 0 0035.487 116.4a858.271 858.271 0 0062.97 11.718 461.29 461.29 0 016.463-39.51z" fill="#093F7A"/><path d="M35.464 116.377c-5.8 15.979-11.08 32.148-15.767 48.482 16.832 24.951 44.174 42.398 75.636 46.139-1.255-27.698-.26-55.466 3.077-82.903-21.116-3.101-42.114-7.031-62.946-11.718z" fill="#063259"/><path d="M95.759 16.69c-49.95 0-90.431 40.623-90.17 90.62.26 52.128 45.593 93.106 97.603 89.46 57.715-4.024 102.741-53.974 120.993-77.647 5.563-7.221 5.61-17.282.023-24.526-19.009-24.62-67.16-77.907-128.45-77.907z" fill="#1376B1"/><path d="M96.753 198.948c-51.087 0-92.87-41.096-93.106-91.615-.119-24.69 9.398-47.937 26.821-65.432 17.424-17.494 40.6-27.13 65.29-27.13 62.568 0 111.737 55.04 129.965 78.69 6.084 7.907 6.084 18.962-.024 26.869-17.115 22.182-63.277 74.262-122.389 78.381-2.178.166-4.38.237-6.557.237z" fill="#0D396D"/><path d="M95.759 16.69c-49.95 0-90.431 40.623-90.17 90.62.26 52.128 45.593 93.106 97.603 89.46 57.715-4.024 102.741-53.974 120.993-77.647 5.563-7.221 5.61-17.282.023-24.526-19.009-24.62-67.16-77.907-128.45-77.907z" fill="#04244B"/><path d="M145.472 163.06c-4.498 0-8.144-3.646-8.144-8.12 0-1.918.71-3.811 2.012-5.35a65.457 65.457 0 0015.838-42.706 65.536 65.536 0 00-15.838-42.706c-1.302-1.515-2.012-3.41-2.012-5.35 0-4.475 3.646-8.12 8.144-8.12 1.751 0 3.456.568 4.876 1.657 21.945 16.618 39.25 36.077 49.903 49.5a8.076 8.076 0 010 10.061c-10.653 13.399-27.958 32.858-49.903 49.477-1.42 1.065-3.101 1.657-4.876 1.657z" fill="#0D396D"/><path d="M139.246 58.828c0 1.515.568 2.935 1.563 4.071 10.155 11.813 16.31 27.177 16.31 43.985s-6.155 32.172-16.31 43.984c-.971 1.137-1.563 2.581-1.563 4.072 0 5.113 5.871 8.002 9.943 4.924 21.732-16.476 38.942-35.793 49.571-49.145 1.776-2.249 1.776-5.421 0-7.646-10.629-13.376-27.816-32.693-49.571-49.146-4.072-3.124-9.943-.213-9.943 4.9z" fill="#063259"/><path d="M161.641 125.562h22.442a302.264 302.264 0 0014.795-17.258 2.278 2.278 0 000-2.841c-6.794-8.546-16.381-19.624-28.123-30.798h-14.322c5.018 9.919 7.717 20.927 7.717 32.195a72.873 72.873 0 01-2.509 18.702zM148.974 113.603c3.728-32.75-19.799-62.32-52.548-66.048-32.75-3.728-62.32 19.799-66.047 52.548-3.728 32.749 19.798 62.32 52.548 66.047 32.749 3.728 62.319-19.798 66.047-52.547z" fill="#093F7A"/><path d="M110.082 159.273c28.788-11.034 43.181-43.316 32.148-72.104-11.034-28.788-43.316-43.181-72.104-32.147-28.789 11.033-43.181 43.315-32.148 72.104 11.034 28.788 43.316 43.181 72.104 32.147z" fill="#0A2240"/><path d="M79.608 124.768c-2.976 0-5.616-.688-7.92-2.064-2.272-1.376-4.064-3.376-5.376-6-1.28-2.624-1.92-5.792-1.92-9.504 0-3.712.64-6.88 1.92-9.504 1.312-2.624 3.104-4.624 5.376-6 2.304-1.376 4.944-2.064 7.92-2.064s5.6.688 7.872 2.064c2.304 1.376 4.096 3.376 5.376 6 1.312 2.624 1.968 5.792 1.968 9.504 0 3.712-.656 6.88-1.968 9.504-1.28 2.624-3.072 4.624-5.376 6-2.272 1.376-4.896 2.064-7.872 2.064zm0-9.072c.736 0 1.392-.256 1.968-.768.576-.512 1.024-1.392 1.344-2.64.352-1.248.528-2.944.528-5.088 0-2.176-.176-3.872-.528-5.088-.32-1.248-.768-2.128-1.344-2.64-.576-.512-1.232-.768-1.968-.768s-1.392.256-1.968.768c-.576.512-1.04 1.392-1.392 2.64-.32 1.216-.48 2.912-.48 5.088 0 2.144.16 3.84.48 5.088.352 1.248.816 2.128 1.392 2.64s1.232.768 1.968.768zM101.766 124V94.336l4.848 4.608H96.006V90.4h17.088V124h-11.328z" fill="#3A8BE4"/></svg>