<svg width="293" height="294" fill="none" xmlns="http://www.w3.org/2000/svg"><path d="M146.287 293.029c80.616 0 145.969-65.414 145.969-146.105C292.256 66.232 226.903.819 146.287.819 65.67.82.317 66.232.317 146.924c0 80.691 65.353 146.105 145.97 146.105z" fill="url(#paint0_linear_50_13684)"/><g opacity=".4"><path opacity=".4" d="M177.02 172.359c0 .591 0 .591 0 0-1.182.591-1.182.591-1.182 0 0 0 .591-.592 1.182 0 0-.592 0 0 0 0zm.591 0c0-.592-.591-1.183-1.182-1.183s-1.182.591-1.182 1.183c0 .591.591 1.183 1.182 1.183s1.182-.592 1.182-1.183zm-2.364-53.237s-.591.592 0 0c6.501 7.69 10.638 17.154 10.638 27.802 0 9.464-3.546 18.337-8.865 24.843h.591c5.91-7.098 9.455-15.379 9.455-25.435-.59-10.056-4.727-20.111-11.819-27.21zm0 0s-.591.592 0 0c-1.182.592-1.182.592-1.182 0 0-.591 0-.591 1.182 0-.591-.591 0-.591 0 0zm.591 0c0-.591-.591-1.183-1.182-1.183s-1.182.592-1.182 1.183c0 .592.591 1.183 1.182 1.183s1.182-.591 1.182-1.183zm-2.364 57.378c0 .591 0 .591 0 0-1.182.591-1.182.591-1.182 0 0-.592 0-.592 1.182 0 0-.592 0-.592 0 0zm.591 0c0-.592-.591-1.184-1.182-1.184s-1.182.592-1.182 1.184c0 .591.591 1.183 1.182 1.183s1.182-.592 1.182-1.183zm-2.955-60.927c0 .592 0 .592 0 0-1.182.592-1.182.592-1.182 0 0 0 .591-.591 1.182 0 0-.591 0 0 0 0zm.591 0c0-.591-.591-1.183-1.182-1.183s-1.182.592-1.182 1.183c0 .592.591 1.183 1.182 1.183s1.182-.591 1.182-1.183zm.591 61.518c-7.091 5.915-15.956 9.464-26.002 9.464-13.593 0-25.412-6.506-32.504-17.154 0 0 .591 0 .591-.591 7.092 10.056 18.911 16.562 31.913 16.562 10.046 1.183 18.911-2.957 26.002-8.281zm-57.915-8.281c0 .591-.591.591 0 0-1.182.591-1.182.591-1.182 0 0 0 0-.592 1.182 0-.591-.592 0 0 0 0zm.591 0c0-.592-.591-1.183-1.182-1.183s-1.181.591-1.181 1.183c0 .591.59 1.183 1.181 1.183.591 0 1.182-.592 1.182-1.183zm-4.136-5.915s-.591.591 0 0c-1.182.591-1.182.591-1.182 0 0-.592 0-.592 1.182 0-.591-.592 0-.592 0 0zm.591 0c0-.592-.591-1.183-1.182-1.183s-1.182.591-1.182 1.183c0 .591.591 1.183 1.182 1.183s1.182-.592 1.182-1.183zm58.505-47.913c-6.5-4.732-14.774-7.69-23.638-7.69-21.866 0-39.595 17.745-39.595 39.632 0 5.323 1.182 10.647 2.955 15.379h.591c-1.773-4.732-2.955-9.464-2.955-14.788 0-21.886 17.729-39.631 39.595-39.631 8.273-.592 16.547 2.366 23.047 7.098z" fill="url(#paint1_linear_50_13684)"/><path opacity=".4" d="M188.838 122.08c.591 0 .591.591.591 1.183 0 .591-.591.591-1.182.591s-.591-.591-.591-1.183c.591-.591 1.182-.591 1.182-.591zm.591-.592c-.591 0-1.773 0-1.773.592 0 .591 0 1.774.591 1.774s1.773 0 1.773-.591c.591-.592 0-1.183-.591-1.775zm-62.642-19.52s0 .592.591.592c11.228-4.732 24.229-5.915 36.049-1.183 11.228 4.14 19.502 11.83 24.82 21.294l.591-.591c-5.318-9.464-14.183-17.154-25.411-21.295-12.411-4.732-25.412-3.549-36.64 1.183zm-.591 0c.591 0 .591.592.591 1.183 0 .592-.591.592-1.182.592s-.591-.592-.591-1.183c.591-.592 1.182-.592 1.182-.592zm.591-.591c-.591 0-1.773 0-1.773.591 0 .592 0 1.775.591 1.775s1.773 0 1.773-.592c.591-.591 0-1.774-.591-1.774zm65.006 26.618c.591 0 .591.591.591 1.183 0 .592-.591.592-1.182.592s-.591-.592-.591-1.183c.591 0 1.182-.592 1.182-.592zm.591-.592c-.591 0-1.773 0-1.773.592s0 1.775.591 1.775 1.773 0 1.773-.592c.591-.592 0-1.183-.591-1.775zm-71.507-22.477c.591 0 .591.591.591 1.183 0 .591-.591.591-1.182.591s-.591-.591-.591-1.183c.591-.591.591-.591 1.182-.591zm0-.592c-.591 0-1.773 0-1.773.592 0 .591 0 1.774.591 1.774s1.773 0 1.773-.591c.591-.592.591-1.775-.591-1.775zm71.507 25.436c4.137 10.647 4.137 22.477 0 33.716-5.91 15.379-18.32 26.618-33.094 30.167v-.591c14.774-4.141 27.184-14.788 33.094-30.167 4.137-11.239 3.546-23.07 0-33.717-.591.592 0 .592 0 .592zm-34.276 63.883c.591 0 .591.592.591 1.183 0 .592-.591.592-1.182.592s-.591-.592-.591-1.183c.591-.592 1.182-.592 1.182-.592zm.591-.591c-.591 0-1.773 0-1.773.591 0 .592 0 1.775.591 1.775s1.773 0 1.773-.592c.591-.591 0-1.774-.591-1.774zm-8.865 1.774c.591 0 .591.592.591 1.183 0 .592-.591.592-1.182.592s-.591-.591-.591-1.183c0-.592.591-.592 1.182-.592zm0-.591c-.591 0-1.773 0-1.773.591 0 .592 0 1.775.591 1.775s1.773 0 1.773-.592c.591-.591 0-1.183-.591-1.774zm-30.139-88.136c-8.274 5.324-15.365 13.605-18.911 24.252-9.456 25.435 3.546 53.828 28.957 63.292 6.501 2.366 12.411 2.958 18.911 2.958v-.592c-5.909 0-12.41-.591-18.32-2.957-24.82-9.464-37.822-37.266-28.957-62.109 3.546-10.648 10.046-18.929 18.32-24.844z" fill="url(#paint2_linear_50_13684)"/><path opacity=".4" d="M129.149 203.119c-.591 0-1.182 0-1.182-.592 0-.591 0-1.183.591-1.183s1.182 0 1.182.592c0 0 0 .591-.591 1.183zm.591.591c.591-.591 1.182-1.183 1.182-2.366-.591-.591-1.182-1.183-2.364-1.183-.591.592-1.182 1.183-1.182 2.366.591 1.183 1.182 1.183 2.364 1.183zm70.326-33.716s-.591 0-.591-.592c-5.91 13.014-16.548 24.252-30.731 30.168-13.001 5.915-26.593 5.915-39.004 2.366v.591c12.411 3.549 26.003 3.549 39.004-1.774 14.774-5.916 25.412-17.154 31.322-30.759zm0 0c-.591 0-1.182 0-1.182-.592 0-.591 0-1.183.591-1.183s1.181 0 1.181.592c0 .591 0 .591-.59 1.183zm.59.591c.591-.591 1.182-1.183 1.182-2.366-.591-.591-1.181-1.183-2.363-1.183-.591.592-1.182 1.183-1.182 2.366.591 1.183 1.182 1.775 2.363 1.183zm-78.598 29.576c-.591 0-1.182 0-1.182-.591 0-.592 0-1.183.591-1.183s1.182 0 1.182.591c0 .592-.591.592-.591 1.183zm0 .592c.591-.592 1.182-1.183 1.182-2.366-.591-.592-1.182-1.184-2.364-1.184-.591.592-1.182 1.183-1.182 2.367.591 1.183 1.773 1.774 2.364 1.183zm80.371-37.858c-.591 0-1.182 0-1.182-.591 0-.592 0-1.183.591-1.183s1.182 0 1.182.591c.591.592 0 1.183-.591 1.183zm.591.592c.591-.592 1.182-1.183 1.182-2.366-.591-.592-1.182-1.183-2.364-1.183-1.182 1.183-1.182 1.774-1.182 2.957.591.592 1.773 1.183 2.364.592zm-82.735 35.491c-11.82-5.915-21.866-15.971-27.776-29.576-7.682-18.337-5.318-37.857 4.728-53.236l.591.591c-9.456 15.38-11.82 34.9-4.728 52.645 5.319 13.014 15.365 23.069 27.185 28.985v.591zm-21.866-83.404c-.591 0-1.182 0-1.182-.591 0-.592 0-1.183.591-1.183s1.182-.001 1.182.591 0 1.183-.591 1.183zm.591 1.183c.59-.591 1.182-1.183 1.182-2.366-.591-.592-1.182-1.183-2.364-1.183-.59.592-1.182 1.183-1.182 2.366.591 1.183 1.182 1.183 2.364 1.183zm5.91-9.464c-.591 0-1.182 0-1.182-.592 0-.591 0-1.183.591-1.183s1.182 0 1.182.592c0 .591 0 1.183-.591 1.183zm.591 1.183c.591-.592 1.182-1.183 1.182-2.366-.591-.592-1.773-1.183-2.364-1.183-.591.591-1.182 1.183-1.182 2.366.591 1.183 1.182 1.183 2.364 1.183zm97.509 52.645c2.955-11.83 2.364-24.252-2.954-36.674-12.411-29.576-46.687-43.773-76.235-31.35-7.092 2.957-13.593 7.689-18.911 12.421l.591.592c5.318-5.324 11.228-9.465 18.32-12.422 28.957-12.422 63.233 1.775 75.053 30.759 4.727 11.83 5.318 24.252 2.363 36.082 1.182 0 1.182 0 1.773.592z" fill="url(#paint3_linear_50_13684)"/><path opacity=".4" d="M213.657 140.417c.591.591.591 1.183 0 1.183-.591.591-1.182.591-1.182 0-.591-.592-.591-1.183 0-1.183h1.182zm1.182-.592c-.591-.591-1.773-.591-2.955 0-.591.592-.591 1.775 0 2.958.591.591 1.773.591 2.955 0 .591-1.183.591-2.366 0-2.958zm-67.37-60.335v1.184c16.547 0 33.094 6.506 46.095 18.928 11.229 11.239 17.729 26.027 18.911 40.815h1.182c-1.773-14.788-7.682-29.576-19.502-41.407-13.001-13.013-30.139-19.52-46.686-19.52zm-.591 0c.591.592.591 1.184 0 1.184s-1.182.591-1.182 0c-.591-.592-.591-1.184 0-1.184.591-.591 1.182-.591 1.182 0zm.591-1.183c-.591-.591-1.773-.591-2.955 0-.591.592-.591 1.775 0 2.958.591.591 1.773.591 2.955 0 1.182-.591 1.182-1.775 0-2.958zm66.779 71.574c.591.592.591 1.183 0 1.183-.591.592-1.182.592-1.182 0-.591-.591-.591-1.183 0-1.183 0-.592.591-.592 1.182 0zm.591-.592c-.591-.591-1.773-.591-2.955 0-.591.592-.591 1.775 0 2.958.591.592 1.773.592 2.955 0 .591-1.183.591-2.366 0-2.958zM138.604 79.49c.591.592.591 1.184 0 1.184-.591.591-1.182.591-1.182 0 0-.592-.591-1.184 0-1.184h1.182zm.591-.591c-.591-.592-1.773-.592-2.955 0-.591.591-.591 1.775 0 2.957.591.592 1.773.592 2.955 0 .591-.591.591-1.774 0-2.957zm74.462 72.757c-1.182 15.379-7.682 30.758-19.502 42.589-15.956 15.971-38.413 22.477-59.097 18.928v-1.183c20.684 3.549 42.55-2.366 58.506-18.928 11.82-11.831 17.729-26.618 18.911-41.998.591.592 1.182.592 1.182.592zm-79.189 60.334c.59.592.59 1.183 0 1.183-.591.592-1.182.592-1.182 0-.591-.591-.591-1.183 0-1.183h1.182zm.59-.591c-.59-.592-1.772-.592-2.954 0-.591.591-.591 1.774 0 2.957.591.592 1.773.592 2.954 0 1.182-1.183 1.182-2.366 0-2.957zm-12.41-2.958c.591.592.591 1.183 0 1.183-.591.592-1.182.592-1.182 0-.591-.591-.591-1.183 0-1.183h1.182zm.591-.591c-.591-.592-1.773-.592-2.955 0-.591.591-.591 1.774 0 2.957.591.592 1.773.592 2.955 0 1.182-.591 1.182-1.774 0-2.957zM136.24 80.082c-13.592 2.366-27.184 8.281-37.822 18.928-26.002 26.619-26.002 69.208.591 95.235 6.501 6.506 14.184 11.239 21.866 14.196 0-.591 0-.591.591-1.183-7.682-2.957-15.365-7.69-21.275-14.196-26.002-26.027-26.002-68.025-.59-94.052 10.637-10.647 23.638-16.562 37.23-18.928-.591.592-.591.592-.591 0z" fill="url(#paint4_linear_50_13684)"/><path opacity=".4" d="M213.658 109.067c.591 0 .591.591.591 1.183 0 .591-.591.591-1.182.591s-.591-.591-.591-1.183c0-.591.591-.591 1.182-.591zm0-1.183c-1.182-.592-2.364 0-2.955 1.183-.591 1.183 0 2.366 1.182 2.957 1.182.592 2.364 0 2.955-1.183.591-1.183 0-2.366-1.182-2.957zm-97.51-31.35s.591.591.591 1.182c17.138-7.69 37.822-8.28 56.733-1.183 17.138 6.507 30.139 18.338 39.004 33.125 0-.591.591-.591.591-.591-8.274-14.788-21.866-27.21-39.004-33.717-19.502-7.69-40.186-6.506-57.915 1.183zm-.591 0c.591 0 .591.591.591 1.182 0 .592-.591.592-1.182.592s-.591-.592-.591-1.183c0-.592.591-1.183 1.182-.592zm.591-1.184c-1.182-.591-2.364 0-2.955 1.183-.591 1.183 0 2.367 1.182 2.958 1.182.591 2.364 0 2.955-1.183.591-1.183 0-2.366-1.182-2.958zm101.647 43.181c.591 0 .591.592.591 1.183 0 .592-.591.592-1.182.592s-.591-.592-.591-1.183c0-.592.591-.592 1.182-.592zm.591-1.183c-1.182-.591-2.364 0-2.955 1.183-.591 1.183 0 2.366 1.182 2.958 1.182.591 2.364 0 2.955-1.183.59-1.183 0-2.366-1.182-2.958zM107.284 80.674c.591 0 .591.592.591 1.183 0 .592-.591.592-1.182.592s-.591-.592-.591-1.183c0 0 .591-.592 1.182-.592zm0-.592c-1.182-.591-2.364 0-2.955 1.184-.591 1.183 0 2.366 1.182 2.957 1.182.592 2.364 0 2.955-1.183.59-1.183 0-2.958-1.182-2.958zm111.102 40.815c5.909 16.563 6.5 35.491-.591 53.237-8.865 24.252-29.549 40.814-52.597 46.73 0-.592 0-.592-.591-1.183 23.048-5.916 43.141-22.478 52.006-46.139 6.5-17.745 6.5-36.082 0-52.645 1.182.592 1.773 0 1.773 0zm-54.369 99.375c.59 0 .59.592.59 1.183 0 .592-.591.592-1.181.592-.591 0-.591-.592-.591-1.183 0-.592.591-1.183 1.182-.592zm.59-1.183c-1.181-.591-2.363 0-2.954 1.183-.591 1.183 0 2.366 1.182 2.958 1.182.591 2.363 0 2.954-1.183.591-1.183 0-2.366-1.182-2.958zm-14.183 2.958c.591 0 .591.591.591 1.183 0 .591-.591.591-1.182.591s-.591-.591-.591-1.183c0-.591.591-.591 1.182-.591zm.591-1.183c-1.182-.592-2.364 0-2.955 1.183-.591 1.183 0 2.366 1.182 2.957 1.182.592 2.364 0 2.955-1.183.591-1.183 0-2.366-1.182-2.957zM104.92 82.449c-13.593 8.872-24.23 21.294-30.14 37.265-14.774 39.632 5.319 83.996 44.323 98.784 9.455 3.549 19.502 5.323 29.548 4.732v-1.183c-9.455.591-19.502-1.183-28.957-4.732-39.004-14.788-58.506-58.561-43.732-97.601 5.91-15.971 16.547-28.393 30.14-36.674-.591 0-.591 0-1.182-.591z" fill="url(#paint5_linear_50_13684)"/><path opacity=".4" d="M109.056 224.412c-.591 0-1.182 0-1.773-1.183 0-.591 0-1.183 1.182-1.774.591 0 1.182 0 1.773 1.183 0 1.183-.591 1.774-1.182 1.774zm.591 1.183c1.182-.591 2.364-1.774 1.773-2.957-.591-1.183-1.773-2.367-2.955-1.775-1.182.592-2.364 1.775-1.773 2.958 0 1.774 1.773 2.366 2.955 1.774zm109.92-33.716c-.591 0-.591-.592-1.182-.592-11.228 18.337-28.957 31.942-50.823 37.857-20.093 5.324-39.595 2.366-56.733-5.915 0 .592 0 .592-.591 1.183 17.138 8.281 37.822 10.647 57.324 5.915 22.457-5.915 40.777-20.111 52.005-38.448zm.591 0c-.591 0-1.182 0-1.773-1.183 0-.592 0-1.183 1.182-1.775.591 0 1.182 0 1.773 1.183-.591 1.183-.591 1.775-1.182 1.775zm0 1.183c1.182-.592 2.364-1.775 1.773-2.958-.591-1.183-1.773-2.366-2.955-1.774-1.182.591-2.364 1.774-1.773 2.957.591 1.183 1.773 2.366 2.955 1.775zM99.01 219.088c-.592 0-1.183 0-1.773-1.183 0-.591 0-1.183 1.181-1.774.591 0 1.182 0 1.773 1.183 0 .591-.59 1.183-1.181 1.774zm.59 1.183c1.182-.591 2.364-1.774 1.773-2.957-.591-1.183-1.773-2.366-2.955-1.775-1.181.592-2.363 1.775-1.772 2.958 0 1.183 1.181 1.774 2.954 1.774zm125.286-37.857c-.591 0-1.182 0-1.773-1.183 0-.591 0-1.183 1.182-1.774.591 0 1.182 0 1.773 1.183 0 .591-.591 1.183-1.182 1.774zm.591 1.183c1.182-.591 2.364-1.774 1.773-2.957-.591-1.183-1.773-2.366-2.955-1.775-1.182.592-2.364 1.775-1.773 2.958 0 1.183 1.182 1.774 2.955 1.774zm-128.24 33.717C81.28 206.075 68.87 188.921 63.55 168.218c-7.091-27.801.591-56.194 18.32-76.897 0 .591.591.591 1.182.591-17.138 20.112-24.82 48.505-17.729 75.714 5.319 20.112 17.138 37.266 33.686 48.505-1.773 0-1.773.591-1.773 1.183zM83.053 91.321c-.59 0-1.182 0-1.773-1.183 0-.592 0-1.183 1.182-1.775.591 0 1.182 0 1.773 1.183 0 .592 0 1.183-1.182 1.775zm.591 1.183c1.182-.592 2.364-1.775 1.773-2.958-.59-1.183-1.773-2.366-2.955-1.774-1.182.591-2.364 1.774-1.773 2.957 0 1.183 1.773 1.775 2.955 1.775zm11.229-11.83c-.591 0-1.182 0-1.773-1.184 0-.591 0-1.183 1.182-1.774.59 0 1.182 0 1.773 1.183-.591.591-.591 1.774-1.182 1.774zm0 1.182c1.182-.591 2.364-1.774 1.773-2.957-.591-1.183-1.773-2.366-2.955-1.775-1.182.592-2.364 1.775-1.773 2.958.59 1.183 1.773 1.774 2.955 1.774zm131.195 97.601c6.5-16.563 8.864-34.9 4.136-53.828-12.41-45.547-59.096-73.94-104.601-62.11-11.228 2.958-21.275 7.69-30.14 14.197.592 0 .592.591.592 1.183 8.864-6.507 18.911-11.239 29.548-14.197 45.505-11.238 91.6 15.971 102.828 61.518 4.728 18.337 2.955 36.674-4.136 53.237h1.773z" fill="url(#paint6_linear_50_13684)"/><path opacity=".4" d="M198.883 226.78c0 .591-1.182 1.183-1.773 1.183s-1.182-1.183-1.182-1.775c0-.591 1.182-1.183 1.773-1.183s1.773.592 1.182 1.775zm1.773 0c.591-1.183-.591-2.958-1.773-3.549-1.182-.592-2.955.591-3.546 1.774-.591 1.183.591 2.958 1.773 3.549 1.182.592 2.955 0 3.546-1.774zm30.139-123.627c-.591.591-.591.591-1.182.591 10.638 20.703 13.593 45.547 6.501 69.799-6.501 21.886-20.093 39.04-37.822 50.871.591 0 .591.591 1.182 1.183 17.729-11.831 31.912-29.576 38.413-51.462 7.091-24.252 4.137-49.688-7.092-70.982zm0-.592c0 .592-1.182 1.183-1.773 1.183s-1.182-1.183-1.182-1.774c0-.592 1.182-1.183 1.773-1.183 1.182.591 1.773 1.183 1.182 1.774zm1.182.592c.591-1.183-.591-2.958-1.773-3.55-1.182-.59-2.955.592-3.546 1.775-.591 1.183.591 2.958 1.773 3.549 1.773.592 3.546-.591 3.546-1.774zm-44.322 129.542c0 .592-1.182 1.183-1.773 1.183s-1.182-1.183-1.182-1.775c0-.591 1.182-1.183 1.773-1.183s1.772 1.183 1.182 1.775zm1.772.591c.591-1.183-.591-2.957-1.772-3.549-1.182-.591-2.955.592-3.546 1.775-.591 1.183.591 2.958 1.773 3.549 1.182.592 2.954 0 3.545-1.775zm35.458-140.78c0 .59-1.181 1.182-1.772 1.182s-1.182-1.183-1.182-1.774c0-.592 1.182-1.183 1.773-1.183s1.181 1.183 1.181 1.774zm1.182 0c.591-1.184-.591-2.958-1.772-3.55-1.182-.591-2.955.592-3.546 1.775-.591 1.183.591 2.957 1.773 3.549 1.182.591 2.954 0 3.545-1.775zM184.7 233.877c-20.093 8.873-43.141 11.239-65.598 4.141-30.73-8.873-53.187-32.534-62.642-60.927.59 0 .59 0 1.181-.591 9.456 27.801 31.322 51.462 62.052 60.335 22.457 6.506 44.914 4.732 65.007-4.141v1.183zm-127.058-58.56c0 .591-1.182 1.183-1.773 1.183s-1.182-1.183-1.182-1.775c0-.591 1.182-1.183 1.773-1.183 1.181 0 1.181 1.183 1.181 1.775zm1.181.591c.591-1.183-.59-2.957-1.772-3.549-1.182-.591-2.955.592-3.546 1.775-.591 1.183.59 2.957 1.773 3.549 1.773 0 2.955-.592 3.546-1.775zm-4.727-17.154c0 .592-1.182 1.183-1.773 1.183s-1.182-1.183-1.182-1.774c0-.592 1.182-1.183 1.773-1.183.59 0 1.182.591 1.182 1.774zm1.182 0c.59-1.183-.591-2.957-1.773-3.549-1.182-.591-2.955.592-3.546 1.775-.591 1.183.59 2.957 1.773 3.549 1.773.591 2.955 0 3.546-1.775zm167.244-68.616c-11.82-15.97-28.367-28.392-48.46-34.308-50.232-14.788-103.42 13.605-118.193 63.884-3.546 12.422-4.728 24.844-3.546 36.674h1.182c-1.182-11.83 0-24.252 3.546-36.082 14.774-49.688 67.37-78.08 116.42-63.293 20.093 5.915 36.64 18.337 48.46 33.717 0 0 0-.592.591-.592z" fill="url(#paint7_linear_50_13684)"/><path opacity=".4" d="M250.889 143.375c.591.592.591 1.775 0 2.366-.591.592-1.773.592-2.364 0-.59-.591-.59-1.774 0-2.366 1.182-.591 1.773-.591 2.364 0zm1.182-.591c-1.182-1.183-2.955-1.183-4.136 0-1.182 1.183-1.182 2.957 0 4.14 1.181 1.183 2.954 1.183 4.136 0s1.182-2.957 0-4.14zm-98.1-99.967V44c25.411 1.775 50.823 13.605 69.143 34.308 16.547 18.337 24.821 41.406 25.411 64.476.591 0 1.182-.592 1.182 0-.591-23.661-9.455-46.73-26.002-65.067-18.32-21.295-43.141-32.534-69.734-34.9zm0 0c.591.592.591 1.775 0 2.366-.591.592-1.773.592-2.364 0-.591-.591-.591-1.774 0-2.366.591-1.183 1.773-.591 2.364 0zm1.182-1.183c-1.182-1.183-2.955-1.183-4.137 0-1.182 1.183-1.182 2.958 0 4.14 1.182 1.184 2.955 1.184 4.137 0 .591-1.182.591-2.957 0-4.14zm95.145 115.938c.591.591.591 1.774 0 2.366-.591.591-1.773.591-2.363 0-.591-.592-.591-1.775 0-2.366 1.181-.592 1.772-.592 2.363 0zm1.182-.592c-1.182-1.183-2.954-1.183-4.136 0s-1.182 2.958 0 4.141c1.182 1.183 2.954 1.183 4.136 0s1.182-2.958 0-4.141zM140.378 42.817c.591.592.591 1.775 0 2.366-.591.592-1.773.592-2.364 0-.59-.591-.59-1.774 0-2.366 1.182-1.183 1.773-1.183 2.364 0zm1.182-1.183c-1.182-1.183-2.955-1.183-4.136 0-1.182 1.183-1.182 2.958 0 4.14 1.181 1.184 2.954 1.184 4.136 0 1.182-1.182 1.182-2.957 0-4.14zm108.147 119.487c-2.954 23.66-14.774 46.729-33.685 63.883-26.002 23.661-60.869 30.759-92.782 23.661v-1.183c31.322 7.69 66.189 0 91.6-23.069 18.911-17.154 30.14-39.632 33.095-63.292h1.772zm-127.649 85.178c.591.592.591 1.775 0 2.366-.591.592-1.773.592-2.364 0-.59-.591-.59-1.774 0-2.366.591-.591 1.773-.591 2.364 0zm.591-1.183c-1.182-1.183-2.955-1.183-4.136 0-1.182 1.183-1.182 2.958 0 4.141 1.181 1.183 2.954 1.183 4.136 0 1.182-.592 1.182-2.958 0-4.141zm-18.32-5.324c.591.592.591 1.775 0 2.366-.591.592-1.773.592-2.364 0-.591-.591-.591-1.774 0-2.366.591-.591 1.773-.591 2.364 0zm.591-.591c-1.182-1.183-2.955-1.183-4.137 0-1.181 1.183-1.181 2.957 0 4.141 1.182 1.183 2.955 1.183 4.137 0 1.182-1.184 1.182-2.958 0-4.141zm31.913-195.792c-21.275 1.774-42.55 10.647-59.688 26.026-43.14 38.449-46.687 104.107-8.274 147.288 9.456 10.648 20.684 18.929 32.503 24.252 0-.591 0-1.183.591-1.183-11.819-5.915-22.456-13.605-31.912-24.252-37.822-42.589-33.685-107.656 8.274-145.513 17.138-15.38 37.822-23.66 59.687-25.435l-1.181-1.183z" fill="url(#paint8_linear_50_13684)"/></g><path d="M146.287 268.185c-66.779 0-121.148-54.42-121.148-121.261 0-66.842 54.369-121.261 121.148-121.261 66.78 0 121.149 54.42 121.149 121.261s-54.369 121.261-121.149 121.261zm0-239.565c-65.006 0-118.193 53.237-118.193 118.304 0 65.067 53.187 118.303 118.193 118.303 65.007 0 118.194-53.236 118.194-118.303 0-65.067-52.596-118.304-118.194-118.304z" fill="url(#paint9_linear_50_13684)"/><path d="M146.287 265.819c-65.598 0-118.785-53.236-118.785-118.895 0-65.658 53.187-118.895 118.785-118.895 65.597 0 118.784 53.237 118.784 118.895 0 65.659-53.187 118.895-118.784 118.895zm0-233.65c-63.234 0-114.648 51.463-114.648 114.755 0 63.293 51.414 114.755 114.648 114.755 63.233 0 114.648-51.462 114.648-114.755 0-63.292-51.415-114.754-114.648-114.754z" fill="url(#paint10_linear_50_13684)"/><path d="M146.289 267.002c-66.188 0-119.966-53.828-119.966-120.078S80.1 26.846 146.288 26.846c66.189 0 119.967 53.828 119.967 120.078s-53.778 120.078-119.967 120.078zm0-236.015c-63.824 0-115.83 52.053-115.83 115.937s52.005 115.937 115.83 115.937c63.825 0 115.83-52.053 115.83-115.937S210.114 30.987 146.289 30.987z" fill="url(#paint11_linear_50_13684)"/><path d="M146.288 290.663c-79.19 0-143.605-64.476-143.605-143.739C2.683 67.66 67.1 3.185 146.288 3.185c79.19 0 143.606 64.475 143.606 143.739.591 79.263-64.416 143.739-143.606 143.739zm0-279.788c-75.053 0-135.922 60.926-135.922 136.049s60.87 136.049 135.922 136.049c75.053 0 135.923-60.926 135.923-136.049s-60.87-136.05-135.923-136.05z" fill="url(#paint12_linear_50_13684)"/><path d="M146.287 293.029C65.915 293.029.317 227.37.317 146.924.317 66.477 65.915.819 146.287.819c80.371 0 145.969 65.659 145.969 146.105.591 80.446-65.007 146.105-145.969 146.105zm0-284.52C70.052 8.509 8 70.619 8 146.924c0 76.306 62.052 138.415 138.287 138.415 76.234 0 138.286-62.109 138.286-138.415 0-76.306-62.052-138.415-138.286-138.415z" fill="url(#paint13_linear_50_13684)"/><g filter="url(#filter0_d_50_13684)" stroke-width="2"><path d="M118.45 143.518h0c2.136 1.234 4.81-.307 4.81-2.781v-7.456a3.214 3.214 0 00-1.604-2.781l-3.206 13.018zm0 0l-27.792-16.06s0 0 0 0a3.212 3.212 0 01-1.604-2.781v-7.456c0-2.472 2.673-4.015 4.81-2.781 0 0 0 0 0 0l27.792 16.06-3.206 13.018zm3.416 10.82h.001c.933.539 1.544 1.534 1.648 2.655v.001c.632 6.834 2.445 12.34 5.516 16.433 3.086 4.113 7.386 6.724 12.83 7.849 1.108.229 2.053.894 2.563 1.84l.001.001a87.35 87.35 0 0014.799 19.911 3.496 3.496 0 01.906 3.419c-.314 1.091-1.164 1.939-2.461 2.069a95.37 95.37 0 01-9.455.451c-18.84 0-33.376-4.969-43.746-14.78-10.235-9.802-15.414-23.742-15.414-41.968v-11.283c0-2.474 2.672-4.015 4.81-2.781 0 0 0 0 0 0l28.002 16.183zm-3.416-34.535h0l-27.792-16.06a3.211 3.211 0 01-1.604-2.781V87.7a3.208 3.208 0 013.207-3.211h27.792a3.21 3.21 0 013.207 3.21v29.323c0 2.474-2.675 4.016-4.81 2.781z" fill="url(#paint14_linear_50_13684)" stroke="url(#paint15_linear_50_13684)"/><path d="M188.148 171.413c-2.781-5.039-4.126-11.812-4.126-20.237v-21.641a3.214 3.214 0 00-1.604-2.781l5.73 44.659zm0 0c2.802 5.076 7.032 8.337 12.639 9.739 1.758.44 3.024 1.875 3.024 3.5v20.985c0 1.824-1.498 3.242-3.242 3.103-14.28-1.144-25.563-5.997-33.939-14.498-9.547-9.8-14.386-23.752-14.386-42.003v-37.361c0-2.474 2.672-4.015 4.81-2.781 0 0 0 0 0 0l25.363 14.657 5.731 44.659zm-4.126-58.236c0 2.473-2.673 4.015-4.81 2.78l-25.364-14.656a3.214 3.214 0 01-1.604-2.781V87.7a3.208 3.208 0 013.207-3.211h25.364a3.208 3.208 0 013.207 3.21v25.478z" fill="url(#paint16_linear_50_13684)" stroke="url(#paint17_linear_50_13684)"/></g><defs><linearGradient id="paint0_linear_50_13684" x1="-45.709" y1="12.321" x2="301.631" y2="255.132" gradientUnits="userSpaceOnUse"><stop offset=".185" stop-color="#D9D06C"/><stop offset=".351" stop-color="#D3BA4E"/><stop offset=".712" stop-color="#C38402"/><stop offset=".723" stop-color="#C28200"/></linearGradient><linearGradient id="paint1_linear_50_13684" x1="24.069" y1="49.026" x2="385.023" y2="335.4" gradientUnits="userSpaceOnUse"><stop offset=".185" stop-color="#EEE795"/><stop offset=".329" stop-color="#E7D377"/><stop offset=".642" stop-color="#D5A12B"/><stop offset=".723" stop-color="#D09317"/></linearGradient><linearGradient id="paint2_linear_50_13684" x1="23.766" y1="49.407" x2="384.721" y2="335.782" gradientUnits="userSpaceOnUse"><stop offset=".185" stop-color="#EEE795"/><stop offset=".329" stop-color="#E7D377"/><stop offset=".642" stop-color="#D5A12B"/><stop offset=".723" stop-color="#D09317"/></linearGradient><linearGradient id="paint3_linear_50_13684" x1="23.788" y1="49.379" x2="384.742" y2="335.753" gradientUnits="userSpaceOnUse"><stop offset=".185" stop-color="#EEE795"/><stop offset=".329" stop-color="#E7D377"/><stop offset=".642" stop-color="#D5A12B"/><stop offset=".723" stop-color="#D09317"/></linearGradient><linearGradient id="paint4_linear_50_13684" x1="23.779" y1="49.388" x2="384.733" y2="335.762" gradientUnits="userSpaceOnUse"><stop offset=".185" stop-color="#EEE795"/><stop offset=".329" stop-color="#E7D377"/><stop offset=".642" stop-color="#D5A12B"/><stop offset=".723" stop-color="#D09317"/></linearGradient><linearGradient id="paint5_linear_50_13684" x1="23.758" y1="49.416" x2="384.713" y2="335.791" gradientUnits="userSpaceOnUse"><stop offset=".185" stop-color="#EEE795"/><stop offset=".329" stop-color="#E7D377"/><stop offset=".642" stop-color="#D5A12B"/><stop offset=".723" stop-color="#D09317"/></linearGradient><linearGradient id="paint6_linear_50_13684" x1="23.253" y1="50.051" x2="384.207" y2="336.425" gradientUnits="userSpaceOnUse"><stop offset=".185" stop-color="#EEE795"/><stop offset=".329" stop-color="#E7D377"/><stop offset=".642" stop-color="#D5A12B"/><stop offset=".723" stop-color="#D09317"/></linearGradient><linearGradient id="paint7_linear_50_13684" x1="23.77" y1="49.4" x2="384.725" y2="335.775" gradientUnits="userSpaceOnUse"><stop offset=".185" stop-color="#EEE795"/><stop offset=".329" stop-color="#E7D377"/><stop offset=".642" stop-color="#D5A12B"/><stop offset=".723" stop-color="#D09317"/></linearGradient><linearGradient id="paint8_linear_50_13684" x1="23.783" y1="49.386" x2="384.737" y2="335.76" gradientUnits="userSpaceOnUse"><stop offset=".185" stop-color="#EEE795"/><stop offset=".329" stop-color="#E7D377"/><stop offset=".642" stop-color="#D5A12B"/><stop offset=".723" stop-color="#D09317"/></linearGradient><linearGradient id="paint9_linear_50_13684" x1="45.315" y1="74.789" x2="247.172" y2="218.453" gradientUnits="userSpaceOnUse"><stop offset=".22" stop-color="#FFEECF"/><stop offset="1" stop-color="#4F4328"/></linearGradient><linearGradient id="paint10_linear_50_13684" x1="50.032" y1="71.472" x2="244.11" y2="223.017" gradientUnits="userSpaceOnUse"><stop stop-color="#4F4328"/><stop offset=".78" stop-color="#FFE1A8"/></linearGradient><linearGradient id="paint11_linear_50_13684" x1="22.436" y1="31.158" x2="366.824" y2="351.951" gradientUnits="userSpaceOnUse"><stop offset=".284" stop-color="#EEE795"/><stop offset=".367" stop-color="#E7D377"/><stop offset=".549" stop-color="#D5A12B"/><stop offset=".596" stop-color="#D09317"/><stop offset=".867" stop-color="#F2D473"/><stop offset=".871" stop-color="#F3D574"/><stop offset="1" stop-color="#FCF7BD"/></linearGradient><linearGradient id="paint12_linear_50_13684" x1="44.111" y1="39.304" x2="247.132" y2="252.33" gradientUnits="userSpaceOnUse"><stop stop-color="#4F4328"/><stop offset=".78" stop-color="#FFEECF"/></linearGradient><linearGradient id="paint13_linear_50_13684" x1="22.433" y1="31.158" x2="366.822" y2="351.951" gradientUnits="userSpaceOnUse"><stop offset=".284" stop-color="#EEE795"/><stop offset=".367" stop-color="#E7D377"/><stop offset=".549" stop-color="#D5A12B"/><stop offset=".596" stop-color="#D09317"/><stop offset=".867" stop-color="#F2D473"/><stop offset=".871" stop-color="#F3D574"/><stop offset="1" stop-color="#FCF7BD"/></linearGradient><linearGradient id="paint14_linear_50_13684" x1="68.411" y1="60.633" x2="213.292" y2="129.202" gradientUnits="userSpaceOnUse"><stop offset=".006" stop-color="#FFC816"/><stop offset=".066" stop-color="#FBCF32"/><stop offset=".231" stop-color="#F2E079"/><stop offset=".307" stop-color="#EEE795"/><stop offset=".41" stop-color="#E7D377"/><stop offset=".632" stop-color="#D5A12B"/><stop offset=".689" stop-color="#D09317"/><stop offset=".995" stop-color="#F2D473"/><stop offset="1" stop-color="#F3D574"/></linearGradient><linearGradient id="paint15_linear_50_13684" x1="124.657" y1="83.489" x2="124.657" y2="209.967" gradientUnits="userSpaceOnUse"><stop stop-color="#C28201"/><stop offset="1" stop-color="#D7C760"/></linearGradient><linearGradient id="paint16_linear_50_13684" x1="136.871" y1="60.672" x2="252.692" y2="100.852" gradientUnits="userSpaceOnUse"><stop offset=".006" stop-color="#FFC816"/><stop offset=".066" stop-color="#FBCF32"/><stop offset=".231" stop-color="#F2E079"/><stop offset=".307" stop-color="#EEE795"/><stop offset=".41" stop-color="#E7D377"/><stop offset=".632" stop-color="#D5A12B"/><stop offset=".689" stop-color="#D09317"/><stop offset=".995" stop-color="#F2D473"/><stop offset="1" stop-color="#F3D574"/></linearGradient><linearGradient id="paint17_linear_50_13684" x1="178.027" y1="83.489" x2="178.027" y2="209.749" gradientUnits="userSpaceOnUse"><stop stop-color="#C28201"/><stop offset="1" stop-color="#D7C760"/></linearGradient><filter id="filter0_d_50_13684" x="88.054" y="83.489" width="126.757" height="136.478" filterUnits="userSpaceOnUse" color-interpolation-filters="sRGB"><feFlood flood-opacity="0" result="BackgroundImageFix"/><feColorMatrix in="SourceAlpha" values="0 0 0 0 0 0 0 0 0 0 0 0 0 0 0 0 0 0 127 0" result="hardAlpha"/><feOffset dx="5" dy="5"/><feGaussianBlur stdDeviation="2.5"/><feComposite in2="hardAlpha" operator="out"/><feColorMatrix values="0 0 0 0 0 0 0 0 0 0 0 0 0 0 0 0 0 0 0.3 0"/><feBlend in2="BackgroundImageFix" result="effect1_dropShadow_50_13684"/><feBlend in="SourceGraphic" in2="effect1_dropShadow_50_13684" result="shape"/></filter></defs></svg>