<svg width="140" height="164" fill="none" xmlns="http://www.w3.org/2000/svg"><path fill-rule="evenodd" clip-rule="evenodd" d="M29.295 113.085c.329 0 .65-.038.956-.11l-.09.11 8.748 12.11a11665.172 11665.172 0 00-26.371 19.175l.002.003a9.81 9.81 0 00-2.732-.385c-5.417 0-9.808 4.391-9.808 9.808s4.391 9.808 9.808 9.808 9.808-4.391 9.808-9.808v-.108l.175.231c9.094-5.803 18.21-11.606 27.303-17.386l-.085-.126 7.474 10.345a4.179 4.179 0 104.82-1.229c-.457-4.034-.536-9.587 1.148-15.832a40.777 40.777 0 012.035-5.781 116.67 116.67 0 01-7.665-5.261 121.54 121.54 0 01-7.794-6.3 33.884 33.884 0 01-6.452-.845 34.63 34.63 0 01-7.08-2.446l-.025.029a4.179 4.179 0 10-4.175 3.998zm101.177 50.105a9.527 9.527 0 009.527-9.527c0-5.261-4.265-9.526-9.527-9.526a9.503 9.503 0 00-3.227.56l-25.027-20.091-.001.001 7.881-10.548-.003-.004a3.746 3.746 0 10-3.137-3.697v.023l-.021-.025a41.786 41.786 0 01-16.303 4.482 41.694 41.694 0 01-14.21-1.578c.294-.592.46-1.262.46-1.973 0-2.391-1.881-4.33-4.2-4.33-2.32 0-4.201 1.939-4.201 4.33 0 2.392 1.88 4.331 4.2 4.331 1.488 0 2.795-.798 3.541-2a48.93 48.93 0 015.468 12.912c1.92 7.303 1.77 13.687 1.265 18.066a3.746 3.746 0 103.808.69l7.145-9.562-.007.011 27.042 17.927v.001a9.527 9.527 0 009.527 9.527z" fill="#033452"/><path fill-rule="evenodd" clip-rule="evenodd" d="M29.295 113.085c.329 0 .649-.038.956-.11l-.09.11 8.748 12.11a11687.859 11687.859 0 00-26.371 19.175l.002.003a9.808 9.808 0 00-2.732-.385c-5.417 0-9.808 4.391-9.808 9.808s4.391 9.808 9.808 9.808 9.808-4.391 9.808-9.808V153.688l.175.231c9.093-5.803 18.209-11.606 27.302-17.386l-.084-.126 7.474 10.345a4.179 4.179 0 104.82-1.229c-.458-4.034-.536-9.587 1.148-15.832a40.79 40.79 0 012.035-5.781 116.67 116.67 0 01-7.665-5.261 121.51 121.51 0 01-7.794-6.3 33.885 33.885 0 01-6.453-.845 34.629 34.629 0 01-7.08-2.446l-.024.029a4.179 4.179 0 10-4.175 3.998zm101.177 50.105a9.527 9.527 0 10-3.227-18.493l-25.028-20.091-.001.001 7.882-10.548-.004-.005a3.746 3.746 0 10-3.136-3.696v.024l-.021-.026a41.79 41.79 0 01-16.304 4.482 41.693 41.693 0 01-14.21-1.578c.294-.592.46-1.262.46-1.973 0-2.391-1.88-4.33-4.2-4.33-2.32 0-4.2 1.939-4.2 4.33 0 2.392 1.88 4.331 4.2 4.331 1.487 0 2.794-.798 3.54-2a48.946 48.946 0 015.468 12.912c1.92 7.303 1.77 13.687 1.265 18.066a3.746 3.746 0 103.808.69l7.147-9.564-.008.013 27.042 17.927v.001a9.527 9.527 0 009.527 9.527z" fill="#033452"/><path fill-rule="evenodd" clip-rule="evenodd" d="M80.132 111.18a11.09 11.09 0 00-.037-.207l.037.207zm-3.03-5.088c2.215 1.583 2.822 3.998 2.993 4.881l-.006-.031c.433-.324.931-.649 1.494-.952 2.858-1.516 5.76-1.321 7.318-1.083-13.056-7.751-35.443-24.011-44.126-51.682A74.777 74.777 0 0142.35 47.2c-4.98-1.494-14.181-5.023-22.517-13.424C6.842 20.7 4.872 4.828 4.46 0c-3.14 11.475-6.409 30.788.022 52.353 6.69 22.41 20.482 36.05 32.022 47.46 14.659 14.485 29.338 23.341 39.406 28.515a21.53 21.53 0 01-2.057-5.456c-.346-1.45-.476-2.771-.54-3.897-.889-.087-3.14-.39-4.873-2.165-2.511-2.555-3.334-7.513-.41-10.35 2.446-2.36 6.473-2.208 9.071-.368zM20.43 69.776c9.84 16.04 21.72 26.198 29.631 31.95a302.82 302.82 0 01-28.46-37.659A298.761 298.761 0 017.792 40.191a110.635 110.635 0 0012.638 29.585z" fill="#033452"/><path fill-rule="evenodd" clip-rule="evenodd" d="M95.83 63.006c-6.365 15.719-17.868 25.748-23.952 30.23a60.346 60.346 0 007.21 6.864 59.771 59.771 0 0013.36 8.076c5.824-3.941 47.378-33.219 47.551-78.297.044-10.956-2.338-20.634-5.413-28.58.065 3.81-.238 16.412-9.31 28.363-9.202 12.104-21.456 15.74-25.116 16.672-.606 4.763-1.818 10.5-4.33 16.672zm15.294 18.517a98.317 98.317 0 01-19.943 17.334 280.456 280.456 0 0027.313-35.534 279.772 279.772 0 0014.956-26c-2.297 10.075-7.847 27.69-22.326 44.2z" fill="#033452"/></svg>