<svg width="72" height="67" fill="none" xmlns="http://www.w3.org/2000/svg"><path d="M36.314.71l-1.805 3.943c-1.243.04-2.474.147-3.663.334l-2.66-3.528c-.308-.415-.896-.588-1.445-.441l-2.807.788c-.548.147-.923.602-.91 1.096l.068 4.277a27.872 27.872 0 00-3.29 1.63l-4.037-2.298a1.425 1.425 0 00-1.55.12l-2.3 1.751c-.455.348-.602.896-.374 1.363l1.965 3.943c-.856.869-1.618 1.791-2.353 2.754L6.246 15.8c-.574-.08-1.163.2-1.443.695l-1.418 2.513c-.28.494-.173 1.07.268 1.417l3.69 2.953A25.102 25.102 0 006.34 26.84l-5.027 1.297c-.588.147-1.03.641-1.083 1.203l-.227 2.913c-.04.575.32 1.07.896 1.23l4.92 1.323c.107 1.23.307 2.446.588 3.636l-4.252 3.194c-.508.374-.708 1.016-.494 1.564l1.11 2.82c.213.548.802.869 1.43.788l5.334-.735a30.015 30.015 0 002.206 3.181l-2.607 4.678c-.307.562-.214 1.243.24 1.658l2.354 2.165c.454.428 1.163.481 1.724.147l4.706-2.833c1.11.748 2.3 1.403 3.53 2.005l-.361 5.413c-.04.641.347 1.23.962 1.43l3.169 1.029c.615.2 1.297-.027 1.671-.575l3.128-4.544c1.35.227 2.728.36 4.131.414l2.06 5.106c.24.601.868.976 1.51.909l3.356-.348a1.42 1.42 0 001.27-1.203l.855-5.386a32.02 32.02 0 003.931-1.243l4.038 3.769c.48.454 1.19.535 1.75.214l2.835-1.657c.548-.321.802-.963.615-1.591l-1.55-5.172a29.18 29.18 0 002.927-2.66l5.147 1.804c.615.214 1.27.013 1.618-.481l1.765-2.566c.334-.495.28-1.163-.134-1.644l-3.53-4.01a24.856 24.856 0 001.404-3.502l5.241-.334c.615-.04 1.096-.468 1.19-1.043l.441-2.927c.08-.561-.24-1.136-.816-1.403l-4.759-2.272c0-.602.027-1.203-.013-1.818s-.134-1.203-.214-1.804l4.398-2.22a1.13 1.13 0 00.588-1.349l-.855-2.767c-.16-.534-.695-.922-1.284-.962l-5.066-.307a26.767 26.767 0 00-1.725-3.168l2.874-3.529c.335-.414.308-.989-.067-1.416l-1.898-2.166a1.44 1.44 0 00-1.524-.4l-4.559 1.51a29.616 29.616 0 00-2.888-2.232l1.03-4.197c.12-.495-.147-1.003-.655-1.257l-2.607-1.296c-.508-.254-1.123-.187-1.525.16L46.154 6.35a31.543 31.543 0 00-3.542-.989l-.896-4.183c-.107-.481-.562-.855-1.137-.909L37.664.002c-.602-.027-1.136.254-1.35.708zm17.22 30.073c.36 9.37-7.648 17.242-17.902 17.242-10.254 0-18.262-7.873-17.915-17.242.348-9.009 8.356-16.052 17.901-16.052 9.546.013 17.554 7.057 17.915 16.052z" fill="#A0F2FE"/></svg>