<svg width="82" height="80" fill="none" xmlns="http://www.w3.org/2000/svg"><path d="M44.689 79.774l5.949-1.056a2.597 2.597 0 002.139-2.312l.802-8.635a32.336 32.336 0 006.056-3.502l8.009 3.53c1.07.467 2.312.186 3.048-.696l3.73-4.531a2.526 2.526 0 00.08-3.074l-5.027-7.017a30.043 30.043 0 002.233-6.376l8.182-2.272c1.096-.307 1.818-1.283 1.778-2.379l-.187-5.667c-.04-1.096-.816-2.058-1.925-2.352l-8.223-2.232a30.59 30.59 0 00-2.473-6.162l4.559-6.643c.602-.882.508-2.045-.227-2.86l-3.797-4.17c-.735-.802-1.939-1.07-2.941-.628L58.9 13.974a32.822 32.822 0 00-5.869-3.207L52.121 3c-.12-1.03-.962-1.871-2.045-2.045L44.475.034c-1.083-.174-2.166.334-2.647 1.27l-3.623 7.03a33.674 33.674 0 00-6.631 1.083l-5.883-5.44c-.789-.722-1.992-.87-2.954-.348L17.75 6.316c-.976.52-1.47 1.59-1.217 2.606l1.885 7.659c-1.657 1.497-3.182 3.14-4.492 4.945l-8.329-.575c-1.123-.08-2.179.561-2.593 1.577L.85 27.741c-.414 1.016-.093 2.165.802 2.793l6.712 4.772a30.428 30.428 0 00-.281 3.341 31.027 31.027 0 00.107 3.355l-7.06 4.852c-.948.655-1.363 1.831-1.002 2.887l1.845 5.44c.361 1.07 1.404 1.737 2.567 1.657l8.596-.615a31.431 31.431 0 004.426 5.28l-2.3 8.34a2.565 2.565 0 001.163 2.887l5.16 2.994c1.003.588 2.287.428 3.143-.388l6.323-6.054a33.184 33.184 0 006.952 1.203l3.81 7.859c.562 1.042 1.712 1.63 2.875 1.43zm-4.372-54.786c7.78 0 14.158 6.068 14.238 13.633.08 7.658-6.31 13.94-14.265 13.94-7.954 0-14.331-6.282-14.238-13.94.094-7.565 6.484-13.633 14.265-13.633z" fill="#144662"/></svg>