<svg width="240" height="192" fill="none" xmlns="http://www.w3.org/2000/svg"><path d="M175.192 156.213l-19.653 32.184c.12-.2.174-.454.12-.748l19.653-32.185c.054.308 0 .548-.12.749z" fill="#A0F2FE"/><path d="M155.673 187.649l19.653-32.185v.013l-19.653 32.185v-.013zM155.673 187.675l19.653-32.184c.04.294 0 .534-.121.735l-19.652 32.185a1.2 1.2 0 00.12-.736zM19.722 105.008l19.652-32.184c.107-.187.294-.334.548-.428L20.27 104.581c-.254.093-.428.24-.548.427z" fill="#A0F2FE"/><path d="M19.722 105.009l19.652-32.185c.027-.04.04-.067.067-.093l-19.653 32.184c-.013.027-.04.054-.066.094zM19.802 104.902l19.653-32.185c.04-.04.08-.093.12-.133l-19.653 32.184c-.053.054-.094.094-.12.134zM19.922 104.781l19.652-32.184a.73.73 0 00.12-.094l-19.652 32.185a.697.697 0 00-.12.093z" fill="#A0F2FE"/><path d="M20.042 104.688l19.653-32.185c.04-.027.08-.04.12-.067l-19.653 32.185c-.053.027-.093.053-.12.067z" fill="#A0F2FE"/><path d="M20.15 104.621l19.652-32.185c.04-.013.08-.04.107-.053l-19.653 32.185a.274.274 0 01-.107.053zM154.31 178.106l19.652-32.185 1.351 9.543-19.64 32.185-1.363-9.543zM20.27 104.581l19.653-32.185 9.385-3.074-19.652 32.185-9.386 3.074zM211.196 158.512l-19.653 32.184c.267-.454.16-1.136-.388-1.938l19.653-32.185c.548.802.668 1.484.388 1.939z" fill="#A0F2FE"/><path d="M191.155 188.758l19.653-32.185c.013.014.027.041.04.054l-19.653 32.185a.176.176 0 00-.04-.054zM191.195 188.812l19.653-32.185c.027.04.053.094.08.134l-19.652 32.184c-.014-.04-.054-.093-.081-.133zM191.289 188.945l19.653-32.184c.026.053.053.093.08.133l-19.653 32.185c-.026-.04-.053-.08-.08-.134zM191.369 189.092l19.653-32.184c.027.053.053.093.08.147l-19.653 32.184a1.41 1.41 0 00-.08-.147z" fill="#A0F2FE"/><path d="M191.436 189.226l19.652-32.184c.027.053.054.106.067.147l-19.653 32.184c-.013-.04-.04-.093-.066-.147zM191.517 189.387l19.652-32.185c.027.053.04.107.067.16l-19.653 32.185c-.026-.053-.04-.107-.066-.16zM191.583 189.547l19.653-32.185c.026.067.04.121.053.187l-19.653 32.185c-.013-.067-.04-.12-.053-.187zM191.637 189.734l19.652-32.185c.027.08.041.147.041.227l-19.653 32.185c-.014-.08-.027-.16-.04-.227z" fill="#A0F2FE"/><path d="M191.677 189.948l19.652-32.185c.04.281 0 .535-.133.735l-19.653 32.185c.134-.187.174-.441.134-.735zM1.781 74.16l19.653-32.184a1.22 1.22 0 01.548-.441c.348-.134.816-.174 1.377-.107L3.706 73.612c-.574-.08-1.042-.04-1.377.107-.254.107-.44.254-.548.441z" fill="#A0F2FE"/><path d="M1.781 74.16l19.653-32.184c.027-.04.04-.067.067-.107L1.848 74.054c-.027.04-.053.08-.067.106zM1.848 74.067L21.5 41.882a.635.635 0 01.134-.133L1.981 73.933a.633.633 0 00-.133.134zM1.981 73.933L21.634 41.75c.04-.027.08-.067.12-.094L2.102 73.84c-.054.04-.094.066-.12.093z" fill="#A0F2FE"/><path d="M2.102 73.84l19.652-32.185c.04-.027.08-.04.12-.067L2.223 73.786c-.054.014-.094.04-.12.054zM2.223 73.786l19.652-32.185c.04-.013.08-.04.12-.053L2.344 73.732c-.054.014-.094.027-.12.054z" fill="#A0F2FE"/><path d="M2.33 73.733l19.652-32.185.12-.04L2.45 73.692l-.12.04z" fill="#A0F2FE"/><path d="M2.45 73.692l19.652-32.184a.39.39 0 01.12-.027L2.57 73.666a.39.39 0 00-.12.026z" fill="#A0F2FE"/><path d="M2.57 73.652l19.653-32.184c.04-.014.08-.014.12-.027L2.691 73.626a.39.39 0 01-.12.026z" fill="#A0F2FE"/><path d="M2.69 73.626L22.343 41.44c.04-.013.08-.013.12-.013L2.811 73.612c-.04 0-.08.014-.12.014z" fill="#A0F2FE"/><path d="M2.81 73.612l19.653-32.184c.04 0 .08-.014.12-.014L2.931 73.6c-.04 0-.08.013-.12.013z" fill="#A0F2FE"/><path d="M2.93 73.599l19.653-32.185c.04 0 .08 0 .12-.013L3.052 73.586c-.04.013-.08.013-.12.013zM3.05 73.599l19.653-32.185h.134L3.184 73.6a.227.227 0 00-.133 0z" fill="#A0F2FE"/><path d="M3.185 73.586L22.837 41.4h.134L3.318 73.586c-.04.013-.093 0-.133 0zM3.318 73.599l19.653-32.185c.04 0 .094 0 .134.014L3.452 73.612c-.04-.013-.094-.013-.134-.013z" fill="#A0F2FE"/><path d="M3.452 73.599l19.653-32.185c.053 0 .093.014.147.014L3.599 73.612c-.04 0-.093 0-.147-.013zM3.6 73.612l19.652-32.184c.04 0 .067.013.107.013L3.707 73.626c-.027 0-.067 0-.107-.014z" fill="#A0F2FE"/><path d="M183.428 177.317l7.727 11.441 19.653-32.184-7.728-11.441-19.652 32.184z" fill="#86E1FE"/><path d="M3.719 73.626l19.64-32.185 13.756 1.791-19.653 32.185L3.72 73.626zM233.736 147.618l-19.653 32.185c.441-.722-.147-1.991-1.551-3.208l19.653-32.184c1.404 1.229 1.992 2.486 1.551 3.207z" fill="#A0F2FE"/><path d="M212.532 176.595l19.653-32.184c.027.026.053.04.08.066l-19.653 32.185c-.026-.027-.053-.04-.08-.067z" fill="#A0F2FE"/><path d="M212.612 176.662l19.653-32.185c.04.027.08.067.107.094l-19.653 32.185c-.04-.027-.067-.054-.107-.094zM212.72 176.755l19.652-32.184c.04.04.081.067.121.107l-19.653 32.184a.77.77 0 01-.12-.107zM212.84 176.876l19.652-32.185a.822.822 0 00.121.107l-19.653 32.185c-.04-.04-.08-.08-.12-.107z" fill="#A0F2FE"/><path d="M212.946 176.983l19.653-32.185.12.121-19.652 32.184-.121-.12z" fill="#A0F2FE"/><path d="M213.066 177.103l19.653-32.184c.04.04.08.08.107.12l-19.653 32.185c-.04-.04-.066-.081-.107-.121z" fill="#A0F2FE"/><path d="M213.174 177.21l19.652-32.184c.041.04.067.08.107.12l-19.652 32.185a.893.893 0 00-.107-.121z" fill="#A0F2FE"/><path d="M213.281 177.331l19.653-32.185c.04.04.067.08.107.12l-19.653 32.185c-.04-.04-.067-.08-.107-.12z" fill="#A0F2FE"/><path d="M213.388 177.451l19.652-32.185c.027.04.067.081.094.121l-19.653 32.184c-.026-.04-.067-.08-.093-.12z" fill="#A0F2FE"/><path d="M213.481 177.571l19.653-32.185c.027.04.067.08.094.121l-19.653 32.184c-.027-.04-.053-.08-.094-.12zM213.575 177.691l19.653-32.184c.027.04.067.08.093.12l-19.652 32.185c-.027-.027-.067-.067-.094-.121zM213.669 177.825l19.653-32.185.08.121-19.653 32.184-.08-.12z" fill="#A0F2FE"/><path d="M213.749 177.945l19.653-32.185c.026.041.053.081.08.134l-19.653 32.185a1.129 1.129 0 00-.08-.134zM213.829 178.079l19.653-32.185c.027.04.053.094.08.134l-19.653 32.185c-.026-.054-.053-.094-.08-.134z" fill="#A0F2FE"/><path d="M213.909 178.213l19.653-32.185c.027.04.053.093.067.133l-19.653 32.185a.593.593 0 00-.067-.133z" fill="#A0F2FE"/><path d="M213.976 178.346l19.652-32.184c.027.053.054.093.067.147l-19.653 32.184c-.013-.053-.04-.093-.066-.147zM214.057 178.493l19.652-32.184c.027.053.04.107.067.16l-19.653 32.185c-.026-.054-.053-.107-.066-.161z" fill="#A0F2FE"/><path d="M214.109 178.654l19.653-32.185c.027.067.04.12.054.187l-19.653 32.185a1.013 1.013 0 00-.054-.187zM214.177 178.841l19.652-32.185c.014.08.041.147.041.214l-19.653 32.185c-.014-.067-.027-.147-.04-.214z" fill="#A0F2FE"/><path d="M214.217 179.055l19.652-32.185c.04.294 0 .548-.133.762l-19.653 32.184c.134-.213.174-.467.134-.761zM1.768 49.42L21.42 17.237c.12-.187.308-.334.548-.428.669-.267 1.765-.16 3.035.348L5.351 49.34c-1.257-.494-2.353-.601-3.035-.347-.24.093-.428.24-.548.428z" fill="#A0F2FE"/><path d="M1.768 49.42L21.42 17.237c.027-.04.04-.067.067-.093L1.834 49.327c-.013.027-.04.054-.066.094zM1.848 49.314L21.5 17.129c.04-.04.08-.094.12-.134L1.969 49.18c-.04.053-.08.094-.12.134zM1.968 49.194L21.62 17.008c.04-.027.08-.067.12-.094L2.089 49.1c-.04.027-.08.067-.12.093z" fill="#A0F2FE"/><path d="M2.088 49.1L21.74 16.915c.04-.026.08-.04.12-.067L2.208 49.033a.545.545 0 01-.12.067zM2.209 49.033l19.653-32.185c.04-.013.08-.04.107-.053L2.316 48.979a.4.4 0 01-.107.054zM2.33 48.993l19.652-32.185.12-.04L2.45 48.953a.615.615 0 00-.12.04z" fill="#A0F2FE"/><path d="M2.436 48.953l19.652-32.185c.04-.013.08-.027.12-.027L2.556 48.926c-.04 0-.08.013-.12.027z" fill="#A0F2FE"/><path d="M2.557 48.913l19.652-32.185c.04-.014.08-.014.12-.027L2.678 48.886c-.04.013-.08.027-.12.027z" fill="#A0F2FE"/><path d="M2.677 48.886l19.652-32.185c.04-.013.08-.013.12-.013L2.798 48.873c-.04 0-.08.013-.12.013z" fill="#A0F2FE"/><path d="M2.797 48.873L22.45 16.688c.04 0 .08-.013.12-.013L2.917 48.859c-.04 0-.08.014-.12.014z" fill="#A0F2FE"/><path d="M2.917 48.86L22.57 16.673a.5.5 0 00.133-.013L3.051 48.846c-.04.013-.094.013-.134.013z" fill="#A0F2FE"/><path d="M3.05 48.846L22.704 16.66h.134L3.184 48.846h-.133z" fill="#A0F2FE"/><path d="M3.185 48.846L22.837 16.66h.134L3.318 48.846h-.133zM3.318 48.86l19.653-32.185c.04 0 .094 0 .134.013L3.452 48.873c-.04-.014-.094-.014-.134-.014z" fill="#A0F2FE"/><path d="M3.452 48.86l19.653-32.185c.053 0 .093.013.147.013L3.599 48.873c-.053 0-.093-.014-.147-.014zM3.6 48.873l19.652-32.185c.054 0 .094.013.147.013L3.747 48.886c-.054 0-.094-.013-.147-.013z" fill="#A0F2FE"/><path d="M3.746 48.886L23.4 16.7c.053.014.107.014.16.027L3.907 48.913c-.054 0-.107-.014-.16-.027zM3.907 48.913L23.56 16.728c.053.013.107.013.16.027L4.068 48.94a.67.67 0 01-.16-.027z" fill="#A0F2FE"/><path d="M4.067 48.94L23.72 16.754l.16.04L4.229 48.979l-.16-.04z" fill="#A0F2FE"/><path d="M4.228 48.98L23.88 16.794l.16.04L4.389 49.019l-.16-.04z" fill="#A0F2FE"/><path d="M4.388 49.02L24.04 16.835l.16.04L4.549 49.06l-.16-.04z" fill="#A0F2FE"/><path d="M4.549 49.06L24.2 16.875c.054.013.094.027.148.04L4.696 49.1c-.054-.014-.094-.027-.147-.04z" fill="#A0F2FE"/><path d="M4.695 49.1l19.653-32.185c.04.014.094.027.134.04L4.829 49.14c-.04-.013-.08-.027-.134-.04zM4.83 49.154l19.652-32.185.12.04L4.95 49.194a.615.615 0 00-.12-.04zM4.963 49.194l19.653-32.185c.04.013.066.026.107.04L5.07 49.234c-.04-.014-.067-.027-.107-.04z" fill="#A0F2FE"/><path d="M5.07 49.233L24.721 17.05c.04.013.067.027.107.04L5.176 49.274c-.04-.027-.067-.027-.107-.04z" fill="#A0F2FE"/><path d="M5.177 49.26l19.652-32.184c.027.013.067.026.094.04L5.27 49.3c-.04-.013-.066-.026-.093-.04z" fill="#A0F2FE"/><path d="M5.27 49.3l19.653-32.184a.19.19 0 00.08.026L5.351 49.328a.19.19 0 01-.08-.027zM172.264 119.27a33.158 33.158 0 01-3.636.601c-.107.014-.228.027-.335.04a39.23 39.23 0 01-3.837.187h-.093a49.55 49.55 0 01-4.171-.187c-.121-.013-.241-.026-.375-.026a61.005 61.005 0 01-4.198-.522c-.12-.013-.24-.04-.361-.053a82.088 82.088 0 01-4.679-.909h-.013a92.438 92.438 0 01-4.853-1.243c-.121-.04-.254-.067-.375-.107a98.256 98.256 0 01-4.879-1.55c-.054-.014-.094-.04-.147-.054a127.152 127.152 0 01-5.134-1.911c-.027-.013-.054-.027-.094-.04a134.39 134.39 0 01-5.24-2.232 3.034 3.034 0 00-.081-.04 118.044 118.044 0 01-5.254-2.527c-.026-.013-.067-.04-.093-.053-1.284-.655-2.567-1.363-3.851-2.058-.842-.455-1.671-.923-2.513-1.404-1.39-.802-2.781-1.604-4.158-2.459-.04-.027-.067-.04-.107-.067a135.438 135.438 0 01-5.134-3.355c-.013 0-.013-.013-.026-.013a144.284 144.284 0 01-5.027-3.609c-.013-.013-.04-.026-.054-.04a123.603 123.603 0 01-4.866-3.85 124.687 124.687 0 01-3.623-3.127c-.067-.067-.147-.133-.214-.2a110.69 110.69 0 01-3.115-2.914c-.12-.12-.24-.227-.36-.347a90.042 90.042 0 01-2.755-2.807c-.12-.134-.24-.268-.374-.388a77.497 77.497 0 01-2.487-2.78c-.12-.134-.227-.267-.347-.4a96.122 96.122 0 01-2.233-2.74c-.107-.135-.214-.282-.321-.415a65.198 65.198 0 01-1.965-2.7 8.51 8.51 0 01-.294-.441 63.976 63.976 0 01-1.725-2.687c-.067-.12-.134-.227-.2-.347a49.668 49.668 0 01-1.35-2.433c-.081-.147-.161-.294-.228-.428a47.461 47.461 0 01-1.177-2.539c-.107-.24-.187-.481-.28-.708a36.533 36.533 0 01-.655-1.791c-.12-.361-.228-.709-.335-1.07a26.447 26.447 0 01-.682-3.007c-.066-.388-.12-.762-.173-1.136a19.48 19.48 0 01-.094-1.51c-.013-.361-.027-.722-.027-1.07.014-.508.067-.989.134-1.47.04-.32.054-.641.12-.949.094-.508.241-1.002.401-1.483.08-.254.134-.508.214-.749.268-.708.589-1.377.976-2.018 0-.014.014-.014.014-.027L55.872 79.293a11.546 11.546 0 00-.99 2.045c-.093.24-.133.494-.213.735-.147.495-.294.976-.401 1.497-.054.307-.08.628-.12.949-.054.481-.12.962-.12 1.47-.014.348.012.709.026 1.07.013.494.04.988.093 1.51.014.147.014.294.027.454.027.227.094.468.134.682.093.548.2 1.11.334 1.67.053.201.067.401.12.602.067.24.16.495.228.735.107.36.214.708.334 1.07.067.213.12.414.187.627.134.375.308.776.455 1.15l.28.722c.04.107.08.2.12.294.281.655.589 1.31.923 1.978.04.08.094.16.134.254.08.147.16.294.227.44.2.388.388.763.602 1.15.227.415.481.842.735 1.27.067.12.134.227.2.348.04.066.067.12.108.187.347.561.695 1.136 1.07 1.711.173.267.36.534.534.801.093.148.2.295.294.442.107.147.2.294.307.441.388.548.776 1.096 1.19 1.644.147.2.308.401.468.601.107.134.214.281.321.414.16.201.294.401.455.602.428.535.855 1.069 1.31 1.604l.454.534c.12.134.228.268.348.401.187.214.36.441.561.655.468.535.936 1.056 1.431 1.591.16.174.334.361.508.534.12.134.24.268.374.388l.602.642a82.735 82.735 0 001.524 1.55c.2.2.428.414.628.615.12.12.241.227.361.347.174.174.348.348.535.522.495.467.99.949 1.51 1.416.348.321.71.642 1.07.963.08.067.147.133.228.214.067.066.133.12.2.187.428.387.87.775 1.31 1.163.441.387.896.775 1.35 1.149.241.214.495.414.75.628.16.134.32.267.494.401.361.294.709.588 1.07.869.36.294.721.575 1.082.855.361.281.722.562 1.097.842.307.228.601.468.909.695.08.054.147.107.227.174.027.013.04.027.067.04l.602.441c.294.214.588.441.882.655.294.214.588.428.896.642.294.214.588.414.882.628.28.2.575.401.856.601.28.201.574.401.855.589.014.013.027.026.054.026.013 0 .013.014.026.014.268.173.522.36.79.534a31 31 0 00.868.575c.335.214.655.441.99.655.36.24.735.468 1.096.708.36.241.735.468 1.096.695.094.054.187.121.28.174.041.027.068.04.108.067.24.147.481.294.708.441.762.468 1.538.936 2.3 1.377.374.227.762.414 1.136.641.843.481 1.671.949 2.514 1.404.508.28 1.002.574 1.51.842.709.374 1.431.748 2.139 1.122.067.04.134.067.201.094.027.013.067.04.094.053.334.174.668.334 1.002.508.428.214.869.428 1.297.642.401.2.802.387 1.203.575.348.16.682.32 1.03.481.227.107.468.214.695.32.027.014.067.027.093.041.081.04.161.066.241.106.348.161.682.308 1.03.455.347.147.695.307 1.042.454.361.161.736.308 1.097.468.361.147.735.308 1.096.455.241.093.495.2.735.294a.828.828 0 00.094.04c.093.04.174.067.267.107.388.16.789.307 1.177.454.454.174.909.348 1.363.508.455.174.909.334 1.351.495.334.12.655.227.976.347.053.013.093.04.147.054.107.04.2.066.307.106.588.201 1.177.388 1.751.575.589.187 1.164.374 1.738.548l1.083.321c.121.04.254.08.375.107.187.053.387.12.575.174.695.2 1.39.374 2.085.548.735.187 1.471.36 2.193.521h.013c.722.16 1.444.321 2.166.454.708.134 1.417.268 2.112.388.134.027.268.04.415.067.12.013.24.04.361.053.427.067.855.134 1.27.201.655.093 1.31.173 1.952.24.334.04.655.054.976.094.12.013.24.027.374.04.174.013.361.04.535.053.615.04 1.216.081 1.804.107.589.027 1.177.04 1.752.04h.174c.508 0 1.016-.013 1.524-.026a66.944 66.944 0 001.657-.094c.228-.013.442-.04.656-.067.107-.013.227-.026.334-.04.214-.027.428-.04.628-.067.548-.066 1.07-.147 1.591-.24.415-.08.829-.161 1.23-.254a3.29 3.29 0 01.187-.04c.054-.014.107-.014.147-.027.535-.134 1.07-.267 1.578-.428.521-.16 1.043-.334 1.537-.534.014 0 .027-.014.04-.014l19.653-32.184c-.989.427-2.099.761-3.262 1.029zM182.867 112.533l-19.653 32.185c-1.497 2.459-3.917 4.424-7.286 5.747l19.652-32.184c3.369-1.337 5.776-3.288 7.287-5.748z" fill="#A0F2FE"/><path d="M155.928 150.452l19.652-32.185c.549-.214 1.07-.441 1.565-.695l-19.653 32.185a16.82 16.82 0 01-1.564.695z" fill="#A0F2FE"/><path d="M157.492 149.757l19.653-32.185a18.76 18.76 0 001.564-.882l-19.653 32.185c-.494.321-1.016.615-1.564.882z" fill="#A0F2FE"/><path d="M159.056 148.875l19.652-32.185a14.01 14.01 0 001.578-1.163l-19.653 32.185c-.481.414-1.016.802-1.577 1.163z" fill="#A0F2FE"/><path d="M160.634 147.712l19.652-32.185a12.135 12.135 0 001.698-1.737l-19.652 32.184a12.247 12.247 0 01-1.698 1.738zM162.332 145.975l19.653-32.185c.321-.401.615-.815.882-1.257l-19.653 32.185c-.267.428-.561.856-.882 1.257z" fill="#A0F2FE"/><path d="M199.778 165.301l19.653-32.198 12.754 11.308-19.652 32.184-12.755-11.294z" fill="#86E1FE"/><path d="M5.35 49.327l19.652-32.185 15.91 6.322L21.259 55.65l-15.91-6.322zM201.81 159.501l19.653-32.185c-.374 2.085-1.096 3.996-2.032 5.801l-19.653 32.184c.936-1.804 1.658-3.715 2.032-5.8z" fill="#A0F2FE"/><path d="M201.81 159.501l19.653-32.185c-.374 2.085-1.096 3.996-2.032 5.801l-19.653 32.184c.936-1.804 1.658-3.715 2.032-5.8zM21.26 55.649l19.652-32.185c1.204-1.59 2.728-3.007 4.439-4.29L25.698 51.358c-1.71 1.284-3.222 2.7-4.438 4.29z" fill="#A0F2FE"/><path d="M21.26 55.649l19.652-32.185c.12-.16.241-.32.375-.481L21.634 55.168c-.12.173-.254.32-.374.48zM21.634 55.181l19.652-32.185a20.996 20.996 0 012.768-2.793L24.4 52.388a20.99 20.99 0 00-2.767 2.793zM24.401 52.388l19.653-32.185c.414-.348.856-.695 1.297-1.03L25.698 51.36c-.441.334-.882.681-1.297 1.029zM239.337 131.072l-19.652 32.184c.107-.173.16-.401.133-.655l19.653-32.184c.027.267-.027.481-.134.655z" fill="#A0F2FE"/><path d="M219.818 162.615l19.653-32.185c.027.254-.027.468-.134.655l-19.652 32.185c.107-.188.16-.401.133-.655zM14.348 37.178L34 4.992c.12-.187.308-.334.562-.441L14.909 36.736c-.267.107-.454.254-.561.442z" fill="#A0F2FE"/><path d="M14.348 37.178L34 4.993c.027-.04.04-.067.067-.107L14.415 37.071c-.027.04-.054.067-.067.107zM14.414 37.084L34.067 4.899c.04-.04.08-.093.133-.133L14.548 36.95a.632.632 0 00-.134.134z" fill="#A0F2FE"/><path d="M14.548 36.95L34.2 4.765c.04-.026.08-.066.12-.093L14.669 36.857a.29.29 0 00-.12.093z" fill="#A0F2FE"/><path d="M14.668 36.856L34.321 4.672c.04-.027.08-.054.12-.067L14.788 36.79c-.04.026-.08.04-.12.066zM14.79 36.79L34.441 4.605c.04-.013.08-.04.12-.053L14.91 36.736c-.04.014-.08.04-.12.054zM219.391 156.961l19.639-32.184.441 5.653-19.653 32.185-.427-5.654z" fill="#A0F2FE"/><path d="M14.91 36.736L34.548 4.553l5.347-2.099-19.652 32.198-5.335 2.085z" fill="#A0F2FE"/><path d="M200.554 144.05l19.652-32.185 15.562 9.223-19.639 32.184-15.575-9.222z" fill="#86E1FE"/><path d="M216.129 153.272l19.653-32.184c1.845 1.082 3.181 2.593 3.262 3.689l-19.653 32.184c-.08-1.096-1.417-2.606-3.262-3.689z" fill="#A0F2FE"/><path d="M216.129 153.272l19.653-32.184c.013.013.026.013.04.026l-19.653 32.185c-.013-.013-.027-.013-.04-.027zM216.169 153.299l19.653-32.184.12.08-19.653 32.184-.12-.08z" fill="#A0F2FE"/><path d="M216.289 153.366l19.653-32.185c.04.027.08.054.12.067l-19.653 32.185a.556.556 0 01-.12-.067zM216.409 153.446l19.653-32.185c.027.014.053.027.08.054l-19.653 32.184a.271.271 0 00-.08-.053z" fill="#A0F2FE"/><path d="M216.49 153.486l19.653-32.184a.264.264 0 01.08.053L216.57 153.54a.175.175 0 01-.08-.054z" fill="#A0F2FE"/><path d="M216.557 153.54l19.652-32.185a.288.288 0 01.081.053l-19.653 32.185c-.027-.013-.054-.04-.08-.053z" fill="#A0F2FE"/><path d="M216.637 153.593l19.652-32.185c.027.014.041.027.067.041l-19.652 32.184c-.027-.013-.041-.026-.067-.04zM216.704 153.633l19.653-32.184c.027.013.04.026.067.04l-19.653 32.185c-.027-.014-.04-.027-.067-.041z" fill="#A0F2FE"/><path d="M216.771 153.673l19.652-32.184c.027.013.04.026.067.04l-19.653 32.185a.073.073 0 01-.066-.041zM216.837 153.727l19.653-32.185c.026.014.04.027.066.04l-19.652 32.185a.28.28 0 01-.067-.04z" fill="#A0F2FE"/><path d="M216.891 153.767l19.652-32.185c.027.014.04.027.067.054l-19.653 32.184c-.013-.026-.04-.04-.066-.053zM216.958 153.82l19.653-32.184c.026.013.04.026.067.053l-19.653 32.185c-.013-.027-.04-.04-.067-.054z" fill="#A0F2FE"/><path d="M217.024 153.861l19.653-32.185c.027.013.04.027.067.053l-19.653 32.185c-.013-.013-.04-.04-.067-.053zM217.092 153.914l19.652-32.185a.23.23 0 01.067.054l-19.652 32.185c-.027-.027-.04-.04-.067-.054z" fill="#A0F2FE"/><path d="M217.158 153.954l19.653-32.184c.027.013.053.04.08.053l-19.653 32.185c-.026-.014-.053-.027-.08-.054zM217.238 154.021l19.653-32.185c.027.014.053.041.08.054l-19.652 32.185c-.027-.014-.054-.041-.081-.054z" fill="#A0F2FE"/><path d="M217.305 154.074l19.652-32.184c.027.013.054.04.081.053l-19.653 32.185c-.027-.014-.054-.027-.08-.054zM217.386 154.141l19.652-32.184c.027.026.054.053.094.066l-19.653 32.185c-.04-.027-.067-.053-.093-.067zM217.479 154.208l19.653-32.185c.027.027.067.054.094.08l-19.653 32.185a.602.602 0 01-.094-.08z" fill="#A0F2FE"/><path d="M217.56 154.288l19.652-32.184c.027.026.067.053.094.08l-19.653 32.184c-.027-.026-.053-.053-.093-.08z" fill="#A0F2FE"/><path d="M217.653 154.368l19.653-32.184c.04.026.067.066.107.093l-19.653 32.185c-.026-.04-.067-.067-.107-.094z" fill="#A0F2FE"/><path d="M217.76 154.462l19.652-32.185c.041.027.067.067.107.094l-19.652 32.185c-.027-.041-.067-.067-.107-.094zM217.867 154.556l19.653-32.185c.04.04.08.067.12.107l-19.652 32.184c-.041-.04-.081-.066-.121-.106z" fill="#A0F2FE"/><path d="M217.987 154.662l19.653-32.184c.04.04.08.08.12.106l-19.652 32.185a.893.893 0 01-.121-.107zM218.107 154.783l19.653-32.185.12.12-19.652 32.185c-.054-.054-.08-.094-.121-.12z" fill="#A0F2FE"/><path d="M218.215 154.89l19.653-32.185c.04.04.08.08.106.12l-19.652 32.185c-.027-.04-.067-.08-.107-.12zM218.335 155.01l19.653-32.185c.04.04.066.08.107.12l-19.653 32.185c-.04-.04-.067-.08-.107-.12z" fill="#A0F2FE"/><path d="M218.441 155.13l19.653-32.184c.04.04.067.08.107.12l-19.653 32.185c-.04-.041-.066-.081-.107-.121zM218.549 155.25l19.653-32.184c.04.04.066.08.093.12l-19.653 32.185a1.087 1.087 0 01-.093-.121zM218.643 155.384l19.652-32.185c.027.041.067.081.094.121l-19.653 32.184c-.027-.04-.067-.08-.093-.12z" fill="#A0F2FE"/><path d="M218.735 155.505l19.653-32.185c.027.04.067.08.094.12l-19.653 32.185c-.027-.04-.067-.08-.094-.12zM218.829 155.625l19.653-32.185.08.12-19.653 32.185-.08-.12zM218.91 155.758l19.653-32.184c.027.04.053.08.08.133l-19.653 32.185c-.026-.053-.053-.093-.08-.134z" fill="#A0F2FE"/><path d="M218.99 155.879l19.653-32.185c.027.04.053.094.08.134l-19.653 32.184c-.026-.04-.053-.08-.08-.133z" fill="#A0F2FE"/><path d="M219.07 156.012l19.653-32.184c.027.053.053.093.067.133l-19.653 32.185c-.013-.04-.04-.08-.067-.134zM219.15 156.159l19.653-32.184c.027.053.054.093.067.147l-19.653 32.184a1.344 1.344 0 01-.067-.147z" fill="#A0F2FE"/><path d="M219.217 156.306l19.652-32.184c.027.053.041.107.067.16l-19.652 32.185c-.027-.054-.054-.107-.067-.161z" fill="#A0F2FE"/><path d="M219.271 156.453l19.652-32.184c.027.067.04.12.054.174l-19.653 32.184a1.315 1.315 0 00-.053-.174zM219.337 156.641l19.653-32.185c.026.08.04.147.04.227l-19.653 32.185c-.013-.08-.027-.147-.04-.227zM219.377 156.868l19.653-32.185c0 .04.013.067.013.094l-19.653 32.184c0-.026-.013-.066-.013-.093zM25.043 35.894L44.696 3.71l15.28 9.73-19.652 32.185-15.281-9.73zM22.342 34.678c.014 0 .014 0 0 0a8.29 8.29 0 011.324.468c.454.2.922.454 1.377.735L44.696 3.696c-.014-.013-.027-.013-.04-.026-.04-.027-.08-.054-.107-.067-.04-.027-.08-.04-.107-.067-.16-.094-.321-.187-.482-.267-.053-.027-.093-.054-.147-.08-.04-.014-.067-.04-.107-.054-.04-.013-.067-.04-.107-.054l-.08-.04a59.927 59.927 0 01-.08-.04l-.08-.04c-.014 0-.014 0-.027-.013-.013-.014-.04-.014-.053-.027l-.08-.04a.19.19 0 00-.08-.027l-.081-.04a.65.65 0 00-.094-.04.65.65 0 00-.093-.04c-.027-.013-.067-.027-.094-.04-.04-.013-.067-.027-.107-.04-.04-.014-.067-.027-.107-.04-.04-.014-.08-.027-.133-.04-.04-.014-.094-.027-.134-.04a2.19 2.19 0 01-.147-.04.413.413 0 00-.107-.027h-.014c-.013 0-.026 0-.026-.014l-.16-.04-.161-.04c-.054-.013-.107-.027-.16-.027-.054-.013-.107-.013-.161-.026-.054 0-.094-.014-.147-.014-.053 0-.094-.013-.147-.013-.04 0-.094 0-.134-.013h-.067H40.631c-.04 0-.08 0-.12.013-.04 0-.08.013-.12.013-.04 0-.08.014-.12.014-.04.013-.08.013-.12.026a.39.39 0 01-.121.027l-.12.04-19.653 32.185c.254-.107.575-.147.936-.134h.013c.334.054.722.107 1.136.214zM217.96 105.744c-.268-.615-.548-1.243-.843-1.885l-19.652 32.185c.508 1.069.936 2.125 1.363 3.167.201.495.402.976.575 1.457a53.228 53.228 0 011.163 3.382l19.653-32.185a56.323 56.323 0 00-.882-2.673c-.08-.227-.187-.468-.281-.695-.187-.481-.388-.976-.575-1.47-.187-.428-.334-.856-.521-1.283zM48.92 44.81l19.653-32.186c-.294 0-.588.014-.882.027-.829.027-1.631.08-2.433.134-.254.013-.495.053-.736.08a19.13 19.13 0 00-.869.094c-.374.04-.762.066-1.123.12-.869.107-1.71.227-2.553.374L40.324 45.638c1.203-.2 2.433-.361 3.677-.495.294-.026.575-.066.869-.093 1.323-.12 2.66-.214 4.05-.24zM230.153 102.669L210.5 134.854c.267-.428.174-1.082-.308-1.831l19.653-32.185c.481.762.575 1.404.308 1.831z" fill="#A0F2FE"/><path d="M210.192 133.023l19.653-32.185c.013.027.04.054.054.094l-19.653 32.185a.682.682 0 00-.054-.094zM210.246 133.117l19.653-32.185c.026.04.053.093.08.134l-19.653 32.184c-.026-.04-.053-.093-.08-.133z" fill="#A0F2FE"/><path d="M210.326 133.25l19.653-32.184c.027.053.053.093.08.133l-19.653 32.185c-.026-.04-.053-.08-.08-.134zM210.406 133.398l19.653-32.185c.027.053.053.093.067.147l-19.653 32.185c-.027-.054-.04-.107-.067-.147z" fill="#A0F2FE"/><path d="M210.473 133.545l19.652-32.185c.027.053.04.107.067.16l-19.652 32.185c-.027-.054-.041-.107-.067-.16z" fill="#A0F2FE"/><path d="M210.54 133.705l19.653-32.185c.026.067.04.121.053.187l-19.653 32.185c-.013-.067-.04-.134-.053-.187z" fill="#A0F2FE"/><path d="M210.594 133.879l19.652-32.185c.027.08.041.147.041.227l-19.653 32.185c0-.067-.027-.147-.04-.227z" fill="#A0F2FE"/><path d="M210.634 134.106l19.652-32.185c.04.294 0 .548-.133.749L210.5 134.854c.134-.2.174-.454.134-.748zM44.255 32.767L63.908.582a1.22 1.22 0 01.548-.441c.32-.12.735-.174 1.243-.12L46.046 32.205c-.508-.053-.922-.013-1.243.12a1.22 1.22 0 00-.548.442z" fill="#A0F2FE"/><path d="M44.255 32.767L63.908.582c.026-.04.04-.067.066-.107L44.322 32.66a.293.293 0 01-.067.107zM44.335 32.673L63.988.49a.633.633 0 01.133-.134L44.47 32.54a.634.634 0 00-.134.133z" fill="#A0F2FE"/><path d="M44.455 32.54L64.108.355c.04-.027.08-.067.12-.094L44.575 32.446c-.04.027-.08.067-.12.094z" fill="#A0F2FE"/><path d="M44.575 32.446L64.228.261c.04-.026.08-.04.12-.066L44.696 32.379c-.04.027-.08.054-.12.067zM44.696 32.379L64.35.194c.04-.013.08-.04.12-.053L44.817 32.326a.473.473 0 01-.12.053zM44.816 32.339L64.47.154l.12-.04L44.937 32.3c-.04 0-.08.013-.12.04z" fill="#A0F2FE"/><path d="M44.937 32.286L64.589.1c.04-.013.08-.027.12-.027L45.058 32.26c-.054.013-.08.027-.12.027z" fill="#A0F2FE"/><path d="M45.044 32.259L64.697.074c.04-.013.08-.013.12-.027L45.164 32.232c-.04.013-.08.013-.12.027zM45.164 32.232L64.817.048a.37.37 0 01.12-.014L45.284 32.22c-.04 0-.08.013-.12.013z" fill="#A0F2FE"/><path d="M45.284 32.219L64.937.034c.04 0 .08-.013.12-.013L45.404 32.205c-.04 0-.08.014-.12.014z" fill="#A0F2FE"/><path d="M45.404 32.205L65.057.021c.04 0 .08 0 .12-.014L45.525 32.192c-.04.013-.08.013-.12.013zM45.524 32.205L65.177.021h.12L45.645 32.205c-.027-.013-.067-.013-.12 0zM45.658 32.192L65.311.007h.134L45.792 32.192h-.134zM45.792 32.205L65.445.021c.04 0 .093 0 .133.013L45.926 32.22c-.054-.014-.094-.014-.134-.014z" fill="#A0F2FE"/><path d="M45.926 32.205L65.579.021c.04 0 .093.013.133.013L46.06 32.22c-.053 0-.093-.014-.133-.014z" fill="#A0F2FE"/><path d="M205.848 126.153L225.5 93.969l4.345 6.869-19.652 32.185-4.345-6.87z" fill="#A0F5FE"/><path d="M185.58 117.252l19.653-32.185 15.709 5.547-19.64 32.184-15.722-5.546z" fill="#86E1FE"/><path d="M46.06 32.219L65.712.034l8.169.815-19.653 32.185-8.168-.815z" fill="#A0F5FE"/><path d="M185.58 117.252l19.652-32.185c-.026-.04-.066-.08-.093-.12a99.745 99.745 0 00-1.845-2.273c-.455-.548-.936-1.096-1.404-1.644-.16-.187-.307-.374-.468-.548-.107-.12-.2-.24-.307-.36a132.461 132.461 0 00-2.647-2.94c-.281-.308-.562-.602-.843-.91l-19.652 32.185a152.727 152.727 0 013.783 4.21c.161.187.308.374.468.548 1.177 1.35 2.3 2.7 3.356 4.037zM201.302 122.798l19.652-32.184c1.832.641 3.704 2.018 4.559 3.355l-19.652 32.184c-.856-1.336-2.741-2.713-4.559-3.355z" fill="#A0F2FE"/><path d="M201.302 122.798l19.652-32.184c.014 0 .027.013.027.013l-19.653 32.185c-.013 0-.026 0-.026-.014z" fill="#A0F2FE"/><path d="M201.328 122.812l19.653-32.185c.027.014.067.027.093.04l-19.652 32.185c-.027-.013-.067-.027-.094-.04zM201.422 122.852l19.653-32.185c.026.014.066.027.093.04l-19.653 32.185c-.026-.013-.053-.027-.093-.04zM201.528 122.892l19.653-32.185c.027.014.054.027.094.04l-19.653 32.185c-.04-.027-.067-.04-.094-.04z" fill="#A0F2FE"/><path d="M201.609 122.919l19.653-32.185c.027.013.053.027.08.027l-19.652 32.184a.197.197 0 01-.081-.026zM201.689 122.959l19.653-32.185.08.04-19.652 32.185c-.014-.027-.04-.04-.081-.04zM201.783 122.986l19.653-32.185.08.04-19.653 32.185a1.988 1.988 0 00-.08-.04z" fill="#A0F2FE"/><path d="M201.863 123.026l19.653-32.185c.027.013.053.027.08.027l-19.652 32.184c-.041-.013-.054-.026-.081-.026z" fill="#A0F2FE"/><path d="M201.931 123.052l19.652-32.184.081.04-19.653 32.184-.08-.04z" fill="#A0F2FE"/><path d="M202.011 123.093l19.652-32.185.081.04-19.653 32.185c-.027-.027-.054-.027-.08-.04z" fill="#A0F2FE"/><path d="M202.091 123.119l19.653-32.184.08.04-19.653 32.184a2.982 2.982 0 01-.08-.04z" fill="#A0F2FE"/><path d="M202.171 123.16l19.653-32.185.08.04-19.653 32.185a2.982 2.982 0 00-.08-.04z" fill="#A0F2FE"/><path d="M202.251 123.2l19.653-32.185.08.04-19.653 32.185a.2.2 0 00-.08-.04zM202.345 123.24l19.652-32.185c.041.013.081.04.107.053l-19.652 32.185a.41.41 0 01-.107-.053zM202.451 123.307l19.653-32.185c.053.027.093.053.147.067l-19.653 32.184c-.053-.026-.093-.053-.147-.066zM202.599 123.373l19.652-32.184c.147.08.294.16.441.254l-19.652 32.184c-.147-.093-.294-.173-.441-.254z" fill="#A0F2FE"/><path d="M203.04 123.627l19.653-32.185c.053.027.107.067.16.094L203.2 123.72a.981.981 0 00-.16-.094z" fill="#A0F2FE"/><path d="M203.187 123.721l19.652-32.185c.027.013.054.04.08.053l-19.652 32.185c-.014-.027-.04-.04-.08-.053zM203.28 123.774l19.653-32.185c.027.014.053.04.08.054l-19.653 32.185a.257.257 0 00-.08-.054z" fill="#A0F2FE"/><path d="M203.36 123.828l19.653-32.185c.027.013.053.04.08.053l-19.652 32.185a.268.268 0 00-.081-.053zM203.454 123.881l19.653-32.185c.027.014.04.027.067.04l-19.653 32.185a.28.28 0 01-.067-.04z" fill="#A0F2FE"/><path d="M203.521 123.921l19.653-32.185c.027.014.04.027.067.04l-19.653 32.185a.328.328 0 01-.067-.04zM203.588 123.975l19.653-32.185c.026.013.04.027.066.04l-19.652 32.185c-.027-.014-.054-.027-.067-.04zM203.655 124.015l19.653-32.185c.027.013.04.027.067.04l-19.653 32.185c-.027-.014-.053-.027-.067-.04z" fill="#A0F2FE"/><path d="M203.722 124.055l19.652-32.185c.027.013.04.027.067.04l-19.652 32.185a.073.073 0 01-.067-.04zM203.789 124.108l19.653-32.184c.026.013.04.026.067.04l-19.653 32.184a.251.251 0 01-.067-.04z" fill="#A0F2FE"/><path d="M203.855 124.148l19.653-32.184c.027.013.04.026.067.053l-19.653 32.185a.327.327 0 01-.067-.054z" fill="#A0F2FE"/><path d="M203.909 124.202l19.653-32.185c.027.014.04.04.067.053l-19.653 32.185c-.013-.026-.04-.04-.067-.053zM203.989 124.255l19.653-32.184c.027.013.053.04.067.053l-19.653 32.185c-.027-.027-.053-.04-.067-.054z" fill="#A0F2FE"/><path d="M204.056 124.309l19.652-32.185a.28.28 0 01.067.053l-19.653 32.185c-.013-.027-.04-.04-.066-.053zM204.123 124.362l19.653-32.184c.026.013.053.04.08.053l-19.653 32.185c-.026-.014-.053-.04-.08-.054z" fill="#A0F2FE"/><path d="M204.203 124.416l19.653-32.185c.027.027.053.04.08.067l-19.653 32.184c-.026-.026-.053-.04-.08-.066z" fill="#A0F2FE"/><path d="M204.283 124.483l19.653-32.185c.027.027.053.04.08.067l-19.653 32.184c-.026-.013-.053-.04-.08-.066zM204.363 124.549l19.653-32.184c.027.026.067.053.094.08l-19.653 32.185a.604.604 0 00-.094-.081z" fill="#A0F2FE"/><path d="M204.457 124.629l19.653-32.184c.026.027.067.053.093.08l-19.652 32.185c-.027-.027-.054-.054-.094-.081zM204.563 124.71l19.653-32.185c.04.027.067.067.107.094l-19.653 32.184a.354.354 0 01-.107-.093zM204.671 124.803l19.653-32.184c.04.04.08.067.107.107l-19.653 32.184c-.04-.04-.08-.067-.107-.107zM204.778 124.91l19.653-32.184c.04.04.08.066.12.106l-19.652 32.185a.893.893 0 00-.121-.107z" fill="#A0F2FE"/><path d="M204.898 125.017l19.653-32.184.12.12-19.652 32.185c-.054-.041-.08-.081-.121-.121z" fill="#A0F2FE"/><path d="M205.005 125.124l19.653-32.184.12.12-19.653 32.184-.12-.12zM205.126 125.245l19.653-32.185c.04.04.08.08.107.12l-19.653 32.185a.888.888 0 00-.107-.12z" fill="#A0F2FE"/><path d="M205.232 125.365l19.653-32.185c.04.04.067.08.107.12l-19.653 32.185a.77.77 0 00-.107-.12zM205.353 125.485L225.005 93.3c.04.04.067.08.107.12l-19.653 32.185c-.04-.04-.08-.08-.106-.12z" fill="#A0F2FE"/><path d="M205.446 125.605l19.653-32.184c.04.04.067.08.094.12l-19.653 32.185c-.027-.027-.054-.067-.094-.121zM205.554 125.739l19.652-32.185c.027.04.067.08.094.12l-19.653 32.185c-.026-.04-.067-.08-.093-.12z" fill="#A0F2FE"/><path d="M205.646 125.859l19.653-32.184c.027.04.067.08.094.12L205.74 125.98c-.027-.041-.067-.081-.094-.121zM205.74 125.98l19.653-32.185c.027.04.053.08.08.134l-19.653 32.184c-.026-.04-.053-.093-.08-.133z" fill="#A0F2FE"/><path d="M205.82 126.113l19.653-32.184c.013.013.013.026.027.04l-19.653 32.184c0-.013-.013-.026-.027-.04zM82.678 49.861l19.652-32.184-1.404-.401c-1.016-.28-2.018-.548-3.008-.802-.307-.08-.601-.147-.895-.214l-1.163-.28a69.84 69.84 0 00-1.605-.388c-1.096-.254-2.192-.482-3.275-.709L71.327 47.068c1.604.334 3.249.708 4.893 1.096l1.163.28c1.725.428 3.49.896 5.295 1.417z" fill="#A0F2FE"/><path d="M59.321 35.6l19.64-32.184 11.992 11.467L71.3 47.068 59.321 35.6z" fill="#86E1FE"/><path d="M54.227 33.034L73.88.85c1.591.16 3.677 1.217 5.094 2.567L59.32 35.6c-1.417-1.35-3.502-2.406-5.093-2.566z" fill="#A0F2FE"/><path d="M54.227 33.034L73.88.85h.027L54.254 33.034h-.026z" fill="#A0F2FE"/><path d="M54.254 33.034L73.907.85c.053 0 .093.014.147.014L54.4 33.047c-.04 0-.094 0-.147-.013zM54.401 33.06L74.054.877c.053.014.107.014.16.027L54.563 33.088c-.054-.014-.107-.027-.16-.027z" fill="#A0F2FE"/><path d="M54.562 33.074L74.214.89c.054.014.107.014.16.027L54.723 33.101a.67.67 0 01-.16-.027zM54.723 33.114L74.375.93l.16.04-19.652 32.185a.357.357 0 00-.16-.04z" fill="#A0F2FE"/><path d="M54.883 33.141L74.535.956l.16.04-19.652 32.185a75.14 75.14 0 00-.16-.04zM55.057 33.18L74.709.997l.16.04-19.652 32.185-.16-.04z" fill="#A0F2FE"/><path d="M55.217 33.221L74.869 1.037c.054.013.094.026.147.04L55.364 33.26c-.054-.013-.107-.026-.147-.04zM55.364 33.275L75.017 1.09c.053.013.094.027.147.04L55.511 33.315a2.248 2.248 0 01-.147-.04z" fill="#A0F2FE"/><path d="M55.498 33.315L75.151 1.13l.12.04-19.653 32.185-.12-.04z" fill="#A0F2FE"/><path d="M55.618 33.355L75.271 1.17l.12.04-19.653 32.185a56.5 56.5 0 00-.12-.04z" fill="#A0F2FE"/><path d="M55.738 33.395L75.391 1.21c.027.014.067.027.093.04L55.832 33.436c-.027-.013-.067-.027-.094-.04z" fill="#A0F2FE"/><path d="M55.832 33.435L75.485 1.25c.026.014.067.027.093.04L55.926 33.476c-.027-.026-.054-.026-.094-.04zM55.938 33.462L75.591 1.277c.027.014.067.027.094.04L56.032 33.502a.64.64 0 01-.093-.04zM56.032 33.502L75.685 1.317c.027.014.053.027.08.027L56.112 33.53c-.026 0-.053-.014-.08-.027z" fill="#A0F2FE"/><path d="M56.112 33.542l19.64-32.198.08.04L56.179 33.57a.102.102 0 00-.067-.027zM56.192 33.569L75.845 1.384l.08.04L56.273 33.61a29.964 29.964 0 00-.08-.04z" fill="#A0F2FE"/><path d="M56.273 33.609L75.926 1.424l.08.04L56.354 33.65c-.027-.027-.054-.04-.08-.04z" fill="#A0F2FE"/><path d="M56.353 33.636L76.006 1.45l.08.04-19.652 32.185a19.976 19.976 0 00-.08-.04z" fill="#A0F2FE"/><path d="M56.434 33.676L76.086 1.49l.08.04-19.652 32.185-.08-.04z" fill="#A0F2FE"/><path d="M56.514 33.716L76.166 1.53l.08.04-19.652 32.185c-.027-.027-.054-.04-.08-.04z" fill="#A0F2FE"/><path d="M56.594 33.743L76.246 1.558c.027.013.067.027.094.04L56.687 33.783c-.04-.014-.066-.027-.093-.04z" fill="#A0F2FE"/><path d="M56.675 33.796L76.328 1.611c.026.014.066.027.093.04L56.768 33.836a.656.656 0 00-.093-.04z" fill="#A0F2FE"/><path d="M56.768 33.836L76.42 1.652c.04.013.067.04.107.053L56.875 33.89a.401.401 0 00-.107-.054zM56.875 33.89L76.528 1.704c.053.027.107.053.147.08L57.022 33.97c-.04-.027-.093-.054-.147-.08z" fill="#A0F2FE"/><path d="M57.022 33.97L76.674 1.785c.147.08.294.16.441.254L57.463 34.224c-.134-.094-.294-.174-.441-.254zM57.477 34.21L77.129 2.026c.054.026.107.066.16.093L57.638 34.304a.63.63 0 01-.16-.094z" fill="#A0F2FE"/><path d="M57.624 34.304L77.277 2.119c.026.014.053.04.093.054L57.718 34.357c-.027-.013-.067-.026-.094-.053zM57.717 34.37L77.369 2.187c.027.013.054.04.08.054L57.798 34.423c-.027-.026-.053-.04-.08-.053z" fill="#A0F2FE"/><path d="M57.797 34.41L77.45 2.227c.026.013.053.04.08.054L57.877 34.464a.277.277 0 01-.08-.053zM57.877 34.478L77.53 2.293c.026.013.04.027.067.04L57.944 34.518a.293.293 0 00-.067-.04zM57.958 34.518L77.611 2.333c.026.013.04.027.066.04L58.025 34.558c-.027-.014-.054-.027-.067-.04z" fill="#A0F2FE"/><path d="M58.024 34.558L77.677 2.373c.027.013.04.027.067.04L58.09 34.598c-.026 0-.053-.027-.067-.04zM58.092 34.611L77.744 2.427c.027.013.04.026.067.04L58.16 34.65c-.027-.013-.054-.026-.067-.04z" fill="#A0F2FE"/><path d="M58.158 34.651L77.811 2.468c.027.013.04.027.067.04L58.225 34.692c-.027-.014-.053-.027-.067-.04zM58.225 34.705L77.877 2.52c.027.013.04.027.067.04L58.291 34.745c-.026-.014-.053-.027-.066-.04z" fill="#A0F2FE"/><path d="M58.278 34.745L77.931 2.56c.027.013.04.027.067.054L58.345 34.798c-.013-.026-.04-.04-.067-.053zM58.346 34.798L77.998 2.614c.027.013.04.026.067.053L58.413 34.852c-.014-.027-.04-.04-.067-.053z" fill="#A0F2FE"/><path d="M58.412 34.839L78.065 2.654a.29.29 0 01.067.053L58.479 34.892c-.013-.013-.04-.027-.067-.053zM58.492 34.892L78.145 2.707c.027.014.053.04.067.054L58.559 34.945c-.027-.013-.04-.026-.067-.053zM58.56 34.945L78.212 2.761c.027.013.054.04.067.053L58.626 35c-.013-.014-.04-.027-.066-.054zM58.626 35.012L78.279 2.828c.026.026.053.04.08.066L58.706 35.08a.137.137 0 00-.08-.067zM58.72 35.079L78.372 2.894c.027.027.054.04.08.067L58.8 35.146c-.027-.027-.053-.054-.08-.067zM58.8 35.146L78.453 2.96c.026.027.053.054.093.067L58.893 35.213a.408.408 0 01-.093-.067zM58.894 35.213L78.546 3.028a.67.67 0 01.107.094L59 35.306a.762.762 0 01-.106-.093z" fill="#A0F2FE"/><path d="M58.987 35.306L78.64 3.122c.04.026.067.053.107.093L59.094 35.4a.36.36 0 00-.107-.094z" fill="#A0F2FE"/><path d="M59.094 35.4L78.746 3.215c.04.04.08.067.12.107L59.215 35.507a.862.862 0 00-.12-.107z" fill="#A0F2FE"/><path d="M59.215 35.493L78.868 3.31l.107.107L59.322 35.6c-.04-.04-.08-.067-.107-.107zM175.527 56.144c-.588-.468-1.19-.923-1.792-1.39-.548-.428-1.109-.843-1.657-1.27-.508-.388-1.03-.775-1.538-1.15-.481-.36-.962-.708-1.444-1.069a50.295 50.295 0 00-1.377-.989c-.441-.32-.896-.642-1.35-.962-.027-.014-.04-.027-.067-.054l-19.653 32.185c3.65 2.58 7.22 5.266 10.736 8.073l19.653-32.185c-.495-.387-1.003-.788-1.511-1.19zM121.02 65.7l19.653-32.185c-1.404-.735-2.807-1.457-4.198-2.178-.521-.268-1.043-.522-1.564-.789-.147-.067-.294-.147-.441-.214-.161-.08-.308-.16-.468-.24-.588-.294-1.19-.588-1.778-.87-.468-.226-.95-.454-1.417-.68-.428-.201-.856-.402-1.27-.589a31.636 31.636 0 01-.99-.454l-19.652 32.184c1.978.896 3.943 1.845 5.922 2.82.147.067.281.148.428.214 1.938.976 3.85 1.965 5.775 2.981zM204.23 70.739l-19.652 32.185c.427-.695-.094-1.898-1.404-3.115l19.652-32.184c1.311 1.216 1.832 2.419 1.404 3.114z" fill="#A0F2FE"/><path d="M183.174 99.823l19.652-32.198v.013l-19.639 32.185h-.013z" fill="#A0F2FE"/><path d="M183.187 99.823l19.652-32.185c.04.04.08.08.121.107L183.307 99.93a.868.868 0 01-.12-.107zM183.308 99.943l19.652-32.185.121.12-19.653 32.185a.516.516 0 00-.12-.12z" fill="#A0F2FE"/><path d="M183.414 100.05l19.653-32.184.12.12-19.653 32.184-.12-.12zM183.534 100.171l19.653-32.185.12.12-19.653 32.185-.12-.12zM183.655 100.291l19.653-32.185c.04.04.08.08.107.12l-19.653 32.185c-.04-.04-.067-.08-.107-.12z" fill="#A0F2FE"/><path d="M183.762 100.411l19.652-32.185c.04.04.067.08.107.12l-19.652 32.185c-.04-.04-.067-.08-.107-.12zM183.869 100.545l19.653-32.185c.04.04.067.08.093.12l-19.652 32.185c-.027-.04-.067-.08-.094-.12zM183.963 100.665l19.653-32.185c.026.04.066.08.093.12l-19.653 32.185a.695.695 0 00-.093-.12z" fill="#A0F2FE"/><path d="M184.056 100.785L203.708 68.6c.027.04.067.08.094.12l-19.653 32.185c-.027-.04-.053-.08-.093-.12zM184.149 100.905l19.653-32.184c.027.04.054.08.08.133L184.23 101.04c-.014-.04-.054-.08-.081-.134zM184.243 101.039l19.653-32.184c.027.04.053.093.08.133l-19.653 32.185c-.026-.04-.053-.094-.08-.134zM184.323 101.173l19.653-32.185c.027.04.053.094.08.134l-19.653 32.184c-.026-.04-.053-.093-.08-.133z" fill="#A0F2FE"/><path d="M184.403 101.306l19.653-32.184c.027.053.053.093.08.147l-19.652 32.184c-.027-.053-.054-.093-.081-.147z" fill="#A0F2FE"/><path d="M184.471 101.453l19.652-32.184c.027.053.054.093.067.147L184.538 101.6a.542.542 0 00-.067-.148zM184.551 101.6l19.652-32.184c.027.053.041.107.067.16l-19.652 32.185c-.027-.054-.054-.107-.067-.161z" fill="#A0F2FE"/><path d="M184.604 101.761l19.653-32.185c.027.067.04.12.054.187l-19.653 32.185a.941.941 0 00-.054-.187zM184.671 101.948l19.653-32.185c.026.08.04.16.04.227l-19.653 32.185c-.013-.08-.027-.147-.04-.227zM184.711 102.175l19.653-32.184c.04.28 0 .547-.134.748l-19.653 32.185c.134-.201.174-.468.134-.749zM84.776 41.642L104.43 9.457c.12-.2.308-.334.548-.441.642-.254 1.685-.16 2.901.294L88.226 41.495c-1.217-.455-2.26-.548-2.901-.294-.241.093-.442.24-.549.44z" fill="#A0F2FE"/><path d="M84.776 41.642L104.43 9.457c.027-.04.04-.067.067-.107L84.843 41.535a.291.291 0 00-.067.107z" fill="#A0F2FE"/><path d="M84.844 41.535L104.496 9.35a.67.67 0 01.134-.133L84.977 41.4c-.053.04-.093.094-.133.134z" fill="#A0F2FE"/><path d="M84.977 41.401l19.652-32.184c.04-.027.08-.067.121-.094L85.097 41.308c-.054.04-.094.067-.12.093zM85.097 41.321l19.652-32.185c.04-.026.081-.04.121-.066L85.217 41.254a.258.258 0 00-.12.067z" fill="#A0F2FE"/><path d="M85.204 41.254l19.653-32.185c.04-.013.08-.04.12-.053L85.324 41.2c-.04.014-.08.027-.12.054zM85.324 41.2l19.653-32.184.12-.04L85.445 41.16l-.12.04z" fill="#A0F2FE"/><path d="M85.444 41.16l19.653-32.184c.04-.014.08-.027.12-.027L85.565 41.134a.39.39 0 00-.12.026zM85.565 41.134l19.653-32.185c.04-.013.08-.013.12-.027L85.686 41.107a.267.267 0 00-.12.027z" fill="#A0F2FE"/><path d="M85.686 41.107l19.652-32.185c.04-.013.08-.013.121-.013L85.806 41.094c-.054 0-.094 0-.12.013z" fill="#A0F2FE"/><path d="M85.806 41.08l19.652-32.184c.04 0 .081-.014.121-.014L85.926 41.067c-.04.013-.08.013-.12.013z" fill="#A0F2FE"/><path d="M85.926 41.067l19.652-32.185c.041 0 .081 0 .121-.013L86.046 41.054a.372.372 0 01-.12.013zM86.046 41.067l19.653-32.185h.133L86.18 41.067h-.134z" fill="#A0F2FE"/><path d="M86.18 41.067l19.652-32.185h.134L86.313 41.067h-.133z" fill="#A0F2FE"/><path d="M86.314 41.067l19.652-32.185c.04 0 .094 0 .134.014L86.447 41.08c-.04-.013-.08-.013-.133-.013zM86.46 41.067l19.654-32.185c.053 0 .093.014.147.014L86.608 41.08c-.053 0-.107 0-.147-.013z" fill="#A0F2FE"/><path d="M86.594 41.08l19.652-32.184c.054 0 .094.013.148.013L86.741 41.094c-.04 0-.094 0-.147-.014zM86.742 41.107l19.653-32.185c.053.014.107.014.16.027L86.903 41.134a.67.67 0 00-.16-.027z" fill="#A0F2FE"/><path d="M86.902 41.134l19.653-32.185c.054.013.107.013.16.027L87.063 41.16a.67.67 0 00-.16-.026z" fill="#A0F2FE"/><path d="M87.063 41.16l19.652-32.184.161.04L87.223 41.2c-.04-.014-.107-.027-.16-.04zM87.236 41.187L106.89 9.002l.16.04-19.652 32.185-.16-.04z" fill="#A0F2FE"/><path d="M87.397 41.227l19.652-32.184.161.04-19.653 32.184a.356.356 0 01-.16-.04zM87.558 41.28L107.21 9.097c.054.014.107.027.147.04L87.705 41.321a2.132 2.132 0 00-.147-.04zM87.718 41.32L107.37 9.137c.054.014.094.027.148.04L87.865 41.361a2.128 2.128 0 01-.147-.04z" fill="#A0F2FE"/><path d="M87.852 41.361l19.652-32.184.121.04L87.972 41.4a.622.622 0 00-.12-.04zM87.984 41.401l19.653-32.184.12.04L88.105 41.44l-.12-.04z" fill="#A0F2FE"/><path d="M88.092 41.455L107.744 9.27c.041.013.067.027.107.04L88.199 41.495a.152.152 0 00-.107-.04z" fill="#A0F2FE"/><path d="M88.212 41.482L107.85 9.297l.014.013-19.64 32.185-.013-.013z" fill="#A0F2FE"/><path d="M157.397 89.531l19.653-32.185 13.169.936-19.653 32.185-13.169-.936zM102.29 48.498l19.653-32.184 6.604 11.2-19.653 32.185-6.604-11.2z" fill="#86E1FE"/><path d="M175.674 92.926l19.639-32.185 7.514 6.884-19.653 32.198-7.5-6.897zM88.226 41.495L107.865 9.31l9.599 3.582L97.811 45.09l-9.585-3.595z" fill="#A0F5FE"/><path d="M170.566 90.467l19.653-32.185c1.564.107 3.623 1.096 5.094 2.46L175.66 92.925c-1.471-1.363-3.529-2.366-5.094-2.46z" fill="#A0F2FE"/><path d="M170.566 90.467l19.653-32.185h.027l-19.653 32.185h-.027z" fill="#A0F2FE"/><path d="M170.593 90.467l19.652-32.185c.054 0 .094.013.148.013L170.74 90.48c-.04-.013-.094-.013-.147-.013z" fill="#A0F2FE"/><path d="M170.74 90.48l19.653-32.185c.053 0 .107.014.147.014l-19.639 32.184c-.054 0-.107-.013-.161-.013z" fill="#A0F2FE"/><path d="M170.9 90.493l19.653-32.184c.054.013.107.013.16.026L171.061 90.52c-.067-.013-.121-.013-.161-.027z" fill="#A0F2FE"/><path d="M171.048 90.52l19.653-32.185c.053.014.106.014.16.027l-19.653 32.185c-.053-.013-.107-.013-.16-.027z" fill="#A0F2FE"/><path d="M171.208 90.547l19.653-32.185.16.04-19.653 32.185a1.384 1.384 0 00-.16-.04zM171.382 90.587l19.653-32.185.16.04-19.653 32.185-.16-.04z" fill="#A0F2FE"/><path d="M171.542 90.627l19.653-32.185.16.04-19.653 32.185-.16-.04zM171.703 90.667l19.653-32.184c.053.013.107.026.147.04L171.85 90.707c-.053-.013-.093-.026-.147-.04z" fill="#A0F2FE"/><path d="M171.85 90.707l19.652-32.184c.04.013.094.026.134.04l-19.653 32.184a1.707 1.707 0 00-.133-.04z" fill="#A0F2FE"/><path d="M171.983 90.747l19.653-32.184.12.04-19.652 32.184c-.027-.013-.08-.026-.121-.04zM172.117 90.787l19.653-32.184c.04.013.067.026.107.04l-19.653 32.185a.969.969 0 01-.107-.04zM172.225 90.828l19.652-32.185c.04.013.067.027.107.04l-19.652 32.185c-.041-.013-.067-.027-.107-.04z" fill="#A0F2FE"/><path d="M172.331 90.868l19.653-32.185c.026.014.067.027.093.04l-19.652 32.185c-.027-.014-.067-.027-.094-.04zM172.425 90.908l19.652-32.185c.027.014.054.027.094.04l-19.653 32.185c-.04-.027-.066-.027-.093-.04z" fill="#A0F2FE"/><path d="M172.505 90.935l19.653-32.185a.612.612 0 00.093.04l-19.653 32.185a.612.612 0 00-.093-.04z" fill="#A0F2FE"/><path d="M172.599 90.975l19.652-32.185a.193.193 0 00.081.027L172.679 91a.184.184 0 01-.08-.026z" fill="#A0F2FE"/><path d="M172.679 91.002l19.652-32.185a.193.193 0 00.081.027l-19.653 32.184a.184.184 0 01-.08-.026zM172.759 91.042l19.652-32.185.081.04-19.653 32.185-.08-.04z" fill="#A0F2FE"/><path d="M172.839 91.082l19.653-32.185.08.04-19.653 32.185c-.027-.027-.053-.04-.08-.04z" fill="#A0F2FE"/><path d="M172.919 91.109l19.653-32.185.08.04-19.653 32.185-.08-.04zM173 91.149l19.653-32.185.08.04-19.653 32.185c-.04-.014-.053-.027-.08-.04z" fill="#A0F2FE"/><path d="M173.066 91.189l19.653-32.185.08.04-19.652 32.185c-.027-.027-.054-.027-.081-.04z" fill="#A0F2FE"/><path d="M173.146 91.215l19.653-32.184a.4.4 0 01.107.053L173.253 91.27a.415.415 0 01-.107-.054zM173.254 91.269l19.653-32.185c.04.014.066.04.107.054l-19.666 32.184c-.027-.013-.067-.04-.094-.053z" fill="#A0F2FE"/><path d="M173.347 91.322l19.652-32.184c.054.026.094.053.147.08l-19.652 32.184c-.04-.026-.094-.053-.147-.08zM173.508 91.402l19.653-32.184c.16.08.307.173.467.253l-19.652 32.185c-.161-.093-.321-.174-.468-.254z" fill="#A0F2FE"/><path d="M173.962 91.656l19.653-32.184c.04.026.066.04.107.066l-19.653 32.185c-.027-.026-.067-.04-.107-.067z" fill="#A0F2FE"/><path d="M174.069 91.723l19.653-32.185c.04.027.067.04.107.067L174.176 91.79c-.026-.027-.067-.04-.107-.067zM174.189 91.79l19.653-32.185c.027.014.054.04.08.054L174.27 91.843c-.027-.013-.054-.04-.081-.053z" fill="#A0F2FE"/><path d="M174.27 91.843l19.652-32.184c.027.013.054.026.08.053L174.35 91.897c-.04-.027-.054-.04-.08-.054z" fill="#A0F2FE"/><path d="M174.337 91.897l19.653-32.185c.026.013.053.027.066.054L174.404 91.95c-.014-.026-.04-.04-.067-.053zM174.417 91.937l19.653-32.185c.026.014.053.027.067.054L174.484 91.99a.277.277 0 01-.067-.053z" fill="#A0F2FE"/><path d="M174.483 91.99l19.653-32.184c.027.013.04.026.067.04L174.55 92.03c-.027-.014-.04-.027-.067-.04z" fill="#A0F2FE"/><path d="M174.551 92.03l19.652-32.184c.027.013.041.026.067.04L174.618 92.07a.284.284 0 01-.067-.04z" fill="#A0F2FE"/><path d="M174.617 92.07l19.653-32.184c.027.013.04.027.067.04l-19.653 32.185a.074.074 0 01-.067-.04z" fill="#A0F2FE"/><path d="M174.671 92.124l19.653-32.184c.026.013.04.026.066.04l-19.652 32.184a.306.306 0 00-.067-.04z" fill="#A0F2FE"/><path d="M174.737 92.164L194.39 59.98c.027.013.04.026.067.053l-19.653 32.185a.282.282 0 00-.067-.054zM174.805 92.218l19.652-32.185c.027.013.04.027.067.053l-19.652 32.185c-.014-.027-.041-.04-.067-.053zM174.885 92.271l19.652-32.185c.027.014.041.04.067.054l-19.652 32.185c-.027-.027-.054-.04-.067-.054z" fill="#A0F2FE"/><path d="M174.952 92.311l19.653-32.185c.027.014.053.04.08.054l-19.653 32.185c-.04-.014-.066-.027-.08-.054z" fill="#A0F2FE"/><path d="M175.019 92.378l19.652-32.185c.027.027.054.04.08.067l-19.652 32.185c-.027-.027-.054-.054-.08-.067z" fill="#A0F2FE"/><path d="M175.099 92.431l19.652-32.184c.027.026.054.04.081.066l-19.653 32.185c-.027-.027-.054-.04-.08-.067z" fill="#A0F2FE"/><path d="M175.179 92.498l19.652-32.185c.027.027.054.054.094.067l-19.653 32.185a.234.234 0 01-.093-.067z" fill="#A0F2FE"/><path d="M175.259 92.565l19.652-32.185c.027.027.067.054.094.08l-19.653 32.185a.545.545 0 00-.093-.08zM175.366 92.645l19.653-32.184c.027.026.067.053.093.08L175.46 92.726c-.04-.027-.067-.054-.094-.08z" fill="#A0F2FE"/><path d="M175.459 92.725l19.653-32.184c.04.027.08.067.107.093L175.566 92.82a.667.667 0 01-.107-.094zM175.566 92.832l19.653-32.184c.04.026.067.066.107.093l-19.653 32.185c-.04-.04-.066-.067-.107-.094zM97.811 45.09l19.653-32.185c1.845.709 3.69 2.099 4.479 3.422L102.29 48.512c-.789-1.337-2.62-2.727-4.479-3.422z" fill="#A0F2FE"/><path d="M97.811 45.09l19.653-32.185c.014 0 .014 0 .027.014L97.838 45.103c0-.013-.013-.013-.026-.013z" fill="#A0F2FE"/><path d="M97.838 45.09l19.653-32.185a.623.623 0 00.093.04L97.931 45.13c-.026-.013-.066-.027-.093-.04zM97.932 45.13l19.652-32.185a.678.678 0 00.094.04L98.025 45.17a.656.656 0 01-.093-.04z" fill="#A0F2FE"/><path d="M98.012 45.157l19.652-32.185.081.04-19.653 32.185a.217.217 0 00-.08-.04zM98.106 45.197l19.652-32.185.08.04-19.652 32.185-.08-.04zM98.186 45.237l19.652-32.185.08.04-19.652 32.185c-.027-.027-.054-.04-.08-.04z" fill="#A0F2FE"/><path d="M98.266 45.264l19.652-32.185.081.04-19.653 32.185-.08-.04z" fill="#A0F2FE"/><path d="M98.346 45.304l19.652-32.185.081.04-19.653 32.185a29.964 29.964 0 01-.08-.04zM98.427 45.344l19.652-32.185.081.04-19.653 32.185-.08-.04z" fill="#A0F2FE"/><path d="M98.507 45.384L118.16 13.2l.08.04-19.653 32.184-.08-.04zM98.587 45.424L118.24 13.24c.026.013.066.026.093.04L98.68 45.464a.65.65 0 00-.093-.04zM98.68 45.465l19.653-32.185c.04.013.081.04.121.053L98.801 45.518c-.04-.013-.08-.04-.12-.053z" fill="#A0F2FE"/><path d="M98.8 45.518l19.653-32.185c.041.027.081.04.121.067L98.921 45.584c-.04-.026-.08-.04-.12-.066z" fill="#A0F2FE"/><path d="M98.92 45.585L118.575 13.4c.16.08.32.174.481.267L99.402 45.852c-.16-.094-.32-.187-.481-.267z" fill="#A0F2FE"/><path d="M99.402 45.852l19.653-32.184c.04.026.094.053.134.08L99.536 45.932c-.04-.026-.094-.053-.134-.08z" fill="#A0F2FE"/><path d="M99.536 45.932l19.653-32.184c.04.026.067.04.107.066L99.643 46c-.04-.027-.067-.04-.107-.067zM99.644 45.999l19.652-32.185c.027.014.067.04.094.054L99.737 46.052c-.04-.013-.067-.04-.093-.053z" fill="#A0F2FE"/><path d="M99.736 46.052l19.653-32.184c.027.013.053.026.067.053L99.803 46.106c-.027-.014-.04-.027-.067-.054z" fill="#A0F2FE"/><path d="M99.804 46.106l19.652-32.185c.027.014.054.027.067.054L99.871 46.159c-.014-.026-.04-.04-.067-.053zM99.884 46.16l19.652-32.185c.027.013.054.026.067.053L99.951 46.213c-.027-.027-.054-.04-.067-.054z" fill="#A0F2FE"/><path d="M99.95 46.2l19.653-32.185c.027.013.04.026.067.04l-19.653 32.184c-.027-.013-.04-.026-.067-.04zM100.017 46.253l19.652-32.185c.027.014.04.027.067.04l-19.653 32.185c-.026-.014-.04-.027-.066-.04zM100.084 46.293l19.653-32.185c.026.013.04.027.067.04l-19.653 32.185c-.027-.013-.04-.027-.067-.04zM100.151 46.333l19.653-32.185c.027.014.04.027.067.04l-19.653 32.198c-.027-.013-.04-.026-.067-.053zM100.218 46.387l19.652-32.185c.027.013.041.04.067.053L100.285 46.44c-.027-.027-.04-.04-.067-.053z" fill="#A0F2FE"/><path d="M100.285 46.44l19.653-32.185c.027.013.04.04.067.054l-19.653 32.184c-.027-.026-.04-.04-.067-.053z" fill="#A0F2FE"/><path d="M100.352 46.48l19.652-32.185c.027.014.04.04.067.054l-19.653 32.185c-.013-.014-.04-.027-.066-.054zM100.419 46.534l19.653-32.185c.026.013.053.04.08.053l-19.653 32.185a.278.278 0 01-.08-.053zM100.499 46.6l19.653-32.184c.026.026.053.04.08.066l-19.653 32.185c-.027-.027-.053-.053-.08-.067z" fill="#A0F2FE"/><path d="M100.579 46.654l19.653-32.185c.026.027.053.04.08.067L100.659 46.72c-.026-.026-.053-.04-.08-.066zM100.659 46.72l19.653-32.184c.027.027.053.053.093.067l-19.652 32.184c-.04-.026-.067-.04-.094-.066z" fill="#A0F2FE"/><path d="M100.739 46.788l19.653-32.185c.027.027.067.053.094.08l-19.653 32.185c-.027-.027-.067-.054-.094-.08zM100.833 46.868l19.653-32.185c.026.027.067.053.093.08l-19.652 32.185c-.027-.027-.067-.054-.094-.08z" fill="#A0F2FE"/><path d="M100.927 46.948l19.652-32.185c.041.027.067.067.107.094L101.034 47.04c-.027-.026-.067-.066-.107-.093z" fill="#A0F2FE"/><path d="M101.033 47.041l19.653-32.184c.04.026.067.067.107.093l-19.639 32.198c-.041-.04-.081-.067-.121-.107z" fill="#A0F2FE"/><path d="M101.153 47.148l19.653-32.184c.04.04.08.066.12.107l-19.652 32.184c-.054-.04-.094-.08-.121-.107z" fill="#A0F2FE"/><path d="M101.261 47.255l19.652-32.184.121.12-19.653 32.184c-.04-.053-.08-.08-.12-.12z" fill="#A0F2FE"/><path d="M101.381 47.362l19.653-32.184.12.12-19.653 32.184-.12-.12z" fill="#A0F2FE"/><path d="M101.501 47.483l19.653-32.185c.04.04.08.08.107.12l-19.653 32.185c-.04-.04-.067-.08-.107-.12zM101.608 47.603l19.653-32.185c.04.04.067.08.107.12l-19.653 32.185a.771.771 0 00-.107-.12z" fill="#A0F2FE"/><path d="M101.715 47.723l19.652-32.185c.041.04.067.08.107.12l-19.652 32.185c-.04-.04-.067-.08-.107-.12zM101.822 47.843l19.653-32.184c.04.04.067.08.094.12l-19.653 32.185c-.027-.04-.067-.08-.094-.12z" fill="#A0F2FE"/><path d="M101.916 47.964l19.653-32.185c.026.04.067.08.093.12L102.01 48.084c-.027-.04-.054-.08-.094-.12zM102.01 48.097l19.652-32.184c.027.04.067.08.094.12l-19.653 32.185a.697.697 0 00-.093-.12z" fill="#A0F2FE"/><path d="M102.103 48.218l19.652-32.185c.027.04.054.08.08.134L102.183 48.35c-.014-.053-.054-.093-.08-.133zM102.196 48.338l19.653-32.185c.027.04.053.094.08.134L102.277 48.47c-.027-.04-.054-.08-.081-.133zM102.277 48.471l19.653-32.184c0 .013.013.013.013.027l-19.652 32.184s-.014-.013-.014-.026z" fill="#A0F2FE"/><path d="M146.542 72.41l19.653-32.185.12 9.035-19.653 32.198-.12-9.049zM121.021 65.7l19.652-32.185 8.289-3.862-19.653 32.184-8.288 3.863z" fill="#86E1FE"/><path d="M143.413 68.707l19.653-32.184c1.818 1.122 3.088 2.633 3.128 3.715l-19.652 32.185c-.027-1.083-1.311-2.593-3.129-3.716z" fill="#A0F2FE"/><path d="M143.413 68.707l19.653-32.184a.1.1 0 00.053.026l-19.652 32.185c-.014-.013-.027-.027-.054-.027zM143.467 68.734l19.652-32.185c.027.014.054.04.081.054l-19.653 32.184c-.027-.013-.053-.04-.08-.053z" fill="#A0F2FE"/><path d="M143.547 68.787L163.2 36.602c.026.014.053.04.08.054l-19.653 32.185c-.027-.014-.053-.04-.08-.054z" fill="#A0F2FE"/><path d="M143.627 68.84l19.653-32.184c.026.013.053.04.08.053l-19.653 32.185a.278.278 0 00-.08-.053z" fill="#A0F2FE"/><path d="M143.707 68.894L163.36 36.71c.026.013.04.026.067.04l-19.653 32.184c-.013-.013-.04-.026-.067-.04z" fill="#A0F2FE"/><path d="M143.773 68.934l19.653-32.184c.027.013.04.026.067.04L143.84 68.975a.284.284 0 00-.067-.04zM143.841 68.975l19.653-32.185c.026.013.04.026.066.04l-19.652 32.185c-.014 0-.04-.014-.067-.04zM143.907 69.028l19.653-32.185c.027.014.04.027.067.054L143.974 69.08c-.013-.026-.04-.04-.067-.053z" fill="#A0F2FE"/><path d="M143.975 69.068l19.652-32.184c.027.013.04.026.067.053l-19.653 32.185c-.013-.014-.04-.027-.066-.054z" fill="#A0F2FE"/><path d="M144.041 69.122l19.653-32.185c.026.013.04.027.067.053l-19.653 32.185c-.013-.026-.04-.04-.067-.053zM144.108 69.175l19.653-32.184c.027.013.04.026.067.053l-19.653 32.185c-.013-.027-.04-.04-.067-.054z" fill="#A0F2FE"/><path d="M144.176 69.215l19.652-32.184a.28.28 0 01.067.053l-19.652 32.185c-.014-.014-.04-.027-.067-.054zM144.255 69.269l19.653-32.185c.026.013.053.04.08.053l-19.653 32.185a.28.28 0 01-.08-.053z" fill="#A0F2FE"/><path d="M144.322 69.336l19.653-32.185c.027.013.053.04.08.053L144.402 69.39c-.026-.013-.053-.04-.08-.053z" fill="#A0F2FE"/><path d="M144.402 69.389l19.653-32.185c.027.027.053.04.08.067l-19.652 32.185c-.027-.027-.054-.04-.081-.067z" fill="#A0F2FE"/><path d="M144.482 69.456l19.653-32.185a.244.244 0 00.094.067l-19.653 32.185c-.027-.027-.067-.04-.094-.067z" fill="#A0F2FE"/><path d="M144.576 69.523l19.653-32.185c.027.027.053.054.093.067L144.67 69.59a.244.244 0 01-.094-.067z" fill="#A0F2FE"/><path d="M144.656 69.603l19.653-32.185c.04.027.067.053.107.093l-19.653 32.185c-.027-.04-.067-.067-.107-.093z" fill="#A0F2FE"/><path d="M144.764 69.683l19.652-32.185c.04.027.067.067.107.094l-19.652 32.184a.668.668 0 01-.107-.093z" fill="#A0F2FE"/><path d="M144.87 69.776l19.653-32.184c.04.04.08.067.12.107L144.99 69.883c-.04-.04-.08-.066-.12-.106z" fill="#A0F2FE"/><path d="M144.99 69.883L164.643 37.7c.04.04.08.067.12.107L145.111 69.99c-.054-.04-.094-.066-.121-.107z" fill="#A0F2FE"/><path d="M145.098 69.99l19.652-32.184.121.12-19.653 32.185-.12-.12z" fill="#A0F2FE"/><path d="M145.218 70.11l19.652-32.184.121.12-19.653 32.185-.12-.12z" fill="#A0F2FE"/><path d="M145.338 70.23l19.653-32.184.12.12-19.653 32.185-.12-.12zM145.459 70.351l19.653-32.184c.04.04.08.08.107.12l-19.653 32.185c-.04-.04-.067-.08-.107-.12zM145.565 70.485L165.218 38.3c.04.04.067.08.107.12l-19.653 32.185c-.04-.04-.066-.08-.107-.12zM145.672 70.605l19.653-32.185c.04.04.066.08.107.12l-19.653 32.185c-.04-.04-.067-.08-.107-.12zM145.779 70.725l19.653-32.184c.04.04.067.08.094.12l-19.653 32.185c-.04-.027-.067-.08-.094-.12zM145.873 70.859l19.653-32.185c.026.04.067.08.093.134l-19.652 32.185c-.027-.054-.067-.094-.094-.134z" fill="#A0F2FE"/><path d="M145.967 70.98l19.652-32.185c.027.04.054.08.094.133L146.06 71.113c-.04-.04-.066-.094-.093-.134z" fill="#A0F2FE"/><path d="M146.047 71.113L165.7 38.928c.026.04.053.094.08.134l-19.653 32.185a.352.352 0 00-.08-.134zM146.141 71.247l19.652-32.185c.027.04.054.094.081.134L146.221 71.38c-.027-.04-.054-.093-.08-.133z" fill="#A0F2FE"/><path d="M146.207 71.38l19.653-32.184c.026.053.053.093.08.147l-19.653 32.184c-.026-.053-.053-.093-.08-.147zM146.287 71.528l19.653-32.185c.027.053.053.107.067.147l-19.653 32.184a.478.478 0 00-.067-.147zM146.354 71.674l19.653-32.184c.027.053.04.107.067.16l-19.653 32.185c-.013-.054-.04-.107-.067-.16z" fill="#A0F2FE"/><path d="M146.421 71.835l19.653-32.185c.026.067.04.12.053.187l-19.653 32.185a.938.938 0 00-.053-.187zM146.475 72.022l19.652-32.185c.014.08.04.147.04.227L146.515 72.25a.698.698 0 00-.04-.227zM146.528 72.25l19.653-32.185c.013.053.013.12.013.173l-19.652 32.185c0-.067-.014-.12-.014-.174zM129.31 61.837l19.652-32.185c1.097-.427 2.982.04 4.76 1.123L134.069 62.96c-1.778-1.083-3.663-1.55-4.759-1.123z" fill="#A0F2FE"/><path d="M129.31 61.837l19.652-32.185-19.639 32.185h-.013zM129.323 61.837l19.653-32.184c.04-.014.093-.027.134-.054l-19.653 32.185a.962.962 0 01-.134.053zM129.456 61.797l19.653-32.185c.04-.013.093-.026.133-.04L129.59 61.757c-.054.013-.094.027-.134.04zM129.59 61.757l19.653-32.185c.04-.013.093-.013.133-.026L129.724 61.73a.47.47 0 00-.134.027z" fill="#A0F2FE"/><path d="M129.724 61.73l19.652-32.184c.04-.014.094-.014.134-.027l-19.653 32.185c-.04.013-.093.013-.133.026zM129.857 61.704l19.653-32.185c.04 0 .094-.013.134-.013L129.991 61.69c-.04 0-.093.014-.134.014zM129.991 61.69l19.653-32.184c.04 0 .093 0 .134-.014l-19.653 32.185c-.04.013-.08.013-.134.013zM130.125 61.69l19.653-32.184h.133L130.259 61.69a.227.227 0 00-.134 0zM130.272 61.677l19.653-32.185h.147L130.42 61.677h-.148z" fill="#A0F2FE"/><path d="M130.406 61.69l19.653-32.184c.053 0 .094 0 .147.013l-19.653 32.185c-.04-.014-.093-.014-.147-.014z" fill="#A0F2FE"/><path d="M130.553 61.69l19.652-32.184c.054 0 .094.013.147.013L130.7 61.704c-.04 0-.094-.014-.147-.014zM130.7 61.704l19.653-32.185c.053 0 .107.013.16.013l-19.652 32.185c-.054 0-.107 0-.161-.013zM130.86 61.73l19.653-32.184c.054.013.107.013.16.026l-19.652 32.185c-.054-.013-.107-.027-.161-.027z" fill="#A0F2FE"/><path d="M131.021 61.743l19.652-32.184c.054.013.107.013.161.027L131.181 61.77a.658.658 0 01-.16-.027zM131.182 61.784l19.652-32.185c.054.014.107.027.174.04l-19.653 32.185c-.066-.027-.12-.027-.173-.04z" fill="#A0F2FE"/><path d="M131.355 61.81l19.653-32.184.161.04-19.653 32.184-.161-.04z" fill="#A0F2FE"/><path d="M131.516 61.85l19.652-32.184.161.04-19.653 32.185c-.053 0-.107-.027-.16-.04zM131.676 61.904l19.652-32.185c.054.014.094.027.148.04l-19.653 32.185c-.04-.013-.094-.027-.147-.04zM131.823 61.944l19.653-32.185c.053.014.094.027.147.04L131.97 61.985c-.053-.013-.093-.026-.147-.04z" fill="#A0F2FE"/><path d="M131.97 61.984L151.622 29.8l.121.04-19.653 32.185-.12-.04z" fill="#A0F2FE"/><path d="M132.091 62.025l19.652-32.185.121.04-19.653 32.185-.12-.04z" fill="#A0F2FE"/><path d="M132.211 62.065l19.653-32.185c.026.013.066.027.093.04l-19.653 32.185c-.026-.014-.066-.027-.093-.04zM132.305 62.105l19.652-32.185c.027.013.067.027.094.04l-19.653 32.185a.613.613 0 00-.093-.04zM132.411 62.145l19.653-32.185c.027.014.067.027.093.04l-19.652 32.185c-.04-.027-.067-.027-.094-.04z" fill="#A0F2FE"/><path d="M132.491 62.172l19.653-32.185c.027.013.053.027.08.027l-19.653 32.184c-.013 0-.04-.013-.08-.026zM132.585 62.212l19.653-32.185.08.04-19.653 32.185-.08-.04z" fill="#A0F2FE"/><path d="M132.665 62.238l19.653-32.184.08.04-19.653 32.184-.08-.04z" fill="#A0F2FE"/><path d="M132.745 62.278l19.653-32.184.08.04-19.653 32.184-.08-.04zM132.826 62.319l19.653-32.185.08.04-19.653 32.185c-.026-.027-.053-.04-.08-.04z" fill="#A0F2FE"/><path d="M132.906 62.345l19.653-32.184.08.04-19.653 32.184a.221.221 0 01-.08-.04z" fill="#A0F2FE"/><path d="M132.973 62.386L152.625 30.2l.081.04-19.64 32.185c-.026-.014-.067-.027-.093-.04zM133.066 62.426l19.653-32.185.08.04-19.652 32.185a30.384 30.384 0 00-.081-.04z" fill="#A0F2FE"/><path d="M133.146 62.466l19.653-32.185.08.04-19.639 32.185a.678.678 0 01-.094-.04z" fill="#A0F2FE"/><path d="M133.24 62.505l19.653-32.184c.04.013.08.04.12.053L133.361 62.56c-.054-.013-.081-.04-.121-.053z" fill="#A0F2FE"/><path d="M133.347 62.559l19.652-32.185c.04.027.094.04.134.067L133.48 62.626c-.04-.014-.08-.04-.133-.067zM133.48 62.64l19.653-32.185c.147.08.308.16.455.254l-19.653 32.184a4.912 4.912 0 00-.455-.254zM133.948 62.893l19.653-32.184c.04.026.093.053.134.08l-19.653 32.184c-.054-.026-.094-.053-.134-.08z" fill="#A0F2FE"/><path d="M170.567 90.467c1.564.106 3.623 1.096 5.093 2.459l7.5 6.897c1.484 1.363 1.939 2.713 1.217 3.341l-6.404 5.306c2.741 2.941 5.308 5.881 7.607 8.795l15.709 5.547c1.832.641 3.703 2.018 4.559 3.354l4.345 6.87c.695 1.083.575 1.952-.241 2.273a1.97 1.97 0 01-.668.133l-11.819.615c1.297 2.753 2.327 5.427 3.089 8.006l15.561 9.209c1.845 1.083 3.182 2.593 3.262 3.689l.442 5.654c.04.521-.214.895-.682 1.082-.508.201-1.27.188-2.179-.066l-15.148-4.144c-.374 2.085-1.096 3.997-2.032 5.801l12.768 11.307c1.537 1.337 2.085 2.727 1.404 3.395l-3.557 3.435a.983.983 0 01-.414.254c-.842.334-2.326.054-3.931-.775l-15.949-8.207c-.989.522-1.952 1.07-3.088 1.511-1.123.441-2.353.748-3.57 1.096l7.741 11.427c.775 1.15.695 2.045-.161 2.38-.16.066-.361.107-.574.133l-6.886.655c-1.363.12-3.422-.668-5.066-1.965l-13.931-10.839a94.745 94.745 0 01-10.228-1.003l1.351 9.543c.08.575-.174.99-.682 1.19-.481.187-1.177.187-2.032-.027l-9.091-2.258c-1.765-.428-3.77-1.685-4.88-3.061l-9.519-11.588a184.95 184.95 0 01-12.005-4.518l-5.254 6.081a1.02 1.02 0 01-.455.308c-.816.321-2.259.067-3.797-.682l-9.706-4.771c-1.885-.936-3.463-2.42-3.864-3.622l-3.462-10.359c-3.944-2.259-7.834-4.691-11.685-7.204l-10.976 1.51c-1.31.174-3.329-.561-5.027-1.844l-8.61-6.469c-1.697-1.27-2.593-2.727-2.219-3.582l3.209-7.351a192.94 192.94 0 01-9.385-8.608l-14.76-3.301c-1.751-.401-3.77-1.618-4.96-2.994l-6.043-7.031c-1.15-1.336-1.243-2.512-.24-2.9l9.385-3.061c-2.046-2.913-3.944-5.8-5.482-8.607L8.186 85.36c-1.885-.896-3.53-2.366-3.998-3.609l-2.446-6.389c-.308-.815-.08-1.39.561-1.644.348-.133.816-.173 1.377-.107l13.744 1.791c-.468-2.472-.588-4.811-.508-7.057L2.435 57.854C.726 56.611-.25 55.128.057 54.22l1.591-4.638c.094-.294.321-.495.629-.628.668-.268 1.764-.16 3.034.347l15.91 6.322c1.203-1.59 2.727-3.007 4.438-4.29L15.19 39.717c-1.243-1.39-1.377-2.593-.32-3.007l5.334-2.099c1.042-.414 2.98.094 4.8 1.243l15.28 9.73a60.148 60.148 0 018.596-.815l-4.639-10.746c-.36-.855-.147-1.47.522-1.738.32-.12.735-.173 1.243-.12l8.169.816c1.59.16 3.676 1.216 5.093 2.566L71.26 47.015c3.704.761 7.487 1.657 11.364 2.793l1.992-7.966c.08-.334.321-.561.655-.695.642-.254 1.685-.16 2.901.294l9.6 3.595c1.844.709 3.689 2.099 4.478 3.422l6.605 11.2c4.037 1.818 8.074 3.877 12.125 6.002l8.289-3.863c1.097-.428 2.982.04 4.76 1.123l9.345 5.734c1.818 1.122 3.088 2.633 3.128 3.715l.12 9.036a229.5 229.5 0 0110.736 8.073l13.209.989zm-14.64 59.985c16.872-6.616 9.787-29.191-15.829-50.429-25.615-21.238-60.04-33.107-76.913-26.49-16.858 6.602-9.759 29.177 15.843 50.428 25.602 21.252 60.041 33.107 76.899 26.491z" fill="#144662"/><path d="M134.068 62.973l19.653-32.184 9.345 5.72-19.653 32.198-9.345-5.734z" fill="#A0F5FE"/></svg>