<svg width="31" height="34" fill="none" xmlns="http://www.w3.org/2000/svg"><path fill-rule="evenodd" clip-rule="evenodd" d="M15.773 27.05c-.628-1.004-1.673-1.653-2.757-2.13-2.306-1.012-3.459-3.422-3.459-7.229V4.78A4.779 4.779 0 000 4.78v13.19c0 4.816 1.384 8.537 4.151 11.161 2.8 2.625 6.71 3.937 11.73 3.937 1.942 0 2.617-2.37 1.404-3.886a22.473 22.473 0 01-1.512-2.131z" fill="#009D94"/><path fill-rule="evenodd" clip-rule="evenodd" d="M31 29.033c0-2.032-1.764-3.544-3.266-4.912-1.386-1.262-2.078-3.403-2.078-6.425V4.561a4.561 4.561 0 10-9.123 0v13.413c0 4.818 1.321 8.54 3.962 11.164 1.727 1.696 3.896 2.844 6.507 3.445 2.153.495 3.998-1.34 3.998-3.55z" fill="#00819D"/></svg>