<svg width="30" height="32" fill="none" xmlns="http://www.w3.org/2000/svg"><path fill-rule="evenodd" clip-rule="evenodd" d="M15.264 26.177c-.607-.971-1.619-1.6-2.668-2.06-2.231-.98-3.347-3.312-3.347-6.997V4.625a4.625 4.625 0 00-9.25 0v12.764C0 22.05 1.339 25.651 4.017 28.191 6.727 30.73 10.51 32 15.37 32c1.879 0 2.532-2.293 1.358-3.76a21.75 21.75 0 01-1.463-2.063zM30 28.096c0-1.966-1.707-3.429-3.16-4.753-1.342-1.221-2.012-3.294-2.012-6.218V4.414a4.414 4.414 0 10-8.828 0v12.98c0 4.663 1.278 8.264 3.834 10.804 1.671 1.642 3.77 2.753 6.297 3.334C28.215 32.01 30 30.235 30 28.096z" fill="#fff"/></svg>