<svg width="20" height="21" fill="none" xmlns="http://www.w3.org/2000/svg"><path fill-rule="evenodd" clip-rule="evenodd" d="M10.483 16.906c-.392-.627-1.046-1.033-1.723-1.33-1.441-.633-2.162-2.14-2.162-4.519v-8.07a2.987 2.987 0 10-5.973 0v8.244c0 3.01.865 5.335 2.595 6.975 1.75 1.64 4.193 2.46 7.33 2.46 1.214 0 1.636-1.48.878-2.428-.34-.425-.656-.87-.945-1.332z" fill="#009D94"/><path fill-rule="evenodd" clip-rule="evenodd" d="M20 18.146c0-1.27-1.103-2.215-2.041-3.07-.866-.789-1.3-2.128-1.3-4.016V2.85a2.85 2.85 0 10-5.701 0v8.384c0 3.01.826 5.337 2.477 6.978 1.079 1.06 2.434 1.777 4.066 2.152 1.346.31 2.499-.837 2.499-2.218z" fill="#00819D"/></svg>