<svg width="180" height="95" fill="none" xmlns="http://www.w3.org/2000/svg"><g opacity=".57"><path opacity=".57" d="M178.982 45.957c.077 25.14-39.765 45.633-88.992 45.788C40.763 91.9.79 71.641.713 46.5.635 21.36 40.478.867 89.705.712c49.239-.142 89.199 20.104 89.277 45.245z" fill="url(#paint0_linear_27_5483)"/><path opacity=".57" d="M89.458 92.47C40.167 92.47.078 71.912 0 46.513-.078 21.023 40.167.155 89.718 0h.557c23.719 0 46.012 4.686 62.849 13.217 17.122 8.674 26.557 20.299 26.596 32.74.039 12.44-9.332 24.13-26.402 32.907-16.914 8.7-39.389 13.528-63.315 13.606-.182-.013-.363 0-.545 0zm.804-91.033h-.544C40.97 1.592 1.374 21.8 1.452 46.5c.078 24.61 39.506 44.52 88.006 44.52h.545c23.693-.078 45.947-4.841 62.654-13.437 16.552-8.519 25.651-19.742 25.612-31.613-.039-11.871-9.203-23.043-25.806-31.458-16.642-8.44-38.702-13.075-62.201-13.075z" fill="#fff"/></g><path d="M140.901 86.995c0 4.052-3.292 7.34-7.349 7.34s-7.349-3.288-7.349-7.34c0-4.053 3.292-7.34 7.349-7.34s7.349 3.287 7.349 7.34z" fill="url(#paint1_radial_27_5483)"/><path d="M19.74 19.21a2.891 2.891 0 01-5.781 0 2.891 2.891 0 012.89-2.887 2.875 2.875 0 012.89 2.887z" fill="url(#paint2_radial_27_5483)"/><defs><radialGradient id="paint1_radial_27_5483" cx="0" cy="0" r="1" gradientUnits="userSpaceOnUse" gradientTransform="matrix(7.68213 0 0 7.67322 131.671 83.626)"><stop stop-color="#F9E836"/><stop offset="1" stop-color="#DB1AB8"/></radialGradient><radialGradient id="paint2_radial_27_5483" cx="0" cy="0" r="1" gradientUnits="userSpaceOnUse" gradientTransform="matrix(3.0232 0 0 3.0197 16.108 17.876)"><stop stop-color="#F9E836"/><stop offset="1" stop-color="#DB1AB8"/></radialGradient><linearGradient id="paint0_linear_27_5483" x1="-59.754" y1="53.383" x2="74.425" y2="46.951" gradientUnits="userSpaceOnUse"><stop stop-color="#2D2E56" stop-opacity="0"/><stop offset=".464" stop-color="#8C8DA3" stop-opacity=".464"/><stop offset="1" stop-color="#fff"/></linearGradient></defs></svg>