<svg width="209" height="107" fill="none" xmlns="http://www.w3.org/2000/svg"><g opacity=".57"><path opacity=".57" d="M207.418 53.18c.091 29.14-46.103 52.909-103.184 53.09C47.153 106.451.816 82.955.726 53.815.635 24.675 46.829.906 103.91.725 160.991.544 207.34 24.04 207.418 53.18z" fill="url(#paint0_linear_20_3450)"/><path opacity=".57" d="M103.612 106.995C46.518 106.995.091 83.201 0 53.815c-.039-14.383 10.81-27.898 30.55-38.06C50.134 5.67 76.186.078 103.91 0h.635c27.478 0 53.323 5.424 72.816 15.315 19.805 10.032 30.731 23.483 30.783 37.865.039 14.383-10.809 27.898-30.549 38.047-19.585 10.085-45.637 15.677-73.361 15.755-.207.013-.415.013-.622.013zm.933-105.545h-.635c-27.49.09-53.31 5.618-72.7 15.6C11.977 26.94 1.4 40.001 1.453 53.814c.09 28.596 45.857 51.73 102.16 51.73h.635c27.491-.091 53.31-5.618 72.7-15.6 19.234-9.903 29.81-22.952 29.759-36.765-.039-13.813-10.693-26.797-29.993-36.584-19.299-9.774-44.91-15.146-72.168-15.146z" fill="#fff"/></g><defs><linearGradient id="paint0_linear_20_3450" x1="-69.402" y1="61.794" x2="86.181" y2="54.335" gradientUnits="userSpaceOnUse"><stop stop-color="#2D2E56" stop-opacity="0"/><stop offset=".464" stop-color="#8C8DA3" stop-opacity=".464"/><stop offset="1" stop-color="#fff"/></linearGradient></defs></svg>