<svg width="120" height="87" fill="none" xmlns="http://www.w3.org/2000/svg"><g opacity=".57"><path opacity=".57" d="M119.091 55.769c.052 16.648-26.337 30.228-58.947 30.331-32.61.104-59.077-13.32-59.13-29.969C.964 39.483 27.353 25.904 59.963 25.8c32.61-.104 59.078 13.32 59.129 29.969z" fill="url(#paint0_linear_20_3456)"/><path opacity=".57" d="M59.794 86.813C27.002 86.813.354 73.091.302 56.132.25 39.109 27.015 25.179 59.975 25.076h.363c32.792 0 59.44 13.722 59.492 30.68.052 17.024-26.713 30.953-59.673 31.057h-.363zm.531-60.287h-.363C27.805 26.629 1.69 39.898 1.741 56.132c.051 16.169 26.052 29.244 58.04 29.244h.363c32.157-.104 58.273-13.373 58.222-29.606-.052-16.17-26.052-29.244-58.04-29.244z" fill="#fff"/></g><g opacity=".57"><path opacity=".57" d="M119.091 55.77c.052 16.647-26.337 30.227-58.947 30.33-32.61.104-59.077-13.32-59.13-29.968C.964 39.484 27.353.829 59.963.725c32.61-.104 59.078 38.396 59.129 55.044z" fill="url(#paint1_linear_20_3456)"/><path opacity=".57" d="M59.794 86.813C27.002 86.813.354 73.09.302 56.132.25 39.91 26.03.103 59.975 0h.13c33.79 0 59.673 39.562 59.725 55.77.052 17.023-26.713 30.952-59.673 31.056-.13-.013-.246-.013-.363-.013zm.298-85.363h-.13C27.468 1.553 1.69 40.765 1.741 56.132 1.792 72.3 27.793 85.376 59.78 85.376h.363c32.157-.104 58.273-13.373 58.222-29.607-.039-15.78-25.3-54.32-58.274-54.32z" fill="#fff"/></g><defs><linearGradient id="paint0_linear_20_3456" x1="-39.042" y1="60.687" x2="49.834" y2="56.426" gradientUnits="userSpaceOnUse"><stop stop-color="#2D2E56" stop-opacity="0"/><stop offset=".464" stop-color="#8C8DA3" stop-opacity=".464"/><stop offset="1" stop-color="#fff"/></linearGradient><linearGradient id="paint1_linear_20_3456" x1="-39.641" y1="48.214" x2="49.236" y2="43.953" gradientUnits="userSpaceOnUse"><stop stop-color="#2D2E56" stop-opacity="0"/><stop offset=".464" stop-color="#8C8DA3" stop-opacity=".464"/><stop offset="1" stop-color="#fff"/></linearGradient></defs></svg>